<svg width="120" height="120" viewBox="0 0 120 120" fill="none" xmlns="http://www.w3.org/2000/svg">
<path fill-rule="evenodd" clip-rule="evenodd" d="M83.445 103.418H29.2205C27.109 103.418 25.3867 101.696 25.3867 99.5844V43.5942C25.3867 42.5384 25.7631 41.6298 26.5096 40.8833L44.1419 23.2508C44.8884 22.5043 45.797 22.1279 46.8528 22.1279H83.445C85.5566 22.1279 87.2788 23.8502 87.2788 25.9617V99.5844C87.2789 101.696 85.5566 103.418 83.445 103.418Z" fill="#E2E3E3"/>
<path fill-rule="evenodd" clip-rule="evenodd" d="M77.8993 97.8724H23.6748C21.5631 97.8724 19.8408 96.1501 19.8408 94.0386V38.0483C19.8408 36.9925 20.2172 36.0839 20.9637 35.3374L38.596 17.7049C39.3425 16.9584 40.2511 16.582 41.3071 16.582H77.8993C80.0107 16.582 81.7331 18.3043 81.7331 20.4158V94.0385C81.7331 96.1501 80.0107 97.8724 77.8993 97.8724Z" fill="#EFF4F7"/>
<path fill-rule="evenodd" clip-rule="evenodd" d="M38.5958 17.705L20.9635 35.3375C20.6225 35.6785 20.3588 36.0533 20.1729 36.4604H36.257C38.1634 36.4604 39.7185 34.9056 39.7185 32.9987V16.9146C39.3116 17.1004 38.9368 17.364 38.5958 17.705Z" fill="#E2E3E3"/>
<path fill-rule="evenodd" clip-rule="evenodd" d="M28.9707 45.6747C28.1941 45.6747 27.5645 45.045 27.5645 44.2684C27.5645 43.4918 28.1941 42.8622 28.9707 42.8622H72.6024C73.379 42.8622 74.0087 43.4918 74.0087 44.2684C74.0087 45.045 73.379 45.6747 72.6024 45.6747H28.9707ZM28.9707 55.3164C28.1941 55.3164 27.5645 54.6868 27.5645 53.9102C27.5645 53.1336 28.1941 52.5039 28.9707 52.5039H72.6024C73.379 52.5039 74.0087 53.1336 74.0087 53.9102C74.0087 54.6868 73.379 55.3164 72.6024 55.3164H28.9707ZM48.3073 26.3911C47.5307 26.3911 46.9011 25.7615 46.9011 24.9849C46.9011 24.2083 47.5307 23.5786 48.3073 23.5786H72.6024C73.379 23.5786 74.0087 24.2083 74.0087 24.9849C74.0087 25.7615 73.379 26.3911 72.6024 26.3911H48.3073ZM48.3073 36.0329C47.5307 36.0329 46.9011 35.4032 46.9011 34.6266C46.9011 33.85 47.5307 33.2204 48.3073 33.2204H72.6024C73.379 33.2204 74.0087 33.85 74.0087 34.6266C74.0087 35.4032 73.379 36.0329 72.6024 36.0329H48.3073Z" fill="#8D9CA8"/>
<path fill-rule="evenodd" clip-rule="evenodd" d="M26.1484 84.2283V74.0529L30.3682 62.0878C30.5481 61.5777 31.0084 61.252 31.5493 61.252H53.9264C54.3246 61.252 54.667 61.4188 54.9124 61.7322L64.5605 74.0529H70.9545C73.4169 74.0529 75.4252 76.0612 75.4252 78.5235V84.2283C75.4252 84.6672 75.0673 85.0251 74.6282 85.0251H26.9454C26.5065 85.0251 26.1484 84.6672 26.1484 84.2283Z" fill="#FFDA2D"/>
<path fill-rule="evenodd" clip-rule="evenodd" d="M42.6244 74.0531V62.5767H31.6003L27.5527 74.0531H42.6244Z" fill="#E6F8FF"/>
<path fill-rule="evenodd" clip-rule="evenodd" d="M43.9492 62.5767V74.0531H62.8782C60.2283 70.6691 56.5411 65.9606 53.8914 62.5767C50.798 62.5767 47.0424 62.5767 43.9492 62.5767Z" fill="#E6F8FF"/>
<path fill-rule="evenodd" clip-rule="evenodd" d="M48.7677 77.1274C49.4179 77.1274 49.9451 77.6546 49.9451 78.305C49.9451 78.9552 49.4179 79.4824 48.7677 79.4824H46.9403C46.29 79.4824 45.7627 78.9552 45.7627 78.305C45.7627 77.6548 46.2899 77.1274 46.9403 77.1274H48.7677Z" fill="#FDB800"/>
<path fill-rule="evenodd" clip-rule="evenodd" d="M65.0372 80.731C67.4088 80.731 69.3315 82.6537 69.3315 85.0253C69.3315 87.3971 67.4088 89.3196 65.0372 89.3196C62.6653 89.3196 60.7428 87.3969 60.7428 85.0253C60.7428 82.6537 62.6655 80.731 65.0372 80.731ZM36.5365 80.731C38.9083 80.731 40.8309 82.6537 40.8309 85.0253C40.8309 87.3971 38.9082 89.3196 36.5365 89.3196C34.1649 89.3196 32.2422 87.3969 32.2422 85.0253C32.2422 82.6537 34.1649 80.731 36.5365 80.731Z" fill="#3A484A"/>
<path fill-rule="evenodd" clip-rule="evenodd" d="M65.0367 83.0859C63.9648 83.0859 63.0971 83.9536 63.0971 85.0253C63.0971 86.0971 63.9646 86.9649 65.0367 86.9649C66.1086 86.9649 66.9763 86.0972 66.9763 85.0253C66.9763 83.9536 66.1086 83.0859 65.0367 83.0859ZM36.5361 83.0859C35.4642 83.0859 34.5967 83.9536 34.5967 85.0253C34.5967 86.0971 35.4642 86.9649 36.5361 86.9649C37.608 86.9649 38.4756 86.0972 38.4756 85.0253C38.4756 83.9534 37.608 83.0859 36.5361 83.0859Z" fill="#465759"/>
<path fill-rule="evenodd" clip-rule="evenodd" d="M100.158 34.352C86.2114 26.0774 77.2546 26.0772 63.3076 34.352V50.2547C63.3076 55.6053 65.6075 60.0916 69.9525 63.2144L81.733 71.6812L93.5132 63.2144C97.8581 60.0914 100.158 55.6055 100.158 50.2547V34.352Z" fill="#3CBE52"/>
<path fill-rule="evenodd" clip-rule="evenodd" d="M95.5884 37.0038C85.1604 31.297 78.306 31.2968 67.8779 37.0038V50.2545C67.8779 54.1331 69.4702 57.2395 72.6198 59.5031L81.7332 66.0528L90.846 59.5031C93.9957 57.2393 95.5884 54.1333 95.5884 50.2545V37.0038Z" fill="#72D561"/>
<path fill-rule="evenodd" clip-rule="evenodd" d="M87.2928 40.5044C88.1163 39.6808 89.4516 39.6808 90.2751 40.5044C91.0985 41.3279 91.0985 42.6631 90.2751 43.4867L80.122 53.6398C79.1893 54.5725 77.6486 54.4259 76.8999 53.3538L72.5237 47.8466C71.8003 46.9366 71.9515 45.6124 72.8615 44.8891C73.7715 44.1657 75.0957 44.3169 75.819 45.2267L78.8086 48.9888L87.2928 40.5044Z" fill="#EFF4F7"/>
</svg>
