<svg width="120" height="120" viewBox="0 0 120 120" fill="none" xmlns="http://www.w3.org/2000/svg">
<path d="M60.888 24.4621V21.9689C60.888 21.4824 60.4866 21.0811 60.0001 21.0811C59.5137 21.0811 59.1123 21.4824 59.1123 21.9689V24.4621H60.888Z" fill="#DDDDDB"/>
<path d="M61.6053 24.5595V90.4541C61.6053 94.2609 58.8324 97.6784 55.0378 98.0433C50.6837 98.469 47.0107 95.0514 47.0107 90.7946V89.5298C47.0107 88.6419 47.7283 87.9122 48.6161 87.9122C49.5161 87.9122 50.2337 88.6419 50.2337 89.5298V90.5757C50.2337 92.7041 51.7661 94.6501 53.8824 94.869C56.327 95.1122 58.3824 93.1906 58.3824 90.8068V24.5595C58.3824 23.6717 59.0999 22.9541 59.9878 22.9541C60.8878 22.9541 61.6053 23.6717 61.6053 24.5595Z" fill="#F2F2F2"/>
<path d="M54.2958 98.9188C54.0404 98.9188 53.7728 98.9066 53.5174 98.8823C49.4066 98.4931 46.1836 94.8079 46.1836 90.4904V89.5052C46.1836 88.1552 47.2782 87.0606 48.6282 87.0606C49.9782 87.0606 51.0728 88.1552 51.0728 89.5052V90.7944C51.0728 91.7674 51.4985 92.6796 52.2525 93.2998C53.0066 93.9323 53.9795 94.1634 54.9647 93.9809C56.4363 93.7012 57.5552 92.2539 57.5552 90.6363V78.5471C57.5552 77.1971 58.6498 76.1025 59.9998 76.1025C61.3498 76.1025 62.4444 77.1971 62.4444 78.5471V90.7823C62.4444 93.0688 61.4714 95.2579 59.7809 96.8025C58.2849 98.1647 56.3147 98.9188 54.2958 98.9188Z" fill="#4D4D4D"/>
<path d="M88.1435 51.1701C82.561 51.1701 77.7326 53.4201 75.4583 56.6796C74.7651 57.6647 73.3664 57.6647 72.6732 56.6796C70.3989 53.4201 65.5826 51.1701 59.9881 51.1701C54.4178 51.1701 49.6016 53.4201 47.3272 56.6674C46.634 57.6647 45.2232 57.6647 44.5299 56.6674C42.2435 53.408 37.4394 51.158 31.857 51.158C28.7191 51.158 25.8245 51.8756 23.4772 53.0796C22.1272 53.7729 20.607 52.362 21.2151 50.9634C27.6732 35.931 42.5962 25.4229 59.9759 25.4229C77.3799 25.4229 92.3151 35.9431 98.7853 50.9634C99.3935 52.362 97.8732 53.785 96.5232 53.0796C94.1759 51.8756 91.2813 51.1701 88.1435 51.1701Z" fill="#FF3333"/>
<path d="M73.8169 57.3849C73.3791 57.3363 72.9656 57.1052 72.6615 56.6795C70.3993 53.4079 65.571 51.1579 59.9885 51.1579C54.4183 51.1579 49.602 53.4079 47.3277 56.6552C47.0237 57.0687 46.598 57.3241 46.1602 57.3728C47.9602 38.8741 53.4818 25.4228 59.9642 25.3984H59.9764C66.5075 25.4228 72.0169 38.8741 73.8169 57.3849Z" fill="#FFCC00"/>
<path d="M79.8848 71.6272H78.6321V70.411C78.6321 69.9123 78.2308 69.4988 77.72 69.4988H68.0389C67.5402 69.4988 67.1267 69.9002 67.1267 70.411V71.6272H65.874V70.411C65.874 69.2191 66.847 68.2461 68.0389 68.2461H77.72C78.9119 68.2461 79.8848 69.2191 79.8848 70.411V71.6272Z" fill="#4D4D4D"/>
<path d="M77.8174 71.2988H80.6998V72.6853H77.8174V71.2988Z" fill="#FFCC00"/>
<path d="M65.0713 71.2988H67.9537V72.6853H65.0713V71.2988Z" fill="#FFCC00"/>
<path d="M91.4514 75.3851V96.2188C91.4514 97.7148 90.2473 98.9188 88.7514 98.9188H57.0203C55.5244 98.9188 54.3203 97.7148 54.3203 96.2188V75.3851C54.3203 73.8891 55.5244 72.6851 57.0203 72.6851H88.7514C90.2473 72.6851 91.4514 73.9013 91.4514 75.3851Z" fill="#BC572A"/>
<path d="M91.4514 75.3851V82.281C91.4514 83.7769 90.2473 84.981 88.7514 84.981H57.0203C55.5244 84.981 54.3203 83.7769 54.3203 82.281V75.3851C54.3203 73.8891 55.5244 72.6851 57.0203 72.6851H88.7514C90.2473 72.6851 91.4514 73.9013 91.4514 75.3851Z" fill="#CC6633"/>
<path d="M86.3435 85.4679V88.776C86.3435 89.1166 86.0638 89.3963 85.7232 89.3963H82.9259C82.5854 89.3963 82.3057 89.1166 82.3057 88.776V85.4679C82.3057 85.1274 82.5854 84.8477 82.9259 84.8477H85.7232C86.0638 84.8477 86.3435 85.1274 86.3435 85.4679Z" fill="#FFB000"/>
<path d="M85.6134 87.8638V88.3867C85.6134 88.6056 85.431 88.7881 85.2121 88.7881H83.4121C83.1932 88.7881 83.0107 88.6056 83.0107 88.3867V87.8638C83.0107 87.6448 83.1932 87.4624 83.4121 87.4624H85.2121C85.431 87.4624 85.6134 87.6448 85.6134 87.8638Z" fill="#FFCC00"/>
<path d="M86.3435 83.1934V86.5015C86.3435 86.8421 86.0638 87.1218 85.7232 87.1218H82.9259C82.5854 87.1218 82.3057 86.8421 82.3057 86.5015V83.1934C82.3057 82.8529 82.5854 82.5731 82.9259 82.5731H85.7232C86.0638 82.561 86.3435 82.8407 86.3435 83.1934Z" fill="#FFCC00"/>
<path d="M63.4783 85.4679V88.776C63.4783 89.1166 63.1985 89.3963 62.858 89.3963H60.0607C59.7202 89.3963 59.4404 89.1166 59.4404 88.776V85.4679C59.4404 85.1274 59.7202 84.8477 60.0607 84.8477H62.858C63.1985 84.8477 63.4783 85.1274 63.4783 85.4679Z" fill="#FFB000"/>
<path d="M62.7482 87.8638V88.3867C62.7482 88.6056 62.5658 88.7881 62.3469 88.7881H60.5469C60.3279 88.7881 60.1455 88.6056 60.1455 88.3867V87.8638C60.1455 87.6448 60.3279 87.4624 60.5469 87.4624H62.3469C62.5779 87.4624 62.7482 87.6448 62.7482 87.8638Z" fill="#FFCC00"/>
<path d="M63.4783 83.1934V86.5015C63.4783 86.8421 63.1985 87.1218 62.858 87.1218H60.0607C59.7202 87.1218 59.4404 86.8421 59.4404 86.5015V83.1934C59.4404 82.8529 59.7202 82.5731 60.0607 82.5731H62.858C63.1985 82.561 63.4783 82.8407 63.4783 83.1934Z" fill="#FFCC00"/>
<path d="M49.0419 64.7434C49.7716 64.8042 50.3311 65.4001 50.2825 66.1177L49.9298 71.5177C49.5771 79.3623 44.8581 86.3434 37.7554 89.615C37.4149 89.7731 37.0014 89.7731 36.6608 89.615C29.5581 86.3434 24.8392 79.3623 24.4865 71.5177L24.1338 66.1177C24.0852 65.388 24.6446 64.8042 25.3743 64.7434C29.096 64.4515 32.7933 62.992 36.4541 60.3771C36.9041 60.0488 37.5122 60.0488 37.9622 60.3771C41.623 62.992 45.3203 64.4515 49.0419 64.7434Z" fill="#6699FF"/>
<path d="M37.2083 87.9486C37.1597 87.9486 37.111 87.9365 37.0624 87.9122C30.6529 84.823 26.4691 78.4986 26.1529 71.3959L25.8367 66.6527C25.8245 66.4703 25.9583 66.3243 26.1286 66.3C29.7772 65.8986 33.4381 64.4392 37.0137 61.9703C37.1232 61.8973 37.2813 61.8973 37.3908 61.9703C40.9543 64.4392 44.6151 65.8865 48.2637 66.3C48.4462 66.3243 48.5678 66.4703 48.5556 66.6527L48.2516 71.3594C47.9354 78.4865 43.7516 84.823 37.3421 87.9122C37.3056 87.9365 37.257 87.9486 37.2083 87.9486ZM26.5299 66.9324L26.8218 71.3716C27.1259 78.1824 31.1029 84.2513 37.2083 87.2554C43.3137 84.2513 47.2908 78.1703 47.5948 71.3351L47.8867 66.9324C44.2989 66.4703 40.6989 65.0351 37.2083 62.6635C33.7056 65.0351 30.1178 66.4703 26.5299 66.9324Z" fill="#4F8BED"/>
<path d="M37.2077 82.0746C32.9996 82.0746 29.582 78.657 29.582 74.4489C29.582 70.2408 32.9996 66.8232 37.2077 66.8232C41.4158 66.8232 44.8334 70.2408 44.8334 74.4489C44.8334 78.657 41.4037 82.0746 37.2077 82.0746ZM37.2077 67.4922C33.3766 67.4922 30.251 70.6178 30.251 74.4489C30.251 78.28 33.3766 81.4057 37.2077 81.4057C41.0388 81.4057 44.1645 78.28 44.1645 74.4489C44.1645 70.6178 41.0388 67.4922 37.2077 67.4922Z" fill="#4F8BED"/>
</svg>
