<svg width="120" height="120" viewBox="0 0 120 120" fill="none" xmlns="http://www.w3.org/2000/svg">
<path d="M60 64.9831C59.2717 64.9831 58.6816 64.393 58.6816 63.6648V47.5601C58.6816 46.8318 59.2717 46.2417 60 46.2417C60.7283 46.2417 61.3184 46.8318 61.3184 47.5601V63.6648C61.3184 64.3929 60.7283 64.9831 60 64.9831Z" fill="#B6C4CF"/>
<path d="M60 23.7316C59.2717 23.7316 58.6816 23.1415 58.6816 22.4132V16.3184C58.6816 15.5901 59.2717 15 60 15C60.7283 15 61.3184 15.5901 61.3184 16.3184V22.4132C61.3184 23.1413 60.7283 23.7316 60 23.7316Z" fill="#B6C4CF"/>
<path d="M93.957 49.6924C91.7633 32.8942 77.3965 19.9233 60.0001 19.9233C42.6038 19.9233 28.237 32.8942 26.0432 49.6924C25.8569 51.1189 27.3435 52.1743 28.632 51.5341C29.7521 50.9776 31.1224 50.5654 32.6025 50.5654C34.9838 50.5654 37.0813 51.6325 38.3087 52.6506C38.6432 52.928 39.0539 53.065 39.4638 53.0623L41.2095 48.2997L47.7426 46.8479L53.1547 53.0627C53.5593 53.0618 53.9638 52.9245 54.2939 52.6506C55.5212 51.6323 57.6188 50.5654 60.0001 50.5654C62.3815 50.5654 64.479 51.6325 65.7064 52.6506C66.0365 52.9245 66.4409 53.0618 66.8456 53.0627L72.2577 46.8479L78.7908 48.2997L80.5365 53.0623C80.9464 53.065 81.357 52.928 81.6915 52.6506C82.9189 51.6323 85.0165 50.5654 87.3978 50.5654C88.8778 50.5654 90.2482 50.9776 91.3683 51.5341C92.6566 52.1743 94.1434 51.1191 93.957 49.6924Z" fill="#FE76A8"/>
<path d="M93.9569 49.6922C92.3358 37.2784 84.0658 26.9563 72.8389 22.4131C75.1105 26.4541 76.4078 31.1164 76.4078 36.0824C76.4078 40.0547 75.5765 43.832 74.0816 47.2533L78.7906 48.2997L80.5363 53.0623C80.9463 53.0649 81.3569 52.928 81.6914 52.6506C82.9187 51.6323 85.0163 50.5653 87.3976 50.5653C88.8777 50.5653 90.2481 50.9775 91.3681 51.5341C92.6564 52.1741 94.1432 51.1189 93.9569 49.6922Z" fill="#FE5694"/>
<path d="M60.0002 19.9233C48.8743 19.9233 39.8149 34.6614 39.4639 53.0625C39.8659 53.0599 40.2672 52.9229 40.5954 52.6508C41.8227 51.6325 43.9203 50.5655 46.3016 50.5655C48.6829 50.5655 50.7803 51.6325 52.0078 52.6508C52.34 52.9264 52.7477 53.0637 53.1549 53.0629L55.6204 48.6298L60.0002 46.0066L65.5435 50.2136L66.8457 53.0629C67.2529 53.0637 67.6606 52.9264 67.9928 52.6508C69.2201 51.6325 71.3177 50.5655 73.699 50.5655C76.0803 50.5655 78.1778 51.6325 79.4052 52.6508C79.7332 52.9229 80.1345 53.0599 80.5367 53.0625C80.1855 34.6614 71.1261 19.9233 60.0002 19.9233Z" fill="#DFF6FD"/>
<path d="M76.2655 33.2427C76.3597 34.1764 76.4082 35.1239 76.4082 36.0824C76.4082 41.4374 74.9005 46.4396 72.2881 50.69C72.7437 50.6113 73.2152 50.5654 73.6993 50.5654C76.0806 50.5654 78.1782 51.6324 79.4055 52.6507C79.7335 52.9228 80.1348 53.0597 80.537 53.0624C80.3946 45.6096 78.8235 38.758 76.2655 33.2427Z" fill="#C8EFFE"/>
<path d="M53.1543 53.0627C53.5589 53.0618 53.9634 52.9245 54.2935 52.6506C55.5208 51.6323 57.6184 50.5654 59.9997 50.5654C62.3811 50.5654 64.4787 51.6323 65.706 52.6506C66.0361 52.9245 66.4405 53.0618 66.8452 53.0627C66.7283 34.6615 63.7084 19.9233 59.9997 19.9233C56.2911 19.9233 53.2712 34.6615 53.1543 53.0627Z" fill="#FE76A8"/>
<path d="M64.4541 61.2693L66.8645 63.0025C68.704 64.3253 70.9125 65.0368 73.1783 65.0368H75.9158C77.0807 65.0368 78.0252 65.9813 78.0252 67.1462V83.2678C78.0252 90.1402 74.7895 96.6115 69.2916 100.735L66.4893 102.837C64.6173 104.241 62.3404 105 60.0004 105C57.6604 105 55.3835 104.241 53.5114 102.837L50.7091 100.735C45.2112 96.6117 41.9756 90.1405 41.9756 83.268V67.1464C41.9756 65.9815 42.9201 65.037 44.085 65.037H46.8224C49.0882 65.037 51.2967 64.3254 53.1363 63.0027L55.5466 61.2695C56.0984 60.8726 56.7611 60.6592 57.4408 60.6592H62.5599C63.2397 60.659 63.9022 60.8726 64.4541 61.2693Z" fill="#6CF5C2"/>
<path d="M73.1779 65.037C72.0853 65.037 71.0065 64.87 69.9755 64.5503C70.6287 66.6985 70.9813 68.9779 70.9813 71.3397C70.9813 84.21 60.5479 94.6437 47.6773 94.6437C46.8019 94.6437 45.9383 94.5938 45.0879 94.4997C46.5226 96.8916 48.4186 99.0177 50.7088 100.735L53.5112 102.837C55.3832 104.241 57.6601 105 60.0001 105C62.3401 105 64.617 104.241 66.4891 102.837L69.2914 100.735C74.7893 96.6117 78.0249 90.1404 78.0249 83.268V67.1464C78.0249 65.9815 77.0804 65.037 75.9155 65.037H73.1779Z" fill="#00F2A6"/>
<path d="M71.9132 87.6409C71.3982 87.1263 70.5636 87.1263 70.0487 87.6409L68.8204 88.8695L65.1676 85.2166C64.9203 84.9694 64.5851 84.8305 64.2353 84.8305H57.232V81.9115H62.9611C63.6893 81.9115 64.2794 81.3214 64.2794 80.5932C64.2794 79.8649 63.6893 79.2748 62.9611 79.2748H57.232V76.1818C58.7808 75.6363 59.8944 74.1594 59.8944 72.4265C59.8944 70.2316 58.1086 68.4458 55.9136 68.4458C53.7187 68.4458 51.9329 70.2316 51.9329 72.4265C51.9329 74.1594 53.0465 75.6365 54.5953 76.1818V77.8881C50.6066 78.5223 47.5479 81.9846 47.5479 86.1489C47.5479 90.7618 51.3008 94.5147 55.9136 94.5147C59.9341 94.5147 63.3003 91.6635 64.0989 87.877L67.888 91.6663C68.1455 91.9237 68.483 92.0523 68.8204 92.0523C69.1577 92.0523 69.4952 91.9237 69.7527 91.6663L71.9134 89.5056C72.4281 88.9906 72.4281 88.156 71.9132 87.6409ZM55.9136 71.0823C56.6547 71.0823 57.2577 71.6854 57.2577 72.4264C57.2577 73.1673 56.6547 73.7704 55.9136 73.7704C55.1725 73.7704 54.5696 73.1675 54.5696 72.4264C54.5696 71.6853 55.1725 71.0823 55.9136 71.0823ZM55.9136 91.878C52.7547 91.878 50.1846 89.3079 50.1846 86.1489C50.1846 83.4438 52.07 81.172 54.5953 80.5747V86.1489C54.5953 86.8772 55.1854 87.4673 55.9136 87.4673H61.4878C60.8905 89.9925 58.6187 91.878 55.9136 91.878Z" fill="#7A8C98"/>
</svg>
