<svg width="120" height="120" viewBox="0 0 120 120" fill="none" xmlns="http://www.w3.org/2000/svg">
<g clip-path="url(#clip0_224_1132)">
<path d="M16.5 48.2536V76.8181C16.5093 78.2734 16.8802 79.7036 17.5793 80.98C18.2784 82.2564 19.2837 83.3391 20.505 84.1306L30.69 90.3736C31.396 90.8062 31.9792 91.4128 32.3836 92.1353C32.7881 92.8578 33.0003 93.6721 33 94.5001V100.5C33 101.296 33.3161 102.059 33.8787 102.621C34.4413 103.184 35.2044 103.5 36 103.5H46.5C47.2956 103.5 48.0587 103.184 48.6213 102.621C49.1839 102.059 49.5 101.296 49.5 100.5V80.1001C49.5048 79.1183 49.2905 78.1478 48.8728 77.2593C48.455 76.3708 47.8442 75.5867 47.085 74.9641L29.37 58.8391C28.8022 58.3134 28.0721 57.9971 27.3003 57.9426C26.5284 57.888 25.761 58.0985 25.125 58.5391C24.7702 58.8072 24.474 59.1452 24.2547 59.5322C24.0354 59.9191 23.8977 60.3469 23.85 60.7891C23.8011 61.2139 23.8384 61.6441 23.9595 62.0541C24.0806 62.4642 24.2832 62.8456 24.555 63.1756L34.035 75.0001L25.365 73.3141C25.0858 73.2581 24.833 73.1114 24.6458 72.8968C24.4586 72.6822 24.3476 72.4118 24.33 72.1276C24.33 72.1276 23.205 48.3136 23.205 48.2386C23.1699 47.6218 22.9677 47.0262 22.6202 46.5154C22.2727 46.0046 21.7929 45.5979 21.2321 45.3387C20.6713 45.0796 20.0505 44.9778 19.4363 45.0441C18.8221 45.1105 18.2375 45.3426 17.745 45.7156C17.3642 46.0216 17.0554 46.4076 16.8402 46.8461C16.6251 47.2847 16.5089 47.7652 16.5 48.2536Z" fill="#EEB183"/>
<path d="M103.5 48.2535V76.818C103.491 78.2733 103.12 79.7035 102.421 80.9799C101.722 82.2563 100.716 83.339 99.4951 84.1305L89.3101 90.3735C88.6041 90.8061 88.0209 91.4127 87.6165 92.1352C87.212 92.8577 86.9998 93.672 87.0001 94.5V100.5C87.0001 101.296 86.684 102.059 86.1214 102.621C85.5588 103.184 84.7957 103.5 84.0001 103.5H73.5001C72.7044 103.5 71.9414 103.184 71.3788 102.621C70.8161 102.059 70.5001 101.296 70.5001 100.5V80.1C70.4953 79.1182 70.7095 78.1477 71.1273 77.2592C71.5451 76.3707 72.1559 75.5866 72.9151 74.964L90.6301 58.839C91.1978 58.3133 91.928 57.997 92.6998 57.9425C93.4717 57.8879 94.239 58.0983 94.8751 58.539C95.2299 58.8071 95.5261 59.1451 95.7454 59.5321C95.9647 59.919 96.1024 60.3468 96.1501 60.789C96.199 61.2137 96.1617 61.644 96.0406 62.054C95.9195 62.4641 95.7169 62.8455 95.4451 63.1755L85.9651 75L94.6351 73.3185C94.9143 73.2625 95.1671 73.1158 95.3543 72.9012C95.5415 72.6866 95.6525 72.4162 95.6701 72.132C95.6701 72.132 96.7951 48.318 96.7951 48.243C96.8302 47.6262 97.0324 47.0306 97.3799 46.5198C97.7274 46.009 98.2072 45.6023 98.768 45.3431C99.3288 45.084 99.9495 44.9822 100.564 45.0485C101.178 45.1149 101.763 45.347 102.255 45.72C102.635 46.0255 102.944 46.4108 103.159 46.8485C103.374 47.2862 103.49 47.7658 103.5 48.2535Z" fill="#EEB183"/>
<path d="M61.0501 73.2302L66.3106 70.3622C72.1345 67.161 76.9894 62.4513 80.3659 56.7273C83.7423 51.0032 85.5157 44.4758 85.5001 37.8302V24.1067C85.5044 23.5952 85.3096 23.1022 84.9569 22.7318C84.6041 22.3614 84.1212 22.1428 83.6101 22.1222C71.1781 21.7817 63.4666 18.1502 60.9271 16.7402C60.6434 16.583 60.3244 16.5005 60.0001 16.5005C59.6758 16.5005 59.3568 16.583 59.0731 16.7402C56.5336 18.1502 48.8221 21.7817 36.3901 22.1222C35.8791 22.1428 35.3961 22.3614 35.0434 22.7318C34.6906 23.1022 34.4958 23.5952 34.5001 24.1067V37.8302C34.4839 44.4752 36.2564 51.0022 39.6318 56.7262C43.0071 62.4502 47.8608 67.1603 53.6836 70.3622L58.9501 73.2302C59.2724 73.4052 59.6334 73.4968 60.0001 73.4968C60.3669 73.4968 60.7278 73.4052 61.0501 73.2302Z" fill="#EA3B48"/>
<path d="M73.5 42V45C73.5 45.3978 73.342 45.7794 73.0607 46.0607C72.7794 46.342 72.3978 46.5 72 46.5H63V55.5C63 55.8978 62.842 56.2794 62.5607 56.5607C62.2794 56.842 61.8978 57 61.5 57H58.5C58.1022 57 57.7206 56.842 57.4393 56.5607C57.158 56.2794 57 55.8978 57 55.5V46.5H48C47.6022 46.5 47.2206 46.342 46.9393 46.0607C46.658 45.7794 46.5 45.3978 46.5 45V42C46.5 41.6022 46.658 41.2206 46.9393 40.9393C47.2206 40.658 47.6022 40.5 48 40.5H57V31.5C57 31.1022 57.158 30.7206 57.4393 30.4393C57.7206 30.158 58.1022 30 58.5 30H61.5C61.8978 30 62.2794 30.158 62.5607 30.4393C62.842 30.7206 63 31.1022 63 31.5V40.5H72C72.3978 40.5 72.7794 40.658 73.0607 40.9393C73.342 41.2206 73.5 41.6022 73.5 42Z" fill="white"/>
<path d="M40.0649 80.115C39.7999 80.3247 39.4729 80.4408 39.1349 80.445C38.9091 80.4472 38.6858 80.3969 38.4827 80.298C38.2797 80.199 38.1024 80.0542 37.9649 79.875L34.0349 75L24.5549 63.18C24.2831 62.8503 24.0806 62.4691 23.9595 62.0593C23.8383 61.6495 23.8011 61.2195 23.8499 60.795C23.9305 60.0211 24.2873 59.3022 24.8549 58.77L40.3049 78C40.5503 78.3136 40.6626 78.711 40.6177 79.1066C40.5728 79.5023 40.3743 79.8644 40.0649 80.115Z" fill="#DD9F76"/>
<path d="M79.9346 80.115C80.1996 80.3247 80.5266 80.4408 80.8646 80.445C81.0904 80.4472 81.3137 80.3969 81.5168 80.298C81.7198 80.199 81.8971 80.0542 82.0346 79.875L85.9646 75L95.4446 63.18C95.7164 62.8503 95.9189 62.4691 96.04 62.0593C96.1611 61.6495 96.1984 61.2195 96.1496 60.795C96.0689 60.0211 95.7122 59.3022 95.1446 58.77L79.6946 78C79.4492 78.3136 79.3369 78.711 79.3818 79.1066C79.4266 79.5023 79.6252 79.8644 79.9346 80.115Z" fill="#DD9F76"/>
<path d="M60.0002 74.9999C59.3804 75.0008 58.7702 74.8461 58.2257 74.5499L52.9667 71.6804C46.9031 68.3538 41.8485 63.4541 38.3348 57.4971C34.821 51.5401 32.9782 44.7459 33.0002 37.8299V24.1064C33.0006 23.2059 33.3494 22.3404 33.9734 21.6912C34.5975 21.042 35.4484 20.6594 36.3482 20.6234C48.3347 20.2934 55.7237 16.8734 58.3457 15.4274C58.8515 15.1452 59.421 14.9971 60.0002 14.9971C60.5794 14.9971 61.1489 15.1452 61.6547 15.4274C64.2767 16.8794 71.6657 20.2934 83.6522 20.6234C84.552 20.6594 85.4029 21.042 86.027 21.6912C86.651 22.3404 86.9998 23.2059 87.0002 24.1064V37.8299C87.0217 44.7454 85.1786 51.5389 81.6649 57.4954C78.1512 63.4519 73.0968 68.351 67.0337 71.6774L61.7747 74.5499C61.2302 74.8459 60.62 75.0007 60.0002 74.9999ZM60.0002 17.9999C59.9298 17.9994 59.8604 18.0176 59.7992 18.0524C56.9867 19.6109 49.0787 23.2754 36.4307 23.6219C36.3103 23.6314 36.1982 23.6872 36.118 23.7775C36.0378 23.8678 35.9956 23.9857 36.0002 24.1064V37.8299C35.9789 44.2063 37.6767 50.4706 40.9151 55.9635C44.1534 61.4564 48.8126 65.9749 54.4022 69.0434L59.6612 71.9129C59.7651 71.9697 59.8817 71.9995 60.0002 71.9995C60.1187 71.9995 60.2352 71.9697 60.3392 71.9129L65.5982 69.0434C71.1878 65.9749 75.847 61.4564 79.0853 55.9635C82.3237 50.4706 84.0215 44.2063 84.0002 37.8299V24.1064C84.0048 23.9857 83.9626 23.8678 83.8824 23.7775C83.8022 23.6872 83.6901 23.6314 83.5697 23.6219C70.9217 23.2754 63.0197 19.6109 60.2012 18.0509C60.1396 18.0172 60.0704 17.9997 60.0002 17.9999Z" fill="#D6E9EA"/>
</g>
<defs>
<clipPath id="clip0_224_1132">
<rect width="90" height="90" fill="white" transform="translate(15 15)"/>
</clipPath>
</defs>
</svg>
