<svg width="120" height="120" viewBox="0 0 120 120" fill="none" xmlns="http://www.w3.org/2000/svg">
<path d="M23.4375 78.2812H82.5V83.9062H23.4375V78.2812Z" fill="#EF5350"/>
<path d="M82.5 78.2812V83.9062H23.4375V81.0938H71.25C71.9959 81.0938 72.7113 80.7974 73.2387 80.27C73.7662 79.7425 74.0625 79.0272 74.0625 78.2812H82.5Z" fill="#E53935"/>
<path d="M52.9688 19.2188C52.0576 19.2187 51.1726 19.5239 50.4551 20.0854L19.2188 44.5312L23.1703 49.5656L52.9688 26.25L82.7672 49.5656L86.7188 44.5312L55.4824 20.0854C54.7649 19.5239 53.8799 19.2187 52.9688 19.2188Z" fill="#EF5350"/>
<path d="M78.2812 37.9275V19.2188H67.0312V29.123L78.2812 37.9275Z" fill="#757575"/>
<path d="M78.2812 46.05V78.2812H27.6562V46.05L52.9688 26.25L78.2812 46.05Z" fill="#EEEEEE"/>
<path d="M78.2053 45.9909L52.9688 26.25L27.6562 46.05V51.412L52.9688 31.6064L74.0625 48.1102V78.2812H78.2812V46.05L78.2053 45.9909Z" fill="#E0E0E0"/>
<path d="M71.25 65.625H55.7812V52.9688H71.25V65.625Z" fill="#64B5F6"/>
<path d="M71.25 52.9688V65.625H55.7812V61.4062H61.4062C62.8981 61.4062 64.3288 60.8136 65.3837 59.7587C66.4386 58.7038 67.0312 57.2731 67.0312 55.7812V52.9688H71.25Z" fill="#42A5F5"/>
<path d="M34.6875 52.9688H48.75V78.2812H34.6875V52.9688Z" fill="#757575"/>
<path d="M48.75 52.9688V78.2812H34.6875V74.0625H38.9062C40.3981 74.0625 41.8288 73.4699 42.8837 72.415C43.9386 71.3601 44.5312 69.9293 44.5312 68.4375V52.9688H48.75Z" fill="#616161"/>
<path d="M82.5 58.5938C77.3679 62.9225 70.9289 65.399 64.2188 65.625V78.2812C64.2188 94.8549 82.5 100.781 82.5 100.781C82.5 100.781 100.781 94.8549 100.781 78.2812V65.625C94.0711 65.399 87.6321 62.9225 82.5 58.5938Z" fill="#FFB74D"/>
<path d="M100.782 65.6248V78.2811C100.782 94.8607 82.5004 100.781 82.5004 100.781C79.176 99.5753 76.0627 97.8526 73.2754 95.6764C74.6113 96.2811 75.4691 96.5623 75.4691 96.5623C75.4691 96.5623 93.7504 90.642 93.7504 74.0623V64.6123C96.0362 65.2725 98.4024 65.6132 100.782 65.6248Z" fill="#FFA726"/>
<path d="M79.6871 88.125C79.5024 88.1252 79.3195 88.0889 79.1489 88.0182C78.9783 87.9475 78.8233 87.8437 78.6929 87.7129L70.2554 79.2754C69.9957 79.0109 69.8509 78.6546 69.8526 78.2839C69.8542 77.9132 70.0022 77.5581 70.2644 77.296C70.5265 77.0338 70.8816 76.8858 71.2523 76.8841C71.623 76.8825 71.9794 77.0273 72.2439 77.287L79.6871 84.7302L92.7554 71.6619C93.0197 71.401 93.3764 71.2552 93.7478 71.2564C94.1192 71.2575 94.475 71.4056 94.7377 71.6682C95.0003 71.9308 95.1483 72.2867 95.1495 72.658C95.1506 73.0294 95.0048 73.3862 94.7438 73.6504L80.6814 87.7129C80.5509 87.8437 80.396 87.9475 80.2254 88.0182C80.0547 88.0889 79.8718 88.1252 79.6871 88.125Z" fill="#EEEEEE"/>
<path d="M93.7295 74.6655L94.7445 73.6505C94.9411 73.4538 95.075 73.2033 95.1293 72.9305C95.1835 72.6578 95.1557 72.3751 95.0493 72.1181C94.9428 71.8612 94.7626 71.6416 94.5314 71.4871C94.3002 71.3325 94.0284 71.25 93.7503 71.25V74.0625C93.7503 74.2676 93.735 74.4637 93.7295 74.6655Z" fill="#E0E0E0"/>
<path d="M67.0312 23.7666V29.123L78.2812 37.9275V32.5711L67.0312 23.7666Z" fill="#616161"/>
</svg>
