<svg width="120" height="120" viewBox="0 0 120 120" fill="none" xmlns="http://www.w3.org/2000/svg">
<path d="M50.1562 48.75H55.7812V68.4375H50.1562V48.75Z" fill="#857970"/>
<path d="M75.293 25.8127C74.1188 26.0995 72.9009 26.25 71.6606 26.25H68.4375V38.8697C68.4375 43.4934 69.9534 47.94 72.6844 51.5639L72.6675 51.5766C71.385 49.8609 69.3375 48.75 67.0312 48.75C63.1486 48.75 60 51.8986 60 55.7812C60 51.8986 56.8514 48.75 52.9688 48.75C49.0861 48.75 45.9375 51.8986 45.9375 55.7812C45.9375 51.8986 42.7889 48.75 38.9062 48.75C35.0236 48.75 31.875 51.8986 31.875 55.7812C31.875 51.8986 28.7264 48.75 24.8438 48.75C20.9611 48.75 17.8125 51.8986 17.8125 55.7812V57.1875V52.9688C17.8125 33.5527 33.5527 17.8125 52.9688 17.8125C61.4442 17.8125 69.2194 20.812 75.2916 25.807L75.293 25.8127Z" fill="#E4725F"/>
<path d="M102.188 26.25V38.8697C102.188 45.1303 99.4073 51.0661 94.598 55.0739L85.3125 62.8125L76.027 55.0753C71.2177 51.0675 68.4375 45.1303 68.4375 38.8697V26.25H71.6606C77.4417 26.25 82.7278 22.9833 85.3125 17.8125C87.8986 22.9833 93.1833 26.25 98.9644 26.25H102.188Z" fill="#F0D365"/>
<path d="M85.3125 51.5625C91.5257 51.5625 96.5625 46.5257 96.5625 40.3125C96.5625 34.0993 91.5257 29.0625 85.3125 29.0625C79.0993 29.0625 74.0625 34.0993 74.0625 40.3125C74.0625 46.5257 79.0993 51.5625 85.3125 51.5625Z" fill="#645B54"/>
<path d="M83.2031 51.3588C88.2514 51.3588 92.3438 46.4133 92.3438 40.3127C92.3438 34.2121 88.2514 29.2666 83.2031 29.2666C78.1549 29.2666 74.0625 34.2121 74.0625 40.3127C74.0625 46.4133 78.1549 51.3588 83.2031 51.3588Z" fill="#857970"/>
<path d="M17.8125 68.4375H88.125V102.188H17.8125V68.4375Z" fill="#5F986E"/>
<path d="M76.875 96.5625C76.875 93.4561 79.3936 90.9375 82.5 90.9375V79.6875C79.3936 79.6875 76.875 77.1689 76.875 74.0625H29.0625C29.0625 77.1689 26.5439 79.6875 23.4375 79.6875V90.9375C26.5439 90.9375 29.0625 93.4561 29.0625 96.5625H76.875Z" fill="#7ECB92"/>
<path d="M52.9688 96.5625C59.182 96.5625 64.2188 91.5257 64.2188 85.3125C64.2188 79.0993 59.182 74.0625 52.9688 74.0625C46.7555 74.0625 41.7188 79.0993 41.7188 85.3125C41.7188 91.5257 46.7555 96.5625 52.9688 96.5625Z" fill="#B49E4C"/>
<path d="M50.8594 96.3588C55.9076 96.3588 60 91.4133 60 85.3127C60 79.2121 55.9076 74.2666 50.8594 74.2666C45.8111 74.2666 41.7188 79.2121 41.7188 85.3127C41.7188 91.4133 45.8111 96.3588 50.8594 96.3588Z" fill="#F0D365"/>
<path d="M83.9063 44.5313C83.5463 44.5313 83.1863 44.3935 82.9121 44.1193L80.0996 41.3068L82.088 39.3184L83.9063 41.1366L88.5371 36.5059L90.5255 38.4943L84.9005 44.1193C84.6263 44.3935 84.2663 44.5313 83.9063 44.5313Z" fill="white"/>
</svg>
