<svg width="120" height="120" viewBox="0 0 120 120" fill="none" xmlns="http://www.w3.org/2000/svg">
<path fill-rule="evenodd" clip-rule="evenodd" d="M49.4218 16.582C50.5753 16.582 51.5194 17.526 51.5194 18.6796L51.5196 60.6247H47.3244L47.3242 18.6796C47.3242 17.526 48.2682 16.582 49.4218 16.582Z" fill="#8D9CA8"/>
<path fill-rule="evenodd" clip-rule="evenodd" d="M76.66 48.1356C76.3993 33.2842 64.2737 21.3809 49.4218 21.3809C34.5698 21.3809 22.4443 33.2842 22.1836 48.1356C26.6797 43.9791 34.2037 44.6517 37.72 50.1536C42.741 43.1795 56.1023 43.1795 61.1234 50.1536C64.6399 44.6517 72.1637 43.9789 76.66 48.1356Z" fill="#64B5F6"/>
<path fill-rule="evenodd" clip-rule="evenodd" d="M61.1236 50.1534C61.8976 32.6163 55.7178 21.3809 49.4219 21.3809C43.1259 21.3809 36.9462 32.6163 37.7201 50.1534C42.7413 43.1793 56.1025 43.1793 61.1236 50.1534Z" fill="#42A5F5"/>
<path d="M56.9639 71.2809C61.1339 67.1109 61.1339 60.35 56.9639 56.18C52.7939 52.01 46.033 52.01 41.863 56.18C37.693 60.35 37.693 67.1109 41.863 71.2809C46.033 75.4509 52.7939 75.4509 56.9639 71.2809Z" fill="#FFD6BD"/>
<path fill-rule="evenodd" clip-rule="evenodd" d="M69.1728 95.328C68.8522 84.7353 60.0888 76.1694 49.422 76.1694C38.7552 76.1694 29.9918 84.7353 29.6712 95.328C29.6661 95.4918 29.7218 95.6342 29.8358 95.752C29.9498 95.8696 30.091 95.9294 30.2548 95.9294H68.589C68.7528 95.9294 68.894 95.8696 69.0081 95.752C69.122 95.6344 69.1777 95.4917 69.1728 95.328Z" fill="#FFDA2D"/>
<path fill-rule="evenodd" clip-rule="evenodd" d="M97.8156 69.5428C85.1592 62.034 77.0312 62.0338 64.375 69.5428V83.9741C64.375 88.8296 66.4622 92.9006 70.405 95.7344L81.0951 103.418L91.7851 95.7344C95.728 92.9005 97.8155 88.8296 97.8155 83.9739L97.8156 69.5428Z" fill="#3CBE52"/>
<path fill-rule="evenodd" clip-rule="evenodd" d="M93.2452 72.2003C84.1111 67.2517 78.0786 67.2515 68.9443 72.2003V83.9739C68.9443 87.3574 70.3239 90.0486 73.0715 92.0233L81.0947 97.7898L89.1175 92.0235C91.8652 90.0486 93.245 87.3575 93.245 83.9739V72.2003H93.2452Z" fill="#72D561"/>
<path fill-rule="evenodd" clip-rule="evenodd" d="M85.9318 75.362C86.6495 74.6443 87.8132 74.6443 88.5309 75.362C89.2485 76.0797 89.2485 77.2434 88.5309 77.9611L79.6819 86.8099C78.8691 87.6228 77.5263 87.495 76.8738 86.5607L73.0597 81.761C72.4292 80.9679 72.561 79.8138 73.3541 79.1833C74.1473 78.5528 75.3013 78.6846 75.9318 79.4778L78.5372 82.7564L85.9318 75.362Z" fill="#EFF4F7"/>
</svg>
