<svg width="120" height="120" viewBox="0 0 120 120" fill="none" xmlns="http://www.w3.org/2000/svg">
<g clip-path="url(#clip0_224_1185)">
<path d="M69.375 82.5H16.875C16.2075 82.5 15.5887 82.1437 15.2512 81.5662C14.9175 80.9887 14.9137 80.2763 15.2475 79.695C22.9837 66.1538 26.5912 53.1562 26.5912 38.7937V28.4663C26.5912 21.0413 32.6325 15 40.0575 15H51.6487C55.8637 15 59.8912 17.0138 62.4225 20.385L64.1587 22.7063C65.985 25.14 68.8912 26.5913 71.9325 26.5913H74.8312C79.0575 26.5913 82.5 30.03 82.5 34.26V36.4725C82.5 39.3975 80.8725 42.0263 78.2587 43.335L63.0487 50.94C61.2412 51.8437 60.4125 54.0263 61.1625 55.905L71.1037 79.9088C71.3437 80.4863 71.2762 81.15 70.9312 81.6675C70.5862 82.185 70.0012 82.5 69.375 82.5Z" fill="#CFD8DC"/>
<path d="M40.0504 52.5C38.2091 52.5 36.5291 51.4238 35.7604 49.7588L26.5879 30.3375V28.4625C26.5879 21.0375 32.6291 15 40.0504 15H47.8429L44.8054 48.1688C44.6179 50.5875 42.5291 52.5 40.0504 52.5Z" fill="#90A4AE"/>
<path d="M48.7495 15H47.842L44.8045 48.1688C44.617 50.5875 42.5283 52.5 40.0495 52.5C38.2083 52.5 36.5283 51.4238 35.7595 49.7588L26.5908 30.345V38.7937C26.5908 53.1562 22.987 66.15 15.247 79.695C14.917 80.2763 14.917 80.9887 15.2508 81.5662C15.5883 82.1437 16.207 82.5 16.8745 82.5H48.7495V15Z" fill="#B4BCC0"/>
<path d="M47.8429 15H40.0504C32.6291 15 26.5879 21.0375 26.5879 28.4625V30.3375L26.5916 30.345L35.7604 49.7588C36.5291 51.4238 38.2091 52.5 40.0504 52.5C42.5291 52.5 44.6179 50.5875 44.8054 48.1688L47.8429 15Z" fill="#7D8F97"/>
<path d="M103.091 59.3474L83.4037 52.6499C82.8187 52.4474 82.1813 52.4474 81.5963 52.6499L61.9087 59.3474C60.765 59.7374 60 60.8062 60 62.0099V77.0774C60 95.4674 80.5275 104.407 81.4013 104.779C82.1063 105.079 82.89 105.079 83.5987 104.779C84.4725 104.407 105 95.4674 105 77.0774V62.0099C105 60.8062 104.235 59.7374 103.091 59.3474Z" fill="#00BCD4"/>
<path d="M94.8227 73.5673L84.5102 86.6923C83.1939 88.3686 80.7377 88.6123 79.1214 87.2248L72.5589 81.5998C70.9839 80.2536 70.8002 77.8836 72.1539 76.3123C73.5002 74.7411 75.8702 74.5573 77.4377 75.9073L81.0302 78.9823L88.9239 68.9361C90.2027 67.3048 92.5577 67.0198 94.1889 68.3023C95.8202 69.5811 96.1052 71.9398 94.8227 73.5673Z" fill="white"/>
<path d="M82.5 52.5C82.1925 52.5 81.8888 52.5487 81.5963 52.65L61.9087 59.3475C60.765 59.7375 60 60.8063 60 62.01V77.0775C60 95.4675 80.5275 104.408 81.4013 104.779C81.7538 104.925 82.1288 105 82.5 105V88.005C82.1925 88.0838 81.8738 88.125 81.5588 88.125C80.6963 88.125 79.83 87.8288 79.125 87.225L72.5625 81.6C70.9875 80.2538 70.8037 77.8838 72.1575 76.3125C72.9 75.4463 73.95 75.0037 75.0075 75.0037C75.87 75.0037 76.7362 75.3 77.4412 75.9075L81.0337 78.9825L82.5 77.1113V52.5Z" fill="#00A4B9"/>
<path d="M75.0034 75.0039C73.9459 75.0039 72.8959 75.4464 72.1534 76.3127C70.8034 77.8839 70.9834 80.2539 72.5584 81.6002L79.1209 87.2252C79.8259 87.8327 80.6921 88.1252 81.5546 88.1252C81.8734 88.1252 82.1884 88.0839 82.4959 88.0052V77.1114L81.0259 78.9789L77.4334 75.9039C76.7321 75.3002 75.8659 75.0039 75.0034 75.0039Z" fill="#DEDEDE"/>
</g>
<defs>
<clipPath id="clip0_224_1185">
<rect width="90" height="90" fill="white" transform="translate(15 15)"/>
</clipPath>
</defs>
</svg>
