<svg width="120" height="120" viewBox="0 0 120 120" fill="none" xmlns="http://www.w3.org/2000/svg">
<path fill-rule="evenodd" clip-rule="evenodd" d="M26.751 80.4497L32.1411 100.566C33.4437 99.4826 34.6082 98.6093 35.6937 97.9283C36.9665 97.0795 38.2594 96.494 39.641 96.2106C41.1056 95.8917 42.5643 95.951 44.2134 96.3285C44.2152 96.3289 44.217 96.3294 44.2187 96.3298L55.1595 98.838C57.6507 99.4091 59.9921 99.1885 62.2061 97.9102L89.5661 82.1144C92.0073 80.7049 92.8512 77.5544 91.4418 75.1126C90.0326 72.6712 86.8815 71.8268 84.4403 73.2363L65.3868 84.2364C65.4012 84.1886 65.4149 84.1404 65.4281 84.0919C66.246 81.0869 64.4511 77.9496 61.4461 77.1315L42.3454 71.9327C39.8103 71.5972 37.5086 72.211 35.4783 73.7662L26.751 80.4497Z" fill="#FFD6BD"/>
<path fill-rule="evenodd" clip-rule="evenodd" d="M59.1409 85.5637C61.7261 86.2661 64.4015 85.043 65.6235 82.7781C65.611 83.214 65.5476 83.6545 65.4284 84.0924C64.6093 87.1014 61.4768 88.8954 58.4682 88.0742C54.7502 87.0594 51.0268 86.0803 47.3036 85.0827C46.6105 84.8971 46.1955 84.1782 46.3813 83.4852C46.5669 82.7921 47.2857 82.3771 47.9788 82.5629C51.6946 83.5584 55.4068 84.5491 59.1409 85.5637Z" fill="#F9C6AA"/>
<path fill-rule="evenodd" clip-rule="evenodd" d="M28.128 76.1888L34.717 100.779C34.8779 101.379 34.5187 102.001 33.9188 102.162L29.374 103.38C28.7744 103.54 28.1521 103.181 27.9915 102.581L21.4027 77.9909C21.2418 77.391 21.6013 76.7689 22.2009 76.6082L26.7455 75.3904C27.3453 75.2297 27.9672 75.5889 28.128 76.1888Z" fill="#64B5F6"/>
<path fill-rule="evenodd" clip-rule="evenodd" d="M45.1621 33.8629L65.5195 19.7261L85.2754 34.6211V64.658C85.2754 65.9878 84.191 67.0726 82.8609 67.0726H47.5766C46.2467 67.0726 45.1621 65.988 45.1621 64.658V33.8629Z" fill="#E6F8FF"/>
<path fill-rule="evenodd" clip-rule="evenodd" d="M69.7454 46.3965H60.6914C58.7976 46.3965 57.248 47.946 57.248 49.8399V67.0729H73.1888V49.8399C73.1888 47.946 71.6393 46.3965 69.7454 46.3965Z" fill="#DA8C36"/>
<path fill-rule="evenodd" clip-rule="evenodd" d="M63.4566 17.1668C64.47 16.3991 65.8996 16.3821 66.952 17.1465L92.1441 35.4496C93.4623 36.4074 93.7573 38.2523 92.8014 39.5718C91.8448 40.8923 89.9961 41.188 88.6768 40.2294L65.2185 23.1857L41.7601 40.2294C40.4409 41.188 38.5922 40.8923 37.6356 39.5718C36.6795 38.2523 36.9746 36.4074 38.2928 35.4496L63.4566 17.1668Z" fill="#64B5F6"/>
<path fill-rule="evenodd" clip-rule="evenodd" d="M98.6362 35.3725C88.5221 29.372 82.027 29.3718 71.9131 35.3725V46.9048C71.9131 50.7848 73.5809 54.0382 76.7318 56.3028L85.2747 62.4428L93.8174 56.3029C96.9682 54.0383 98.6364 50.7852 98.6364 46.905V35.3725H98.6362Z" fill="#3CBE52"/>
<path fill-rule="evenodd" clip-rule="evenodd" d="M94.3631 37.8673C87.5479 34.2474 83.0008 34.2473 76.1855 37.8673V46.9049C76.1855 49.4088 77.1919 51.3719 79.2252 52.8331L85.2743 57.1807L91.3233 52.8331C93.3566 51.3719 94.3633 49.4088 94.3633 46.9047V37.8673H94.3631Z" fill="#72D561"/>
<path fill-rule="evenodd" clip-rule="evenodd" d="M88.3725 40.9655C89.0551 40.2791 90.165 40.2761 90.8514 40.9587C91.5378 41.6412 91.5408 42.7511 90.8583 43.4375L85.2858 49.0624C84.6078 49.7442 83.5083 49.7516 82.821 49.0828L79.7123 46.053C79.0183 45.378 79.003 44.2681 79.678 43.5743C80.353 42.8803 81.4629 42.865 82.1569 43.54L84.0218 45.3578L88.3725 40.9655Z" fill="#EFF4F7"/>
</svg>
