<svg width="120" height="120" viewBox="0 0 120 120" fill="none" xmlns="http://www.w3.org/2000/svg">
<path d="M61.4062 26.25L44.5312 19.2188H40.3125L50.1562 29.0625L61.4062 26.25Z" fill="#BACED3"/>
<path d="M97.9688 97.9688H22.0312C21.2853 97.9688 20.57 97.6724 20.0425 97.145C19.5151 96.6175 19.2188 95.9022 19.2188 95.1562V61.4062C19.2188 60.6603 19.5151 59.945 20.0425 59.4175C20.57 58.8901 21.2853 58.5938 22.0312 58.5938H95.5289C96.2059 58.5937 96.8602 58.8379 97.3717 59.2814C97.8832 59.7249 98.2175 60.3381 98.3133 61.0083L100.781 78.2812V95.1562C100.781 95.9022 100.485 96.6175 99.9575 97.145C99.43 97.6724 98.7147 97.9688 97.9688 97.9688Z" fill="#FCBE42"/>
<path d="M85.3125 100.781C89.1958 100.781 92.3438 97.6333 92.3438 93.75C92.3438 89.8667 89.1958 86.7188 85.3125 86.7188C81.4292 86.7188 78.2812 89.8667 78.2812 93.75C78.2812 97.6333 81.4292 100.781 85.3125 100.781Z" fill="#7A838B"/>
<path d="M85.3125 96.5625C86.8658 96.5625 88.125 95.3033 88.125 93.75C88.125 92.1967 86.8658 90.9375 85.3125 90.9375C83.7592 90.9375 82.5 92.1967 82.5 93.75C82.5 95.3033 83.7592 96.5625 85.3125 96.5625Z" fill="#D6E4E8"/>
<path d="M34.6875 100.781C38.5708 100.781 41.7188 97.6333 41.7188 93.75C41.7188 89.8667 38.5708 86.7188 34.6875 86.7188C30.8042 86.7188 27.6562 89.8667 27.6562 93.75C27.6562 97.6333 30.8042 100.781 34.6875 100.781Z" fill="#7A838B"/>
<path d="M34.6875 96.5625C36.2408 96.5625 37.5 95.3033 37.5 93.75C37.5 92.1967 36.2408 90.9375 34.6875 90.9375C33.1342 90.9375 31.875 92.1967 31.875 93.75C31.875 95.3033 33.1342 96.5625 34.6875 96.5625Z" fill="#D6E4E8"/>
<path d="M24.8438 64.2188H50.1562V75.4688H24.8438V64.2188Z" fill="#62B5E8"/>
<path d="M69.8438 64.2188H92.3438V75.4688H69.8438V64.2188Z" fill="#62B5E8"/>
<path d="M100.379 75.4688L98.3133 61.0083C98.2175 60.3381 97.8832 59.7249 97.3717 59.2814C96.8602 58.8379 96.2059 58.5937 95.5289 58.5938H92.3438V75.4688H100.379Z" fill="#44A7D8"/>
<path d="M60 64.2188H69.8438V97.9688H60V64.2188Z" fill="#62B5E8"/>
<path d="M50.1562 64.2188H60V97.9688H50.1562V64.2188Z" fill="#62B5E8"/>
<path d="M78.3895 22.7034L38.2144 29.2777L31.875 22.0312H26.25L30.4688 31.875L27.1556 32.7033C26.4941 32.8688 25.907 33.2511 25.488 33.7891C25.069 34.3271 24.8422 34.9899 24.8438 35.6719C24.8438 36.0881 24.9289 36.4998 25.0939 36.8819C25.2589 37.264 25.5002 37.6083 25.8032 37.8937C26.1061 38.1791 26.4641 38.3996 26.8554 38.5415C27.2466 38.6835 27.6627 38.7439 28.0781 38.7192L90.3848 34.9687C91.6752 34.891 92.8874 34.324 93.774 33.3833C94.6607 32.4425 95.155 31.199 95.1563 29.9063C95.1561 28.841 94.8208 27.8028 94.1979 26.9387C93.5751 26.0745 92.6962 25.4282 91.6856 25.0913L86.4516 23.3489C83.8564 22.483 81.0895 22.2615 78.3895 22.7034Z" fill="#D6E4E8"/>
<path d="M64.2188 31.875L50.1562 47.3438H44.5312L51.5625 33.2812L64.2188 31.875Z" fill="#BACED3"/>
<path d="M91.6856 25.0929L86.4516 23.3491C84.7226 22.7822 82.9133 22.4987 81.0938 22.5096V26.0252C81.0938 26.4127 81.1739 26.7959 81.329 27.151C81.4841 27.506 81.7109 27.8252 81.9952 28.0885C82.2794 28.3518 82.615 28.5535 82.9809 28.6809C83.3468 28.8084 83.7351 28.8589 84.1214 28.8293L94.7723 28.0108C94.4999 27.3299 94.0828 26.7163 93.5498 26.2125C93.0169 25.7086 92.3808 25.3266 91.6856 25.0929Z" fill="#62B5E8"/>
<path d="M75.2793 28.0518L78.0911 27.6484L78.4905 30.4325L75.6786 30.8358L75.2793 28.0518Z" fill="#62B5E8"/>
<path d="M68.2471 29.0581L71.0589 28.6548L71.4582 31.4388L68.6464 31.8421L68.2471 29.0581Z" fill="#62B5E8"/>
<path d="M58.5938 64.2188H61.4062V97.9688H58.5938V64.2188Z" fill="#44A7D8"/>
</svg>
