<svg width="120" height="120" viewBox="0 0 120 120" fill="none" xmlns="http://www.w3.org/2000/svg">
<path fill-rule="evenodd" clip-rule="evenodd" d="M45.8818 84.7278C29.394 80.3564 26.897 70.4172 36.179 59.8944L30.9658 52.0904C15.1966 68.336 24.7452 84.0858 45.8818 84.7278ZM91.906 54.2172C96.3606 70.6664 88.9922 77.7964 75.2292 75.0278L71.0708 83.4404C93.0382 88.9592 101.918 72.8238 91.906 54.2172ZM42.3362 29.6934C54.3692 17.6155 64.2348 20.4246 68.7158 33.7162L78.088 33.1076C71.889 11.3432 53.4606 11.7288 42.3362 29.6934Z" fill="#2E3092"/>
<path d="M45.8818 84.7288C29.394 80.3574 26.897 70.4182 36.179 59.8954L30.9658 52.0914C15.1966 68.337 24.7452 84.0868 45.8818 84.7288ZM91.906 54.2182C96.3606 70.6674 88.9922 77.7976 75.2292 75.0288L71.0708 83.4414C93.0382 88.9602 101.918 72.8248 91.906 54.2182ZM42.3362 29.6944C54.3692 17.6165 64.2348 20.4256 68.7158 33.7172L78.088 33.1086C71.889 11.3442 53.4606 11.7298 42.3362 29.6944Z" stroke="#231F20" stroke-width="0.576" stroke-miterlimit="2.6131"/>
<path fill-rule="evenodd" clip-rule="evenodd" d="M66.0878 90.4066C66.085 90.4044 66.0822 90.4024 66.0792 90.401C66.0772 90.403 66.075 90.4058 66.0736 90.408C65.662 90.1418 65.2548 89.8734 64.8482 89.6034C56.6424 84.221 49.5268 77.9792 43.489 70.8882C36.7306 63.0488 31.4682 54.3624 27.6334 44.8662C27.5744 44.7228 27.5154 44.5794 27.457 44.4352C27.4578 44.4346 27.4584 44.4346 27.4592 44.4338C27.4584 44.4324 27.4584 44.431 27.4578 44.4296C27.4598 44.4288 27.462 44.4274 27.4634 44.426C27.4628 44.4246 27.462 44.4232 27.4612 44.421C27.7272 44.2854 27.993 44.1512 28.2588 44.0176C36.9402 39.5974 45.8184 36.5256 54.8894 34.7858C65.483 32.6874 76.0622 32.4532 86.628 33.994C86.6272 33.9976 86.6272 34.0012 86.6272 34.0046C86.6302 34.0046 86.6336 34.0054 86.6366 34.0054C86.6116 34.4946 86.5824 34.9818 86.552 35.4674C86.0024 45.0126 84.2268 54.0698 81.2392 62.6434C77.7624 72.8218 72.6864 82.0608 66.0878 90.4066ZM71.0074 83.4428C71.0046 83.4412 71.0018 83.4406 70.999 83.4392C70.9982 83.4412 70.9968 83.4442 70.9954 83.4462C70.608 83.2978 70.2234 83.1474 69.8402 82.9946C62.1 79.9724 55.1118 76.0478 48.8686 71.2312C41.8962 65.922 36.0148 59.6482 31.1732 52.455C31.0994 52.3464 31.0254 52.237 30.9522 52.1276C30.9514 52.1276 30.9528 52.1276 30.9522 52.1276C30.9514 52.1262 30.9522 52.1248 30.9514 52.1234C30.9528 52.1226 30.9544 52.1212 30.9558 52.1198C30.955 52.1184 30.9544 52.117 30.9528 52.1162C31.1498 51.9572 31.346 51.7988 31.5428 51.642C37.9582 46.4618 44.7722 42.3646 51.9792 39.3368C60.3856 35.7452 69.106 33.6994 78.1272 33.127C78.1272 33.1298 78.1278 33.1326 78.1286 33.1356C78.1308 33.1356 78.1336 33.1356 78.1364 33.1348C78.2018 33.5446 78.263 33.9528 78.322 34.3612C79.541 42.3624 79.659 50.1742 78.688 57.7978C77.5934 66.8358 75.0094 75.376 71.0074 83.4428Z" fill="#D1D3D4"/>
<path fill-rule="evenodd" clip-rule="evenodd" d="M49.8399 43.9023H59.2045C61.7655 44.5357 63.3117 45.8771 63.9947 47.4363C64.3615 48.2729 64.4887 49.1817 64.3977 50.0815C64.3061 50.9925 63.9869 51.8965 63.4637 52.7095C62.3421 54.4513 60.2699 55.7495 57.4515 55.7985C55.8039 55.5129 54.9735 57.2675 56.3697 58.6133L65.7527 67.3075H49.8399C49.3631 67.3075 48.9727 66.9177 48.9727 66.4405V44.7693C48.9727 44.2921 49.3631 43.9023 49.8399 43.9023ZM65.5323 43.9023H72.0549C72.5325 43.9023 72.9227 44.2921 72.9227 44.7693V66.4405C72.9227 66.9177 72.5325 67.3075 72.0549 67.3075H70.5309L60.9921 58.4691C63.2867 57.7001 65.0567 56.2365 66.1983 54.4635C66.9965 53.2237 67.4849 51.8255 67.6293 50.3989C67.7743 48.9617 67.5667 47.4981 66.9717 46.1397C66.6233 45.3451 66.1449 44.5903 65.5323 43.9023Z" fill="#2E3092"/>
<path d="M49.8399 43.9033H59.2045C61.7655 44.5367 63.3117 45.8781 63.9947 47.4375C64.3615 48.2739 64.4887 49.1829 64.3977 50.0825C64.3061 50.9937 63.9869 51.8975 63.4637 52.7107C62.3421 54.4525 60.2699 55.7505 57.4515 55.7995C55.8039 55.5141 54.9735 57.2687 56.3697 58.6143L65.7527 67.3087H49.8399C49.3631 67.3087 48.9727 66.9189 48.9727 66.4417V44.7703C48.9727 44.2931 49.3631 43.9033 49.8399 43.9033ZM65.5323 43.9033H72.0549C72.5325 43.9033 72.9227 44.2931 72.9227 44.7703V66.4417C72.9227 66.9189 72.5325 67.3087 72.0549 67.3087H70.5309L60.9921 58.4701C63.2867 57.7011 65.0567 56.2377 66.1983 54.4645C66.9965 53.2247 67.4849 51.8265 67.6293 50.3999C67.7743 48.9627 67.5667 47.4993 66.9717 46.1409C66.6233 45.3463 66.1449 44.5915 65.5323 43.9033Z" stroke="#231F20" stroke-width="0.576" stroke-miterlimit="2.6131"/>
<path fill-rule="evenodd" clip-rule="evenodd" d="M30.5273 105.155V92.1113H34.8001V105.155H30.5273Z" fill="#2E3092"/>
<path fill-rule="evenodd" clip-rule="evenodd" d="M41.4877 97.7153H43.3941C44.0623 97.7153 44.5229 97.6243 44.7767 97.4461C45.0311 97.2651 45.1583 96.9505 45.1583 96.5031C45.1583 96.0437 45.0311 95.7235 44.7767 95.5417C44.5229 95.3635 44.0261 95.2725 43.2881 95.2725H41.4877V97.7153ZM37.3477 105.155V92.1113H43.5967C45.5543 92.1113 46.9497 92.4045 47.7877 92.9875C48.6229 93.5711 49.0403 94.5327 49.0403 95.8655C49.0403 96.6637 48.8681 97.3225 48.5263 97.8481C48.1843 98.3743 47.6547 98.7917 46.9405 99.0971C47.6669 99.2513 48.1965 99.5537 48.5263 100.007C48.8589 100.457 49.0345 101.12 49.0587 101.993L49.1283 103.809C49.1283 103.822 49.1311 103.837 49.1375 103.852C49.1553 104.372 49.2797 104.644 49.5093 104.668V105.155H45.2821C45.2067 104.84 45.1491 104.568 45.1093 104.336C45.0703 104.103 45.0525 103.922 45.0525 103.792V102.489C45.0525 101.818 44.9189 101.343 44.6529 101.068C44.3863 100.793 43.9265 100.657 43.2697 100.657H41.4877V105.155H37.3477Z" fill="#2E3092"/>
<path fill-rule="evenodd" clip-rule="evenodd" d="M59.6724 100.097H63.6452C63.5272 101.814 62.9224 103.146 61.827 104.096C60.7344 105.042 59.2544 105.517 57.3872 105.517C55.293 105.517 53.6474 104.903 52.449 103.678C51.2476 102.454 50.6484 100.777 50.6484 98.6425C50.6484 96.5171 51.2412 94.8427 52.4304 93.6121C53.6198 92.3851 55.239 91.7715 57.2904 91.7715C59.182 91.7715 60.6676 92.2281 61.7538 93.1407C62.837 94.0509 63.4456 95.3569 63.5756 97.0497H59.5602C59.4996 96.3815 59.285 95.8795 58.9126 95.5379C58.54 95.1991 58.017 95.0301 57.3424 95.0301C56.5192 95.0301 55.9044 95.3291 55.4934 95.9277C55.0818 96.5293 54.8758 97.4331 54.8758 98.6425C54.8758 99.8305 55.094 100.729 55.5326 101.336C55.9682 101.944 56.6094 102.249 57.4568 102.249C58.1044 102.249 58.6218 102.061 59.0028 101.689C59.3846 101.318 59.6084 100.789 59.6724 100.097Z" fill="#2E3092"/>
<path fill-rule="evenodd" clip-rule="evenodd" d="M68.1525 105.155V95.5481H64.3945V92.1113H76.0265V95.5481H72.3473V105.155H68.1525Z" fill="#2E3092"/>
<path fill-rule="evenodd" clip-rule="evenodd" d="M85.9255 100.097H89.8991C89.7811 101.814 89.1755 103.146 88.0801 104.096C86.9875 105.042 85.5083 105.517 83.6409 105.517C81.5469 105.517 79.9005 104.903 78.7027 103.678C77.5015 102.454 76.9023 100.777 76.9023 98.6425C76.9023 96.5171 77.4951 94.8427 78.6843 93.6121C79.8735 92.3851 81.4927 91.7715 83.5443 91.7715C85.4357 91.7715 86.9213 92.2281 88.0075 93.1407C89.0909 94.0509 89.6993 95.3569 89.8295 97.0497H85.8139C85.7535 96.3815 85.5381 95.8795 85.1663 95.5379C84.7939 95.1991 84.2707 95.0301 83.5955 95.0301C82.7723 95.0301 82.1581 95.3291 81.7465 95.9277C81.3349 96.5293 81.1295 97.4331 81.1295 98.6425C81.1295 99.8305 81.3471 100.729 81.7863 101.336C82.2213 101.944 82.8633 102.249 83.7105 102.249C84.3581 102.249 84.8757 102.061 85.2567 101.689C85.6383 101.318 85.8623 100.789 85.9255 100.097Z" fill="#2E3092"/>
</svg>
