<svg width="120" height="120" viewBox="0 0 120 120" fill="none" xmlns="http://www.w3.org/2000/svg">
<mask id="mask0_222_643" style="mask-type:luminance" maskUnits="userSpaceOnUse" x="20" y="20" width="80" height="80">
<path d="M100 20H20V100H100V20Z" fill="white"/>
</mask>
<g mask="url(#mask0_222_643)">
<path d="M92.011 39.7976L61.2666 20.3666C60.4934 19.8778 59.508 19.8778 58.735 20.3666L27.9904 39.7976C27.0988 40.361 26.6872 41.446 26.9802 42.4592C27.2736 43.4724 28.2014 44.1696 29.2562 44.1696H90.745C91.7998 44.1696 92.7274 43.4724 93.021 42.4592C93.3144 41.446 92.9024 40.361 92.011 39.7976Z" fill="#8CBCFF"/>
<path d="M86.7009 45.5859H78.4553C77.1467 45.5859 76.0859 46.6467 76.0859 47.9553V82.6575C76.0859 83.9661 77.1467 85.0269 78.4553 85.0269H86.7009C88.0095 85.0269 89.0703 83.9661 89.0703 82.6575V47.9553C89.0703 46.6467 88.0095 45.5859 86.7009 45.5859Z" fill="#8CBCFF"/>
<path d="M64.1228 45.5859H55.8772C54.5686 45.5859 53.5078 46.6467 53.5078 47.9553V82.6575C53.5078 83.9661 54.5686 85.0269 55.8772 85.0269H64.1228C65.4314 85.0269 66.4922 83.9661 66.4922 82.6575V47.9553C66.4924 46.6467 65.4316 45.5859 64.1228 45.5859Z" fill="#8CBCFF"/>
<path d="M41.3845 45.5859H33.1389C31.8303 45.5859 30.7695 46.6467 30.7695 47.9553V82.6575C30.7695 83.9661 31.8303 85.0269 33.1389 85.0269H41.3845C42.6931 85.0269 43.7539 83.9661 43.7539 82.6575V47.9553C43.7539 46.6467 42.6929 45.5859 41.3845 45.5859Z" fill="#8CBCFF"/>
<path d="M41.3806 45.5859H37.2578V85.0281H41.3806C42.6886 85.0281 43.75 83.9667 43.75 82.6589V47.9553C43.75 46.6473 42.6884 45.5859 41.3806 45.5859Z" fill="#6AA9FF"/>
<path d="M95.1372 39.4316H24.8612C22.4286 39.4316 20.4492 41.4108 20.4492 43.8436V48.3794C20.4492 50.8122 22.4284 52.7914 24.8612 52.7914H95.1374C97.57 52.7914 99.5496 50.8122 99.5496 48.3794V43.8436C99.5494 41.4108 97.57 39.4316 95.1372 39.4316Z" fill="#2682FF"/>
<path d="M90.7449 78.0195H29.2559C27.9475 78.0195 26.8867 79.0803 26.8867 80.3889V89.0099C26.8867 90.3185 27.9475 91.3793 29.2559 91.3793H90.7447C92.0533 91.3793 93.1141 90.3185 93.1141 89.0099V80.3889C93.1143 79.0803 92.0535 78.0195 90.7449 78.0195Z" fill="#2682FF"/>
<path d="M97.1802 86.6387H22.8186C21.51 86.6387 20.4492 87.6995 20.4492 89.0081V97.6293C20.4492 98.9379 21.51 99.9987 22.8186 99.9987H97.18C98.4886 99.9987 99.5494 98.9379 99.5494 97.6293V89.0081C99.5496 87.6995 98.4886 86.6387 97.1802 86.6387Z" fill="#0051BF"/>
<path d="M93.0198 42.4602C92.7276 43.4726 91.7988 44.1708 90.7436 44.1708H60V20C60.439 20 60.8782 20.1216 61.2654 20.3664L91.4308 39.432L92.0104 39.7984C92.9012 40.361 93.3136 41.446 93.0198 42.4602Z" fill="#6AA9FF"/>
<path d="M86.7007 45.5859H82.5781V85.0281H86.7007C88.0087 85.0281 89.0701 83.9667 89.0701 82.6589V47.9553C89.0701 46.6473 88.0087 45.5859 86.7007 45.5859Z" fill="#6AA9FF"/>
<path d="M64.1226 45.5859H60V85.0281H64.1228C65.4308 85.0281 66.4922 83.9667 66.4922 82.6589V47.9553C66.4922 46.6473 65.4306 45.5859 64.1226 45.5859Z" fill="#6AA9FF"/>
<path d="M99.5498 43.8434V48.3784C99.5498 50.8108 97.5706 52.7902 95.138 52.7902H60V39.4316H95.138C97.5706 39.4316 99.5498 41.4108 99.5498 43.8434Z" fill="#046EFF"/>
<path d="M93.113 80.387V89.0084C93.113 90.3164 92.0532 91.3778 90.7436 91.3778H60V78.0176H90.7436C92.0532 78.0176 93.113 79.079 93.113 80.387Z" fill="#046EFF"/>
<path d="M99.5498 89.01V97.6314C99.5498 98.9394 98.49 100.001 97.1804 100.001H60V86.6406H97.1804C98.4898 86.6406 99.5498 87.7004 99.5498 89.01Z" fill="#00347B"/>
</g>
</svg>
