<svg width="120" height="120" viewBox="0 0 120 120" fill="none" xmlns="http://www.w3.org/2000/svg">
<mask id="mask0_222_792" style="mask-type:luminance" maskUnits="userSpaceOnUse" x="12" y="30" width="96" height="60">
<path d="M108 30H12V90H108V30Z" fill="white"/>
</mask>
<g mask="url(#mask0_222_792)">
<path d="M104.113 53.523C103.576 54.2844 103.38 55.2008 103.216 56.156C103.016 57.319 102.804 58.4356 102.365 59.5304C101.838 60.8422 100.951 62.3038 99.4098 63.448C97.8196 59.4208 95.5038 55.6792 92.5628 52.386C94.4 51.698 96.2032 51.7086 97.6858 51.9378C98.9172 52.1288 100.055 52.5152 101.231 52.9336C102.196 53.2788 103.14 53.5788 104.113 53.523ZM86.2218 36.7618C86.1622 37.6724 86.4826 38.5582 86.8508 39.4618C87.2976 40.5634 87.7102 41.6294 87.9144 42.7832C88.1586 44.1732 88.17 45.8646 87.4336 47.5874C83.913 44.8362 79.9144 42.6716 75.6122 41.1874C76.836 39.7308 78.4034 38.8956 79.81 38.3994C80.9786 37.988 82.1702 37.79 83.4122 37.6014C84.4312 37.4482 85.4094 37.2658 86.2218 36.7618ZM101.293 70.0278C103.238 70.2974 104.785 71.1472 105.941 72.0358C106.906 72.7782 107.685 73.646 108.48 74.5596C109.131 75.3092 109.789 76.0116 110.66 76.4188H101.882C101.879 74.2768 101.682 72.1388 101.293 70.0278ZM37.3442 36.7624C38.1566 37.266 39.1354 37.4478 40.1546 37.6016C41.396 37.7896 42.5878 37.988 43.7564 38.399C45.163 38.8952 46.7304 39.7308 47.9538 41.1872C43.6516 42.671 39.653 44.836 36.1326 47.5874C35.3964 45.8646 35.407 44.1732 35.6522 42.7828C35.8562 41.6292 36.2686 40.5632 36.7152 39.4612C37.0834 38.5578 37.4038 37.673 37.3442 36.7624ZM19.4538 53.5236C20.4257 53.5792 21.3712 53.2788 22.3358 52.934C23.5116 52.5152 24.6494 52.1288 25.8804 51.9378C27.3636 51.709 29.1666 51.6984 31.004 52.3862C28.0634 55.6798 25.7474 59.4212 24.1572 63.4482C22.6152 62.3038 21.7294 60.8424 21.2016 59.5304C20.7626 58.4356 20.5512 57.319 20.3502 56.156C20.1864 55.2008 19.9914 54.2846 19.4538 53.5236ZM12.9062 76.4192C13.7779 76.012 14.4356 75.3098 15.0868 74.56C15.8813 73.6466 16.6609 72.7788 17.6248 72.0366C18.7815 71.1474 20.3278 70.2976 22.2726 70.0284C21.8838 72.1392 21.6874 74.2772 21.6856 76.4192H12.9062ZM61.7834 30.627C62.2176 31.4438 62.9682 32.0602 63.769 32.6708C64.744 33.415 65.6704 34.1452 66.4626 35.0482C67.417 36.1388 68.3296 37.5988 68.611 39.4374C66.356 39.0746 64.072 38.8924 61.7838 38.8924C59.456 38.8924 57.1754 39.0804 54.956 39.4374C55.2372 37.5992 56.15 36.1388 57.1044 35.049C57.8972 34.1452 58.8234 33.415 59.7982 32.6702C60.5988 32.0604 61.3486 31.4438 61.7834 30.627Z" fill="#FAB60F"/>
<path d="M53.6241 76.4282L56.6411 76.4202C57.0375 74.0328 56.2625 72.1946 53.6851 72.6334C51.5127 73.0028 49.1797 75.0246 47.7695 76.4202L51.7471 76.4038C52.1903 76.1308 53.0581 75.8192 53.4143 76.0512C53.5473 76.138 53.6171 76.2614 53.6241 76.4282Z" fill="#D52736"/>
<path d="M67.198 76.4176H70.9618C71.1408 72.2534 70.4248 67.9532 68.3586 64.2326C66.479 60.8474 63.3722 58.5464 59.35 57.9904C53.4786 57.1788 47.554 59.5076 42.5452 62.839C37.0917 66.4664 32.5903 71.393 28.6562 76.4178L33.6284 76.411C38.1046 70.467 48.4003 61.4428 55.9739 61.384C58.3873 61.3654 60.8414 61.896 62.6558 63.4126C63.9704 64.5116 65.5642 66.6458 65.4862 68.3778C65.4398 69.4048 64.4668 69.7198 63.534 69.4014C62.8094 69.1544 62.2977 68.5338 61.7905 67.8814C60.1427 65.7616 57.5723 64.7242 54.7527 65.0858C51.3899 65.5166 47.2215 67.9628 44.5326 70.1876C42.2144 72.1066 40.0859 74.2062 38.0783 76.4178H43.4236C45.383 74.2016 47.452 72.3116 50.1116 70.7598C50.953 70.2688 51.9896 69.7492 53.079 69.3982C55.8272 68.5134 58.5621 68.7376 59.7765 71.9432C60.2535 73.2036 60.3237 74.3092 60.1847 76.335V76.4178H63.8195L63.8287 76.3136C63.8315 75.2044 63.8054 74.4566 63.9124 73.3572C64.0042 72.4094 64.3187 71.4274 65.2581 71.3108C67.2547 70.9188 67.1588 75.08 67.198 76.4176Z" fill="#D52736"/>
<path d="M74.9145 76.42H78.7099C78.8937 72.5566 78.5401 67.9794 77.2057 63.9826C76.9483 63.2062 76.6459 62.4436 76.2997 61.698C75.4919 59.971 74.4047 58.4076 73.1091 56.9626C71.6685 55.3576 69.9523 53.9142 68.0175 52.7776C67.4439 52.4402 66.8515 52.1314 66.2431 51.8524C65.6321 51.5724 65.0047 51.3244 64.3639 51.1108L64.3611 51.11C56.9709 48.6514 49.4961 50.3998 43.2257 53.5952C42.0185 54.212 40.8441 54.8836 39.7067 55.6076C38.6105 56.3048 37.5467 57.0454 36.5183 57.8278L36.5159 57.8294C35.0493 58.9452 33.6621 60.1494 32.3627 61.4342C32.0725 61.7222 31.7857 62.0156 31.5071 62.3118C30.7611 63.1042 29.6119 64.2148 29.9529 65.363C30.2229 66.2736 31.4773 66.005 31.9139 65.6918C32.5845 65.3546 33.3207 64.8202 33.9513 64.3206C34.8045 63.6438 35.6105 62.915 36.4557 62.229C39.8729 59.4534 43.4351 57.313 46.9439 55.8644C47.6963 55.5532 48.4613 55.2696 49.2373 55.0136C49.9827 54.7678 50.7389 54.551 51.5039 54.3642L51.5071 54.3634C58.0361 52.7754 65.1305 53.8042 69.6729 58.792C74.0493 63.597 74.8477 70.0284 74.9145 76.42ZM27.8259 70.989C28.2337 70.6322 28.6491 70.167 29.0821 69.6522C29.6879 68.932 29.7489 68.2348 29.5093 67.7318C29.4227 67.5484 29.2925 67.386 29.1285 67.257C28.9699 67.1324 28.7823 67.0446 28.5807 67.0008C28.0871 66.895 27.4965 67.0606 26.9951 67.6322C26.4283 68.2782 25.6453 69.3834 25.4855 70.3608C25.4549 70.5354 25.4489 70.713 25.4677 70.889C25.4875 71.0516 25.5339 71.206 25.6117 71.3472C25.7395 71.5766 25.9555 71.6988 26.2425 71.709C26.3025 71.711 26.3673 71.7084 26.4363 71.7012C26.5035 71.6944 26.5763 71.6818 26.6537 71.665L26.6577 71.6646C27.0443 71.5778 27.4309 71.3344 27.8259 70.989Z" fill="#D52736"/>
<path d="M84.4081 76.4192L84.4349 76.4186H84.4485C84.8457 76.439 85.5349 76.2678 85.9325 75.6396C86.0115 75.514 86.0797 75.3704 86.1311 75.2076C86.1841 75.0416 86.2205 74.8534 86.2357 74.6422L86.2387 74.5988C86.5403 64.724 83.3119 56.5486 77.8311 50.995C76.7763 49.9248 75.6241 48.9424 74.3877 48.0592C73.1643 47.186 71.8607 46.416 70.4919 45.7586L70.4699 45.7488C65.8633 43.543 60.6375 42.6954 55.5093 43.1026C53.5099 43.2608 51.5327 43.6088 49.6081 44.141L49.5945 44.145C44.3205 45.6066 39.4125 48.508 35.4129 52.3146C34.2459 53.425 33.1605 54.608 32.1641 55.8558C34.9691 53.5888 37.9781 51.6002 41.1255 50.02C41.8273 49.6672 42.5399 49.3338 43.2625 49.02C43.9771 48.7098 44.7021 48.4206 45.4363 48.153L45.4383 48.1522L45.4403 48.1514C48.2209 47.1388 50.9623 46.493 53.7043 46.2046C56.4459 45.9162 59.1895 45.9844 61.9759 46.3994C63.9587 46.6952 65.8939 47.1816 67.6375 47.862C67.9755 47.9938 68.3085 48.134 68.6343 48.2822C68.9559 48.4284 69.2727 48.5834 69.5829 48.7474L69.5883 48.75C75.7267 51.8992 79.9907 58.3608 81.8689 65.6566C82.6063 68.525 82.9689 71.4666 82.9489 74.417L82.9479 74.5026C82.9793 75.2926 83.2683 75.9538 83.7635 76.2512C83.8555 76.3064 83.9555 76.3498 84.0617 76.3776C84.1703 76.4066 84.2863 76.4212 84.4081 76.4192Z" fill="#D52736"/>
<path d="M73.4375 43.5078C88.1959 48.0746 98.8615 61.0772 98.9237 76.4184H91.6211C92.1045 63.0174 85.8615 50.921 73.4375 43.5078Z" fill="#FAB60F"/>
<path d="M30.5824 87.1786H27.6286L26.897 89.5896H24.543L27.658 80.3556H30.6406L33.8434 89.5896H31.3868L30.5824 87.1786ZM27.9648 85.6166H30.2314C29.637 83.8124 29.2516 82.575 29.0762 81.9036H29.0466L28.579 83.6574L27.9648 85.6166ZM41.4324 87.1786H38.4782L37.7472 89.5896H35.393L38.5074 80.3556H41.491L44.6934 89.5896H42.2368L41.4324 87.1786ZM38.8146 85.6166H41.0812C40.4866 83.8124 40.1012 82.575 39.9258 81.9036H39.8966L39.429 83.6574L38.8146 85.6166ZM46.9444 89.5488V80.479C47.9192 80.342 48.9624 80.2734 50.0736 80.2734C52.1748 80.2734 53.6832 80.6844 54.5976 81.5088C55.5112 82.333 55.967 83.4108 55.967 84.7398C55.967 86.311 55.448 87.5278 54.4072 88.391C53.3664 89.2538 51.7606 89.6856 49.5914 89.6856C48.5874 89.6856 47.7048 89.64 46.9444 89.5488ZM49.211 81.986V88.0006C49.3378 88.0278 49.6108 88.0414 50.03 88.0414C51.1558 88.0414 52.0284 87.763 52.6452 87.2082C53.2618 86.653 53.5688 85.8588 53.5688 84.822C53.5688 83.872 53.2886 83.1482 52.7256 82.6504C52.1626 82.1526 51.3512 81.9036 50.2932 81.9036C49.8496 81.9036 49.4888 81.9314 49.211 81.986ZM58.3938 80.3556H60.6604V83.904H64.5356V80.356H66.8026V89.5896H64.5356V85.74H60.6604V89.5896H58.3938V80.3556ZM75.0198 87.1786H72.066L71.3346 89.5896H68.9804L72.0954 80.3556H75.0784L78.2812 89.5896H75.8242L75.0198 87.1786ZM72.4022 85.6166H74.6688C74.0744 83.8124 73.689 82.575 73.5136 81.9036H73.4844L73.0164 83.6574L72.4022 85.6166ZM85.8698 87.1786H82.9156L82.1844 89.5896H79.83L82.9448 80.3556H85.928L89.1304 89.5896H86.6742L85.8698 87.1786ZM83.252 85.6166H85.5186C84.924 83.8124 84.5386 82.575 84.3632 81.9036H84.334L83.866 83.6574L83.252 85.6166ZM91.3814 89.5894V80.479C92.2108 80.342 93.2294 80.2734 94.4382 80.2734C95.9298 80.2734 97.0022 80.5042 97.6552 80.9654C98.3084 81.4266 98.6352 82.0866 98.6352 82.945C98.6352 83.4566 98.4716 83.9178 98.1426 84.3312C97.8226 84.7384 97.3768 85.0436 96.8658 85.2056V85.2602C97.4798 85.475 97.9234 86.0414 98.1964 86.959C98.6984 88.6122 98.9712 89.4892 99.0152 89.5896H96.7046C96.5098 89.2472 96.2758 88.5302 96.0028 87.4386C95.8664 86.8908 95.681 86.5072 95.4472 86.288C95.2132 86.0686 94.8378 85.9592 94.321 85.9592H93.6192V89.5896L91.3814 89.5894ZM93.6192 81.9036V84.4382H94.5552C95.1206 84.4382 95.5664 84.3174 95.8932 84.0776C96.2198 83.8378 96.383 83.516 96.383 83.1094C96.383 82.703 96.2368 82.3876 95.9418 82.1666C95.6472 81.9448 95.2278 81.8352 94.6868 81.8352C94.1556 81.8352 93.7996 81.8582 93.6192 81.9036Z" fill="#D52736"/>
</g>
</svg>
