<svg width="120" height="120" viewBox="0 0 120 120" fill="none" xmlns="http://www.w3.org/2000/svg">
<path d="M100.167 55.7518L33.8585 71.1574L21.1367 52.9064L87.4455 37.5L100.167 55.7518Z" fill="#47A047"/>
<path d="M92.8141 54.2198L67.7785 60.0412C70.9445 58.3344 71.8927 55.183 69.8211 52.2066C69.0333 51.0832 67.9099 50.1058 66.5823 49.3322C64.3793 48.0634 61.6365 47.3482 58.9375 47.3774L83.9873 41.5566C85.0961 41.2938 86.3363 41.469 87.1387 41.9214C87.4013 42.0816 87.6203 42.2712 87.7807 42.4898L94.4335 52.0172C95.0315 52.8926 94.3167 53.87 92.8141 54.2198Z" fill="#96D696"/>
<path d="M85.0654 43.0318C85.2244 43.1236 85.355 43.2344 85.446 43.362C85.8014 43.8784 85.3778 44.4592 84.4876 44.6636C83.8314 44.8198 83.101 44.7192 82.6282 44.4462C82.4668 44.353 82.3352 44.2398 82.2468 44.1098C81.8824 43.5986 82.315 43.0126 83.1868 42.808C83.855 42.6546 84.5874 42.7558 85.0654 43.0318Z" fill="#47A047"/>
<path d="M88.0089 54.2966C87.8897 54.571 87.5567 54.7754 87.0187 54.9046C86.4719 55.028 85.9891 55.0174 85.5701 54.8616C85.4505 54.817 85.3377 54.764 85.2317 54.7028C84.9665 54.5496 84.7437 54.3444 84.5631 54.087C84.3013 53.7212 84.2439 53.3984 84.3533 53.119C84.4821 52.8392 84.8057 52.6404 85.3529 52.5166C85.8907 52.3874 86.3733 52.3984 86.7921 52.5542C86.9207 52.5992 87.0403 52.6544 87.1523 52.719C87.4137 52.87 87.6315 53.0742 87.8085 53.334C88.0611 53.6944 88.1279 54.0118 88.0089 54.2966ZM86.7851 54.5654C87.1185 54.4904 87.3127 54.356 87.3489 54.1622C87.4035 53.9686 87.3279 53.7428 87.1407 53.4848C87.0005 53.2694 86.8215 53.0992 86.6095 52.9768C86.5671 52.9524 86.5233 52.93 86.4783 52.9092C86.2177 52.7908 85.9207 52.7694 85.5867 52.8446C85.2527 52.92 85.0679 53.0598 85.0133 53.2534C84.9681 53.4524 85.0345 53.6728 85.2121 53.9364C85.3603 54.1466 85.5397 54.316 85.7515 54.4382C85.7943 54.4628 85.8387 54.4856 85.8839 54.5064C86.1443 54.6248 86.4509 54.6518 86.7851 54.5654Z" fill="#414A61"/>
<path d="M82.8806 53.1562L84.4812 55.4635L83.8412 55.6088L82.484 53.6456L81.677 53.834L81.4336 53.4901L82.8806 53.1562Z" fill="#414A61"/>
<path d="M45.263 56.258C45.8894 56.6196 46.403 57.0588 46.756 57.5632C48.1506 59.5584 46.4922 61.828 43.0424 62.624C40.474 63.2222 37.6356 62.8342 35.7858 61.7662C35.1582 61.4038 34.6444 60.9634 34.2936 60.4568C32.899 58.4616 34.5666 56.1974 38.007 55.3958C40.577 54.7972 43.412 55.1894 45.263 56.258Z" fill="#47A047"/>
<path d="M75.615 45.2138C75.777 45.3074 75.91 45.4214 76.0006 45.5528C76.356 46.0692 75.9324 46.65 75.0422 46.8544C74.3858 47.0106 73.6556 46.91 73.1828 46.637C73.0214 46.5438 72.8896 46.4306 72.8014 46.3004C72.4368 45.7892 72.8696 45.2034 73.7504 44.9936C74.4142 44.841 75.1406 44.94 75.615 45.2138Z" fill="#47A047"/>
<path d="M80.334 44.1214C80.4968 44.2154 80.6302 44.3298 80.7208 44.4612C81.086 44.972 80.6526 45.5582 79.7624 45.7626C79.102 45.9118 78.3718 45.8102 77.894 45.5344C77.7348 45.4424 77.6036 45.3312 77.5124 45.2034C77.1568 44.687 77.5806 44.1062 78.4708 43.9018C79.127 43.7458 79.8574 43.8462 80.334 44.1214Z" fill="#47A047"/>
<path d="M91.9314 53.3892C91.8122 53.6636 91.479 53.868 90.9412 53.997C90.3944 54.1206 89.9114 54.1098 89.4926 53.954C89.373 53.9094 89.2602 53.8566 89.154 53.7952C88.8882 53.6418 88.6636 53.4354 88.4762 53.1742C88.2238 52.8138 88.1658 52.4912 88.2758 52.2116C88.404 51.932 88.728 51.7328 89.266 51.6038C89.8128 51.4802 90.2956 51.491 90.7146 51.6468C90.8392 51.693 90.957 51.7482 91.0678 51.8122C91.3294 51.9632 91.5506 52.1644 91.7216 52.4212C91.9836 52.787 92.0504 53.1042 91.9314 53.3892ZM90.7076 53.658C91.041 53.583 91.2352 53.4484 91.2714 53.2548C91.317 53.0664 91.2502 52.8354 91.0632 52.5772C90.9152 52.3576 90.7414 52.1904 90.5314 52.069C90.4894 52.0448 90.4458 52.0224 90.4008 52.0018C90.1404 51.8834 89.8338 51.8566 89.5092 51.9372C89.1752 52.0126 88.972 52.1524 88.9358 52.346C88.8812 52.5396 88.9474 52.771 89.1252 53.0236C89.2812 53.2382 89.462 53.4084 89.6686 53.5276C89.7104 53.5518 89.7534 53.5736 89.797 53.5936C90.0668 53.7174 90.364 53.739 90.7076 53.658Z" fill="#414A61"/>
<path d="M54.7094 59.329C56.908 60.5984 59.6656 61.3204 62.3638 61.296L37.3196 67.1136C36.2036 67.375 34.9714 67.2032 34.166 66.7382C33.894 66.5814 33.6708 66.3908 33.5172 66.1724L26.8714 56.6428C26.272 55.7716 26.9912 54.7926 28.4836 54.4432L53.5298 48.625C50.3596 50.3304 49.392 53.4868 51.4654 56.465C52.2504 57.5906 53.3774 58.56 54.7094 59.329ZM43.0414 62.623C46.4912 61.8268 48.1496 59.5574 46.755 57.5622C46.402 57.0576 45.8884 56.6186 45.262 56.257C43.411 55.1882 40.576 54.7962 38.006 55.3948C34.5658 56.1964 32.898 58.4604 34.2926 60.4556C34.6434 60.9624 35.1572 61.4028 35.7848 61.765C37.6346 62.833 40.473 63.2212 43.0414 62.623Z" fill="#96D696"/>
<path d="M100.17 55.7539L100.143 65.2679L33.8359 80.6761L33.8629 71.1619L100.17 55.7539Z" fill="#47A047"/>
<path d="M100.148 62.1504L33.8418 77.4366L33.8398 78.1194L100.146 62.834L100.148 62.1504Z" fill="#5FAF5F"/>
<path d="M100.152 60.9453L33.8456 76.2305L33.8438 76.9141L100.15 61.6289L100.152 60.9453Z" fill="#5FAF5F"/>
<path d="M100.168 56.1348L33.8612 71.42L33.8594 72.103L100.166 56.8176L100.168 56.1348Z" fill="#5FAF5F"/>
<path d="M100.164 58.541L33.8575 73.8264L33.8555 74.51L100.162 59.2246L100.164 58.541Z" fill="#5FAF5F"/>
<path d="M100.16 59.7441L33.8534 75.0293L33.8516 75.7129L100.158 60.4277L100.16 59.7441Z" fill="#5FAF5F"/>
<path d="M100.144 64.5566L33.8379 79.8428L33.8359 80.5256L100.143 65.2402L100.144 64.5566Z" fill="#5FAF5F"/>
<path d="M100.164 57.3379L33.8575 72.6225L33.8555 73.3061L100.162 58.0209L100.164 57.3379Z" fill="#5FAF5F"/>
<path d="M100.148 63.3535L33.8418 78.6387L33.8398 79.3215L100.146 64.0363L100.148 63.3535Z" fill="#5FAF5F"/>
<path d="M58.527 65.4331L58.5 74.9469L68.0126 72.7365L68.0396 63.2227L58.527 65.4331Z" fill="#ED5D71"/>
<path d="M59.7379 65.1518L59.7109 74.6656L69.2235 72.4552L69.2505 62.9414L59.7379 65.1518Z" fill="#E3E7F0"/>
<path d="M33.8625 71.1628L33.8355 80.677L21.1055 62.4244L21.1325 52.9102L33.8625 71.1628Z" fill="#5FAF5F"/>
<path d="M93.9307 53.543L93.9021 63.5784L71.4727 76.613L71.5013 66.5776L93.9307 53.543Z" fill="#47A047"/>
<path d="M71.5019 66.5765L71.4735 76.6119L23.9023 49.1467L23.9307 39.1113L71.5019 66.5765Z" fill="#47A047"/>
<path d="M23.918 44.5021L71.4892 71.9533L71.4906 71.4397L23.9194 43.9883L23.918 44.5021Z" fill="#77CB77"/>
<path d="M23.918 43.3124L71.4892 70.7638L71.4908 70.2508L23.9194 42.7988L23.918 43.3124Z" fill="#77CB77"/>
<path d="M71.5029 66.5767L23.9315 39.1113L23.9297 39.7495L71.5011 67.2009L71.5029 66.5767Z" fill="#77CB77"/>
<path d="M23.9023 49.149L71.4735 76.6138L71.4745 76.1934L23.9035 48.7422L23.9023 49.149Z" fill="#77CB77"/>
<path d="M23.9062 46.8763L71.4776 74.3275L71.479 73.8147L23.9076 46.3633L23.9062 46.8763Z" fill="#77CB77"/>
<path d="M23.9062 48.0636L71.4776 75.5156L71.479 75.002L23.9079 47.5508L23.9062 48.0636Z" fill="#77CB77"/>
<path d="M23.9102 45.6886L71.4814 73.1406L71.4828 72.627L23.9116 45.1758L23.9102 45.6886Z" fill="#77CB77"/>
<path d="M71.4986 67.8752L23.9272 40.4238L23.9258 40.9374L71.497 68.388L71.4986 67.8752Z" fill="#77CB77"/>
<path d="M23.9235 41.6113L23.9219 42.1241L71.4933 69.5755L71.4947 69.0625L23.9235 41.6113Z" fill="#77CB77"/>
<path d="M53.3078 56.0748L53.2794 66.1102L44.8242 61.2288L44.8526 51.1934L53.3078 56.0748Z" fill="#D3DBEA"/>
<path d="M43.962 50.6738L43.9336 60.7092L44.8298 61.2268L44.8582 51.1914L43.962 50.6738Z" fill="#E34454"/>
<path d="M53.3136 56.0742L53.2852 66.1096L54.1814 66.6272L54.2098 56.5918L53.3136 56.0742Z" fill="#E34454"/>
<path d="M93.9342 53.5414L71.5048 66.576L23.9336 39.1108L46.363 26.0762L93.9342 53.5414Z" fill="#47A047"/>
<path d="M70.3952 58.1063C70.6398 58.2475 70.719 58.4037 70.6242 58.5803C70.547 58.7567 70.3476 58.9333 70.0264 59.1199C69.7054 59.3063 69.3928 59.4275 69.0886 59.4727C68.7926 59.5233 68.5224 59.4779 68.2778 59.3367C68.042 59.2005 67.963 59.0441 68.0406 58.8675C68.1266 58.6861 68.3168 58.5047 68.6378 58.3181C68.9504 58.1365 69.272 58.0205 69.5762 57.9751C69.8892 57.9247 70.1594 57.9701 70.3952 58.1063Z" fill="#96D696"/>
<path d="M71.2788 58.6054C71.202 58.8726 70.951 59.1398 70.5084 59.397C70.0576 59.6592 69.5968 59.8054 69.1444 59.8458C68.6834 59.891 68.2564 59.8054 67.8634 59.5784C67.4792 59.3566 67.321 59.1044 67.3978 58.8374C67.466 58.5752 67.7258 58.3128 68.1766 58.0508C68.6192 57.7936 69.0712 57.6422 69.532 57.597C69.9934 57.5514 70.4204 57.6474 70.8046 57.8692C71.1976 58.0962 71.3558 58.338 71.2788 58.6054ZM69.0902 59.4726C69.3944 59.4274 69.7072 59.3064 70.0282 59.1198C70.3492 58.9332 70.5486 58.7566 70.6258 58.5802C70.7206 58.4038 70.6414 58.2474 70.397 58.1062C70.1612 57.97 69.8908 57.9246 69.5778 57.9752C69.2736 58.0204 68.9522 58.1364 68.6396 58.318C68.3184 58.5046 68.1282 58.686 68.0422 58.8676C67.9646 59.0442 68.0438 59.2004 68.2796 59.3366C68.5242 59.4778 68.7942 59.5232 69.0902 59.4726Z" fill="#4C5671"/>
<path d="M73.2078 59.7291C73.744 60.0387 73.3716 60.4331 72.839 60.7427C72.3008 61.0553 71.63 61.2711 71.0904 60.9595C70.5586 60.6525 70.9156 60.2517 71.4504 59.9409C71.763 59.7593 72.0844 59.6433 72.3886 59.5981C72.7016 59.5477 72.9718 59.5929 73.2078 59.7291Z" fill="#96D696"/>
<path d="M73.32 61.0202C72.5178 61.4864 71.5016 61.6788 70.675 61.2016C69.8496 60.725 70.165 60.1522 70.9882 59.6738C71.4308 59.4166 71.8826 59.2654 72.3436 59.22C72.805 59.1746 73.2318 59.2704 73.6162 59.4922C74.4386 59.9672 74.138 60.5448 73.32 61.0202ZM71.9018 61.0956C72.206 61.0504 72.5186 60.9294 72.8398 60.7428C73.3726 60.433 73.7446 60.0388 73.2084 59.7292C72.9726 59.593 72.7024 59.5478 72.3894 59.5982C72.0852 59.6434 71.7638 59.7594 71.4512 59.941C70.9164 60.2518 70.5594 60.6526 71.0912 60.9596C71.3356 61.1008 71.6058 61.1462 71.9018 61.0956Z" fill="#4C5671"/>
<path d="M84.4545 53.2388C85.0921 53.607 85.0953 54.2022 84.4621 54.57C83.8285 54.9382 82.8015 54.9382 82.1639 54.57C81.5265 54.202 81.5229 53.6072 82.1565 53.239C82.7895 52.871 83.8171 52.8708 84.4545 53.2388Z" fill="#47A047"/>
<path d="M77.6891 49.3288C78.3179 49.6918 78.3211 50.287 77.6879 50.6548C77.0543 51.023 76.0273 51.023 75.3985 50.66C74.7609 50.2918 74.7573 49.697 75.3911 49.3288C76.0241 48.9608 77.0515 48.9606 77.6891 49.3288Z" fill="#5FAF5F"/>
<path d="M81.0683 51.2794C81.7057 51.6474 81.7089 52.2426 81.0757 52.6106C80.4421 52.9788 79.4151 52.9786 78.7775 52.6106C78.1487 52.2476 78.1451 51.6526 78.7789 51.2844C79.4119 50.9166 80.4395 50.9164 81.0683 51.2794Z" fill="#47A047"/>
<path d="M68.9412 56.8717L66.1034 58.5207L65.6406 58.2535L68.0532 56.8515L67.4768 56.5187L67.9018 56.2715L68.9412 56.8717Z" fill="#4C5671"/>
<path d="M64.7478 40.5554C61.037 39.6068 55.9928 40.2834 52.3384 42.4072C48.6776 44.5346 47.5292 47.4552 49.1796 49.6002L31.228 39.2358C30.1624 38.6206 30.1482 37.6172 31.2154 36.997L42.9288 30.1898C43.996 29.5696 45.7284 29.5746 46.794 30.1898L64.7478 40.5554ZM40.0354 40.451C42.507 41.878 46.494 41.878 48.9498 40.4508C51.4052 39.0238 51.3922 36.7144 48.9206 35.2874C46.4492 33.8606 42.4622 33.8606 40.0068 35.2874C37.551 36.7146 37.564 39.024 40.0354 40.451Z" fill="#96D696"/>
<path d="M48.9232 35.287C51.3948 36.714 51.4078 39.0234 48.9524 40.4502C46.4964 41.8774 42.5096 41.8776 40.038 40.4506C37.5664 39.0236 37.5534 36.7142 40.0092 35.287C42.4646 33.86 46.4516 33.86 48.9232 35.287Z" fill="#47A047"/>
<path d="M67.065 41.4687C67.7456 41.8615 68.274 42.3143 68.6544 42.8083C70.309 44.9575 69.1574 47.8815 65.503 50.0051C61.842 52.1327 56.8038 52.8073 53.0906 51.8555C52.236 51.6365 51.4516 51.3315 50.7704 50.9381C50.0906 50.5457 49.5626 50.0931 49.1828 49.5995C47.5324 47.4543 48.6806 44.5339 52.3416 42.4063C55.996 40.2827 61.0402 39.6059 64.751 40.5547C65.6038 40.7729 66.386 41.0767 67.065 41.4687Z" fill="#47A047"/>
<path d="M86.6036 53.17C87.6778 53.7902 87.692 54.7938 86.6248 55.4138L74.9114 62.221C73.8442 62.8412 72.1118 62.8362 71.0376 62.216L53.0898 51.8538C56.803 52.8056 61.8412 52.131 65.5022 50.0034C69.1566 47.8798 70.3084 44.9558 68.6536 42.8066L86.6036 53.17ZM71.9562 61.4696C72.4086 61.4294 72.8692 61.283 73.3202 61.021C74.1382 60.5456 74.4388 59.968 73.6164 59.4932C73.232 59.2712 72.8052 59.1754 72.3438 59.221C71.8828 59.2662 71.431 59.4176 70.9884 59.6746C70.1652 60.1532 69.8498 60.7258 70.6752 61.2024C71.0682 61.4292 71.4952 61.515 71.9562 61.4696ZM69.144 59.846C69.5964 59.8058 70.057 59.6594 70.508 59.3974C70.9506 59.1402 71.2016 58.8728 71.2784 58.6058C71.3554 58.3384 71.1972 58.0964 70.8042 57.8696C70.4198 57.6476 69.993 57.5518 69.5316 57.5974C69.0708 57.6426 68.6188 57.794 68.1762 58.051C67.7252 58.3132 67.4654 58.5754 67.3972 58.8376C67.3206 59.1048 67.4788 59.357 67.863 59.5788C68.256 59.8056 68.683 59.8914 69.144 59.846ZM82.1632 54.5668C82.8008 54.9348 83.8278 54.935 84.4614 54.5668C85.0946 54.1988 85.0914 53.6036 84.4538 53.2356C83.8164 52.8674 82.7888 52.8676 82.1558 53.2356C81.5222 53.6038 81.5256 54.1986 82.1632 54.5668ZM75.3948 50.659C76.0236 51.022 77.0506 51.0222 77.6842 50.654C78.3174 50.286 78.3142 49.6908 77.6854 49.3278C77.0478 48.9596 76.0204 48.9598 75.3872 49.3278C74.7536 49.696 74.7572 50.2908 75.3948 50.659ZM78.7758 51.2842C78.1422 51.6524 78.1458 52.2472 78.7746 52.6104C79.4122 52.9784 80.4392 52.9786 81.0728 52.6104C81.706 52.2424 81.7028 51.6472 81.0652 51.2792C80.4364 50.916 79.409 50.9162 78.7758 51.2842ZM66.0982 58.52L68.9358 56.871L67.8966 56.271L67.4714 56.518L68.048 56.8508L65.6354 58.2528L66.0982 58.52Z" fill="#96D696"/>
<path d="M75.7401 43.0399L53.3107 56.0745L44.8555 51.1929L67.2783 38.1543L75.7401 43.0399Z" fill="#E3E7F0"/>
<path d="M66.3903 37.6406L43.9609 50.675L44.8571 51.1926L67.2797 38.1542L66.3903 37.6406Z" fill="#ED5D71"/>
<path d="M76.6253 43.5495L75.7421 43.0391L53.3125 56.0741L54.2107 56.5925L76.6253 43.5495Z" fill="#ED5D71"/>
<path d="M93.9542 58.9355L71.5248 71.9559L71.5234 71.4423L93.9528 58.4219L93.9542 58.9355Z" fill="#5FAF5F"/>
<path d="M93.9466 57.746L71.5172 70.7664L71.5156 70.2534L93.945 57.2324L93.9466 57.746Z" fill="#5FAF5F"/>
<path d="M71.5078 66.5793L93.9372 53.5449L93.939 54.1831L71.5096 67.2035L71.5078 66.5793Z" fill="#5FAF5F"/>
<path d="M93.9656 63.5826L71.5364 76.6164L71.5352 76.196L93.9644 63.1758L93.9656 63.5826Z" fill="#5FAF5F"/>
<path d="M93.9581 61.3099L71.5287 74.3301L71.5273 73.8173L93.9567 60.7969L93.9581 61.3099Z" fill="#5FAF5F"/>
<path d="M93.9622 62.4972L71.5327 75.5184L71.5312 75.0046L93.9607 61.9844L93.9622 62.4972Z" fill="#5FAF5F"/>
<path d="M93.9581 60.1222L71.5287 73.1434L71.5273 72.6296L93.9567 59.6094L93.9581 60.1222Z" fill="#5FAF5F"/>
<path d="M71.5117 67.8778L93.9411 54.8574L93.9425 55.371L71.5131 68.3906L71.5117 67.8778Z" fill="#5FAF5F"/>
<path d="M93.9411 56.0449L93.9425 56.5577L71.5131 69.5781L71.5117 69.0651L93.9411 56.0449Z" fill="#5FAF5F"/>
<path d="M33.8414 78.4832L21.1114 60.2598L21.1094 60.9724L33.8394 79.1958L33.8414 78.4832Z" fill="#47A047"/>
<path d="M33.8607 72.2103L21.1309 53.9863L21.1289 54.6997L33.8587 72.9229L33.8607 72.2103Z" fill="#47A047"/>
<path d="M33.8414 77.2285L21.1114 59.0059L21.1094 59.7185L33.8394 77.9419L33.8414 77.2285Z" fill="#47A047"/>
<path d="M33.8603 71.1632L21.1303 52.9102L21.1289 53.4458L33.8589 71.6692L33.8603 71.1632Z" fill="#47A047"/>
<path d="M33.8453 75.9734L21.1153 57.75L21.1133 58.4626L33.8433 76.686L33.8453 75.9734Z" fill="#47A047"/>
<path d="M33.8533 74.7195L21.1233 56.4961L21.1211 57.2087L33.8513 75.4321L33.8533 74.7195Z" fill="#47A047"/>
<path d="M33.857 73.4656L21.127 55.2422L21.125 55.9556L33.855 74.1782L33.857 73.4656Z" fill="#47A047"/>
<path d="M33.8375 79.7374L21.1075 61.5156L21.1055 62.2274L33.8355 80.4508L33.8375 79.7374Z" fill="#47A047"/>
<path d="M69.132 84.482L69.1268 86.148C69.1268 84.9688 68.3528 83.8 66.8044 82.9078C65.2614 82.016 63.2466 81.5752 61.2318 81.5752C59.217 81.5698 57.2022 82.016 55.6692 82.9078C54.1466 83.7948 53.3828 84.9536 53.3828 86.112L53.388 84.4408C53.388 83.277 54.1518 82.1236 55.6744 81.2366C57.2074 80.3446 59.217 79.8984 61.2368 79.8984C63.2516 79.9036 65.2664 80.3446 66.8096 81.2366C68.363 82.1338 69.1372 83.3078 69.132 84.482Z" fill="#EFA143"/>
<path d="M66.8074 81.9695C69.8908 83.7497 69.907 86.6373 66.8438 88.4175C63.777 90.1997 58.7918 90.1997 55.7084 88.4195C52.6218 86.6375 52.6056 83.7499 55.6722 81.9677C58.7356 80.1875 63.7208 80.1875 66.8074 81.9695Z" fill="#FFDD94"/>
<path d="M70.7023 84.5353L70.6973 85.8373C70.6933 87.2279 69.7797 88.6165 67.9549 89.6771C64.2777 91.8141 58.3005 91.8121 54.6029 89.6773C52.7395 88.6015 51.8085 87.1897 51.8125 85.7803L51.8175 84.4785C51.8135 85.8879 52.7445 87.2995 54.6079 88.3753C58.3055 90.5101 64.2827 90.5121 67.9599 88.3753C69.7849 87.3147 70.6983 85.9261 70.7023 84.5353Z" fill="#EFA143"/>
<path d="M67.9152 80.642C71.6128 82.7768 71.6322 86.241 67.9588 88.3758C64.2816 90.5128 58.3044 90.5108 54.6068 88.376C50.9058 86.239 50.8826 82.7768 54.5598 80.64C58.2332 78.5052 64.2142 78.505 67.9152 80.642ZM55.7096 87.6882C58.793 89.4684 63.7782 89.4684 66.845 87.6862C69.9082 85.906 69.892 83.0184 66.8086 81.2382C63.722 79.4562 58.7368 79.4562 55.6734 81.2364C52.6068 83.0186 52.623 85.9062 55.7096 87.6882Z" fill="#FEBB61"/>
<path d="M60.2993 87.0008L63.0505 85.3984V86.0184L60.2993 87.6208L59.6643 87.243L59.6189 85.8974C59.6039 85.625 59.5887 85.4286 59.5433 85.2774C59.5133 85.1416 59.4225 85.036 59.2865 84.96C59.1503 84.8846 59.0143 84.8544 58.8329 84.8544C58.6665 84.8544 58.5003 84.8846 58.3643 84.96C58.2887 85.0058 58.2433 85.0508 58.1979 85.1112V85.6708L57.0945 85.8368C57.0189 85.6708 57.0039 85.5194 57.0039 85.3836V84.7636C57.0039 84.915 57.0341 85.0654 57.0945 85.2168L58.1225 85.081V84.7482C58.1225 84.5672 58.2131 84.4462 58.3643 84.3406C58.5003 84.2646 58.6665 84.2344 58.8329 84.2344C59.0143 84.2344 59.1503 84.2646 59.2865 84.3406C59.4225 84.4308 59.5133 84.537 59.5585 84.6728C59.5887 84.8086 59.6039 85.0058 59.6189 85.2774L59.6643 86.623L60.2993 87.0008Z" fill="#EFA143"/>
<path d="M61.7227 83.1746V82.5552C61.7227 82.4342 61.8135 82.3132 61.9949 82.2076C62.2519 82.0562 62.5693 82.0112 62.9321 82.0866C63.2949 82.147 63.6729 82.2984 64.0659 82.525C64.4589 82.7516 64.7159 82.9634 64.8217 83.1746C64.8671 83.2506 64.8821 83.311 64.8821 83.3716V83.9908C64.8821 83.9304 64.8671 83.855 64.8217 83.7946C64.7159 83.5834 64.4589 83.3716 64.0659 83.145C63.6729 82.9176 63.2949 82.7672 62.9321 82.7066C62.5693 82.6306 62.2519 82.6764 61.9949 82.8276C61.8135 82.9176 61.7227 83.0388 61.7227 83.1746Z" fill="#EFA143"/>
<path d="M66.0127 83.2813V83.9013C66.0127 84.2031 65.7859 84.4903 65.3325 84.7471C64.7883 85.0645 64.1987 85.1855 63.5639 85.1405C62.9289 85.0801 62.2941 84.8681 61.6893 84.5205C61.0695 84.1581 60.7219 83.7949 60.6161 83.4325C60.6009 83.3721 60.5859 83.3115 60.5859 83.2509V82.6309C60.5859 82.6915 60.6009 82.7521 60.6161 82.8125C60.7219 83.1749 61.0695 83.5381 61.6893 83.9013C62.2941 84.2489 62.9289 84.4601 63.5639 84.5205C64.2139 84.5811 64.7883 84.4453 65.3325 84.1279C65.7859 83.8709 66.0127 83.5839 66.0127 83.2813Z" fill="#EFA143"/>
<path d="M65.9901 83.1164C66.0885 83.4842 65.8693 83.8242 65.3323 84.1362C64.7949 84.4484 64.2089 84.5766 63.5737 84.5208C62.9289 84.4594 62.3025 84.2532 61.6945 83.9022C61.0767 83.5456 60.7187 83.1834 60.6205 82.8156C60.5125 82.4424 60.7317 82.1026 61.2691 81.7902C61.8059 81.4782 62.3921 81.35 63.0369 81.4114C63.6719 81.4672 64.2985 81.6734 64.9161 82.03C65.5241 82.381 65.8821 82.7432 65.9901 83.1164ZM63.6761 83.8464C64.0417 83.9134 64.3591 83.8744 64.6181 83.7238C64.8767 83.5736 64.9433 83.3896 64.8267 83.1776C64.7099 82.966 64.4587 82.7542 64.0631 82.5258C63.6673 82.2972 63.2911 82.147 62.9351 82.0856C62.5689 82.0188 62.2515 82.0578 61.9929 82.2082C61.7339 82.3586 61.6675 82.5426 61.7843 82.7542C61.8911 82.9606 62.1519 83.178 62.5477 83.4064C62.9433 83.6348 63.3099 83.7796 63.6761 83.8464Z" fill="#FEBB61"/>
<path d="M63.0663 85.4008L60.3145 87.0002L59.6677 86.6268L59.6317 85.2838C59.6203 85.0108 59.6003 84.81 59.5605 84.6654C59.5217 84.5314 59.4345 84.4256 59.2993 84.3476C59.1643 84.2696 59.0195 84.2306 58.8463 84.2306C58.6731 84.2306 58.5099 84.2696 58.3757 84.3476C58.1359 84.487 58.0697 84.7265 58.2063 85.0609L57.1009 85.2226C56.9939 84.9494 56.9829 84.7098 57.0489 84.5036C57.1247 84.292 57.3259 84.0856 57.6613 83.8906C57.9969 83.6956 58.4001 83.5841 58.8811 83.5619C59.3427 83.5395 59.7665 83.6288 60.1429 83.8462C60.3455 83.9632 60.4813 84.1078 60.5591 84.2752C60.6467 84.4366 60.6961 84.6874 60.7073 85.0164L60.7411 85.8466L62.2847 84.9496L63.0663 85.4008Z" fill="#FEBB61"/>
<path d="M55.5734 87.2025L55.5682 88.8687C55.5682 87.6895 54.7942 86.5207 53.2458 85.6285C51.7028 84.7365 49.688 84.2957 47.6732 84.2957C45.6584 84.2905 43.6436 84.7365 42.1108 85.6285C40.588 86.5153 39.8242 87.6741 39.8242 88.8327L39.8294 87.1615C39.8294 85.9977 40.5932 84.8441 42.1158 83.9573C43.6488 83.0651 45.6584 82.6191 47.6782 82.6191C49.693 82.6243 51.7078 83.0651 53.251 83.9573C54.8044 84.8545 55.5786 86.0285 55.5734 87.2025Z" fill="#EFA143"/>
<path d="M53.2488 84.6902C56.3322 86.4704 56.3484 89.3582 53.2852 91.1384C50.2184 92.9204 45.2332 92.9206 42.1498 91.1404C39.0632 89.3582 39.047 86.4706 42.1136 84.6884C45.177 82.9082 50.1622 82.9082 53.2488 84.6902Z" fill="#FFDD94"/>
<path d="M57.1437 87.2562L57.1387 88.558C57.1347 89.9488 56.2211 91.3374 54.3963 92.398C50.7191 94.5348 44.7419 94.5328 41.0443 92.398C39.1809 91.3222 38.2499 89.9106 38.2539 88.501L38.2589 87.1992C38.2549 88.6086 39.1859 90.0204 41.0493 91.0962C44.7469 93.231 50.7241 93.233 54.4013 91.096C56.2263 90.0356 57.1397 88.6468 57.1437 87.2562Z" fill="#EFA143"/>
<path d="M54.3566 83.3607C58.0542 85.4955 58.0736 88.9599 54.4002 91.0947C50.723 93.2317 44.7458 93.2295 41.0482 91.0947C37.3472 88.9579 37.324 85.4957 41.0012 83.3587C44.6746 81.2239 50.6556 81.2239 54.3566 83.3607ZM42.151 90.4071C45.2344 92.1873 50.2196 92.1873 53.2864 90.4051C56.3496 88.6249 56.3334 85.7373 53.25 83.9571C50.1634 82.1749 45.1782 82.1751 42.1148 83.9553C39.0482 85.7373 39.0644 88.6251 42.151 90.4071Z" fill="#FEBB61"/>
<path d="M47.8316 89.3329L48.6782 88.8487V89.4539L47.8316 89.9521L44.6572 88.1083L43.9164 88.5467L43.1758 88.1083V87.5039L43.9164 87.9267L44.6572 87.5039L47.8316 89.3329Z" fill="#EFA143"/>
<path d="M51.145 88.0799C50.616 88.3973 50.0112 88.5183 49.3764 88.4725C48.7414 88.4119 48.1216 88.2009 47.502 87.8525C46.882 87.4901 46.5194 87.1277 46.4286 86.7645C46.4134 86.7039 46.3984 86.6435 46.3984 86.5829V85.9785C46.3984 86.0235 46.4134 86.0839 46.4286 86.1445C46.5194 86.5077 46.882 86.8701 47.502 87.2333C48.1216 87.5809 48.7414 87.7927 49.3764 87.8525C50.0112 87.8983 50.616 87.7773 51.145 87.4745C51.6136 87.2029 51.8252 86.9159 51.8252 86.6131V87.2333C51.8252 87.5351 51.6136 87.8229 51.145 88.0799Z" fill="#EFA143"/>
<path d="M47.5273 86.5073V85.9027C47.5273 85.7661 47.6329 85.6451 47.7993 85.5395C48.0715 85.3883 48.3889 85.3433 48.7365 85.4185C49.0993 85.4791 49.4923 85.6303 49.8703 85.8421C50.2783 86.0835 50.5203 86.2953 50.6413 86.5073C50.6865 86.5825 50.7017 86.6431 50.7017 86.7035V87.3081C50.7017 87.2475 50.6715 87.1877 50.6413 87.1273C50.5203 86.9153 50.2633 86.6887 49.8703 86.4615C49.4923 86.2349 49.0993 86.0991 48.7365 86.0231C48.3737 85.9625 48.0715 86.0083 47.7993 86.1595C47.6179 86.2651 47.5273 86.3861 47.5273 86.5073Z" fill="#EFA143"/>
<path d="M51.8048 86.4384C51.9026 86.8064 51.693 87.1518 51.1468 87.4692C50.6094 87.7816 50.0136 87.9042 49.3786 87.8484C48.7432 87.7926 48.1168 87.5864 47.4992 87.2298C46.8814 86.8732 46.5234 86.511 46.4252 86.1432C46.3268 85.7754 46.5462 85.4356 47.0834 85.1234C47.6298 84.806 48.2158 84.6778 48.8514 84.7332C49.4866 84.789 50.113 84.9952 50.7308 85.3518C51.3484 85.7084 51.7064 86.0706 51.8048 86.4384ZM49.4904 87.1796C49.856 87.2466 50.1638 87.2018 50.4228 87.0514C50.6914 86.8954 50.767 86.7172 50.6412 86.5108C50.5242 86.2992 50.2728 86.0764 49.877 85.8478C49.491 85.625 49.1054 85.4802 48.7398 85.413C48.383 85.3408 48.0758 85.3852 47.8074 85.5412C47.5482 85.6918 47.4722 85.8702 47.589 86.0818C47.7154 86.288 47.9668 86.5108 48.3528 86.7336C48.7486 86.9622 49.1342 87.107 49.4904 87.1796Z" fill="#FEBB61"/>
<path d="M48.678 88.8459L47.8342 89.3363L44.6494 87.4975L43.9112 87.9265L43.168 87.4973L44.75 86.5781L48.678 88.8459Z" fill="#FEBB61"/>
</svg>
