<svg width="120" height="120" viewBox="0 0 120 120" fill="none" xmlns="http://www.w3.org/2000/svg">
<path fill-rule="evenodd" clip-rule="evenodd" d="M99.375 60C99.375 56.8936 96.8564 54.375 93.75 54.375H26.25C23.1436 54.375 20.625 56.8936 20.625 60V93.75C20.625 96.8564 23.1436 99.375 26.25 99.375H93.75C96.8564 99.375 99.375 96.8564 99.375 93.75V60Z" fill="#3DDC80"/>
<path fill-rule="evenodd" clip-rule="evenodd" d="M93.75 67.8567C93.75 66.6656 92.9976 65.6025 91.8726 65.206C91.0711 65.0133 90.3637 64.5675 89.7731 63.9769C89.1825 63.3863 88.7367 62.6789 88.4583 61.9069C88.0744 60.8199 87.0464 60.0914 85.8933 60.0914C72.9023 60 47.0977 60 34.1067 60C32.9156 60 31.8525 60.7524 31.4559 61.8774C31.2633 62.6789 30.8175 63.3863 30.2269 63.9769C29.6363 64.5675 28.9289 65.0133 28.1569 65.2917C27.0698 65.6756 26.3414 66.7036 26.3414 67.8567C26.25 73.282 26.25 80.468 26.25 85.8933C26.25 87.0844 27.0024 88.1475 28.1274 88.544C28.9289 88.7367 29.6363 89.1825 30.2269 89.7731C30.8175 90.3637 31.2633 91.0711 31.5417 91.8431C31.9256 92.9301 32.9536 93.6586 34.1067 93.6586C47.0977 93.75 72.9023 93.75 85.8933 93.75C87.0844 93.75 88.1475 92.9976 88.5441 91.8726C88.7367 91.0711 89.1825 90.3637 89.7731 89.7731C90.3637 89.1825 91.0711 88.7367 91.8431 88.4583C92.9302 88.0744 93.6586 87.0464 93.6586 85.8933C93.75 80.468 93.75 73.282 93.75 67.8567Z" fill="#1DBC60"/>
<path d="M60 88.125C66.2132 88.125 71.25 83.0882 71.25 76.875C71.25 70.6618 66.2132 65.625 60 65.625C53.7868 65.625 48.75 70.6618 48.75 76.875C48.75 83.0882 53.7868 88.125 60 88.125Z" fill="#3DDC80"/>
<path d="M37.5 79.6875C39.0533 79.6875 40.3125 78.4283 40.3125 76.875C40.3125 75.3217 39.0533 74.0625 37.5 74.0625C35.9467 74.0625 34.6875 75.3217 34.6875 76.875C34.6875 78.4283 35.9467 79.6875 37.5 79.6875Z" fill="#3DDC80"/>
<path d="M82.5 79.6875C84.0533 79.6875 85.3125 78.4283 85.3125 76.875C85.3125 75.3217 84.0533 74.0625 82.5 74.0625C80.9467 74.0625 79.6875 75.3217 79.6875 76.875C79.6875 78.4283 80.9467 79.6875 82.5 79.6875Z" fill="#3DDC80"/>
<path fill-rule="evenodd" clip-rule="evenodd" d="M40.313 37.5V45.9375C40.313 47.4914 41.5716 48.75 43.1255 48.75H48.7505C50.3044 48.75 51.563 47.4914 51.563 45.9375V37.5H54.3755C55.4414 37.5 56.4145 36.8981 56.8913 35.9447C57.368 34.9926 57.2653 33.8522 56.6255 33L48.188 21.75C47.6564 21.0412 46.8239 20.625 45.938 20.625C45.052 20.625 44.2195 21.0412 43.688 21.75L35.2505 33C34.6106 33.8522 34.508 34.9926 34.9847 35.9447C35.4614 36.8981 36.4345 37.5 37.5005 37.5H40.313Z" fill="#3DDC80"/>
<path fill-rule="evenodd" clip-rule="evenodd" d="M68.438 31.875V23.4375C68.438 21.8836 69.6966 20.625 71.2505 20.625H76.8755C78.4294 20.625 79.688 21.8836 79.688 23.4375V31.875H82.5005C83.5664 31.875 84.5395 32.4769 85.0163 33.4303C85.493 34.3824 85.3903 35.5228 84.7505 36.375L76.313 47.625C75.7814 48.3338 74.9489 48.75 74.063 48.75C73.177 48.75 72.3445 48.3338 71.813 47.625L63.3755 36.375C62.7356 35.5228 62.633 34.3824 63.1097 33.4303C63.5864 32.4769 64.5595 31.875 65.6255 31.875H68.438Z" fill="#FF7B6C"/>
</svg>
