<svg width="120" height="120" viewBox="0 0 120 120" fill="none" xmlns="http://www.w3.org/2000/svg">
<g clip-path="url(#clip0_226_1325)">
<path d="M15 65.4805V71.842C15 74.4797 17.0946 76.3416 19.6548 76.3416H58.4445C61.0047 76.3416 63.0993 74.4797 63.0993 71.842V65.4805H15Z" fill="#359846"/>
<path d="M58.4445 43.7583H19.6548C17.0946 43.7583 15 45.6202 15 48.2579V54.6194H63.0993V48.2579C63.0993 45.6202 61.0047 43.7583 58.4445 43.7583Z" fill="#EA8634"/>
<path d="M63.0993 54.6191H15V65.4803H63.0993V54.6191Z" fill="#FCFBF0"/>
<path d="M58.2894 76.3416C60.8496 76.3416 63.0994 74.4797 63.0994 71.842V65.4805H45.5664L58.2894 76.3416Z" fill="#21872F"/>
<path d="M58.445 43.7583H19.6553L32.5335 54.6194H63.0998V48.2579C63.0998 45.6202 61.0052 43.7583 58.445 43.7583Z" fill="#E27423"/>
<path d="M45.6446 65.4803H63.1V54.6191H32.4561L45.6446 65.4803Z" fill="#F7F4E2"/>
<path d="M58.445 43.7583H19.6553L55.5746 54.6194H63.0998V48.2579C63.0998 45.6202 61.0052 43.7583 58.445 43.7583Z" fill="#D86619"/>
<path d="M63.0996 56.7914V54.6191H55.1865L63.0996 56.7914Z" fill="#F2E9C2"/>
<path d="M63.0993 71.7641C63.0993 74.557 61.0047 76.3413 58.4445 76.3413H19.6548C17.0946 76.3413 15 74.3242 15 71.6865" fill="#167A20"/>
<path d="M39.0496 55.1621C36.3343 55.1621 34.1621 57.3343 34.1621 60.0496C34.1621 62.7649 36.3343 64.9371 39.0496 64.9371C41.7649 64.9371 43.9371 62.7649 43.9371 60.0496C43.9371 57.3343 41.7649 55.1621 39.0496 55.1621ZM43.0838 60.5927C43.0838 60.6703 43.1613 60.8254 43.2389 60.8254C43.1613 61.0582 43.1613 61.2909 43.0838 61.5236C43.0062 61.4461 42.851 61.5236 42.7734 61.6012C42.6959 61.6788 42.7734 61.8339 42.851 61.9115C42.7734 62.1443 42.6183 62.2994 42.5407 62.5322C42.4631 62.4546 42.308 62.4546 42.2304 62.6097C42.1528 62.6873 42.1528 62.8425 42.2304 62.9201C42.1528 62.9976 42.0752 63.0752 41.9976 63.1528L40.2909 61.2133L39.5927 60.6703L39.6703 60.5927L40.3685 61.1357L42.6183 62.2994L40.6012 60.7478L39.8254 60.4375C39.8254 60.3599 39.8254 60.3599 39.903 60.2824L40.6788 60.5927L43.1613 61.1357L40.7564 60.3599L39.903 60.2048C39.903 60.1272 39.903 60.1272 39.903 60.0496L40.7564 60.1272L43.3165 59.972L40.7564 59.8169L39.903 59.8945C39.903 59.8169 39.903 59.8169 39.903 59.7393L40.7564 59.5841L43.1613 58.8083L40.6788 59.3514L39.903 59.6617C39.903 59.5841 39.903 59.5841 39.8254 59.5066L40.6012 59.1962L42.7734 57.7998L40.5236 58.9635L39.8254 59.5066L39.7478 59.429L40.446 58.8859L42.1528 56.9464C42.2304 57.024 42.308 57.1016 42.3855 57.1792C42.308 57.2568 42.308 57.4119 42.3855 57.4895C42.4631 57.5671 42.6183 57.5671 42.6959 57.5671C42.851 57.7222 42.9286 57.955 43.0062 58.1877C42.9286 58.2653 42.851 58.3429 42.9286 58.498C43.0062 58.5756 43.0838 58.6532 43.2389 58.5756C43.3165 58.8083 43.3941 59.0411 43.3941 59.2738C43.3165 59.2738 43.2389 59.429 43.2389 59.5066C43.2389 59.5841 43.3941 59.7393 43.4717 59.6617C43.4717 59.7393 43.4717 59.8945 43.4717 59.972C43.4717 60.0496 43.4717 60.2048 43.4717 60.2824C43.1613 60.3599 43.0838 60.4375 43.0838 60.5927ZM36.3343 56.7913C36.4119 56.8689 36.5671 56.8689 36.6447 56.7913C36.7222 56.7137 36.7222 56.5585 36.7222 56.481C36.8774 56.3258 37.1101 56.2482 37.3429 56.1706C37.4204 56.2482 37.498 56.3258 37.6532 56.2482C37.7308 56.1706 37.8083 56.0931 37.7308 55.9379C37.9635 55.8603 38.1962 55.7827 38.429 55.7827C38.429 55.8603 38.5841 55.9379 38.6617 55.9379C38.7393 55.9379 38.8945 55.7827 38.8169 55.7052C38.8945 55.7052 39.0496 55.7052 39.1272 55.7052C39.2048 55.7052 39.3599 55.7052 39.4375 55.7052C39.4375 55.7827 39.5151 55.9379 39.5927 55.9379C39.6703 55.9379 39.8254 55.8603 39.8254 55.7827C40.0582 55.8603 40.2909 55.8603 40.5236 55.9379C40.4461 56.0155 40.5236 56.1706 40.6012 56.2482C40.6788 56.3258 40.8339 56.2482 40.9115 56.1706C41.1443 56.2482 41.2994 56.4034 41.5322 56.481C41.4546 56.5585 41.4546 56.7137 41.6097 56.7913C41.6873 56.8689 41.8425 56.8689 41.9201 56.7913C41.9976 56.8689 42.0752 56.9464 42.1528 57.024L40.2133 58.7308L39.6703 59.429L39.5927 59.3514L40.1357 58.6532L41.2994 56.4034L39.7478 58.498L39.4375 59.2738C39.3599 59.2738 39.3599 59.2738 39.2824 59.1962L39.5927 58.4204L40.1357 55.9379L39.3599 58.3429L39.2048 59.1962C39.1272 59.1962 39.1272 59.1962 39.0496 59.1962L39.1272 58.3429L39.0496 55.7827L38.8945 58.3429L38.972 59.1962C38.8945 59.1962 38.8945 59.1962 38.8169 59.1962L38.6617 58.3429L37.8859 55.9379L38.429 58.4204L38.7393 59.1962C38.6617 59.1962 38.6617 59.1962 38.5841 59.2738L38.2738 58.498L36.8774 56.3258L38.0411 58.5756L38.5841 59.2738L38.5066 59.3514L37.9635 58.6532L36.024 56.9464C36.1016 56.9464 36.1792 56.8689 36.3343 56.7913ZM36.024 63.0752C35.9464 62.9976 35.8689 62.9201 35.7913 62.8425C35.8689 62.7649 35.8689 62.6097 35.7913 62.5322C35.7137 62.4546 35.5585 62.4546 35.481 62.4546C35.3258 62.2994 35.2482 62.0667 35.1706 61.8339C35.2482 61.7564 35.3258 61.6788 35.2482 61.5236C35.1706 61.4461 35.0931 61.3685 34.9379 61.446C34.8603 61.2133 34.7827 60.9806 34.7827 60.7478C34.8603 60.7478 34.9379 60.5927 34.9379 60.5151C34.9379 60.4375 34.7827 60.2824 34.7052 60.3599C34.7052 60.2824 34.7052 60.1272 34.7052 60.0496C34.7052 59.972 34.7052 59.8169 34.7052 59.7393C34.7827 59.7393 34.9379 59.6617 34.9379 59.5841C34.9379 59.5066 34.8603 59.3514 34.7827 59.3514C34.8603 59.1187 34.8603 58.8859 34.9379 58.6532C35.0155 58.7308 35.1706 58.6532 35.2482 58.5756C35.3258 58.498 35.2482 58.3429 35.1706 58.2653C35.2482 58.0326 35.4034 57.8774 35.481 57.6447C35.5585 57.7222 35.7137 57.7222 35.7913 57.5671C35.8689 57.4119 35.8689 57.3343 35.7913 57.2568C35.8689 57.1792 35.9464 57.1016 36.024 57.024L37.7308 58.9635L38.429 59.5066L38.3514 59.5841L37.6532 59.0411L35.4034 57.8774L37.5756 59.2738L38.3514 59.5841C38.3514 59.6617 38.3514 59.6617 38.2738 59.7393L37.498 59.429L35.0155 58.8859L37.4204 59.6617L38.2738 59.8169C38.2738 59.8945 38.2738 59.8945 38.2738 59.972L37.4204 59.8945L34.7827 60.0496L37.3429 60.2048L38.1962 60.1272C38.1962 60.2048 38.1962 60.2048 38.1962 60.2824L37.3429 60.4375L34.9379 61.2133L37.4204 60.6703L38.1962 60.3599C38.1962 60.4375 38.1962 60.4375 38.2738 60.5151L37.498 60.8254L35.3258 62.2218L37.5756 61.0582L38.2738 60.5151L38.3514 60.5927L37.6532 61.1357L36.024 63.0752ZM38.7393 64.3165C38.7393 64.2389 38.6617 64.0838 38.5841 64.0838C38.5066 64.0838 38.3514 64.1613 38.3514 64.2389C38.1187 64.1613 37.8859 64.1613 37.6532 64.0838C37.7308 64.0062 37.6532 63.851 37.5756 63.7734C37.498 63.6959 37.3429 63.7734 37.2653 63.851C37.0326 63.7734 36.8774 63.6183 36.6447 63.5407C36.7222 63.4631 36.7222 63.308 36.5671 63.2304C36.4895 63.1528 36.3343 63.1528 36.2568 63.2304C36.1792 63.1528 36.1016 63.0752 36.024 62.9976L37.9635 61.2909L38.5066 60.5927L38.5841 60.6703L38.0411 61.3685L36.8774 63.6183L38.2738 61.446L38.5841 60.6703C38.6617 60.6703 38.6617 60.6703 38.7393 60.7478L38.429 61.5236L37.8859 64.0062L38.6617 61.6012L38.8169 60.7478C38.8945 60.7478 38.8945 60.7478 38.972 60.7478L38.8945 61.6012L39.0496 64.1613L39.2048 61.6012L39.1272 60.7478C39.2048 60.7478 39.2048 60.7478 39.2824 60.7478L39.4375 61.6012L40.2133 64.0062L39.6703 61.5236L39.3599 60.7478C39.4375 60.7478 39.4375 60.7478 39.5151 60.6703L39.8254 61.446L41.2218 63.6183L40.0582 61.3685L39.5151 60.6703L39.5927 60.5927L40.1357 61.2909L42.0752 62.9976C41.9976 63.0752 41.9201 63.1528 41.8425 63.2304C41.7649 63.1528 41.6097 63.1528 41.5322 63.2304C41.4546 63.308 41.4546 63.4631 41.4546 63.5407C41.2994 63.6959 41.0667 63.7734 40.8339 63.851C40.7564 63.7734 40.6788 63.6959 40.5236 63.7734C40.3685 63.851 40.3685 63.9286 40.446 64.0838C40.2133 64.1613 39.9806 64.2389 39.7478 64.2389C39.7478 64.1613 39.5927 64.0838 39.5151 64.0838C39.4375 64.0838 39.2824 64.2389 39.3599 64.3165C39.2824 64.3165 39.1272 64.3165 39.0496 64.3165C38.972 64.3165 38.8169 64.3165 38.7393 64.3165Z" fill="#7D7DBC"/>
<path d="M40.1357 60.9805L40.3685 61.2132V61.1356L40.1357 60.9805Z" fill="#6060B2"/>
<path d="M39.05 55.1621C37.576 55.1621 36.2571 55.8603 35.3262 56.8689L35.7916 57.2568C35.8692 57.1792 35.9468 57.1016 36.0244 57.024C36.102 56.9464 36.1795 56.8689 36.2571 56.7913C36.3347 56.8689 36.4899 56.8689 36.5674 56.7913C36.645 56.7137 36.645 56.5585 36.645 56.481C36.7226 56.4034 36.8778 56.4034 36.9553 56.3258L38.119 58.5756L38.6621 59.2738L38.5845 59.3514L38.0415 58.6532L36.102 56.9464L37.7311 58.8083L37.9639 58.9635L38.4294 59.3514L39.7482 60.4375L39.8258 60.3599L40.524 60.903L42.7738 62.0667C42.6962 62.1443 42.6962 62.2994 42.6186 62.377C42.5411 62.2994 42.3859 62.2994 42.3083 62.4546C42.2307 62.5322 42.2307 62.6873 42.3083 62.7649L42.7738 63.1528C43.472 62.2994 43.9375 61.2133 43.9375 59.972C43.9375 57.3343 41.7653 55.1621 39.05 55.1621ZM38.6621 59.2738L38.3518 58.498L36.9553 56.4034C37.0329 56.3258 37.1105 56.2482 37.2657 56.2482C37.3432 56.3258 37.4208 56.4034 37.576 56.3258C37.6536 56.2482 37.7311 56.1706 37.6536 56.0155C37.7311 56.0155 37.8863 55.9379 37.9639 55.9379L38.5069 58.4204L38.8173 59.1962C38.7397 59.2738 38.7397 59.2738 38.6621 59.2738ZM39.1276 59.1962L39.2051 58.3429L39.05 55.7827L38.8948 58.3429L38.9724 59.1962C38.8948 59.1962 38.8948 59.1962 38.8173 59.1962L38.6621 58.3429L37.8863 55.9379C37.9639 55.9379 38.119 55.8603 38.1966 55.8603C38.1966 55.9379 38.3518 56.0155 38.4294 56.0155C38.5069 56.0155 38.6621 55.8603 38.5845 55.7827C38.6621 55.7827 38.8172 55.7827 38.8948 55.7827C38.9724 55.7827 39.1276 55.7827 39.2051 55.7827C39.2051 55.8603 39.2827 56.0155 39.3603 56.0155C39.4379 56.0155 39.593 55.9379 39.593 55.8603C39.6706 55.8603 39.8258 55.9379 39.9034 55.9379L39.1276 58.3429L38.9724 59.1962C39.2051 59.1962 39.1276 59.1962 39.1276 59.1962ZM39.2827 59.2738L39.593 58.498L40.1361 56.0155C40.2137 56.0155 40.3688 56.0931 40.4464 56.0931C40.3688 56.1706 40.4464 56.3258 40.524 56.4034C40.6016 56.481 40.7567 56.4034 40.8343 56.3258C40.9119 56.4034 41.0671 56.4034 41.1446 56.481L39.7482 58.498L39.4379 59.2738C39.3603 59.2738 39.3603 59.2738 39.2827 59.2738ZM42.7738 61.6012C42.6962 61.6788 42.7738 61.8339 42.8514 61.9115C42.7738 61.9891 42.7738 62.1443 42.6962 62.2218L40.6016 60.7478L39.8258 60.4375C39.8258 60.3599 39.8258 60.3599 39.9034 60.2824L40.6792 60.5927L43.1617 61.1357C43.1617 61.2133 43.0841 61.3685 43.0841 61.446C42.929 61.446 42.8514 61.5236 42.7738 61.6012ZM43.3169 59.7393C43.3169 59.8169 43.3169 59.972 43.3169 60.0496C43.3169 60.1272 43.3169 60.2824 43.3169 60.3599C43.2393 60.3599 43.0841 60.4375 43.0841 60.5151C43.0841 60.5927 43.1617 60.7478 43.2393 60.7478C43.2393 60.8254 43.1617 60.9806 43.1617 61.0582L40.7567 60.2824L39.9034 60.1272C39.9034 60.0496 39.9034 60.0496 39.9034 59.972L40.7567 60.0496L43.3169 59.8945L40.7567 59.7393L39.9034 59.8169C39.9034 59.7393 39.9034 59.7393 39.9034 59.6617L40.7567 59.5066L43.1617 58.7308C43.1617 58.8083 43.2393 58.9635 43.2393 59.0411C43.1617 59.0411 43.0841 59.1962 43.0841 59.2738C43.0841 59.6617 43.1617 59.7393 43.3169 59.7393ZM42.7738 58.498C42.8514 58.5756 42.929 58.6532 43.0841 58.5756C43.0841 58.6532 43.1617 58.8083 43.1617 58.8859L40.6792 59.429L39.9034 59.7393C39.9034 59.6617 39.9034 59.6617 39.8258 59.5841L40.6016 59.2738L42.6962 57.8774C42.7738 57.955 42.8514 58.0326 42.8514 58.1877C42.7738 58.2653 42.6962 58.4204 42.7738 58.498ZM42.6962 57.955L40.4464 59.1187L39.7482 59.6617L39.6706 59.5841L40.3688 59.0411L42.0756 57.1016L40.1361 58.8083L39.593 59.5066L39.5155 59.429L40.0585 58.7308L41.2222 56.481C41.2998 56.5585 41.455 56.5585 41.5325 56.6361C41.455 56.7137 41.455 56.8689 41.6101 56.9464C41.6877 57.024 41.8429 57.024 41.9204 56.9464C41.998 57.024 42.0756 57.1016 42.1532 57.1792C42.2307 57.2568 42.3083 57.3343 42.3859 57.4119C42.3083 57.4895 42.3083 57.6447 42.3859 57.7222C42.4635 57.7998 42.6186 57.7998 42.6962 57.7998C42.6186 57.7222 42.6962 57.7998 42.6962 57.955Z" fill="#6060B2"/>
</g>
<path d="M103.526 59.9742L78.4531 44V76H102.905L86.7762 59.9742H103.526Z" fill="#003893"/>
<path d="M101.561 59.4574L78.9697 44.9824V52.5818V59.3023V75.4832H101.561L85.4318 59.4574H101.561Z" fill="#DC143C"/>
<path d="M101.561 75.4832L85.4318 59.4574H101.561L78.9697 44.9824V52.5818V59.4574" fill="#C10633"/>
<path d="M101.562 59.4569L78.9707 44.9819V52.7364" fill="#A80030"/>
<path d="M84.4497 58.4751C86.9828 58.4751 88.9989 56.459 88.9989 53.9258C88.5854 54.9598 87.8616 55.7869 86.9828 56.3556L86.5692 56.0454L87.3447 55.4767L86.4141 55.2182L86.8794 54.3911L85.9489 54.5462L86.1039 53.6157L85.2768 54.0809L85.0183 53.1504L84.4497 53.9258L83.881 53.1504L83.6225 54.0809L82.7954 53.6157L82.9505 54.5462L82.0199 54.3911L82.4852 55.2182L81.5547 55.4767L82.3301 56.0454L81.9165 56.3556C81.0377 55.8386 80.2623 55.0115 79.9004 53.9258C79.9004 56.4073 81.9682 58.4751 84.4497 58.4751Z" fill="white"/>
<path d="M88.6885 69.7968L87.4477 68.1425L89.2571 67.3671L87.241 66.5399L88.5851 64.8857L86.6206 65.1441L86.8791 62.9729L85.2248 64.1102H85.2765L84.4494 62.3525L83.6222 64.317L82.0196 63.0763L82.2781 65.1441L80.262 64.8857L81.5544 66.5399L79.6416 67.4188L81.5027 68.2459L80.262 69.8485L82.2781 69.5383L82.0196 71.6062L83.6739 70.3655L84.4494 72.2265L85.2765 70.3138L86.8791 71.5545L86.6723 69.5383L88.6885 69.7968Z" fill="white"/>
<path d="M86.9829 56.3038L86.5694 55.9936L87.3448 55.425L86.4143 55.1665L86.8796 54.3393L85.949 54.4944L86.1041 53.5639L85.277 54.0292L85.0185 53.0986L84.4498 53.8741L84.1396 53.5122V58.475C84.6566 58.475 84.4498 58.475 84.4498 58.475C86.9829 58.475 88.9991 56.4589 88.9991 53.9258C88.5855 54.908 87.8618 55.7868 86.9829 56.3038Z" fill="#DDDDDD"/>
<path d="M87.4474 68.142L89.2568 67.3666L87.2406 66.5394L88.5847 64.8852L86.6203 65.1437L86.8788 62.9724L85.2245 64.1097H85.2762L84.449 62.3521L84.2939 62.7139V71.8125L84.449 72.226L85.2762 70.3133H85.2245L86.8788 71.554L86.6203 69.5378L88.6881 69.7963L87.4474 68.142Z" fill="#DDDDDD"/>
<defs>
<clipPath id="clip0_226_1325">
<rect width="48.0993" height="48.0993" fill="white" transform="translate(15 36)"/>
</clipPath>
</defs>
</svg>
