<svg width="120" height="120" viewBox="0 0 120 120" fill="none" xmlns="http://www.w3.org/2000/svg">
<path d="M93.75 34.6875H102.188V65.625H93.75V34.6875Z" fill="#2A70AB"/>
<path d="M88.125 36.0938H93.75V61.4062H88.125V36.0938Z" fill="#4DB7E5"/>
<path d="M88.125 40.3125H82.5L72.6562 36.0938H62.8125V61.4062H78.2812L82.5 57.1875H88.125V40.3125Z" fill="#FF9F9B"/>
<path d="M55.7809 19.2188L24.8438 35.7185L50.1562 82.1247L81.0934 65.625L55.7809 19.2188Z" fill="#448703"/>
<path d="M50.5999 59.642L40.7623 64.894L35.4326 55.1346L45.2779 49.8853L50.5999 59.642Z" fill="#F98500"/>
<path d="M55.7812 19.2188L34.6875 30.4688L60 76.875L81.0938 65.625L55.7812 19.2188Z" fill="#95CB37"/>
<path d="M44.6156 25.1812C46.0101 27.7964 46.3153 30.8566 45.4646 33.6957C44.6139 36.5348 42.6763 38.923 40.0735 40.3405L34.6875 30.4687L44.6156 25.1812Z" fill="#6DBB24"/>
<path d="M55.7816 30.4688C53.7408 30.4726 51.7377 29.9194 49.9881 28.8687C48.2385 27.8179 46.809 26.3096 45.8535 24.5063L55.7816 19.2188L61.1676 29.0906C59.5169 29.9959 57.6643 30.4699 55.7816 30.4688Z" fill="#6DBB24"/>
<path d="M69.9283 71.5875L60.0002 76.875L54.6143 67.0031C55.9188 66.2896 57.352 65.8422 58.8307 65.6866C60.3094 65.5311 61.8043 65.6706 63.2287 66.097C64.6532 66.5234 65.9788 67.2283 67.1288 68.1708C68.2789 69.1132 69.2304 70.2746 69.9283 71.5875Z" fill="#6DBB24"/>
<path d="M81.0938 65.6248L71.1656 70.9123C69.7711 68.2971 69.466 65.2369 70.3167 62.3978C71.1674 59.5587 73.105 57.1705 75.7078 55.7529L81.0938 65.6248Z" fill="#6DBB24"/>
<path d="M71.6861 48.3845L50.6003 59.6419L45.2783 49.8851L66.3705 38.6392L71.6861 48.3845Z" fill="#FCA713"/>
<path d="M62.8129 47.3438C62.0677 48.0898 61.6491 49.1013 61.6494 50.1558C61.6497 51.2104 62.0687 52.2216 62.8144 52.9673C63.5601 53.713 64.5713 54.132 65.6259 54.1323C66.6804 54.1325 67.6919 53.714 68.4379 52.9688L74.0629 47.3438C75.5548 48.8356 77.5782 49.6737 79.6879 49.6737C81.7977 49.6737 83.8211 48.8356 85.3129 47.3438L88.1254 44.5312V40.3125H82.5004L72.6567 36.0938H64.9863L68.1754 41.9813L62.8129 47.3438Z" fill="#FFDAD2"/>
<path d="M17.8125 75.4688H23.4375V100.781H17.8125V75.4688Z" fill="#2A70AB"/>
<path d="M23.4375 78.2812H29.0625V97.9688H23.4375V78.2812Z" fill="#4DB7E5"/>
<path d="M45.9375 82.4998L47.3438 83.9061H55.7812C56.9001 83.9061 57.9732 84.3505 58.7644 85.1417C59.5555 85.9329 60 87.0059 60 88.1248C60 89.2437 59.5555 90.3168 58.7644 91.1079C57.9732 91.8991 56.9001 92.3436 55.7812 92.3436H78.2812C79.4001 92.3436 80.4732 92.788 81.2644 93.5792C82.0555 94.3704 82.5 95.4434 82.5 96.5623C82.5 97.6812 82.0555 98.7543 81.2644 99.5454C80.4732 100.337 79.4001 100.781 78.2812 100.781H47.6406C41.0284 100.781 34.5642 98.8239 29.0625 95.1561V82.4998C30.1705 81.3918 31.4859 80.5128 32.9337 79.9132C34.3814 79.3135 35.933 79.0049 37.5 79.0049C39.067 79.0049 40.6186 79.3135 42.0663 79.9132C43.5141 80.5128 44.8295 81.3918 45.9375 82.4998Z" fill="#FFDAD2"/>
<path d="M43.125 93.75C43.125 94.123 43.2732 94.4806 43.5369 94.7443C43.8006 95.0081 44.1583 95.1562 44.5312 95.1562H55.7812C56.1542 95.1562 56.5119 95.0081 56.7756 94.7444C57.0393 94.4806 57.1875 94.123 57.1875 93.75C57.1875 93.377 57.0393 93.0194 56.7756 92.7556C56.5119 92.4919 56.1542 92.3438 55.7812 92.3438H44.5312C44.1583 92.3438 43.8006 92.4919 43.5369 92.7557C43.2732 93.0194 43.125 93.377 43.125 93.75Z" fill="#FF9F9B"/>
</svg>
