<svg width="120" height="120" viewBox="0 0 120 120" fill="none" xmlns="http://www.w3.org/2000/svg">
<path d="M102.352 23.8382V47.7936C102.352 50.4937 100.155 52.6909 97.455 52.6909H22.5567C19.8434 52.6909 17.6465 50.4937 17.6465 47.7936V23.8382C17.6465 21.1246 19.8434 18.9409 22.5567 18.9409H97.455C100.155 18.9409 102.352 21.1246 102.352 23.8382Z" fill="#DBDBDB"/>
<path d="M95.7352 32.8771V38.7535C95.7352 39.5614 95.0735 40.2231 94.266 40.2231H25.7336C24.9264 40.2231 24.2646 39.5614 24.2646 38.7535V32.8771C24.2646 32.07 24.9264 31.4082 25.7336 31.4082H94.266C95.0735 31.4082 95.7352 32.07 95.7352 32.8771Z" fill="#304056"/>
<path d="M92.4271 97.1089C92.5725 99.2525 90.8783 101.053 88.7344 101.053H31.2668C29.1358 101.053 27.4284 99.2525 27.5741 97.1089L31.968 31.4087H88.0461L92.4271 97.1089Z" fill="#488FF7"/>
<path d="M80.6234 57.0029C80.2718 57.0029 79.9797 56.7263 79.9629 56.3719L79.3845 43.8995C79.3677 43.5343 79.6501 43.2248 80.0152 43.2077C80.3733 43.1918 80.6893 43.4733 80.7067 43.8381L81.2851 56.3105C81.3019 56.6756 81.0195 56.9852 80.6544 57.0023C80.6441 57.0026 80.6337 57.0029 80.6234 57.0029Z" fill="black"/>
<path d="M73.8126 57.003C73.4571 57.003 73.1631 56.7199 73.1514 56.3619L72.5052 35.5499C72.4942 35.1845 72.7811 34.8791 73.1463 34.8678C73.5049 34.8462 73.8164 35.1434 73.8287 35.5086L74.475 56.3206C74.486 56.686 74.199 56.9914 73.8339 57.0027C73.8268 57.003 73.8197 57.003 73.8126 57.003Z" fill="black"/>
<path d="M67.0032 57.0033C66.6426 57.0033 66.3472 56.7138 66.3414 56.3519L66.0138 35.5399C66.0079 35.1745 66.2994 34.8736 66.6652 34.8678C67.0335 34.8458 67.3315 35.1538 67.3373 35.5192L67.6649 56.3312C67.6708 56.6967 67.3793 56.9975 67.0135 57.0033C67.0103 57.0033 67.0064 57.0033 67.0032 57.0033Z" fill="black"/>
<path d="M51.6732 101.059H38.1396L41.2494 31.4082H52.8579L51.6732 101.059Z" fill="#FEFEFE"/>
<path d="M82.3172 92.8336C82.357 93.7331 81.6422 94.488 80.7423 94.488H69.1482C68.2877 94.488 67.5865 93.7997 67.5733 92.9395L67.2424 71.6571C67.2291 70.7704 67.9439 70.0557 68.8173 70.0557H79.7497C80.5966 70.0557 81.2848 70.7174 81.3246 71.5511L82.3172 92.8336Z" fill="#FEFEFE"/>
</svg>
