<svg width="120" height="120" viewBox="0 0 120 120" fill="none" xmlns="http://www.w3.org/2000/svg">
<path d="M78.8021 34.103V56.9897L77.3867 85.8959L85.2561 83.1305L86.5365 56.9897V36.8508L78.8021 34.103Z" fill="#477B9E"/>
<path d="M73.3201 100.565H38.945C38.0424 100.565 37.1744 100.218 36.5207 99.5958C35.8671 98.9734 35.4778 98.1235 35.4336 97.222L33.4648 56.9899V22.9502C33.4648 22.0178 33.8352 21.1236 34.4945 20.4643C35.1539 19.805 36.0481 19.4346 36.9805 19.4346H75.2867C76.2191 19.4346 77.1133 19.805 77.7726 20.4643C78.4319 21.1236 78.8023 22.0178 78.8023 22.9502V56.9899L76.8336 97.222C76.7893 98.1239 76.3998 98.9741 75.7457 99.5966C75.0916 100.219 74.223 100.566 73.3201 100.565Z" fill="#7FB3FA"/>
<path d="M40.2578 34.103H72.0088V53.0487H40.2578V34.103Z" fill="#DBEDFF"/>
<path d="M52.7314 60.9316H59.5356V67.7358H52.7314V60.9316Z" fill="#477B9E"/>
<path d="M65.2041 60.9316H72.0082V67.7358H65.2041V60.9316Z" fill="#477B9E"/>
<path d="M40.2578 60.9316H47.062V67.7358H40.2578V60.9316Z" fill="#477B9E"/>
<path d="M52.7314 73.4053H59.5356V80.2094H52.7314V73.4053Z" fill="#477B9E"/>
<path d="M65.2041 73.4053H72.0082V80.2094H65.2041V73.4053Z" fill="#F87C68"/>
<path d="M40.2578 73.4053H47.062V80.2094H40.2578V73.4053Z" fill="#477B9E"/>
<path d="M52.7314 85.8784H59.5356V92.6826H52.7314V85.8784Z" fill="#477B9E"/>
<path d="M65.2041 85.8784H72.0082V92.6826H65.2041V85.8784Z" fill="#F4DD45"/>
<path d="M40.2578 85.8784H47.062V92.6826H40.2578V85.8784Z" fill="#477B9E"/>
<path d="M72.0081 19.4346L68.6465 26.7689H43.6195L40.2578 19.4346H72.0081Z" fill="#477B9E"/>
</svg>
