<svg width="120" height="120" viewBox="0 0 120 120" fill="none" xmlns="http://www.w3.org/2000/svg">
<path d="M97.7562 34.8291V94.2255C97.7562 98.2257 94.513 101.469 90.5128 101.469H29.4866C25.4864 101.469 22.2432 98.2257 22.2432 94.2255V34.8291H97.7562Z" fill="#F5F5F5"/>
<path d="M33.1084 101.469H29.4866C25.4864 101.469 22.2432 98.2257 22.2432 94.2255V34.8291H25.8649V94.2255C25.8649 98.2257 29.1082 101.469 33.1084 101.469Z" fill="#E6E6E6"/>
<path d="M97.7562 38.0884V61.6894C97.2854 61.7691 96.8019 61.8107 96.3075 61.8107H95.0399C92.6387 61.8107 90.4657 60.8383 88.8939 59.2646C87.3202 57.6928 86.3478 55.5198 86.3478 53.1186C86.3478 55.5198 85.3754 57.6928 83.8017 59.2646C82.2299 60.8383 80.0568 61.8107 77.6556 61.8107C72.855 61.8107 68.9635 57.9192 68.9635 53.1186C68.9635 57.9192 65.0719 61.8107 60.2713 61.8107H60.0902C57.689 61.8107 55.516 60.8383 53.9442 59.2646C52.3705 57.6928 51.3981 55.5198 51.3981 53.1186C51.3981 57.9192 47.5065 61.8107 42.7059 61.8107H42.3438C39.9426 61.8107 37.7695 60.8383 36.1977 59.2646C34.624 57.6928 33.6516 55.5198 33.6516 53.1186C33.6516 57.9192 29.7601 61.8107 24.9595 61.8107H23.6919C23.1975 61.8107 22.714 61.7691 22.2432 61.6894V38.0884H97.7562Z" fill="#E6E6E6"/>
<path d="M35.604 34.8289L33.8348 46.9726C33.7135 47.9305 33.6519 48.8939 33.6519 49.8591C33.6519 50.0112 33.6483 50.1615 33.641 50.3118C33.4056 54.9024 29.6082 58.5513 24.9598 58.5513H23.6922C21.2909 58.5513 19.1179 57.5788 17.5461 56.0052C16.072 54.533 15.1249 52.5338 15.0109 50.3118C15.0036 50.1615 15 50.0112 15 49.8591C15 48.9048 15.2101 47.9631 15.6175 47.0994L22.2435 34.8289L28.333 33.0181L35.604 34.8289Z" fill="#FD646F"/>
<path d="M51.3988 34.8289V49.8591C51.3988 50.0112 51.3952 50.1615 51.388 50.3118C51.1525 54.9024 47.3552 58.5513 42.7067 58.5513H42.3445C39.9433 58.5513 37.7703 57.5788 36.1984 56.0052C34.7244 54.533 33.7773 52.5338 33.6632 50.3118C33.656 50.1615 33.6523 50.0112 33.6523 49.8591C33.6523 48.8939 33.7139 47.9305 33.8352 46.9726L35.6045 34.8289L43.2519 33.0181L51.3988 34.8289Z" fill="#FFC682"/>
<path d="M68.9638 34.8289V49.8591C68.9638 50.0112 68.9602 50.1615 68.953 50.3118C68.7176 54.9024 64.9202 58.5513 60.2717 58.5513H60.0906C55.4421 58.5513 51.6447 54.9024 51.4093 50.3118C51.4021 50.1615 51.3984 50.0112 51.3984 49.8591V34.8289L60.3622 33.0181L68.9638 34.8289Z" fill="#FD646F"/>
<path d="M86.3482 49.8591C86.3482 50.0112 86.3446 50.1615 86.3373 50.3118C86.2232 52.5338 85.2761 54.533 83.8021 56.0052C82.2303 57.5788 80.0572 58.5513 77.656 58.5513C73.0075 58.5513 69.2101 54.9024 68.9747 50.3118C68.9675 50.1615 68.9639 50.0112 68.9639 49.8591V34.8289L77.0222 33.0181L84.5771 34.8289L86.1834 46.9708C86.292 47.9305 86.3482 48.8939 86.3482 49.8591Z" fill="#FFC682"/>
<path d="M105 49.8591C105 50.0112 104.996 50.1615 104.989 50.3118C104.754 54.9024 100.956 58.5513 96.3079 58.5513H95.0403C92.6391 58.5513 90.4661 57.5788 88.8943 56.0052C87.4202 54.533 86.4731 52.5338 86.359 50.3118C86.3518 50.1615 86.3482 50.0112 86.3482 49.8591C86.3482 48.8939 86.292 47.9305 86.1834 46.9708L84.5771 34.8289L91.1508 33.0181L97.7566 34.8289L104.383 47.0994C104.587 47.5303 104.741 47.9831 104.844 48.4448C104.948 48.9084 105 49.381 105 49.8591Z" fill="#FD646F"/>
<path d="M77.7192 69.3229C77.7998 68.9236 77.6967 68.5093 77.4389 68.1942C77.1808 67.8791 76.7951 67.6962 76.3878 67.6962H45.7746L45.7288 67.48C45.2446 65.192 43.1956 63.5312 40.857 63.5312H38.5408C37.7907 63.5312 37.1826 64.1392 37.1826 64.8894C37.1826 65.6396 37.7907 66.2475 38.5408 66.2475H40.857C41.92 66.2475 42.8514 67.0023 43.0716 68.0423L47.1072 87.1076C47.4884 88.9085 48.8408 90.3168 50.539 90.8366C50.3342 91.3221 50.2208 91.8554 50.2208 92.4145C50.2208 94.6611 52.0486 96.489 54.2953 96.489C56.542 96.489 58.3697 94.6611 58.3697 92.4145C58.3697 91.9385 58.2868 91.4814 58.1361 91.0564H64.217C64.0662 91.4814 63.9834 91.9385 63.9834 92.4145C63.9834 94.6611 65.8111 96.489 68.0579 96.489C70.3046 96.489 72.1323 94.6611 72.1323 92.4145C72.1323 91.9385 72.0494 91.4814 71.8987 91.0564H72.2229C72.9729 91.0564 73.581 90.4485 73.581 89.6983C73.581 88.948 72.9729 88.3401 72.2229 88.3401H51.979C50.916 88.3401 49.9847 87.5853 49.7645 86.5454L49.4163 84.8995H56.2818C56.2831 84.8995 56.2843 84.8996 56.2856 84.8996C56.2865 84.8996 56.2874 84.8995 56.2885 84.8995H64.9783C64.9792 84.8995 64.9801 84.8996 64.9812 84.8996C64.9825 84.8996 64.9837 84.8995 64.985 84.8995H73.4653C74.1118 84.8995 74.6688 84.4437 74.7966 83.8099L76.2238 76.7364C76.2607 76.6282 76.2843 76.5139 76.2926 76.3951L77.7192 69.3229ZM55.6534 92.4145C55.6534 93.1635 55.0443 93.7727 54.2953 93.7727C53.5463 93.7727 52.9371 93.1635 52.9371 92.4145C52.9371 91.6656 53.5463 91.0564 54.2953 91.0564C55.0443 91.0564 55.6534 91.6656 55.6534 92.4145ZM69.416 92.4145C69.416 93.1635 68.8068 93.7727 68.0579 93.7727C67.3089 93.7727 66.6997 93.1635 66.6997 92.4145C66.6997 91.6656 67.3089 91.0564 68.0579 91.0564C68.8068 91.0564 69.416 91.6656 69.416 92.4145ZM73.815 74.9397H67.4233L67.9892 70.4125H74.7284L73.815 74.9397ZM57.4862 82.1832L56.9203 77.656H64.3465L63.7806 82.1832H57.4862ZM56.5808 74.9397L56.0149 70.4125H65.2519L64.686 74.9397H56.5808ZM53.2774 70.4125L53.8433 74.9397H47.3079L46.3496 70.4125H53.2774ZM47.8828 77.656H54.1828L54.7487 82.1832H48.8411L47.8828 77.656ZM66.5179 82.1832L67.0838 77.656H73.267L72.3536 82.1832H66.5179Z" fill="#50758D"/>
<path d="M15.0107 50.312H33.6409C33.4055 54.9026 29.6081 58.5514 24.9596 58.5514H23.692C21.2908 58.5514 19.1178 57.579 17.546 56.0054C16.0719 54.5331 15.1248 52.5339 15.0107 50.312Z" fill="#FC4755"/>
<path d="M33.6631 50.312H51.3878C51.1524 54.9026 47.355 58.5514 42.7065 58.5514H42.3444C39.9432 58.5514 37.7701 57.579 36.1983 56.0054C34.7243 54.5331 33.7772 52.5339 33.6631 50.312Z" fill="#FFAC5C"/>
<path d="M51.4092 50.312H68.9528C68.7174 54.9026 64.92 58.5514 60.2716 58.5514H60.0905C55.442 58.5514 51.6446 54.9026 51.4092 50.312Z" fill="#FC4755"/>
<path d="M68.9746 50.312H86.3372C86.2231 52.5339 85.276 54.5331 83.802 56.0054C82.2301 57.579 80.0571 58.5514 77.6559 58.5514C73.0074 58.5514 69.21 54.9026 68.9746 50.312Z" fill="#FFAC5C"/>
<path d="M104.99 50.312C104.754 54.9026 100.957 58.5514 96.3083 58.5514H95.0407C92.6395 58.5514 90.4664 57.579 88.8946 56.0054C87.4205 54.5331 86.4735 52.5339 86.3594 50.312H104.99Z" fill="#FC4755"/>
<path d="M22.2432 34.829V25.7747C22.2432 21.7743 25.4862 18.5312 29.4866 18.5312H90.5128C94.5132 18.5312 97.7562 21.7743 97.7562 25.7747V34.829H22.2432Z" fill="#50758D"/>
<path d="M33.6247 29.2785C34.2335 28.5663 34.6026 27.6431 34.6026 26.635C34.6026 24.3884 32.7749 22.5605 30.5282 22.5605C29.2613 22.5605 28.1277 23.1418 27.3798 24.0518C27.0346 24.4542 26.6897 24.8565 26.3449 25.2591C25.7361 25.9713 25.3672 26.8943 25.3672 27.9026C25.3672 30.1492 27.1949 31.977 29.4416 31.977C30.7087 31.977 31.8423 31.3956 32.5902 30.4856C32.6074 30.4655 33.2973 29.6609 33.6247 29.2785Z" fill="#2B597F"/>
<path d="M44.3542 29.3239C44.963 28.6117 45.3321 27.6885 45.3321 26.6804C45.3321 24.4338 43.5044 22.606 41.2576 22.606C39.9908 22.606 38.8572 23.1872 38.1093 24.0972C37.7641 24.4996 37.4192 24.902 37.0744 25.3045C36.4656 26.0167 36.0967 26.9397 36.0967 27.948C36.0967 30.1946 37.9244 32.0225 40.1711 32.0225C41.4382 32.0225 42.5718 31.441 43.3197 30.531C43.3369 30.5109 44.0268 29.7064 44.3542 29.3239Z" fill="#2B597F"/>
<path d="M55.0378 29.3239C55.6466 28.6117 56.0157 27.6885 56.0157 26.6804C56.0157 24.4338 54.188 22.606 51.9412 22.606C50.6744 22.606 49.5408 23.1872 48.7929 24.0972C48.4477 24.4996 48.1027 24.902 47.758 25.3045C47.1491 26.0167 46.7803 26.9397 46.7803 27.948C46.7803 30.1946 48.608 32.0225 50.8547 32.0225C52.1218 32.0225 53.2554 31.441 54.0033 30.531C54.0205 30.5109 54.7104 29.7064 55.0378 29.3239Z" fill="#2B597F"/>
<path d="M30.5285 30.7094C28.2818 30.7094 26.4541 28.8816 26.4541 26.635C26.4541 24.3884 28.2818 22.5605 30.5285 22.5605C32.7753 22.5605 34.603 24.3884 34.603 26.635C34.603 28.8816 32.7753 30.7094 30.5285 30.7094Z" fill="#FD646F"/>
<path d="M41.2571 30.7544C39.0103 30.7544 37.1826 28.9265 37.1826 26.6799C37.1826 24.4334 39.0103 22.6055 41.2571 22.6055C43.5038 22.6055 45.3315 24.4334 45.3315 26.6799C45.3315 28.9265 43.5038 30.7544 41.2571 30.7544Z" fill="#FFC682"/>
<path d="M51.9416 30.7544C49.6949 30.7544 47.8672 28.9265 47.8672 26.6799C47.8672 24.4334 49.6949 22.6055 51.9416 22.6055C54.1884 22.6055 56.0161 24.4334 56.0161 26.6799C56.0161 28.9265 54.1884 30.7544 51.9416 30.7544Z" fill="#93DDB7"/>
<path d="M92.7044 29.3234C93.3132 28.6112 93.6822 27.688 93.6822 26.6799C93.6822 24.4334 91.8545 22.6055 89.6078 22.6055H65.5233C64.2564 22.6055 63.1228 23.1868 62.3749 24.0967C62.0298 24.4991 61.6848 24.9015 61.34 25.304C60.7312 26.0162 60.3623 26.9392 60.3623 27.9475C60.3623 30.1941 62.19 32.022 64.4368 32.022H88.5213C89.7883 32.022 90.9219 31.4405 91.6698 30.5305C91.687 30.5104 92.377 29.7059 92.7044 29.3234Z" fill="#2B597F"/>
<path d="M89.6072 30.7544H65.5227C63.2759 30.7544 61.4482 28.9265 61.4482 26.6799C61.4482 24.4334 63.2759 22.6055 65.5227 22.6055H89.6072C91.8539 22.6055 93.6816 24.4334 93.6816 26.6799C93.6816 28.9265 91.8539 30.7544 89.6072 30.7544Z" fill="#F5F5F5"/>
<path d="M41.2571 30.7544C39.0103 30.7544 37.1826 28.9265 37.1826 26.6799C37.1826 24.4334 39.0103 22.6055 41.2571 22.6055C43.5038 22.6055 45.3315 24.4334 45.3315 26.6799C45.3315 28.9265 43.5038 30.7544 41.2571 30.7544Z" fill="#FFC682"/>
<path d="M51.9416 30.7544C49.6949 30.7544 47.8672 28.9265 47.8672 26.6799C47.8672 24.4334 49.6949 22.6055 51.9416 22.6055C54.1884 22.6055 56.0161 24.4334 56.0161 26.6799C56.0161 28.9265 54.1884 30.7544 51.9416 30.7544Z" fill="#93DDB7"/>
</svg>
