<svg width="120" height="120" viewBox="0 0 120 120" fill="none" xmlns="http://www.w3.org/2000/svg">
<g clip-path="url(#clip0_223_951)">
<path d="M103.907 45.5525L26.9259 27.709C26.1666 27.5335 25.4086 28.006 25.2326 28.765L15.0364 72.7543C14.9519 73.1189 15.0158 73.5022 15.2137 73.8197C15.4116 74.1372 15.7279 74.3631 16.0923 74.4476L93.0737 92.291C93.1792 92.3153 93.2859 92.3275 93.3925 92.3275C93.6542 92.3275 93.9133 92.2545 94.1391 92.1137C94.4568 91.9156 94.6826 91.5995 94.7671 91.2349L104.963 47.2456C105.139 46.4866 104.666 45.7283 103.907 45.5525Z" fill="#8ED4AD"/>
<path d="M104.598 73.8521L95.6089 29.6002C95.4537 28.8363 94.7085 28.3434 93.9451 28.4981L16.5043 44.2285C16.1374 44.3029 15.8153 44.5201 15.6086 44.8321C15.4021 45.1441 15.3278 45.5255 15.4022 45.8922L24.391 90.1441C24.527 90.8132 25.1153 91.2746 25.7725 91.2746C25.8656 91.2746 25.96 91.2654 26.0549 91.246L103.496 75.5157C103.863 75.4412 104.185 75.2241 104.391 74.9121C104.598 74.6002 104.672 74.2188 104.598 73.8521Z" fill="#68C692"/>
<path d="M103.745 69.6537L30.4186 84.5484C30.3239 84.5676 30.2293 84.5769 30.1362 84.5769C29.479 84.5769 28.8907 84.1155 28.7547 83.4465L20.6188 43.3926L16.5043 44.2283C16.1374 44.3027 15.8153 44.5199 15.6086 44.8319C15.4021 45.1439 15.3278 45.5253 15.4022 45.892L24.391 90.1439C24.527 90.813 25.1153 91.2744 25.7725 91.2744C25.8656 91.2744 25.96 91.2652 26.0549 91.2458L103.496 75.5155C103.863 75.441 104.185 75.2239 104.391 74.9119C104.598 74.5998 104.672 74.2185 104.598 73.8518L103.745 69.6537Z" fill="#42B877"/>
<path d="M95.9766 59.7639L93.1676 45.9352C93.0931 45.5683 92.876 45.2462 92.564 45.0395C92.2516 44.8328 91.8702 44.7585 91.5037 44.8331C86.929 45.7618 82.4503 42.7963 81.5209 38.2212C81.3659 37.4574 80.6205 36.9644 79.8571 37.1193L32.8395 46.6698C32.4726 46.7443 32.1506 46.9614 31.9438 47.2734C31.7373 47.5855 31.663 47.9668 31.7375 48.3335C32.6668 52.9085 29.7007 57.3867 25.1255 58.3161C24.3618 58.4711 23.8686 59.2162 24.0236 59.98L26.8326 73.8085C26.907 74.1754 27.1242 74.4975 27.4362 74.7042C27.7484 74.911 28.1296 74.9852 28.4963 74.9106C30.7126 74.4605 32.9716 74.9002 34.8569 76.149C36.7423 77.3979 38.0285 79.3062 38.4789 81.5224C38.5533 81.8893 38.7704 82.2113 39.0825 82.4181C39.3153 82.5722 39.5866 82.6527 39.8616 82.6527C39.9552 82.6527 40.0493 82.6433 40.1424 82.6244L87.1601 73.0739C87.9237 72.9188 88.4172 72.1737 88.262 71.4102C87.3326 66.835 90.2989 62.3568 94.8739 61.4274C95.6382 61.2726 96.1318 60.5277 95.9766 59.7639Z" fill="#B4E2C9"/>
<path d="M72.2941 67.6062L59.7687 64.2307C63.7031 63.2784 66.3667 59.6758 66.2348 55.7257L69.118 55.1401C69.8816 54.9851 70.3752 54.24 70.2199 53.4764C70.0647 52.7125 69.3193 52.2191 68.5561 52.3744L65.674 52.9598C65.1039 51.4711 64.1287 50.1797 62.8338 49.217L67.7136 48.2259C68.4772 48.0708 68.9707 47.3258 68.8155 46.5622C68.6603 45.7982 67.9149 45.3052 67.1516 45.4601L50.5573 48.8309C49.7936 48.9859 49.3002 49.731 49.4552 50.4946C49.5912 51.1636 50.1795 51.6251 50.8367 51.6251C50.9299 51.6251 51.0242 51.6159 51.1191 51.5965L56.6507 50.4729C58.1278 50.1725 59.6339 50.4658 60.8911 51.2986C61.7457 51.8646 62.4152 52.6344 62.8509 53.5332L51.9621 55.7451C51.1983 55.9002 50.705 56.6453 50.86 57.4088C50.996 58.0779 51.5843 58.5393 52.2415 58.5393C52.3346 58.5393 52.429 58.5302 52.5239 58.5107L63.4118 56.2992C63.2803 58.8073 61.4709 61.0132 58.8982 61.5358L53.3668 62.6594C52.7643 62.7813 52.3018 63.2999 52.2438 63.9104C52.1792 64.5898 52.631 65.2349 53.2917 65.4079L71.5601 70.3313C72.322 70.5361 73.1242 70.0551 73.3021 69.2869C73.471 68.5566 73.0175 67.8013 72.2941 67.6062Z" fill="#379982"/>
<path d="M83.5087 55.0969C83.2087 53.6195 82.3511 52.3472 81.0941 51.5146C79.8372 50.682 78.3312 50.3889 76.8537 50.6889C75.3763 50.989 74.104 51.8466 73.2714 53.1035C72.4389 54.3605 72.1457 55.8665 72.4458 57.3441C72.7458 58.8215 73.6034 60.0936 74.8602 60.9262C75.7957 61.5458 76.8689 61.8667 77.9655 61.8667C78.3426 61.8667 78.7226 61.8288 79.1007 61.752C82.151 61.1324 84.1284 58.147 83.5087 55.0969Z" fill="#68C692"/>
<path d="M40.8993 57.992C37.8493 58.6117 35.872 61.5971 36.4915 64.6472C36.7917 66.1246 37.6491 67.3969 38.9061 68.2295C39.8415 68.8489 40.9144 69.1698 42.0112 69.1698C42.3884 69.1698 42.7683 69.1319 43.1465 69.0551C44.6239 68.7549 45.8962 67.8975 46.7288 66.6406C47.5613 65.3836 47.8545 63.8776 47.5544 62.4C46.9348 59.3499 43.9492 57.3724 40.8993 57.992Z" fill="#68C692"/>
<path d="M89.0399 53.973C88.4203 50.9231 85.4354 48.9457 82.385 49.5652C80.9075 49.8654 79.6352 50.7229 78.8027 51.9798C77.9701 53.2368 77.677 54.7428 77.977 56.2204C78.277 57.6978 79.1346 58.9701 80.3916 59.8027C81.327 60.4221 82.4 60.743 83.4967 60.743C83.874 60.743 84.254 60.7051 84.6322 60.6283C87.6823 60.0087 89.6596 57.0231 89.0399 53.973Z" fill="#42B877"/>
<path d="M42.0225 63.5237C41.7223 62.0463 40.8649 60.774 39.608 59.9414C38.3512 59.109 36.8455 58.8155 35.3674 59.1157C33.89 59.4159 32.6177 60.2734 31.7851 61.5303C30.9526 62.7873 30.6594 64.2933 30.9594 65.7709C31.5024 68.4435 33.8616 70.2923 36.4894 70.2923C36.8605 70.2923 37.2373 70.2554 37.6146 70.1787C40.6647 69.5594 42.642 66.5738 42.0225 63.5237C42.0225 63.5239 42.0225 63.5239 42.0225 63.5237Z" fill="#42B877"/>
</g>
<defs>
<clipPath id="clip0_223_951">
<rect width="90" height="90" fill="white" transform="translate(15 15)"/>
</clipPath>
</defs>
</svg>
