<svg width="120" height="120" viewBox="0 0 120 120" fill="none" xmlns="http://www.w3.org/2000/svg">
<path d="M74.0625 57.1875C70.9561 57.1875 68.4375 54.6689 68.4375 51.5625V44.7591C67.4391 44.3231 66.5053 43.7691 65.6447 43.125H20.625V88.125H76.875V60V56.407C76.0453 56.8908 75.0919 57.1875 74.0625 57.1875Z" fill="#FAB400"/>
<path d="M90.9375 60H76.875V88.125H20.625V93.75H96.5625C98.1164 93.75 99.375 92.4914 99.375 90.9375V74.0625L90.9375 60Z" fill="#3CC8B4"/>
<path d="M20.625 43.125H26.25V88.125H20.625V43.125Z" fill="#DC9600"/>
<path d="M20.625 88.125H26.25V93.75H20.625V88.125Z" fill="#1EAA96"/>
<path d="M99.375 74.0625H82.5V60H90.9375L99.375 74.0625Z" fill="#F0F0F0"/>
<path d="M92.3438 85.3125H99.375V79.6875H92.3438C91.5675 79.6875 90.9375 80.3175 90.9375 81.0938V83.9062C90.9375 84.6825 91.5675 85.3125 92.3438 85.3125Z" fill="#FAB400"/>
<path d="M86.7188 99.375C82.8361 99.375 79.6875 96.2264 79.6875 92.3438C79.6875 88.4611 82.8361 85.3125 86.7188 85.3125C90.6014 85.3125 93.75 88.4611 93.75 92.3438C93.75 96.2264 90.6014 99.375 86.7188 99.375Z" fill="#505050"/>
<path d="M33.2812 99.375C29.3986 99.375 26.25 96.2264 26.25 92.3438C26.25 88.4611 29.3986 85.3125 33.2812 85.3125C37.1639 85.3125 40.3125 88.4611 40.3125 92.3438C40.3125 96.2264 37.1639 99.375 33.2812 99.375Z" fill="#505050"/>
<path d="M86.7188 95.1562C85.1648 95.1562 83.9062 93.8977 83.9062 92.3438C83.9062 90.7898 85.1648 89.5312 86.7188 89.5312C88.2727 89.5312 89.5312 90.7898 89.5312 92.3438C89.5312 93.8977 88.2727 95.1562 86.7188 95.1562Z" fill="#F0F0F0"/>
<path d="M33.2812 95.1562C31.7273 95.1562 30.4688 93.8977 30.4688 92.3438C30.4688 90.7898 31.7273 89.5312 33.2812 89.5312C34.8352 89.5312 36.0938 90.7898 36.0938 92.3438C36.0938 93.8977 34.8352 95.1562 33.2812 95.1562Z" fill="#F0F0F0"/>
<path d="M43.125 43.125H54.375V54.375H43.125V43.125Z" fill="#FA6450"/>
<path d="M62.8125 74.0625H71.25V76.875H62.8125V74.0625Z" fill="#BE7800"/>
<path d="M62.8125 79.6875H71.25V82.5H62.8125V79.6875Z" fill="#BE7800"/>
<path d="M85.3127 31.8748C85.3127 24.9209 79.0028 19.4408 71.7972 20.8456C67.345 21.7147 63.7886 25.3484 62.9955 29.8147C62.0308 35.2541 64.9797 40.1352 69.4938 42.1433C70.5358 42.6073 71.2502 43.5889 71.2502 44.728V48.7498H76.8752V44.7266C76.8752 43.5875 77.5896 42.6073 78.6302 42.1447C82.5663 40.3939 85.3127 36.4606 85.3127 31.8748Z" fill="#FA6450"/>
<path d="M72.3063 42.1432C67.7922 40.1365 64.8433 35.2554 65.808 29.8146C66.5997 25.3484 70.1561 21.7146 74.6083 20.8455C74.9036 20.7879 75.1961 20.7598 75.4872 20.7246C74.3032 20.5741 73.0643 20.598 71.7958 20.8455C67.3436 21.7132 63.7872 25.3484 62.9955 29.8146C62.0308 35.254 64.9797 40.1351 69.4938 42.1432C70.5358 42.6073 71.2502 43.5888 71.2502 44.7293V48.7498H74.0627V44.7293C74.0627 43.5888 73.3483 42.6073 72.3063 42.1432Z" fill="#DC4632"/>
<path d="M76.875 48.75H71.25V51.5625C71.25 53.1164 72.5086 54.375 74.0625 54.375C75.6164 54.375 76.875 53.1164 76.875 51.5625V48.75Z" fill="#F0F0F0"/>
<path d="M74.0625 51.5625V48.75H71.25V51.5625C71.25 53.1164 72.5086 54.375 74.0625 54.375C74.5772 54.375 75.0539 54.2259 75.4688 53.9855C74.632 53.4975 74.0625 52.6003 74.0625 51.5625Z" fill="#D2D2D2"/>
<path d="M71.25 45.9375H76.875V48.75H71.25V45.9375Z" fill="#505050"/>
<path d="M71.25 45.9375H74.0625V48.75H71.25V45.9375Z" fill="#3C3C3C"/>
<path d="M79.6875 33V30.75H78.4148C78.308 30.338 78.1463 29.9498 77.9353 29.5927L78.8353 28.6927L77.2448 27.1022L76.3448 28.0022C75.9877 27.7913 75.5995 27.6295 75.1875 27.5227V26.25H72.9375V27.5227C72.5255 27.6295 72.1373 27.7913 71.7802 28.0022L70.8802 27.1022L69.2897 28.6927L70.1897 29.5927C69.9787 29.9498 69.817 30.338 69.7102 30.75H68.4375V33H69.7102C69.817 33.412 69.9787 33.8002 70.1897 34.1573L69.2897 35.0573L70.8802 36.6478L71.7802 35.7478C72.1373 35.9587 72.5255 36.1205 72.9375 36.2273V37.5H75.1875V36.2273C75.5995 36.1205 75.9877 35.9587 76.3448 35.7478L77.2448 36.6478L78.8353 35.0573L77.9353 34.1573C78.1463 33.8002 78.308 33.412 78.4148 33H79.6875ZM74.0625 34.125C72.8222 34.125 71.8125 33.1153 71.8125 31.875C71.8125 30.6347 72.8222 29.625 74.0625 29.625C75.3028 29.625 76.3125 30.6347 76.3125 31.875C76.3125 33.1153 75.3028 34.125 74.0625 34.125Z" fill="#F0F0F0"/>
<path d="M90.9375 54.375H78.907C78.4162 55.2188 77.7188 55.9162 76.875 56.407V60H90.9375C92.4914 60 93.75 58.7414 93.75 57.1875C93.75 55.6336 92.4914 54.375 90.9375 54.375Z" fill="#505050"/>
</svg>
