<svg width="120" height="120" viewBox="0 0 120 120" fill="none" xmlns="http://www.w3.org/2000/svg">
<path d="M93.8635 56.4214C93.56 55.7352 92.7579 55.4254 92.072 55.7289L60.0005 69.9181L27.408 55.4984C26.7224 55.1947 25.92 55.5051 25.6165 56.1908C25.313 56.8768 25.623 57.6788 26.309 57.9825L57.424 71.7484L32.5584 93.7371C31.9965 94.234 31.9438 95.0922 32.4409 95.6543C32.7093 95.9578 33.0832 96.1126 33.4588 96.1126C33.7786 96.1126 34.0997 96.0004 34.3581 95.7718L60.0005 73.0962L84.0696 94.3805C84.3282 94.6091 84.6491 94.7213 84.9689 94.7213C85.3444 94.7213 85.7184 94.5665 85.9868 94.263C86.4837 93.7009 86.431 92.8428 85.8692 92.3459L62.577 71.7484L93.171 58.2129C93.8569 57.9094 94.167 57.1073 93.8635 56.4214Z" fill="#E8E8E8"/>
<path d="M75.137 71.3468C75.137 74.1527 74.3721 76.7798 73.0415 79.0327C73.0415 79.0327 71.0801 81.0706 70.0677 82.0345C67.3521 84.6201 64.1959 85.6409 60.1503 85.6409C51.7904 85.6409 46.4648 79.7141 46.4648 71.3542C46.4648 67.0203 47.0287 63.31 49.9479 60.5506C50.638 59.8982 51.8491 58.5903 51.8491 58.5903C54.2019 57.0839 56.9988 56.21 60.0002 56.21C68.36 56.21 75.137 62.9869 75.137 71.3468Z" fill="#AFEFA5"/>
<path d="M73.0416 79.033C70.4104 83.4931 65.5542 86.4839 60.0003 86.4839C51.6413 86.4839 44.8633 79.7077 44.8633 71.3469C44.8633 65.9886 47.6482 61.28 51.8494 58.5908C50.5166 60.8435 49.7526 63.4715 49.7526 66.2765C49.7526 74.6373 56.5307 81.4135 64.8896 81.4135C67.8902 81.4135 70.6893 80.5414 73.0416 79.033Z" fill="#8CE1A4"/>
<path d="M105 54.8842C105 56.0134 104.756 57.0855 104.319 58.0515C104.319 58.0515 103.489 58.9367 103.102 59.4258C101.693 61.2093 99.896 61.7837 97.4462 61.7837C93.1958 61.7837 90.5264 59.1607 90.5264 54.9102C90.5264 52.3933 91.0164 50.3695 92.8843 48.9652C93.4234 48.5599 94.453 47.7341 94.453 47.7341C95.3348 47.3823 96.2965 47.188 97.3037 47.188C101.554 47.188 105 50.6337 105 54.8842Z" fill="#FCB17A"/>
<path d="M104.319 58.0518C103.113 60.7228 100.426 62.5806 97.3036 62.5806C93.0535 62.5806 89.6074 59.1345 89.6074 54.8844C89.6074 51.6411 91.6135 48.8662 94.4529 47.7344C94.0147 48.6996 93.7724 49.7723 93.7724 50.9005C93.7724 55.1506 97.2185 58.5967 101.469 58.5967C102.475 58.5967 103.438 58.4031 104.319 58.0518Z" fill="#FC9E6B"/>
<path d="M30.3925 54.8842C30.3925 56.0134 30.1489 57.0855 29.7119 58.0515C29.7119 58.0515 28.8813 58.9367 28.4949 59.4258C27.0853 61.2093 25.2885 61.7837 22.8388 61.7837C18.5883 61.7837 15.9189 59.1607 15.9189 54.9102C15.9189 52.3933 16.409 50.3695 18.2769 48.9652C18.816 48.5599 19.8456 47.7341 19.8456 47.7341C20.7273 47.3823 21.6891 47.188 22.6963 47.188C26.9468 47.188 30.3925 50.6337 30.3925 54.8842Z" fill="#FFE07D"/>
<path d="M29.7118 58.0518C28.5058 60.7228 25.8181 62.5806 22.6962 62.5806C18.4461 62.5806 15 59.1345 15 54.8844C15 51.6411 17.0061 48.8662 19.8455 47.7344C19.4073 48.6996 19.165 49.7723 19.165 50.9005C19.165 55.1506 22.6111 58.5967 26.8612 58.5967C27.868 58.5967 28.8301 58.4031 29.7118 58.0518Z" fill="#FFD064"/>
<path d="M95.9462 95.2665C95.9462 96.3957 95.7026 97.4678 95.2657 98.4339C95.2657 98.4339 94.435 99.319 94.0486 99.8081C92.639 101.592 90.8423 102.166 88.3925 102.166C84.142 102.166 81.4727 99.543 81.4727 95.2926C81.4727 92.7756 81.9627 90.7518 83.8306 89.3475C84.3697 88.9422 85.3993 88.1165 85.3993 88.1165C86.281 87.7646 87.2428 87.5703 88.25 87.5703C92.5005 87.5703 95.9462 91.016 95.9462 95.2665Z" fill="#7DC3EE"/>
<path d="M95.2655 98.4341C94.0595 101.105 91.3718 102.963 88.2499 102.963C83.9998 102.963 80.5537 99.5168 80.5537 95.2667C80.5537 92.0235 82.5598 89.2485 85.3992 88.1167C84.961 89.0819 84.7187 90.1546 84.7187 91.2828C84.7187 95.5329 88.1648 98.979 92.4149 98.979C93.4217 98.979 94.3838 98.7854 95.2655 98.4341Z" fill="#64ACDC"/>
<path d="M39.4472 95.2665C39.4472 96.3957 39.2036 97.4678 38.7666 98.4339C38.7666 98.4339 37.936 99.319 37.5495 99.8081C36.14 101.592 34.3432 102.166 31.8935 102.166C27.643 102.166 24.9736 99.543 24.9736 95.2926C24.9736 92.7756 25.4637 90.7518 27.3316 89.3475C27.8707 88.9422 28.9003 88.1165 28.9003 88.1165C29.782 87.7646 30.7438 87.5703 31.751 87.5703C36.0014 87.5703 39.4472 91.016 39.4472 95.2665Z" fill="#D3EFFD"/>
<path d="M38.7665 98.4341C37.5605 101.105 34.8728 102.963 31.7509 102.963C27.5008 102.963 24.0547 99.5168 24.0547 95.2667C24.0547 92.0235 26.0608 89.2485 28.9002 88.1167C28.462 89.0819 28.2197 90.1546 28.2197 91.2828C28.2197 95.5329 31.6658 98.979 35.9159 98.979C36.9227 98.979 37.8848 98.7854 38.7665 98.4341Z" fill="#B2E5FB"/>
<path d="M77.5466 34.584C77.5466 24.8932 69.6906 17.0371 59.9997 17.0371C59.0801 17.0371 58.1773 17.1085 57.2961 17.2448C57.2961 17.2448 52.7747 18.8949 50.7413 20.2188C45.934 23.3487 43.4131 28.5292 43.4131 34.6932C43.4131 39.8756 45.9869 43.4962 48.0982 46.3106C53.0876 52.9618 55.3994 59.9573 57.3452 68.041C57.6834 69.4466 58.5541 70.5685 59.9999 70.5685C60.7228 70.5685 62.0072 70.4531 62.0072 70.4531C62.5096 70.0339 62.8723 69.4885 63.0416 68.7857C64.9874 60.702 68.646 53.1512 73.6357 46.5001C75.7468 43.6854 77.5466 39.7664 77.5466 34.584Z" fill="#FE76A8"/>
<path d="M62.0077 70.4529C61.9842 70.4728 61.9616 70.49 61.9362 70.51C61.3984 70.9337 60.7229 71.1818 60.0004 71.1818C59.2779 71.1818 58.6024 70.9337 58.0646 70.51C57.5268 70.088 57.1284 69.4886 56.9582 68.786C55.0133 60.7023 51.3535 53.151 46.3646 46.4997C44.2531 43.6856 42.4531 39.7669 42.4531 34.5842C42.4531 25.8124 48.8889 18.543 57.2968 17.2446C51.1163 19.9573 46.7992 26.1329 46.7992 33.3166C46.7992 40.9114 50.6654 45.7935 53.7131 48.4609C56.2175 50.6538 57.9541 53.5929 58.7328 56.8307L62.0077 70.4529Z" fill="#FE5694"/>
<path d="M60.0002 44.8339C65.6009 44.8339 70.1411 40.2937 70.1411 34.6931C70.1411 29.0925 65.6009 24.5522 60.0002 24.5522C54.3996 24.5522 49.8594 29.0925 49.8594 34.6931C49.8594 40.2937 54.3996 44.8339 60.0002 44.8339Z" fill="#F9F8F9"/>
</svg>
