<svg width="120" height="120" viewBox="0 0 120 120" fill="none" xmlns="http://www.w3.org/2000/svg">
<path d="M93.5445 62.0367L47.6267 87.3075C45.1095 88.6929 41.9457 87.7753 40.5603 85.2581L26.5675 59.8329C25.1821 57.3155 26.0997 54.1517 28.6169 52.7663L74.5347 27.4953C77.0521 26.1099 80.2159 27.0275 81.6013 29.5449L95.5941 54.9701C96.9795 57.4873 96.0619 60.6511 93.5445 62.0367Z" fill="#FEBC1F"/>
<path d="M92.5408 60.2142L46.623 85.4852C44.1056 86.8706 40.9418 85.953 39.5564 83.4356L25.5636 58.0104C24.1782 55.4932 25.0958 52.3294 27.6132 50.944L73.5308 25.673C76.0482 24.2876 79.212 25.2052 80.5974 27.7226L94.5902 53.1478C95.9756 55.665 95.058 58.8288 92.5408 60.2142Z" fill="#FFD475"/>
<path d="M73.5308 25.6758L27.6132 50.9468C25.0958 52.3322 24.1782 55.496 25.5636 58.0132L39.5564 83.4386C39.5564 83.4386 26.518 58.5032 78.1732 25.495C76.7334 24.8482 75.0202 24.8562 73.5308 25.6758Z" fill="#FEBC1F"/>
<path d="M29.683 61.1286L31.44 64.3212C31.883 65.126 32.8944 65.4194 33.6992 64.9764L82.1392 38.3174C82.944 37.8746 83.2374 36.863 82.7944 36.0582L81.0374 32.8656C80.5944 32.0608 79.583 31.7674 78.7782 32.2104L30.3382 58.8694C29.5334 59.3122 29.24 60.3238 29.683 61.1286Z" fill="#1D2943"/>
<path d="M29.2065 60.2418L30.9637 63.4347C31.4065 64.2395 32.4181 64.5326 33.2229 64.0898L81.6627 37.4309C82.4675 36.9879 82.7609 35.9764 82.3181 35.1716L80.5609 31.9788C80.1179 31.174 79.1065 30.8806 78.3017 31.3236L29.8617 57.9827C29.0569 58.4257 28.7635 59.437 29.2065 60.2418Z" fill="#4C5C75"/>
<path d="M85.2558 93.9969H32.8434C29.97 93.9969 27.6406 91.6677 27.6406 88.7943V59.7729C27.6406 56.8995 29.97 54.5703 32.8434 54.5703H85.2558C88.1292 54.5703 90.4584 56.8995 90.4584 59.7729V88.7943C90.4584 91.6677 88.1292 93.9969 85.2558 93.9969Z" fill="#5094FF"/>
<path d="M32.8434 91.9229H85.2558C88.1292 91.9229 90.4584 89.5937 90.4584 86.7203V57.6989C90.4584 54.8255 88.1292 52.4963 85.2558 52.4963L32.8434 52.4961C29.97 52.4961 27.6406 54.8255 27.6406 57.6989V86.7203C27.6406 89.5937 29.97 91.9229 32.8434 91.9229Z" fill="#57B3FE"/>
<path d="M32.8339 52.498L85.2465 52.4982C88.1197 52.4982 90.4491 54.8274 90.4491 57.7008V86.7222C90.4491 86.7222 89.8493 58.59 28.6797 54.578C29.6291 53.317 31.1341 52.498 32.8339 52.498Z" fill="#5094FF"/>
<path d="M86.3776 82.5814V83.3888H86.3668C86.3878 84.4808 85.477 85.3982 84.379 85.3982H79.1002C78.0216 85.3982 77.091 84.4978 77.1124 83.3888H77.1016V82.5814H77.2306C77.5422 81.797 78.391 81.2598 79.2828 81.2598H84.1962C85.088 81.2598 85.937 81.797 86.2486 82.5814H86.3776Z" fill="#E3E7F0"/>
<path d="M84.3809 84.5993H79.2781C78.2499 84.5993 77.2783 83.9013 77.1341 82.8833C76.9583 81.6439 77.9169 80.5803 79.1227 80.5803L84.2055 80.5801C85.2957 80.5801 86.3111 81.3713 86.3773 82.4595C86.4511 83.6675 85.4959 84.5993 84.3809 84.5993Z" fill="white"/>
<path d="M71.2526 82.5814V83.3888H71.2418C71.2628 84.4808 70.352 85.3982 69.254 85.3982H63.9752C62.8966 85.3982 61.966 84.4978 61.9874 83.3888H61.9766V82.5814H62.1056C62.4172 81.797 63.266 81.2598 64.1578 81.2598H69.0712C69.963 81.2598 70.812 81.797 71.1236 82.5814H71.2526Z" fill="#E3E7F0"/>
<path d="M69.2442 84.5993H64.1414C63.1132 84.5993 62.1418 83.9013 61.9974 82.8833C61.8216 81.6439 62.7804 80.5803 63.986 80.5803L69.0688 80.5801C70.159 80.5801 71.1744 81.3713 71.2408 82.4595C71.3144 83.6675 70.3594 84.5993 69.2442 84.5993Z" fill="white"/>
<path d="M56.1198 82.5814V83.3888H56.109C56.13 84.4808 55.2192 85.3982 54.1212 85.3982H48.8424C47.7637 85.3982 46.8331 84.4978 46.8545 83.3888H46.8438V82.5814H46.9725C47.2843 81.797 48.1332 81.2598 49.025 81.2598H53.9384C54.8302 81.2598 55.6791 81.797 55.9907 82.5814H56.1198Z" fill="#E3E7F0"/>
<path d="M54.1231 84.5993H49.0203C47.9921 84.5993 47.0205 83.9013 46.8763 82.8833C46.7005 81.6439 47.6591 80.5803 48.8649 80.5803L53.9477 80.5801C55.0379 80.5801 56.0531 81.3713 56.1195 82.4595C56.1933 83.6675 55.2381 84.5993 54.1231 84.5993Z" fill="white"/>
<path d="M41.0026 82.5814V83.3888H40.9918C41.0128 84.4808 40.102 85.3982 39.004 85.3982H33.7252C32.6466 85.3982 31.716 84.4978 31.7374 83.3888H31.7266V82.5814H31.8556C32.1672 81.797 33.016 81.2598 33.9078 81.2598H38.8212C39.713 81.2598 40.562 81.797 40.8736 82.5814H41.0026Z" fill="#E3E7F0"/>
<path d="M38.9942 84.5993H33.8914C32.8632 84.5993 31.8918 83.9013 31.7474 82.8833C31.5716 81.6439 32.5304 80.5803 33.736 80.5803L38.8188 80.5801C39.909 80.5801 40.9244 81.3713 40.9908 82.4595C41.0644 83.6675 40.1094 84.5993 38.9942 84.5993Z" fill="white"/>
<path d="M31.7266 61.6572V66.512C31.7266 67.7358 32.7186 68.7278 33.9424 68.7278H43.0328C44.2566 68.7278 45.2486 67.7356 45.2486 66.512V61.6572C45.2486 60.4334 44.2564 59.4414 43.0328 59.4414H33.9424C32.7186 59.4414 31.7266 60.4334 31.7266 61.6572Z" fill="#FEBC1F"/>
<path d="M31.7266 60.9033V65.7579C31.7266 66.9817 32.7186 67.9737 33.9424 67.9737H43.0328C44.2564 67.9737 45.2486 66.9817 45.2486 65.7579V60.9031C45.2486 59.6795 44.2564 58.6875 43.0328 58.6875H33.9424C32.7186 58.6875 31.7266 59.6795 31.7266 60.9033Z" fill="#FFD475"/>
<path d="M38.252 62.8067V58.6875H37.1996V62.8067H31.7266V63.8593H34.7208V67.9737H35.7734V63.8593H40.5122V67.9737H41.5646V63.8593H45.2486V62.8067H38.252Z" fill="#FEBC1F"/>
<path d="M85.4144 66.4417H79.4888C78.9952 66.4417 78.5286 66.1065 78.4592 65.6177C78.3748 65.0225 78.8352 64.5117 79.4142 64.5117H85.3302C85.8538 64.5117 86.3414 64.8915 86.3732 65.4141C86.4086 65.9943 85.9498 66.4417 85.4144 66.4417Z" fill="white"/>
<path d="M85.4038 62.3148L75.0006 62.315C74.5068 62.315 74.0402 61.9796 73.971 61.4908C73.8866 60.8956 74.347 60.3848 74.926 60.3848H85.3196C85.8432 60.3848 86.3308 60.7648 86.3626 61.2874C86.398 61.8674 85.9394 62.3148 85.4038 62.3148Z" fill="white"/>
<path d="M83.832 39.8145C86.3088 42.9929 88.3332 46.4469 89.8842 50.1663C87.4036 46.9905 85.3868 43.5319 83.832 39.8145Z" fill="white"/>
<path d="M37.6875 50.162C41.2967 47.4 45.1839 45.0894 49.3403 43.25C45.7331 46.0156 41.8415 48.3188 37.6875 50.162Z" fill="white"/>
<path d="M67.4961 89.3103C72.0093 88.7765 76.5311 88.7719 81.0441 89.3105C76.5311 89.8489 72.0093 89.8445 67.4961 89.3103Z" fill="white"/>
</svg>
