<svg width="120" height="120" viewBox="0 0 120 120" fill="none" xmlns="http://www.w3.org/2000/svg">
<g clip-path="url(#clip0_226_1266)">
<path d="M88.7709 40.6807H83.6904V23.8784H88.7709C90.3015 23.8784 91.5422 25.1192 91.5422 26.6497V37.91C91.5416 39.4399 90.3015 40.6807 88.7709 40.6807Z" fill="#273C47"/>
<path d="M31.3055 35.1284H36.2617V23.8784H31.3055C29.775 23.8784 28.5342 25.1192 28.5342 26.6497V32.3578C28.5342 33.8877 29.775 35.1284 31.3055 35.1284Z" fill="#273C47"/>
<path d="M31.3055 49.4898H36.3214V38.2397H31.3055C29.775 38.2397 28.5342 39.4805 28.5342 41.0111V46.7191C28.5342 48.249 29.775 49.4898 31.3055 49.4898Z" fill="#273C47"/>
<path d="M83.5974 14.8242H36.4797C33.2257 14.8242 30.5869 17.4623 30.5869 20.717V98.9316C30.5869 102.186 33.2257 104.824 36.4797 104.824H83.5974C86.8521 104.824 89.4902 102.186 89.4902 98.9316V20.717C89.4902 17.4623 86.8521 14.8242 83.5974 14.8242Z" fill="#405968"/>
<path d="M41.0274 104.824H36.4797C33.225 104.824 30.5869 102.187 30.5869 98.9323V20.7163C30.5869 17.4616 33.225 14.8242 36.4797 14.8242H41.0274C37.7727 14.8242 35.1353 17.4616 35.1353 20.7163V98.9323C35.1353 102.187 37.7727 104.824 41.0274 104.824Z" fill="#273C47"/>
<path d="M32.751 23.8794H87.3257V92.2633H32.751V23.8794Z" fill="#FFF6E3"/>
<path d="M32.751 23.8794H35.135V92.2633H32.751V23.8794Z" fill="#DDD3C3"/>
<path d="M84.9414 23.8794H87.3254V92.2633H84.9414V23.8794Z" fill="white"/>
<path d="M64.587 20.8749H55.4917C54.7309 20.8749 54.1143 20.2583 54.1143 19.4975C54.1143 18.7367 54.7309 18.1201 55.4917 18.1201H64.587C65.3478 18.1201 65.9644 18.7367 65.9644 19.4975C65.9644 20.2583 65.3478 20.8749 64.587 20.8749Z" fill="#273C47"/>
<path d="M64.587 99.5458H55.4917C54.7309 99.5458 54.1143 98.9292 54.1143 98.1684C54.1143 97.4076 54.7309 96.791 55.4917 96.791H64.587C65.3478 96.791 65.9644 97.4076 65.9644 98.1684C65.9644 98.9292 65.3478 99.5458 64.587 99.5458Z" fill="#273C47"/>
<path d="M46.0218 46.2796H38.1316C36.4768 46.2796 35.1357 44.9386 35.1357 43.2838V35.3935C35.1357 33.7387 36.4768 32.397 38.1316 32.397H46.0218C47.6767 32.397 49.0184 33.7387 49.0184 35.3935V43.2838C49.0184 44.9386 47.6767 46.2796 46.0218 46.2796Z" fill="#D33752"/>
<path d="M38.1312 44.6267C37.3903 44.6267 36.7881 44.0245 36.7881 43.2836V35.3934C36.7881 34.6525 37.3903 34.0503 38.1312 34.0503H46.0214C46.7623 34.0503 47.3645 34.6525 47.3645 35.3934V43.2836C47.3645 44.0245 46.7623 44.6267 46.0214 44.6267H38.1312Z" fill="#EF5E72"/>
<path d="M64.0059 46.2796H56.115C54.4602 46.2796 53.1191 44.9386 53.1191 43.2838V35.3935C53.1191 33.7387 54.4602 32.397 56.115 32.397H64.0059C65.6607 32.397 67.0018 33.7387 67.0018 35.3935V43.2838C67.0018 44.9386 65.6601 46.2796 64.0059 46.2796Z" fill="#F4BE53"/>
<path d="M56.1155 44.6267C55.3747 44.6267 54.7725 44.0245 54.7725 43.2836V35.3934C54.7725 34.6525 55.3747 34.0503 56.1155 34.0503H64.0058C64.7467 34.0503 65.3489 34.6525 65.3489 35.3934V43.2836C65.3489 44.0245 64.7467 44.6267 64.0058 44.6267H56.1155Z" fill="#F7E352"/>
<path d="M81.9903 46.2796H74.0994C72.4445 46.2796 71.1035 44.9386 71.1035 43.2838V35.3935C71.1035 33.7387 72.4445 32.397 74.0994 32.397H81.9903C83.6451 32.397 84.9861 33.7387 84.9861 35.3935V43.2838C84.9861 44.9386 83.6451 46.2796 81.9903 46.2796Z" fill="#62A5B5"/>
<path d="M74.0989 44.6267C73.3587 44.6267 72.7559 44.0245 72.7559 43.2836V35.3934C72.7559 34.6525 73.3587 34.0503 74.0989 34.0503H81.9899C82.7301 34.0503 83.333 34.6525 83.333 35.3934V43.2836C83.333 44.0245 82.7301 44.6267 81.9899 44.6267H74.0989Z" fill="#8DC2D3"/>
<path d="M46.0218 65.3089H38.1316C36.4768 65.3089 35.1357 63.9679 35.1357 62.3131V54.4221C35.1357 52.768 36.4768 51.4263 38.1316 51.4263H46.0218C47.6767 51.4263 49.0184 52.768 49.0184 54.4221V62.3131C49.0184 63.9679 47.6767 65.3089 46.0218 65.3089Z" fill="#4FBF9F"/>
<path d="M38.1312 63.6562C37.3903 63.6562 36.7881 63.0533 36.7881 62.3131V54.4222C36.7881 53.682 37.3903 53.0791 38.1312 53.0791H46.0214C46.7623 53.0791 47.3645 53.682 47.3645 54.4222V62.3131C47.3645 63.0533 46.7623 63.6562 46.0214 63.6562H38.1312Z" fill="#6ADBBD"/>
<path d="M64.0059 65.3089H56.115C54.4602 65.3089 53.1191 63.9679 53.1191 62.3131V54.4221C53.1191 52.768 54.4602 51.4263 56.115 51.4263H64.0059C65.6607 51.4263 67.0018 52.768 67.0018 54.4221V62.3131C67.0018 63.9679 65.6601 65.3089 64.0059 65.3089Z" fill="#62A5B5"/>
<path d="M56.1155 63.6557C55.3747 63.6557 54.7725 63.0528 54.7725 62.3126V54.4217C54.7725 53.6815 55.3747 53.0786 56.1155 53.0786H64.0058C64.7467 53.0786 65.3489 53.6815 65.3489 54.4217V62.3126C65.3489 63.0528 64.7467 63.6557 64.0058 63.6557H56.1155Z" fill="#8DC2D3"/>
<path d="M81.9903 65.3089H74.0994C72.4445 65.3089 71.1035 63.9679 71.1035 62.3131V54.4221C71.1035 52.768 72.4445 51.4263 74.0994 51.4263H81.9903C83.6451 51.4263 84.9861 52.768 84.9861 54.4221V62.3131C84.9861 63.9679 83.6451 65.3089 81.9903 65.3089Z" fill="#D33752"/>
<path d="M74.0989 63.6557C73.3587 63.6557 72.7559 63.0528 72.7559 62.3126V54.4217C72.7559 53.6815 73.3587 53.0786 74.0989 53.0786H81.9899C82.7301 53.0786 83.333 53.6815 83.333 54.4217V62.3126C83.333 63.0528 82.7301 63.6557 81.9899 63.6557H74.0989Z" fill="#EF5E72"/>
<path d="M46.0218 84.3377H38.1316C36.4768 84.3377 35.1357 82.9967 35.1357 81.3419V73.4509C35.1357 71.7961 36.4768 70.4551 38.1316 70.4551H46.0218C47.6767 70.4551 49.0184 71.7961 49.0184 73.4509V81.3419C49.0184 82.9967 47.6767 84.3377 46.0218 84.3377Z" fill="#F4BE53"/>
<path d="M38.1312 82.6843C37.3903 82.6843 36.7881 82.0821 36.7881 81.3413V73.451C36.7881 72.7101 37.3903 72.1079 38.1312 72.1079H46.0214C46.7623 72.1079 47.3645 72.7101 47.3645 73.451V81.3413C47.3645 82.0821 46.7623 82.6843 46.0214 82.6843H38.1312Z" fill="#F7E352"/>
<path d="M64.0059 84.3377H56.115C54.4602 84.3377 53.1191 82.9967 53.1191 81.3419V73.4509C53.1191 71.7961 54.4602 70.4551 56.115 70.4551H64.0059C65.6607 70.4551 67.0018 71.7961 67.0018 73.4509V81.3419C67.0018 82.9967 65.6601 84.3377 64.0059 84.3377Z" fill="#4FBF9F"/>
<path d="M56.1155 82.6843C55.3747 82.6843 54.7725 82.0821 54.7725 81.3413V73.451C54.7725 72.7101 55.3747 72.1079 56.1155 72.1079H64.0058C64.7467 72.1079 65.3489 72.7101 65.3489 73.451V81.3413C65.3489 82.0821 64.7467 82.6843 64.0058 82.6843H56.1155Z" fill="#6ADBBD"/>
</g>
<defs>
<clipPath id="clip0_226_1266">
<rect width="90" height="90" fill="white" transform="translate(15 15)"/>
</clipPath>
</defs>
</svg>
