<svg width="136" height="34" viewBox="0 0 136 34" fill="none" xmlns="http://www.w3.org/2000/svg">
<g clip-path="url(#clip0_1445_4570)">
<path d="M55.339 26.4792H56.1225C56.6921 26.5268 57.2617 26.3878 57.7454 26.0832C57.9207 25.9199 58.0562 25.7186 58.1413 25.4946C58.2264 25.2707 58.2588 25.0302 58.2362 24.7917C58.2505 24.6373 58.2243 24.4818 58.1601 24.3406C58.0959 24.1994 57.996 24.0775 57.8703 23.9867C57.4903 23.7931 57.0642 23.7082 56.6391 23.7413H55.9632L55.3605 26.4749L55.339 26.4792ZM54.3274 31.1715H55.3089C55.8608 31.2238 56.4127 31.0705 56.8586 30.741C57.035 30.5544 57.1696 30.3323 57.2535 30.0896C57.3374 29.8469 57.3686 29.5891 57.3451 29.3334C57.3624 29.163 57.3382 28.9909 57.2744 28.832C57.2107 28.673 57.1094 28.5319 56.9791 28.4207C56.5988 28.2052 56.1619 28.1106 55.7264 28.1495H54.9903L54.3274 31.1888V31.1715ZM51.7057 32.8289L54.0217 22.1528H57.0351C58.2448 22.1528 59.1144 22.3293 59.6439 22.6953C59.9155 22.8965 60.1309 23.164 60.2696 23.4723C60.4083 23.7805 60.4656 24.1192 60.436 24.4559C60.4728 25.1789 60.2482 25.891 59.8031 26.462C59.3333 26.9895 58.6778 27.3149 57.9736 27.3703C58.4496 27.4421 58.8829 27.6856 59.1919 28.0548C59.4744 28.4632 59.6136 28.9537 59.5879 29.4496C59.5953 30.0007 59.4837 30.5469 59.2607 31.051C59.0697 31.5023 58.7567 31.8914 58.3567 32.1746C57.9673 32.4339 57.527 32.6071 57.0652 32.6825C56.25 32.7998 55.4263 32.8488 54.6029 32.8289H51.7057ZM63.7593 32.0583C63.5288 32.3252 63.246 32.542 62.9285 32.6955C62.6188 32.8352 62.2824 32.9057 61.9427 32.9021C61.6849 32.9122 61.4277 32.871 61.1861 32.7808C60.9444 32.6907 60.7231 32.5534 60.535 32.3769C60.3559 32.2059 60.215 31.999 60.1216 31.7698C60.0281 31.5405 59.9841 31.2941 59.9926 31.0467C59.9926 29.9705 60.2795 29.1985 60.8535 28.7307C61.4275 28.2629 62.3961 28.0261 63.7593 28.0204H64.1898H64.4954C64.5385 27.7836 64.5686 27.5899 64.5859 27.4607C64.6006 27.3523 64.6092 27.243 64.6117 27.1336C64.6277 26.9258 64.5612 26.7201 64.4266 26.561C64.3521 26.4944 64.2648 26.4436 64.1701 26.4118C64.0754 26.3799 63.9751 26.3677 63.8755 26.3759C63.7621 26.3699 63.6486 26.388 63.5425 26.4287C63.4365 26.4695 63.3402 26.5322 63.26 26.6127C63.0874 26.8145 62.9794 27.0634 62.95 27.3273H60.8794C60.8998 27.0106 60.9872 26.7019 61.1356 26.4215C61.284 26.141 61.4901 25.8951 61.7403 25.7001C62.3739 25.316 63.1106 25.1371 63.8497 25.1878C64.5988 25.1283 65.3486 25.2947 66.0022 25.6656C66.2333 25.8408 66.4165 26.0716 66.5346 26.3365C66.6528 26.6014 66.7021 26.8919 66.678 27.1809C66.6754 27.3769 66.6596 27.5725 66.6307 27.7664C66.6019 27.9921 66.5617 28.2163 66.5101 28.4379L65.8644 31.3179C65.8127 31.5719 65.7654 31.8216 65.7353 32.0712C65.7051 32.3209 65.6707 32.5706 65.6491 32.8289H63.6431L63.7421 32.0583H63.7593ZM64.2802 29.1827H64.0865C63.5533 29.1392 63.0203 29.2691 62.5669 29.5529C62.4003 29.6964 62.2702 29.8773 62.1871 30.0809C62.1041 30.2844 62.0704 30.5048 62.089 30.7238C62.0755 30.9512 62.1376 31.1767 62.2655 31.3652C62.3221 31.4401 62.3958 31.5004 62.4804 31.5408C62.5651 31.5813 62.6582 31.6008 62.752 31.5977C62.9512 31.5918 63.1451 31.5328 63.3139 31.4269C63.4827 31.3209 63.6201 31.1718 63.712 30.995C64.0164 30.4347 64.2094 29.8207 64.2802 29.187V29.1827ZM66.5704 32.8289L67.8877 26.7461C67.9566 26.4319 68.0082 26.1693 68.047 25.9626C68.0857 25.756 68.1201 25.558 68.1417 25.3858H70.1693L70.0358 26.2468C70.2367 25.9246 70.5168 25.6593 70.8494 25.4762C71.1971 25.3053 71.5815 25.2225 71.9687 25.2351C72.424 25.2026 72.8752 25.3407 73.2343 25.6226C73.3849 25.7726 73.5013 25.9533 73.5756 26.1524C73.6499 26.3515 73.6803 26.5643 73.6648 26.7763C73.6628 26.9504 73.6513 27.1243 73.6304 27.2972C73.6158 27.4581 73.5899 27.6177 73.5529 27.775L72.4723 32.8418H70.3199L71.422 27.7578C71.4521 27.6114 71.4693 27.4952 71.4822 27.4134C71.4869 27.3546 71.4869 27.2956 71.4822 27.2369C71.4939 27.0809 71.4445 26.9266 71.3445 26.8064C71.2873 26.7528 71.2193 26.712 71.1451 26.6867C71.0708 26.6615 70.992 26.6524 70.914 26.66C70.7662 26.6667 70.6222 26.7095 70.4947 26.7845C70.3672 26.8595 70.2599 26.9646 70.1822 27.0905C69.9389 27.4267 69.7755 27.8139 69.7043 28.2227L68.6927 32.8633L66.5704 32.8289ZM73.5055 32.8289L75.8129 22.1528H77.9654L76.6739 28.128L79.0502 25.3858H81.3619L78.5637 28.679L80.0791 32.8289H77.8707L76.5792 28.6144L75.6709 32.8289H73.5055ZM82.8815 30.5344C82.8847 30.2606 82.9063 29.9874 82.9461 29.7165C82.9891 29.4022 83.0494 29.0492 83.1355 28.6661C83.2227 28.2433 83.3362 27.8263 83.4756 27.4177C83.5744 27.1165 83.7073 26.8277 83.8716 26.5567C84.1239 26.1151 84.4973 25.7551 84.9479 25.5192C85.4559 25.2905 86.0097 25.1815 86.5665 25.2007C87.2988 25.1472 88.0239 25.3751 88.5941 25.8378C88.8349 26.08 89.0212 26.3708 89.1407 26.6907C89.2603 27.0107 89.3102 27.3524 89.2871 27.6932C89.2838 27.9667 89.2651 28.2397 89.2312 28.5111C89.1882 28.8125 89.1322 29.1439 89.0547 29.5012C88.9641 29.9199 88.8477 30.3325 88.706 30.7367C88.6035 31.0495 88.4693 31.3509 88.3056 31.6365C88.049 32.075 87.6747 32.4329 87.2251 32.6696C86.7207 32.9001 86.1693 33.0092 85.6151 32.9882C84.8829 33.0413 84.1575 32.8169 83.5832 32.3597C83.3403 32.124 83.1518 31.8382 83.0306 31.5223C82.9094 31.2063 82.8585 30.8677 82.8815 30.5301V30.5344ZM86.5234 26.5008C86.3206 26.4934 86.1224 26.5625 85.9681 26.6945C85.7926 26.8669 85.665 27.082 85.5979 27.3187C85.5489 27.4596 85.5086 27.6033 85.4774 27.7492C85.43 27.9429 85.3826 28.1581 85.3353 28.3992L85.2061 29.0148C85.056 29.6178 84.9481 30.2306 84.8833 30.8487C84.866 31.0858 84.9314 31.3216 85.0684 31.5159C85.1358 31.5935 85.2202 31.6544 85.3151 31.694C85.4099 31.7336 85.5126 31.7507 85.6151 31.7441C85.8218 31.75 86.0232 31.6777 86.179 31.5417C86.3618 31.367 86.4954 31.1473 86.5665 30.9046C86.6225 30.7454 86.6913 30.5043 86.7731 30.1857C86.8549 29.8672 86.9324 29.5012 87.0099 29.0966C87.0874 28.6919 87.1477 28.3906 87.1864 28.0979C87.2235 27.8628 87.2436 27.6255 87.2466 27.3876C87.2651 27.1556 87.2028 26.9244 87.0702 26.7332C87.0011 26.6585 86.9161 26.6003 86.8214 26.5631C86.7267 26.5258 86.6249 26.5104 86.5234 26.518V26.5008ZM89.3689 32.8289L90.6604 26.6859H89.4809L89.765 25.3944H90.9402L91.1555 24.2967C91.2407 23.6426 91.5281 23.0315 91.9777 22.5489C92.428 22.161 93.0116 21.9634 93.6049 21.9979C93.8288 21.9979 94.0354 21.9979 94.2636 22.0237C94.4917 22.0495 94.6941 22.0667 94.9093 22.1012L94.6252 23.5347L94.3325 23.4873C94.2622 23.482 94.1917 23.482 94.1215 23.4873C93.9112 23.4735 93.704 23.5431 93.5447 23.6811C93.3815 23.856 93.2763 24.077 93.2433 24.3139L93.0195 25.4116H94.2377L93.9666 26.7031H92.7483L91.4568 32.8461L89.3689 32.8289ZM99.0893 26.4792H99.8728C100.437 26.5268 101.001 26.3876 101.479 26.0832C101.652 25.9189 101.786 25.7173 101.871 25.4935C101.955 25.2698 101.987 25.0298 101.965 24.7917C101.979 24.6373 101.953 24.4818 101.889 24.3406C101.825 24.1994 101.725 24.0775 101.599 23.9867C101.225 23.7928 100.805 23.7078 100.385 23.7413H99.6963L99.1023 26.4749L99.0893 26.4792ZM98.0863 31.1715H99.0592C99.6057 31.2227 100.152 31.0693 100.592 30.741C100.765 30.5526 100.897 30.3301 100.979 30.0877C101.062 29.8453 101.092 29.5883 101.07 29.3334C101.086 29.1634 101.062 28.992 100.999 28.8332C100.936 28.6745 100.837 28.533 100.708 28.4207C100.333 28.2063 99.9023 28.1117 99.4725 28.1495H98.7449L98.0863 31.1888V31.1715ZM95.5034 32.8289L97.7936 22.1528H100.807C102.004 22.1528 102.86 22.3293 103.39 22.6953C103.659 22.8983 103.872 23.1664 104.009 23.4744C104.146 23.7824 104.203 24.1201 104.173 24.4559C104.209 25.1781 103.986 25.8894 103.545 26.462C103.083 26.9881 102.435 27.3139 101.737 27.3703C102.208 27.443 102.635 27.6867 102.938 28.0548C103.22 28.4632 103.36 28.9537 103.334 29.4496C103.341 30.0002 103.231 30.546 103.011 31.051C102.822 31.5008 102.512 31.8896 102.116 32.1746C101.737 32.4309 101.309 32.6041 100.859 32.6825C100.053 32.7996 99.2398 32.8486 98.4264 32.8289H95.5034ZM107.398 32.0583C107.172 32.3249 106.893 32.5418 106.58 32.6955C106.275 32.8352 105.942 32.9057 105.607 32.9021C105.352 32.9118 105.097 32.8704 104.859 32.7802C104.62 32.69 104.401 32.5529 104.216 32.3769C104.039 32.2048 103.9 31.9975 103.808 31.7684C103.716 31.5393 103.674 31.2934 103.683 31.0467C103.683 29.9705 103.97 29.1985 104.544 28.7307C105.118 28.2629 106.073 28.0261 107.411 28.0204H107.841H108.138C108.181 27.7836 108.211 27.5899 108.229 27.4607C108.243 27.3523 108.252 27.243 108.254 27.1336C108.27 26.9266 108.205 26.7216 108.074 26.561C108 26.4947 107.913 26.4441 107.819 26.4123C107.725 26.3805 107.626 26.3681 107.527 26.3759C107.415 26.3704 107.303 26.3886 107.198 26.4294C107.093 26.4702 106.999 26.5327 106.92 26.6127C106.749 26.8149 106.642 27.0638 106.614 27.3273H104.569C104.588 27.0133 104.671 26.7065 104.814 26.4263C104.957 26.1462 105.157 25.8989 105.4 25.7001C106.025 25.3167 106.753 25.1376 107.484 25.1878C108.219 25.1311 108.954 25.2977 109.593 25.6656C109.823 25.8418 110.004 26.073 110.121 26.3378C110.238 26.6027 110.286 26.8926 110.26 27.1809C110.257 27.3767 110.243 27.5722 110.217 27.7664C110.187 27.9816 110.144 28.1969 110.093 28.4379L109.477 31.3007C109.425 31.5547 109.382 31.8043 109.348 32.054C109.313 32.3037 109.288 32.5534 109.266 32.8117H107.286L107.381 32.0411L107.398 32.0583ZM107.914 29.1827H107.725C107.197 29.1393 106.67 29.2692 106.222 29.5529C106.058 29.6977 105.93 29.8791 105.848 30.0825C105.767 30.2859 105.734 30.5055 105.753 30.7238C105.738 30.9508 105.799 31.1762 105.925 31.3652C105.981 31.4403 106.054 31.5008 106.138 31.5413C106.222 31.5818 106.314 31.6012 106.408 31.5977C106.605 31.5911 106.797 31.5311 106.963 31.4243C107.129 31.3174 107.263 31.1676 107.35 30.9907C107.653 30.43 107.845 29.8161 107.914 29.1827ZM110.179 32.8289L111.418 27.0259C111.474 26.7461 111.53 26.4706 111.573 26.1951C111.616 25.9196 111.66 25.6484 111.685 25.3858H113.726L113.549 26.462C113.764 26.1105 114.059 25.8153 114.41 25.601C114.755 25.4138 115.142 25.3203 115.534 25.3298H115.728H115.844L115.461 27.1809H115.37C115.196 27.1531 115.021 27.1359 114.845 27.1293C114.634 27.1169 114.423 27.1488 114.225 27.2229C114.027 27.2971 113.847 27.4118 113.696 27.5597C113.359 27.9853 113.143 28.494 113.072 29.032L112.271 32.8117L110.179 32.8289ZM115.134 30.5344C115.139 30.2607 115.16 29.9876 115.198 29.7165C115.245 29.4022 115.306 29.0492 115.392 28.6661C115.482 28.243 115.598 27.8261 115.741 27.4177C115.842 27.117 115.977 26.8283 116.141 26.5567C116.401 26.1138 116.782 25.7539 117.239 25.5192C117.756 25.2897 118.318 25.1808 118.883 25.2007C119.625 25.1473 120.359 25.3747 120.941 25.8378C121.185 26.0781 121.374 26.3684 121.495 26.6886C121.616 27.0089 121.666 27.3516 121.643 27.6932C121.641 27.9668 121.623 28.24 121.587 28.5111C121.548 28.8125 121.488 29.1439 121.41 29.5012C121.316 29.9195 121.198 30.332 121.057 30.7367C120.95 31.0492 120.813 31.3505 120.648 31.6365C120.386 32.0771 120.006 32.4351 119.55 32.6696C119.035 32.9007 118.474 33.0098 117.91 32.9882C117.169 33.0401 116.434 32.8163 115.848 32.3597C115.602 32.1261 115.41 31.841 115.286 31.5247C115.163 31.2085 115.111 30.8689 115.134 30.5301V30.5344ZM118.836 26.5008C118.63 26.4933 118.429 26.5624 118.272 26.6945C118.096 26.8676 117.967 27.0823 117.897 27.3187C117.863 27.4048 117.824 27.5425 117.772 27.7492C117.721 27.9558 117.678 28.1581 117.63 28.3992C117.6 28.5456 117.553 28.7479 117.497 29.0148C117.344 29.6174 117.235 30.2303 117.17 30.8487C117.152 31.0865 117.219 31.3231 117.359 31.5159C117.427 31.5936 117.513 31.6545 117.608 31.6941C117.704 31.7336 117.807 31.7507 117.91 31.7441C118.121 31.7495 118.326 31.6775 118.487 31.5417C118.671 31.3668 118.808 31.1474 118.883 30.9046C118.939 30.7454 119.008 30.5043 119.09 30.1857C119.172 29.8672 119.249 29.5012 119.331 29.0966C119.413 28.6919 119.469 28.3906 119.512 28.0979C119.549 27.8628 119.569 27.6255 119.572 27.3876C119.591 27.1549 119.527 26.9229 119.391 26.7332C119.321 26.6581 119.234 26.5997 119.138 26.5625C119.042 26.5252 118.939 26.51 118.836 26.518V26.5008ZM125.724 26.66C125.622 26.6556 125.521 26.6711 125.426 26.7058C125.33 26.7406 125.243 26.7937 125.168 26.8624C124.985 27.0734 124.852 27.3238 124.781 27.5942C124.602 28.1748 124.458 28.7657 124.35 29.3635C124.255 29.83 124.201 30.3039 124.187 30.7798C124.17 30.9975 124.231 31.214 124.359 31.3911C124.425 31.4624 124.506 31.5181 124.596 31.5538C124.686 31.5896 124.783 31.6046 124.88 31.5977C125.069 31.5997 125.252 31.5306 125.392 31.404C125.576 31.2268 125.722 31.0146 125.823 30.7798C125.903 30.5658 125.97 30.3473 126.025 30.1255C126.098 29.8499 126.176 29.5228 126.253 29.1526C126.331 28.7823 126.382 28.4509 126.417 28.1796C126.453 27.9633 126.473 27.7446 126.477 27.5253C126.493 27.295 126.428 27.0662 126.292 26.8796C126.225 26.8051 126.142 26.7467 126.05 26.7087C125.958 26.6706 125.858 26.654 125.758 26.66H125.724ZM125.577 32.1186C125.398 32.3938 125.152 32.619 124.863 32.7729C124.552 32.9153 124.214 32.9845 123.872 32.9753C123.617 32.996 123.36 32.9652 123.117 32.8846C122.873 32.8039 122.649 32.6752 122.456 32.506C122.116 32.106 121.949 31.5872 121.991 31.0639C121.996 30.7367 122.023 30.4102 122.073 30.0867C122.128 29.6964 122.205 29.2659 122.305 28.7953C122.4 28.3489 122.518 27.9078 122.658 27.4737C122.756 27.1541 122.888 26.8465 123.054 26.5567C123.255 26.17 123.552 25.841 123.915 25.601C124.274 25.3915 124.684 25.2857 125.099 25.2954C125.438 25.2866 125.773 25.3652 126.072 25.5236C126.378 25.705 126.635 25.9575 126.821 26.2597L127.682 22.1658H129.787L127.755 31.6365C127.725 31.7914 127.695 31.9679 127.661 32.166C127.626 32.364 127.6 32.5964 127.575 32.8246H125.422L125.543 32.1143L125.577 32.1186ZM132.495 32.0583C132.268 32.325 131.988 32.5419 131.673 32.6955C131.368 32.836 131.036 32.9066 130.7 32.9021C130.445 32.9116 130.19 32.87 129.952 32.7798C129.713 32.6896 129.495 32.5526 129.309 32.3769C129.133 32.2042 128.995 31.9968 128.903 31.7678C128.811 31.5388 128.768 31.2933 128.776 31.0467C128.776 29.9705 129.063 29.1985 129.637 28.7307C130.209 28.2571 131.169 28.0204 132.504 28.0204H132.934H133.231C133.279 27.7836 133.309 27.5899 133.326 27.4607C133.333 27.3518 133.333 27.2425 133.326 27.1336C133.344 26.9263 133.279 26.7205 133.145 26.561C133.072 26.4943 132.985 26.4434 132.891 26.4116C132.797 26.3797 132.697 26.3676 132.598 26.3759C132.486 26.3706 132.374 26.389 132.27 26.4298C132.165 26.4706 132.07 26.5329 131.991 26.6127C131.82 26.8144 131.715 27.0638 131.69 27.3273H129.641C129.659 27.0128 129.742 26.7055 129.886 26.4252C130.03 26.145 130.231 25.8979 130.476 25.7001C131.099 25.3168 131.826 25.1377 132.555 25.1878C133.291 25.1311 134.026 25.2977 134.665 25.6656C134.894 25.8418 135.076 26.073 135.192 26.3378C135.309 26.6027 135.357 26.8926 135.332 27.1809C135.331 27.3768 135.317 27.5724 135.289 27.7664C135.26 27.9921 135.22 28.2163 135.168 28.4379L134.553 31.3007C134.501 31.5547 134.454 31.8043 134.424 32.054C134.394 32.3037 134.359 32.5534 134.342 32.8117H132.357L132.456 32.0411L132.495 32.0583ZM133.007 29.1827H132.818C132.292 29.1386 131.765 29.2687 131.32 29.5529C131.154 29.6968 131.025 29.878 130.942 30.0815C130.86 30.285 130.827 30.5051 130.846 30.7238C130.831 30.9514 130.893 31.1776 131.023 31.3652C131.077 31.4403 131.149 31.5007 131.233 31.5413C131.316 31.5818 131.408 31.6012 131.501 31.5977C131.698 31.5905 131.891 31.5303 132.057 31.4236C132.224 31.3168 132.359 31.1673 132.448 30.9907C132.747 30.4289 132.937 29.8153 133.007 29.1827Z" fill="#F37321"/>
<path fill-rule="evenodd" clip-rule="evenodd" d="M52.1965 6.71987H55.3089L53.8108 4.7009L55.1023 3.65481L56.8974 6.71987H57.3666L56.0192 3.05213L57.711 2.27295L58.6839 6.71987H69.6656L69.459 7.58084H65.6061L65.1756 9.36306C66.8976 8.2481 68.8003 8.53222 68.6195 10.5899C68.5251 11.4412 68.297 12.2722 67.9437 13.0523C67.7162 13.5797 67.339 14.0287 66.8588 14.3438C66.1399 14.7958 65.5674 14.6796 64.8226 14.5332C64.5902 14.4902 64.5773 14.5332 64.6548 14.3007L64.7667 13.9865C64.8097 13.8616 64.7968 13.8832 64.926 13.8832C65.1048 13.8891 65.2827 13.8553 65.4469 13.7842C65.7181 13.6593 65.9204 13.1729 66.0667 12.6305C66.2131 12.088 66.7039 10.4134 66.4025 9.90117C66.2734 9.67732 65.8989 9.65148 65.5416 9.8452C65.2747 10.0143 65.0459 10.2371 64.87 10.4996L63.5785 15.7902H61.7231L62.1967 13.8659C61.9778 14.1235 61.708 14.3329 61.4042 14.4811C61.1005 14.6292 60.7694 14.7129 60.4317 14.7269H60.2681C60.015 14.7382 59.7629 14.6887 59.5328 14.5827C59.3027 14.4766 59.1014 14.3171 58.9455 14.1174C58.7896 13.9177 58.6837 13.6836 58.6367 13.4347C58.5897 13.1858 58.603 12.9292 58.6753 12.6864L59.1058 10.6933C59.2523 10.1298 59.5755 9.62813 60.0279 9.26171C60.4803 8.89528 61.0382 8.68337 61.6198 8.65706H61.8178C62.1224 8.63733 62.425 8.71803 62.6792 8.88676C62.9335 9.0555 63.1254 9.30296 63.2255 9.59122L63.7636 7.56793H58.4859L56.3937 15.8247H54.5598L55.0506 13.9004C54.5383 14.429 53.8405 14.7377 53.1048 14.7614H52.8982C52.6402 14.7809 52.3814 14.7379 52.1437 14.636C51.906 14.534 51.6964 14.3761 51.5328 14.1758C51.3692 13.9754 51.2565 13.7385 51.2041 13.4852C51.1518 13.2319 51.1614 12.9696 51.2322 12.7208L51.7014 10.7277C51.8687 10.1533 52.2139 9.64668 52.6873 9.28081C53.1607 8.91493 53.7379 8.70861 54.336 8.6915H54.5426C54.8744 8.67298 55.2041 8.7546 55.4889 8.92578C55.7737 9.09697 56.0004 9.34982 56.1397 9.65149L56.6606 7.60237H51.9941L52.1965 6.7414V6.71987ZM54.9387 9.69453H55.0377C55.5973 9.69453 55.8987 10.2886 55.6963 11.0161L55.4251 12.0149L53.927 10.2929C54.042 10.1259 54.1921 9.98622 54.3669 9.88358C54.5417 9.78093 54.7369 9.71787 54.9387 9.69884V9.69453ZM55.0635 12.9232C54.9489 13.1192 54.7899 13.2856 54.5992 13.409C54.4085 13.5324 54.1916 13.6093 53.9658 13.6335H53.8711C53.3114 13.6335 53.0101 13.0394 53.2081 12.3119L53.5439 11.0764L55.0377 12.9576L55.0635 12.9232ZM59.4373 4.42969H61.1592L60.8579 5.98374H59.1359L59.433 4.42969H59.4373ZM62.3904 9.81938C62.473 9.83239 62.5523 9.86176 62.6234 9.90579C62.6945 9.94982 62.7562 10.0076 62.8047 10.0758C62.8532 10.1439 62.8876 10.2211 62.9059 10.3027C62.9242 10.3844 62.9261 10.4689 62.9113 10.5512L62.1235 13.2331C62.0572 13.3958 61.9306 13.5266 61.7701 13.598C61.6096 13.6694 61.4277 13.6759 61.2625 13.6163C61.18 13.6038 61.1009 13.5749 61.0298 13.5313C60.9587 13.4877 60.897 13.4303 60.8485 13.3625C60.7999 13.2947 60.7654 13.2178 60.7471 13.1364C60.7287 13.0551 60.7269 12.9708 60.7416 12.8887L61.5596 10.2025C61.6275 10.0412 61.7543 9.91182 61.9143 9.84066C62.0742 9.76949 62.2552 9.76188 62.4205 9.81938H62.3904ZM77.4574 11.0032C77.9922 10.9387 78.4905 10.6989 78.8745 10.3211C79.2585 9.94336 79.5065 9.449 79.5797 8.91535L79.6098 8.61831C79.6428 8.35065 79.6176 8.07903 79.5359 7.82202C79.4541 7.56501 79.3179 7.32867 79.1364 7.12919C78.9549 6.92971 78.7325 6.77179 78.4843 6.66623C78.2361 6.56066 77.9681 6.50995 77.6985 6.51755H74.3235L74.048 7.59806H76.3597C76.5243 7.59272 76.688 7.62589 76.8376 7.6949C76.9872 7.76391 77.1186 7.86688 77.2215 7.99561C77.3243 8.12435 77.3956 8.27529 77.4299 8.43645C77.4641 8.59761 77.4603 8.76455 77.4187 8.92397L77.3799 9.11338C77.3006 9.47775 77.1032 9.8057 76.8182 10.0463C76.5333 10.2868 76.1769 10.4265 75.8044 10.4436H73.7251L73.5917 10.9946H77.466L77.4574 11.0032ZM77.423 11.0032C78.4949 11.0979 79.0674 12.0579 78.7144 13.2159L78.6154 13.5302C78.4093 14.1395 78.0283 14.6747 77.5199 15.069C77.0116 15.4632 76.3985 15.6991 75.757 15.7472H71.9687L72.2485 14.6494H74.8917C75.2823 14.6186 75.653 14.4644 75.9502 14.209C76.2473 13.9536 76.4556 13.6104 76.5448 13.2288L76.5878 13.0265C76.7686 12.243 76.3166 11.6059 75.5891 11.6059H73.4582L73.6046 10.9989H77.4359L77.423 11.0032ZM80.5397 6.72418H97.6644L97.4621 7.58515H93.846L93.3553 9.53096C94.9782 8.56667 96.1405 8.83356 96.5323 9.56108C96.7992 10.0604 96.6097 10.534 96.4763 11.0377L95.4431 14.8733H93.4844L94.4315 11.1797C94.862 9.71606 94.001 9.63857 93.14 10.4134L91.8055 15.7041L89.7263 15.773L90.3978 13.2417C88.7706 14.2103 87.604 13.9477 87.2122 13.2417C86.9453 12.7381 87.1348 12.2645 87.2639 11.7609L88.3659 7.60668H86.8119L84.6594 15.7859H82.8342L84.9866 7.60668H83.3809L81.2285 15.7859H79.4032L80.5268 11.5542H78.9038L79.1966 10.4134H80.8281L81.5729 7.59806H80.3417L80.544 6.73709L80.5397 6.72418ZM91.9088 7.58515H90.3376L89.313 11.6231C88.8825 13.104 89.7693 13.1686 90.6346 12.3679L91.8959 7.61098L91.9088 7.58515ZM86.8721 15.067H88.5941L88.2927 16.6211H86.5708L86.8721 15.067ZM82.0808 3.77534H83.9061C83.8243 3.98628 83.721 4.48996 83.8717 4.69659C84.1343 5.0582 85.1072 5.03237 85.4472 4.64493C85.6072 4.38991 85.7209 4.10864 85.783 3.81408H87.7891C87.604 4.67506 87.2854 5.44563 86.446 5.64365C85.1611 5.84432 83.8517 5.82978 82.5716 5.60061C81.6073 5.4112 81.9043 4.61479 82.0636 3.80117L82.0808 3.77534ZM102.107 6.72418H115.633L114.113 4.70519L115.405 3.65912L117.2 6.72418H117.673L116.322 3.05644L118.018 2.27726L118.991 6.72418H131.613L131.406 7.58515H130.278L128.126 15.7644H126.3L128.453 7.58515H126.851L126.12 9.6687C125.345 9.6687 124.247 9.4879 123.502 9.63427C122.878 9.75481 122.745 10.0648 122.542 10.6029C122.162 11.73 121.854 12.8803 121.621 14.0468C121.699 14.8173 122.103 14.9594 122.882 14.9077C122.818 14.1544 122.994 13.0954 123.894 12.6692C124.492 12.3808 125.538 12.3592 125.758 13.0739C126.068 14.0898 125.009 15.0842 124.277 15.166C124.475 15.7773 124.936 15.8333 125.594 16.1131L123.683 17.1333C123.25 16.6899 122.979 16.1138 122.912 15.4975C122.084 15.8299 121.158 15.8299 120.33 15.4975C120.137 15.3992 119.975 15.2504 119.86 15.067C119.543 14.5733 119.412 13.9827 119.49 13.401C119.544 12.7228 119.668 12.052 119.86 11.3993C120.041 10.6678 120.432 10.0051 120.984 9.4922C121.948 8.63123 122.96 8.6958 124.475 8.76899L124.837 7.55932H119.456L117.303 15.7386H115.456L117.609 7.55932H116.115L115.276 10.3704L113.476 10.4221L113.351 9.74189C112.939 9.58963 112.495 9.54229 112.06 9.60413C111.552 9.69884 111.449 10.0045 111.302 10.4651C111.156 10.9257 111.121 11.4036 111.457 11.5327C112.021 11.748 112.99 11.636 113.584 11.6102C114.341 11.6102 114.802 11.8857 114.759 12.6132C114.687 13.324 114.47 14.0126 114.122 14.6365C113.985 15.0076 113.715 15.3145 113.364 15.4975C112.581 15.8204 111.165 15.717 110.351 15.7213C109.92 15.7213 109.464 15.7213 109.059 15.6697C108.882 15.6529 108.71 15.5939 108.56 15.4975C108.403 15.3869 108.276 15.239 108.19 15.067C108.099 14.9106 108.044 14.7362 108.029 14.5562C108.013 14.3762 108.037 14.1949 108.099 14.0252L108.259 13.3063L110.446 13.3494C110.209 13.8961 110.144 14.2792 110.291 14.5031C110.596 14.9637 111.694 14.7355 112.069 14.5031L112.499 13.0868C112.598 12.7553 112.4 12.6132 112.099 12.5444C111.685 12.4848 111.267 12.466 110.85 12.4884C110.42 12.4884 109.826 12.5616 109.443 12.3162C108.805 11.8857 108.965 10.8095 109.201 10.1121C109.27 9.84702 109.398 9.60117 109.576 9.39363C109.755 9.18609 109.978 9.02244 110.23 8.91535C111.47 8.34711 113.403 8.48487 113.79 9.2253L114.161 7.54641H108.396L106.291 15.7773H104.458L104.948 13.853C104.436 14.3816 103.738 14.6903 103.002 14.714H102.796C102.538 14.7336 102.279 14.6906 102.041 14.5886C101.804 14.4866 101.594 14.3288 101.43 14.1284C101.267 13.9281 101.154 13.6911 101.102 13.4378C101.049 13.1845 101.059 12.9223 101.13 12.6735L101.595 10.7191C101.762 10.1447 102.107 9.63808 102.581 9.2722C103.054 8.90633 103.631 8.70001 104.229 8.6829H104.436C104.767 8.66347 105.097 8.74476 105.381 8.9161C105.665 9.08744 105.891 9.3408 106.029 9.64287L106.554 7.59377H101.9L102.107 6.73279V6.72418ZM104.849 9.69884H104.948C105.508 9.69884 105.809 10.2929 105.607 11.0204L105.336 12.0192L103.838 10.2972C103.953 10.1303 104.103 9.99052 104.277 9.88787C104.452 9.78523 104.647 9.72218 104.849 9.70315V9.69884ZM104.974 12.9275C104.859 13.1235 104.7 13.29 104.51 13.4133C104.319 13.5367 104.102 13.6136 103.876 13.6378H103.782C103.222 13.6378 102.921 13.0437 103.119 12.3162L103.454 11.0807L104.948 12.9619L104.974 12.9275ZM109.796 16.5221H111.517L111.216 18.0503H109.494L109.796 16.5221Z" fill="#F37321"/>
<path fill-rule="evenodd" clip-rule="evenodd" d="M40.4657 7.45599C40.3718 8.2171 40.2192 8.9698 40.0094 9.70743C39.5789 10.6502 39.5789 10.6502 39.2733 11.1754C38.7268 11.9543 38.0847 12.6616 37.3619 13.2805C36.6818 13.8057 36.6817 13.8057 35.9284 14.3222C35.0183 14.8318 34.0797 15.2889 33.1173 15.6912C32.7257 15.7763 32.3456 15.9078 31.9851 16.0829C31.9851 16.1776 31.9851 16.1776 32.011 16.2078C33.1904 16.3332 34.3203 16.7488 35.2999 17.4174C35.8008 17.8186 36.2634 18.2653 36.6817 18.7519C37.1609 19.43 37.5488 20.1682 37.8355 20.9474C37.9043 21.2703 37.9775 21.5845 38.0464 21.8988C38.0938 22.4111 38.0937 22.9191 38.0937 23.4313C37.915 24.8835 37.4022 26.2744 36.5957 27.4951C36.0834 28.2097 36.0834 28.2097 35.5797 28.8469C34.7187 29.7595 33.6425 30.7883 32.4802 31.3135C31.6192 31.9464 30.4871 32.3424 29.5142 32.7471C28.8986 32.9236 28.2571 33.1345 27.6458 33.3282C27.1233 33.4012 26.6058 33.5062 26.0961 33.6425C25.6413 33.6689 25.1885 33.722 24.7401 33.8018C18.5454 34.0601 12.2904 33.9438 6.09569 33.9524C6.03112 33.8233 5.98377 33.6382 6.14735 33.565C9.11771 33.4401 12.1096 33.2981 15.0756 33.1948C15.6708 33.2186 16.267 33.1927 16.8579 33.1173C18.8316 33.0841 20.8013 32.9274 22.7555 32.648C22.8717 32.5921 23.3969 32.4888 24.1804 32.2778C28.0548 31.0294 31.5547 28.58 33.1733 24.74C33.2239 24.5508 33.2946 24.3675 33.3842 24.1933C33.4703 23.7628 33.5564 23.3323 33.6511 22.9018C33.6727 21.8342 33.6727 21.8342 33.6511 21.4167C33.5151 20.3692 33.1266 19.3705 32.519 18.5066C32.2521 18.2052 31.9852 17.9082 31.7269 17.6112C30.5618 16.6024 29.1143 15.9771 27.5813 15.8203C27.5813 15.6955 27.62 15.6783 27.7319 15.6137C28.059 15.5366 28.3787 15.4315 28.6876 15.2995C31.2705 14.1802 33.5564 12.6778 35.0072 10.2068C35.1492 9.87532 35.2999 9.53954 35.4376 9.19946C35.6883 8.37681 35.8499 7.52965 35.9198 6.6725C35.8854 6.29798 35.8638 5.91915 35.838 5.53601C35.7605 5.29064 35.6916 5.04096 35.6184 4.79128C35.3517 4.12384 34.9502 3.51859 34.4389 3.01337C33.5603 2.29577 32.5298 1.78784 31.4255 1.52819C31.422 1.50248 31.422 1.47641 31.4255 1.4507C32.0477 1.39049 32.6747 1.40349 33.2938 1.48944C33.709 1.56917 34.1289 1.62237 34.5508 1.64872L35.5496 1.85967C36.6122 2.11527 37.6229 2.55215 38.5371 3.15113L39.3465 3.87434C39.566 4.21443 39.7769 4.5416 40.0051 4.87307C40.1084 5.19594 40.216 5.51019 40.328 5.82445C40.3925 6.37116 40.4528 6.91357 40.47 7.4732L40.4657 7.45599ZM31.6537 6.02677C31.4556 7.12451 31.4556 7.12452 31.3007 7.83051C30.9365 8.77587 30.4564 9.6724 29.8715 10.4995L29.7854 10.5469C28.1565 12.3607 26.0774 13.7121 23.7586 14.4643C23.285 14.5762 23.285 14.5762 23.229 14.615V14.7226C23.3883 14.8819 23.694 14.8517 23.8963 14.8561C24.0489 14.9078 24.2087 14.9354 24.3698 14.9378C25.2424 15.1948 26.0807 15.5562 26.8667 16.0141C26.9269 16.0916 27.2971 16.3498 27.9084 16.9052C28.0892 17.129 28.27 17.3356 28.4508 17.5509C28.8198 18.1145 29.1204 18.72 29.3463 19.3546C29.4151 19.6861 29.4883 20.0176 29.5572 20.3361C29.5911 20.7657 29.6011 21.1969 29.5873 21.6276C29.5099 22.0839 29.4324 22.5316 29.3635 22.9793C29.2429 23.2462 29.1956 23.4572 28.9846 23.9996C28.5326 24.9339 27.9688 25.8098 27.3058 26.6083C26.468 27.46 25.5672 28.2471 24.6109 28.9631C24.4159 29.0302 24.2371 29.1373 24.0857 29.2773C22.6257 30.0623 21.1004 30.7191 19.5269 31.2404C18.5367 31.4427 17.5466 31.6321 16.5436 31.7656C14.6882 31.8646 14.6882 31.8646 14.163 31.9205C12.5358 31.9679 6.25067 32.2821 6.13875 32.2606C6.10096 32.1952 6.08107 32.1209 6.08107 32.0454C6.08107 31.9698 6.10096 31.8956 6.13875 31.8301C7.81764 31.3437 9.5482 30.7797 11.2486 30.3622C11.3907 30.2976 14.262 29.4754 14.5461 29.3634C15.8376 29.0965 17.0989 28.5972 18.3689 28.2657C18.653 28.1624 20.1769 27.7491 21.5889 27.3229C22.8373 27.0259 24.1718 26.6342 25.3729 26.2166C25.4167 26.146 25.4335 26.0619 25.4202 25.9798L25.3255 25.9109C25.2093 25.9109 23.5821 26.3414 15.984 28.1624C15.9544 28.1842 15.9226 28.2029 15.8893 28.2183C14.4945 28.4852 13.0954 28.8942 11.7049 29.2085C11.5973 29.2472 11.494 29.286 11.3907 29.3161C6.11721 30.5731 6.11721 30.5731 5.99668 30.6075H5.85031C5.73839 30.4655 5.67812 30.444 5.69964 30.2459C6.14601 29.9525 6.60725 29.6824 7.08151 29.4366C7.33119 29.329 9.74192 27.9601 9.9873 27.8524C11.903 26.7073 13.8961 25.6483 15.8204 24.5162C17.4347 23.6552 19.0619 22.7038 20.6806 21.817L20.8442 21.6879C22.0754 21.0594 23.2764 20.3491 24.4861 19.6732C25.0677 19.4133 25.6228 19.0975 26.1434 18.7304C26.1639 18.7033 26.177 18.6714 26.1815 18.6377C26.186 18.6041 26.1818 18.5698 26.1693 18.5383C26.1567 18.5067 26.1363 18.4789 26.1099 18.4575C26.0835 18.4361 26.0521 18.4219 26.0186 18.4162C24.8477 19.0189 23.6854 19.6258 22.5231 20.2199C22.3895 20.2568 22.264 20.3181 22.1528 20.4007C18.8252 22.1227 18.8252 22.1227 18.5497 22.2174C18.1751 22.4412 17.1678 22.9449 17.0817 23.0181C15.6396 23.737 14.1845 24.4989 12.7768 25.2695C12.7331 25.2827 12.6885 25.2928 12.6434 25.2996C11.8685 25.8205 10.9214 26.1606 10.125 26.66C8.73457 27.3488 7.31397 28.0634 5.94933 28.8124C5.79005 28.8512 4.73105 29.5787 4.84729 28.8641C5.33374 28.4121 5.82449 27.9471 6.31094 27.4822C6.48802 27.2896 6.68257 27.1138 6.8921 26.957C7.41719 26.3289 8.01224 25.7627 8.6657 25.2695C8.70444 25.2136 8.75179 25.1619 8.79915 25.0973C10.0691 23.9264 11.3476 22.7167 12.5659 21.4855C16.1992 18.0072 19.8526 14.5475 23.5261 11.1065C23.6245 10.9549 23.7554 10.827 23.9092 10.732C26.1391 8.57956 26.2812 8.42889 28.9201 5.91915C29.0923 5.7857 29.0923 5.7857 29.1569 5.691C29.1569 5.26051 28.9029 5.45423 28.6661 5.62643C28.0161 6.28076 27.3101 6.86622 26.6428 7.49473C26.3931 7.84773 25.9454 8.11033 25.6441 8.45472C24.9856 9.12024 24.2838 9.74148 23.5433 10.3144C23.0046 10.8583 22.4293 11.3646 21.8214 11.8297C19.7335 13.8315 17.4476 15.6524 15.3641 17.6714C14.3438 18.4721 13.4613 19.4924 12.4281 20.2759C12.1526 20.5772 12.1526 20.5772 10.3059 22.2949L10.1121 22.4283C8.0544 24.3268 5.94071 26.1951 3.84425 28.0505C3.61609 28.0505 3.55582 27.9945 3.57735 27.7491C6.09139 24.0943 8.60973 20.4308 11.0936 16.7459C12.0967 15.222 13.0954 13.6593 14.163 12.1741C14.9164 11.0592 14.9766 10.9343 15.2435 10.5727C17.185 7.69276 19.2169 4.8042 21.1154 1.88981C21.3435 1.66165 21.2833 1.51528 20.9776 1.54541C19.3676 3.80546 17.693 6.044 16.1088 8.32988C15.8419 8.66566 15.3253 9.42761 9.93133 16.987C9.81079 17.1936 7.8736 19.8368 7.73154 20.0004C6.00959 22.4326 4.25321 24.8821 2.47961 27.2756C2.3849 27.3488 2.29019 27.4263 2.17396 27.3488V27.1206C3.43528 23.8274 4.75688 20.5169 6.15166 17.2668C8.17064 12.2086 10.1724 7.12452 12.2215 2.07491C12.2238 2.00266 12.1993 1.93212 12.1526 1.87688C12.1163 1.87444 12.0799 1.8797 12.0458 1.89232C12.0117 1.90493 11.9806 1.92461 11.9546 1.95007C10.4006 5.44992 8.78192 8.94548 7.21926 12.4367C7.15468 12.5228 5.49732 16.2078 5.0367 17.1462C4.83007 17.6413 4.66648 17.9426 4.45554 18.4377C3.11242 21.266 1.83387 24.146 0.546718 27.0044C0.472089 27.0425 0.389467 27.0624 0.305647 27.0624C0.221826 27.0624 0.139204 27.0425 0.0645752 27.0044C0.239677 26.1487 0.458079 25.3024 0.718923 24.4688C0.774886 24.3483 0.955683 23.6078 1.00734 23.4873C1.0547 23.2247 1.11066 23.0999 1.73917 20.6762C2.07065 19.4666 2.39781 18.2569 2.73789 17.0472C2.78094 16.7889 5.87615 5.66517 5.89767 5.49298C6.00099 5.13998 6.1043 4.78697 6.21192 4.43397C6.60797 2.87561 7.02124 1.42057 7.3441 0.185071C7.3718 0.11617 7.42183 0.0585608 7.48617 0.0214844C12.9964 0.0214844 18.5152 0.0214844 24.0254 0.0214844C25.7313 0.0737494 27.4121 0.446133 28.9804 1.11923C29.1531 1.25619 29.3426 1.37049 29.5443 1.45932C29.9085 1.71991 30.2524 2.00772 30.5731 2.32029C30.7453 2.57428 30.9218 2.82396 31.0983 3.07364C31.2017 3.33624 31.305 3.59453 31.4126 3.85282C31.4944 4.23165 31.5719 4.60617 31.6494 4.97639C31.6494 5.32078 31.6494 5.65655 31.6494 5.99664L31.6537 6.02677Z" fill="#F37321"/>
</g>
<defs>
<clipPath id="clip0_1445_4570">
<rect width="135.603" height="34.0084" fill="white"/>
</clipPath>
</defs>
</svg>
