<svg width="158" height="32" viewBox="0 0 158 32" fill="none" xmlns="http://www.w3.org/2000/svg">
<g clip-path="url(#clip0_1445_4513)">
<path d="M42.5277 15.6524C43.1442 15.7568 43.7313 15.9917 44.2497 16.3412C44.4766 16.5183 44.6591 16.746 44.7824 17.0061C44.9057 17.2662 44.9665 17.5515 44.96 17.8393C44.9649 18.1493 44.8969 18.456 44.7616 18.7349C44.6262 19.0138 44.4273 19.2571 44.1808 19.445C43.5408 19.953 42.6124 20.207 41.3956 20.207H37.0218V19.9702C37.2965 19.9914 37.5725 19.9532 37.8311 19.8583C37.9601 19.7987 38.0649 19.697 38.1282 19.5699C38.2037 19.2895 38.2328 18.9987 38.2143 18.7089V13.1126C38.232 12.8228 38.2029 12.5321 38.1282 12.2516C38.0632 12.1242 37.957 12.0225 37.8268 11.9632C37.5687 11.8727 37.2947 11.836 37.0218 11.8556V11.5973H41.1459C41.8537 11.5576 42.5628 11.648 43.238 11.8642C43.6327 12.0234 43.9712 12.2961 44.2109 12.6476C44.4397 12.9746 44.5628 13.3636 44.5639 13.7626C44.5704 14.1747 44.416 14.5731 44.1335 14.8733C43.6815 15.2779 43.1253 15.5479 42.5277 15.6524ZM40.2203 15.4803C40.6715 15.5046 41.1229 15.4357 41.5462 15.2779C41.8173 15.156 42.0464 14.9569 42.2049 14.7054C42.3689 14.4207 42.4481 14.0951 42.433 13.7669C42.4473 13.4393 42.3697 13.1143 42.2092 12.8285C42.0539 12.5833 41.8291 12.3899 41.5635 12.2731C41.1324 12.123 40.6759 12.0601 40.2203 12.088V15.4803ZM40.2203 15.9753V18.7347V19.0533C40.2127 19.1469 40.2245 19.2411 40.2549 19.3299C40.2852 19.4188 40.3335 19.5005 40.3968 19.5699C40.4671 19.6315 40.549 19.6786 40.6377 19.7081C40.7265 19.7377 40.8202 19.7492 40.9134 19.7421C41.2385 19.7458 41.5595 19.6689 41.8476 19.5182C42.1295 19.3734 42.3596 19.1448 42.5062 18.8639C42.6617 18.5712 42.7402 18.2438 42.7344 17.9125C42.74 17.5324 42.6433 17.1577 42.4546 16.8277C42.2847 16.5228 42.0136 16.2868 41.6883 16.1604C41.2142 16.0106 40.7168 15.9479 40.2203 15.9753ZM49.1314 19.3374C48.4053 19.9803 47.7553 20.3003 47.1813 20.2974C47.0223 20.3046 46.8636 20.2784 46.7153 20.2206C46.567 20.1628 46.4325 20.0745 46.3203 19.9616C46.2098 19.8531 46.1229 19.7229 46.0651 19.5791C46.0074 19.4354 45.9799 19.2813 45.9845 19.1265C45.9889 18.8937 46.043 18.6645 46.1432 18.4544C46.2435 18.2443 46.3875 18.058 46.5657 17.9082C47.3481 17.3164 48.205 16.8301 49.1142 16.4618V15.8677C49.1345 15.5784 49.1083 15.2877 49.0367 15.0067C48.9802 14.8791 48.8854 14.7723 48.7655 14.7011C48.6272 14.6154 48.4675 14.5706 48.3049 14.5719C48.0651 14.5624 47.8281 14.6254 47.6247 14.7527C47.5778 14.7806 47.5384 14.8194 47.5099 14.8659C47.4814 14.9124 47.4647 14.9652 47.4611 15.0196C47.4797 15.1473 47.5421 15.2645 47.6376 15.3511C47.7821 15.4912 47.8695 15.6798 47.883 15.8806C47.8841 15.9803 47.8639 16.0791 47.8238 16.1704C47.7838 16.2617 47.7247 16.3434 47.6505 16.4101C47.4843 16.5592 47.2667 16.6379 47.0435 16.6296C46.7965 16.6369 46.5561 16.5491 46.372 16.3843C46.2886 16.3156 46.2211 16.2295 46.1743 16.1322C46.1274 16.0348 46.1024 15.9284 46.1008 15.8203C46.1133 15.4982 46.2435 15.1919 46.4667 14.9594C46.7398 14.6602 47.0874 14.4389 47.474 14.3179C47.908 14.1709 48.3633 14.0967 48.8215 14.0984C49.2927 14.0747 49.7596 14.1997 50.156 14.4557C50.4412 14.6462 50.663 14.9175 50.7931 15.2349C50.8739 15.6371 50.9043 16.0477 50.8835 16.4574V18.7606C50.8753 18.9319 50.8854 19.1036 50.9136 19.2728C50.929 19.3328 50.962 19.3868 51.0083 19.4278L51.1547 19.4795C51.2666 19.4795 51.3785 19.402 51.4948 19.247L51.6799 19.3977C51.5148 19.67 51.2913 19.9023 51.0255 20.0778C50.7948 20.2224 50.5272 20.2971 50.255 20.2931C49.9706 20.3099 49.6896 20.2244 49.4629 20.052C49.2644 19.869 49.1454 19.6156 49.1314 19.346V19.3374ZM49.1314 18.8768V16.8879C48.689 17.1295 48.2996 17.4574 47.9863 17.8522C47.832 18.0511 47.7446 18.2937 47.7366 18.5453C47.7371 18.7371 47.8128 18.9211 47.9476 19.0576C48.0033 19.1147 48.0705 19.1596 48.1446 19.1892C48.2187 19.2189 48.2983 19.2327 48.3781 19.2298C48.6623 19.2024 48.9284 19.0777 49.1314 18.8768ZM54.7794 14.2792V15.0412C55.0256 14.7565 55.3164 14.5137 55.6404 14.3222C55.9181 14.1729 56.229 14.0959 56.5444 14.0984C56.8908 14.0866 57.23 14.1997 57.5001 14.4169C57.7475 14.6237 57.9249 14.9018 58.008 15.2133C58.0936 15.6716 58.1268 16.1381 58.107 16.6038V18.9155C58.0762 19.2084 58.1191 19.5044 58.2319 19.7765C58.369 19.9135 58.5547 19.9908 58.7485 19.9917V20.207H55.7351V19.9788C55.8314 19.9718 55.9248 19.9429 56.0084 19.8944C56.0919 19.846 56.1633 19.7792 56.2172 19.699C56.3096 19.4473 56.3449 19.1782 56.3205 18.9112V16.2723C56.3326 15.9642 56.3139 15.6556 56.2646 15.3511C56.2311 15.2339 56.1619 15.13 56.0665 15.0541C55.9807 14.9865 55.8744 14.95 55.7652 14.9507C55.4036 14.9507 55.0635 15.209 54.7536 15.7299V18.9155C54.7228 19.2081 54.7641 19.5037 54.8741 19.7765C54.9312 19.8437 55.0016 19.8982 55.0809 19.9368C55.1602 19.9753 55.2466 19.9969 55.3347 20.0003V20.207H52.3213V19.9788C52.4224 19.9768 52.5219 19.9539 52.6137 19.9117C52.7056 19.8695 52.7877 19.8088 52.8551 19.7335C52.9544 19.4715 52.9912 19.1899 52.9627 18.9112V15.5577C52.9911 15.2733 52.9482 14.9863 52.8379 14.7226C52.7002 14.5864 52.5149 14.5092 52.3213 14.5073V14.2706L54.7794 14.2792ZM61.9943 11.5973V17.2625L63.3719 15.9107C63.571 15.7325 63.7487 15.5317 63.9014 15.3124C63.9666 15.2044 64.0022 15.0812 64.0047 14.9551C64.0061 14.9001 63.9943 14.8457 63.9703 14.7963C63.9463 14.7469 63.9109 14.7039 63.8669 14.6709C63.7014 14.5713 63.5133 14.515 63.3202 14.5073V14.2706H65.9763V14.5073C65.7443 14.515 65.5172 14.5769 65.3134 14.6882C64.9097 14.9755 64.5349 15.3014 64.1941 15.6611L63.5484 16.2939L64.9475 18.3387C65.253 18.8236 65.588 19.2894 65.9505 19.7335C66.0941 19.8805 66.2877 19.9681 66.4929 19.9788V20.207H63.4279V19.9788C63.5328 19.9874 63.6375 19.9601 63.7249 19.9013L63.8153 19.7335C63.7682 19.5362 63.677 19.3522 63.5484 19.1953L62.3732 17.4734L61.9943 17.8522V18.9155C61.9631 19.2084 62.006 19.5045 62.1192 19.7765C62.2579 19.9137 62.4449 19.991 62.6401 19.9917V20.207H59.575V19.9788C59.6761 19.9768 59.7756 19.9539 59.8674 19.9117C59.9593 19.8695 60.0414 19.8088 60.1088 19.7335C60.2104 19.4736 60.2474 19.1929 60.2164 18.9155V12.8887C60.2492 12.5958 60.2062 12.2993 60.0916 12.0277C59.9529 11.8931 59.7683 11.8161 59.575 11.8125V11.5973H61.9943ZM72.8598 14.0941C73.3669 14.0916 73.8648 14.2302 74.2976 14.4944C74.7448 14.7601 75.0995 15.1568 75.3136 15.6309C75.5462 16.1354 75.6639 16.6854 75.658 17.2409C75.686 17.9973 75.4602 18.7413 75.0165 19.3546C74.77 19.6898 74.4446 19.9591 74.0691 20.1385C73.6937 20.318 73.2798 20.4021 72.8641 20.3835C72.4698 20.4045 72.0763 20.3297 71.7172 20.1656C71.3581 20.0014 71.0441 19.7527 70.8021 19.4407C70.32 18.8198 70.0648 18.0527 70.0789 17.2668C70.0632 16.4626 70.323 15.6773 70.815 15.0412C71.0551 14.7316 71.3664 14.4847 71.7224 14.3213C72.0784 14.1579 72.4686 14.0829 72.8598 14.1027V14.0941ZM72.8856 14.5461C72.7808 14.5443 72.6769 14.5653 72.581 14.6077C72.4851 14.6501 72.3996 14.7128 72.3303 14.7915C72.1321 15.0724 72.0253 15.4076 72.0247 15.7515C71.973 16.2336 71.9515 16.9009 71.9515 17.7532C71.9493 18.1782 71.9795 18.6028 72.0419 19.0232C72.0677 19.2765 72.1715 19.5157 72.3389 19.7076C72.4039 19.7819 72.484 19.8414 72.5738 19.8823C72.6636 19.9231 72.7611 19.9443 72.8598 19.9444C73.0331 19.9507 73.2028 19.8941 73.3377 19.7851C73.5098 19.6255 73.6247 19.4137 73.6648 19.1824C73.7768 18.3754 73.82 17.5603 73.794 16.7459C73.8152 16.249 73.7732 15.7514 73.6691 15.265C73.6157 15.0365 73.4923 14.8303 73.3161 14.6752C73.1902 14.588 73.0386 14.5456 72.8856 14.5547V14.5461ZM79.1621 14.8948V19.0102C79.1334 19.2667 79.1767 19.526 79.287 19.7593C79.3881 19.8485 79.5077 19.9144 79.6371 19.9523C79.7665 19.9902 79.9027 19.9993 80.036 19.9788V20.207H76.5405V19.9788C76.7344 19.9866 76.9278 19.9544 77.1087 19.8841C77.212 19.8355 77.2945 19.7515 77.3412 19.6474C77.3948 19.4395 77.4166 19.2247 77.4057 19.0102V14.8948H76.5448V14.2706H77.4057V13.8401V13.5388C77.4003 13.2512 77.4576 12.9659 77.5735 12.7028C77.6895 12.4396 77.8614 12.2048 78.0773 12.0148C78.5805 11.5893 79.2273 11.3721 79.8853 11.4078C80.2937 11.3764 80.7014 11.4775 81.0477 11.6963C81.1565 11.7679 81.247 11.864 81.312 11.9769C81.377 12.0897 81.4148 12.2163 81.4222 12.3463C81.4217 12.4408 81.4007 12.534 81.3605 12.6195C81.3204 12.705 81.2621 12.7807 81.1897 12.8414C81.0152 12.987 80.7926 13.0622 80.5655 13.0523C80.3754 13.0602 80.1888 12.9991 80.0403 12.8801C79.9832 12.8335 79.9368 12.7751 79.9041 12.7091C79.8715 12.643 79.8533 12.5707 79.8509 12.497C79.8577 12.4189 79.8692 12.3412 79.8853 12.2645C79.9023 12.1969 79.911 12.1276 79.9112 12.0579C79.9135 12.0222 79.9082 11.9865 79.8956 11.9531C79.883 11.9197 79.8633 11.8893 79.838 11.8642C79.8046 11.8327 79.7654 11.8082 79.7226 11.792C79.6797 11.7757 79.6341 11.7681 79.5883 11.7695C79.5292 11.7693 79.4708 11.7828 79.4178 11.8089C79.3648 11.8351 79.3185 11.8731 79.2827 11.9201C79.1882 12.0655 79.1443 12.238 79.1578 12.4109V13.5215V14.2749H80.0188V14.8991L79.1621 14.8948ZM89.8942 17.2711L92.2317 11.5973H95.7316V11.834H95.4517C95.2411 11.8232 95.0314 11.8693 94.8447 11.9675C94.7307 12.037 94.6417 12.141 94.5908 12.2645C94.5246 12.523 94.4999 12.7904 94.5176 13.0566V18.7304C94.5002 19.008 94.5248 19.2867 94.5908 19.5569C94.6511 19.6818 94.751 19.7832 94.8749 19.8454C95.0526 19.9377 95.2518 19.9808 95.4517 19.9702H95.7316V20.207H91.2373V19.9702H91.5171C91.7291 19.9805 91.94 19.9345 92.1284 19.8368C92.2437 19.7648 92.3327 19.6576 92.3824 19.5311C92.4446 19.2691 92.4679 18.9993 92.4512 18.7304V12.3635L89.1537 20.207H88.9987L85.6453 12.4109V18.485C85.637 18.7467 85.6485 19.0086 85.6797 19.2685C85.7334 19.4766 85.8603 19.6585 86.037 19.7808C86.2962 19.9354 86.597 20.0061 86.898 19.9831V20.207H83.9491V19.9702H84.0395C84.2217 19.976 84.4032 19.9453 84.5733 19.8798C84.719 19.8265 84.8481 19.736 84.9479 19.6172C85.0438 19.4768 85.1111 19.3188 85.1459 19.1523C85.1459 19.1049 85.1459 18.8897 85.1459 18.5023V13.0652C85.1633 12.7919 85.1386 12.5175 85.0727 12.2516C85.0109 12.1289 84.9113 12.0293 84.7886 11.9675C84.6101 11.8773 84.4115 11.8343 84.2117 11.8426H83.9362V11.5973H87.4533L89.8942 17.2711ZM99.6791 19.346C98.9559 19.9889 98.3059 20.3089 97.729 20.306C97.5735 20.3107 97.4187 20.2833 97.2743 20.2255C97.1299 20.1678 96.9989 20.0809 96.8896 19.9702C96.7776 19.8625 96.6895 19.7326 96.631 19.5887C96.5724 19.4449 96.5446 19.2903 96.5495 19.1351C96.5538 18.9019 96.6083 18.6723 96.7093 18.4621C96.8104 18.2519 96.9555 18.0659 97.1349 17.9168C97.915 17.3237 98.7705 16.8373 99.6791 16.4704V15.8763C99.6999 15.5872 99.6752 15.2967 99.6059 15.0153C99.5476 14.8876 99.4514 14.7809 99.3304 14.7097C99.1934 14.6248 99.0353 14.58 98.8741 14.5805C98.6343 14.5705 98.3971 14.6335 98.1939 14.7613C98.147 14.7892 98.1076 14.8281 98.0791 14.8746C98.0506 14.9211 98.0339 14.9738 98.0303 15.0282C98.0489 15.1559 98.1113 15.2731 98.2068 15.3597C98.3487 15.5012 98.4344 15.6893 98.4479 15.8892C98.4488 15.9885 98.4289 16.0868 98.3896 16.178C98.3503 16.2692 98.2925 16.3511 98.2198 16.4187C98.0536 16.5678 97.8359 16.6466 97.6128 16.6383C97.3657 16.6455 97.1254 16.5577 96.9412 16.3929C96.8571 16.3248 96.7892 16.2389 96.7423 16.1414C96.6954 16.0438 96.6707 15.9371 96.67 15.8289C96.6789 15.5069 96.8079 15.1998 97.0316 14.968C97.3071 14.6696 97.6559 14.4485 98.0433 14.3265C98.4758 14.1799 98.9296 14.1057 99.3864 14.107C99.8591 14.0827 100.327 14.2077 100.725 14.4643C101.01 14.6548 101.232 14.9261 101.362 15.2435C101.441 15.646 101.47 16.0565 101.448 16.4661V18.7692C101.441 18.9407 101.452 19.1125 101.483 19.2814C101.498 19.3414 101.531 19.3954 101.578 19.4364L101.724 19.4881C101.833 19.4881 101.945 19.4106 102.06 19.2556L102.249 19.4063C102.081 19.6765 101.858 19.9083 101.595 20.0865C101.362 20.2304 101.093 20.3051 100.82 20.3017C100.536 20.3178 100.255 20.2323 100.028 20.0606C99.8242 19.8759 99.6994 19.6201 99.6791 19.346ZM99.6791 18.8854V16.8965C99.2379 17.1381 98.85 17.4661 98.5383 17.8608C98.3821 18.0587 98.2945 18.3019 98.2886 18.5539C98.2879 18.6491 98.3062 18.7434 98.3424 18.8313C98.3787 18.9193 98.4321 18.9992 98.4996 19.0662C98.5554 19.1233 98.6225 19.1682 98.6966 19.1978C98.7707 19.2275 98.8503 19.2413 98.9301 19.2384C99.2138 19.2074 99.4783 19.0797 99.6791 18.8768V18.8854ZM105.327 11.5973V15.0412C105.585 14.7524 105.887 14.5068 106.223 14.3136C106.487 14.1723 106.783 14.0997 107.083 14.1027C107.429 14.0939 107.768 14.2066 108.039 14.4213C108.286 14.6099 108.47 14.8699 108.564 15.166C108.672 15.6387 108.715 16.1238 108.693 16.6081V18.9155C108.662 19.2088 108.707 19.5053 108.823 19.7765C108.959 19.912 109.143 19.9892 109.335 19.9917V20.207H106.322V19.9788C106.414 19.9708 106.504 19.9438 106.585 19.8993C106.667 19.8549 106.738 19.794 106.795 19.7205C106.899 19.4658 106.939 19.1893 106.911 18.9155V16.2723C106.926 15.9625 106.905 15.6521 106.851 15.3468C106.821 15.2303 106.753 15.1272 106.657 15.0541C106.57 14.9859 106.462 14.9494 106.352 14.9507C106.172 14.9538 105.998 15.0158 105.857 15.1272C105.648 15.2963 105.471 15.5019 105.336 15.7342V18.9155C105.314 19.1832 105.346 19.4527 105.43 19.7076C105.486 19.7888 105.559 19.8557 105.645 19.9028C105.731 19.95 105.827 19.976 105.925 19.9788V20.207H102.912V19.9788C103.012 19.9767 103.111 19.9538 103.202 19.9116C103.294 19.8693 103.375 19.8087 103.442 19.7335C103.537 19.4721 103.568 19.1915 103.532 18.9155V12.8887C103.566 12.5961 103.525 12.2997 103.411 12.0277C103.272 11.8938 103.088 11.817 102.895 11.8125V11.5973H105.327ZM113.407 19.346C112.684 19.9889 112.034 20.3089 111.457 20.306C111.298 20.3127 111.14 20.2863 110.991 20.2285C110.843 20.1707 110.709 20.0827 110.596 19.9702C110.486 19.8617 110.399 19.7315 110.341 19.5877C110.283 19.444 110.256 19.2899 110.26 19.1351C110.265 18.9019 110.319 18.6723 110.42 18.4621C110.521 18.2519 110.667 18.0659 110.846 17.9168C111.626 17.3237 112.482 16.8373 113.39 16.4704V15.8763C113.408 15.5873 113.384 15.2971 113.317 15.0153C113.259 14.8876 113.162 14.7809 113.041 14.7097C112.904 14.6248 112.746 14.58 112.585 14.5805C112.345 14.5705 112.108 14.6335 111.905 14.7613C111.858 14.7892 111.819 14.8281 111.79 14.8746C111.762 14.9211 111.745 14.9738 111.741 15.0282C111.76 15.1559 111.822 15.2731 111.918 15.3597C112.06 15.5012 112.145 15.6893 112.159 15.8892C112.16 15.9889 112.14 16.0877 112.1 16.179C112.06 16.2703 112.001 16.352 111.926 16.4187C111.761 16.5668 111.545 16.6454 111.324 16.6383C111.077 16.6455 110.836 16.5577 110.652 16.3929C110.568 16.3248 110.5 16.2389 110.453 16.1414C110.406 16.0438 110.382 15.9371 110.381 15.8289C110.39 15.5069 110.519 15.1998 110.743 14.968C111.017 14.6687 111.366 14.4474 111.754 14.3265C112.187 14.1799 112.641 14.1057 113.097 14.107C113.57 14.0827 114.038 14.2077 114.436 14.4643C114.721 14.6548 114.943 14.9261 115.073 15.2435C115.152 15.646 115.181 16.0565 115.159 16.4661V18.7692C115.152 18.9407 115.163 19.1125 115.194 19.2814C115.209 19.3414 115.242 19.3954 115.289 19.4364L115.431 19.4881C115.543 19.4881 115.654 19.4106 115.771 19.2556L115.96 19.4063C115.792 19.6778 115.567 19.9098 115.301 20.0865C115.071 20.231 114.803 20.3057 114.531 20.3017C114.247 20.3178 113.966 20.2323 113.739 20.0606C113.542 19.8731 113.423 19.6177 113.407 19.346ZM113.407 18.8854V16.8965C112.966 17.1381 112.578 17.4661 112.267 17.8608C112.11 18.0587 112.023 18.3019 112.017 18.5539C112.016 18.6491 112.034 18.7434 112.071 18.8313C112.107 18.9193 112.16 18.9992 112.228 19.0662C112.283 19.1238 112.35 19.1689 112.425 19.1986C112.499 19.2283 112.578 19.2418 112.658 19.2384C112.942 19.2074 113.207 19.0797 113.407 18.8768V18.8854ZM119.094 14.2878V15.6352C119.361 15.1685 119.712 14.7542 120.127 14.4126C120.377 14.2266 120.677 14.1215 120.988 14.1113C121.093 14.1066 121.198 14.1237 121.295 14.1615C121.393 14.1992 121.482 14.2569 121.556 14.3309C121.705 14.5006 121.78 14.7216 121.767 14.9464C121.783 15.1847 121.711 15.4206 121.565 15.6094C121.504 15.6826 121.428 15.7414 121.341 15.7815C121.255 15.8217 121.161 15.8423 121.066 15.8419C120.852 15.8447 120.645 15.768 120.485 15.6266L120.192 15.3855L120.041 15.3468C119.911 15.3502 119.788 15.4007 119.692 15.4889C119.507 15.6534 119.371 15.8667 119.301 16.1045C119.162 16.5443 119.093 17.0035 119.098 17.4648V19.1867C119.088 19.3418 119.104 19.4976 119.146 19.6474C119.189 19.7553 119.268 19.845 119.37 19.9013C119.529 19.9668 119.7 20.0005 119.873 20.0003V20.207H116.67V19.9788C116.767 19.9814 116.864 19.9636 116.954 19.9265C117.043 19.8895 117.124 19.8339 117.191 19.7636C117.316 19.4613 117.363 19.133 117.329 18.8079V15.5276C117.341 15.311 117.324 15.0938 117.277 14.8819C117.246 14.7778 117.182 14.6862 117.097 14.6193C116.963 14.5498 116.816 14.5115 116.666 14.5073V14.2706L119.094 14.2878ZM125.676 19.346C124.953 19.9889 124.303 20.3089 123.726 20.306C123.567 20.3132 123.408 20.287 123.26 20.2292C123.112 20.1714 122.977 20.0832 122.865 19.9702C122.755 19.8617 122.668 19.7315 122.61 19.5877C122.552 19.444 122.525 19.2899 122.529 19.1351C122.534 18.9023 122.588 18.6732 122.688 18.463C122.788 18.2529 122.932 18.0666 123.11 17.9168C123.893 17.3251 124.75 16.8387 125.659 16.4704V15.8763C125.677 15.5873 125.653 15.2971 125.586 15.0153C125.527 14.8876 125.431 14.7809 125.31 14.7097C125.173 14.6248 125.015 14.58 124.854 14.5805C124.614 14.5705 124.377 14.6335 124.174 14.7613C124.126 14.7881 124.085 14.8266 124.056 14.8732C124.026 14.9199 124.009 14.9732 124.006 15.0282C124.025 15.1568 124.089 15.2744 124.187 15.3597C124.329 15.5012 124.414 15.6893 124.428 15.8892C124.429 15.9889 124.409 16.0877 124.369 16.179C124.329 16.2703 124.269 16.352 124.195 16.4187C124.029 16.5678 123.811 16.6466 123.588 16.6383C123.342 16.6462 123.103 16.5582 122.921 16.3929C122.837 16.3248 122.769 16.2389 122.722 16.1414C122.675 16.0438 122.651 15.9371 122.65 15.8289C122.659 15.5069 122.788 15.1998 123.011 14.968C123.285 14.6688 123.632 14.4475 124.019 14.3265C124.453 14.1799 124.908 14.1057 125.366 14.107C125.838 14.0818 126.305 14.2069 126.701 14.4643C126.988 14.6528 127.21 14.9247 127.338 15.2435C127.419 15.6457 127.449 16.0564 127.428 16.4661V18.7692C127.42 18.9405 127.43 19.1122 127.458 19.2814C127.475 19.3418 127.51 19.3958 127.557 19.4364L127.699 19.4881C127.811 19.4881 127.923 19.4106 128.04 19.2556L128.229 19.4063C128.061 19.6778 127.836 19.9098 127.57 20.0865C127.34 20.231 127.072 20.3057 126.8 20.3017C126.515 20.3178 126.235 20.2323 126.008 20.0606C125.807 19.8755 125.688 19.6186 125.676 19.346ZM125.676 18.8854V16.8965C125.234 17.1369 124.846 17.4651 124.535 17.8608C124.379 18.0587 124.292 18.3019 124.286 18.5539C124.285 18.7452 124.359 18.9292 124.492 19.0662C124.548 19.1233 124.615 19.1682 124.689 19.1978C124.764 19.2275 124.843 19.2413 124.923 19.2384C125.208 19.2083 125.474 19.0806 125.676 18.8768V18.8854ZM132.65 14.1242L132.745 16.1475H132.53C132.361 15.6796 132.086 15.2579 131.725 14.9163C131.495 14.7141 131.203 14.5971 130.898 14.5848C130.737 14.5855 130.583 14.6488 130.467 14.7613C130.409 14.8115 130.363 14.8736 130.331 14.9435C130.299 15.0133 130.282 15.0892 130.282 15.166C130.285 15.2869 130.331 15.403 130.412 15.4932C130.742 15.8302 131.112 16.1264 131.514 16.3757C131.984 16.6589 132.401 17.0233 132.745 17.4519C132.94 17.743 133.043 18.0869 133.037 18.4377C133.035 18.7756 132.951 19.1079 132.792 19.4063C132.638 19.7145 132.395 19.9694 132.095 20.1381C131.789 20.3079 131.445 20.3954 131.096 20.3921C130.705 20.3676 130.321 20.2774 129.96 20.1252C129.878 20.0889 129.79 20.0657 129.701 20.0563C129.563 20.0563 129.443 20.1596 129.353 20.3706H129.142L129.038 18.2397H129.258C129.399 18.7223 129.67 19.1571 130.041 19.4967C130.294 19.7481 130.629 19.9008 130.984 19.9272C131.167 19.9328 131.345 19.8663 131.479 19.7421C131.541 19.6836 131.591 19.6128 131.624 19.5343C131.657 19.4557 131.674 19.3711 131.673 19.2857C131.677 19.0932 131.61 18.906 131.483 18.7606C131.223 18.5047 130.934 18.2794 130.622 18.089C130.162 17.7998 129.74 17.4541 129.365 17.0601C129.092 16.7393 128.939 16.3325 128.935 15.9107C128.936 15.4535 129.105 15.0125 129.408 14.6709C129.58 14.4811 129.792 14.3326 130.029 14.2364C130.266 14.1402 130.522 14.0989 130.777 14.1156C131.103 14.117 131.423 14.1967 131.712 14.3481C131.794 14.402 131.889 14.4346 131.987 14.4428C132.052 14.4472 132.117 14.4306 132.172 14.3954C132.26 14.3179 132.335 14.228 132.396 14.1285L132.65 14.1242ZM136.382 11.6145V15.0584C136.64 14.7708 136.94 14.5253 137.273 14.3309C137.539 14.1902 137.834 14.1177 138.134 14.1199C138.48 14.1126 138.818 14.2252 139.09 14.4385C139.337 14.6271 139.521 14.8871 139.615 15.1832C139.721 15.6563 139.764 16.1411 139.744 16.6253V18.9155C139.711 19.2089 139.756 19.5057 139.874 19.7765C140.009 19.9128 140.193 19.9901 140.386 19.9917V20.207H137.372V19.9788C137.466 19.9707 137.556 19.9435 137.638 19.8991C137.72 19.8547 137.793 19.7939 137.85 19.7205C137.956 19.4662 137.997 19.1897 137.971 18.9155V16.2723C137.985 15.9625 137.965 15.6521 137.911 15.3468C137.877 15.2317 137.81 15.1295 137.717 15.0541C137.629 14.9865 137.522 14.9501 137.411 14.9507C137.231 14.9522 137.057 15.0144 136.916 15.1272C136.706 15.2953 136.529 15.5011 136.395 15.7342V18.9155C136.371 19.1833 136.403 19.4532 136.49 19.7076C136.545 19.7888 136.619 19.8557 136.705 19.9028C136.791 19.95 136.887 19.976 136.985 19.9788V20.207H133.972V19.9788C134.073 19.9768 134.172 19.9539 134.264 19.9117C134.356 19.8695 134.438 19.8088 134.505 19.7335C134.604 19.4729 134.641 19.1928 134.613 18.9155V12.8887C134.648 12.5957 134.605 12.2987 134.488 12.0277C134.35 11.8931 134.165 11.8161 133.972 11.8125V11.5973L136.382 11.6145ZM143.541 12.1182V14.2706H144.949V14.8991H143.541V18.5625C143.53 18.7846 143.546 19.0073 143.589 19.2255C143.619 19.3207 143.678 19.4047 143.757 19.4666C143.82 19.5198 143.898 19.5514 143.98 19.5569C144.252 19.5569 144.514 19.346 144.76 18.9284L144.949 19.0705C144.84 19.427 144.618 19.7385 144.317 19.9582C144.016 20.1779 143.652 20.2939 143.279 20.2888C142.933 20.2991 142.595 20.1879 142.323 19.9745C142.088 19.7993 141.914 19.5535 141.828 19.2728C141.768 18.8856 141.746 18.4934 141.763 18.1019V14.8991H140.984V14.6752C141.482 14.3324 141.939 13.9353 142.349 13.4914C142.728 13.0674 143.055 12.6008 143.326 12.1009L143.541 12.1182ZM147.975 14.2706V15.618C148.243 15.1512 148.593 14.737 149.009 14.3954C149.258 14.2102 149.559 14.1051 149.87 14.0941C149.974 14.0894 150.079 14.1064 150.177 14.1442C150.274 14.182 150.363 14.2397 150.438 14.3136C150.586 14.4833 150.662 14.7043 150.649 14.9292C150.663 15.1681 150.59 15.4039 150.442 15.5922C150.382 15.6661 150.305 15.7253 150.219 15.7656C150.133 15.8058 150.038 15.826 149.943 15.8246C149.729 15.8275 149.522 15.7508 149.362 15.6094C149.194 15.4673 149.099 15.3855 149.069 15.3683L148.922 15.3296C148.793 15.333 148.669 15.3835 148.574 15.4716C148.387 15.6349 148.251 15.8486 148.182 16.0872C148.039 16.5264 147.97 16.9859 147.975 17.4476V18.8079V19.1652C147.965 19.3201 147.979 19.4757 148.018 19.6258C148.061 19.7338 148.141 19.8235 148.242 19.8798C148.404 19.9447 148.576 19.9783 148.75 19.9788V20.207H145.543V19.9788C145.641 19.9807 145.738 19.9626 145.828 19.9256C145.918 19.8886 146 19.8334 146.068 19.7636C146.19 19.4607 146.236 19.1326 146.202 18.8079V15.5276C146.214 15.3112 146.198 15.0941 146.154 14.8819C146.123 14.7766 146.058 14.6845 145.969 14.6193C145.836 14.5498 145.689 14.5115 145.539 14.5073V14.2706H147.975ZM154.558 19.346C153.834 19.9889 153.184 20.3089 152.607 20.306C152.452 20.3107 152.297 20.2833 152.153 20.2255C152.008 20.1678 151.877 20.0809 151.768 19.9702C151.656 19.8625 151.568 19.7326 151.509 19.5887C151.451 19.4449 151.423 19.2903 151.428 19.1351C151.432 18.9019 151.487 18.6723 151.588 18.4621C151.689 18.2519 151.834 18.0659 152.013 17.9168C152.793 17.3237 153.649 16.8373 154.558 16.4704V15.8763C154.578 15.5872 154.554 15.2967 154.484 15.0153C154.426 14.8876 154.33 14.7809 154.209 14.7097C154.072 14.6248 153.914 14.58 153.753 14.5805C153.513 14.5705 153.275 14.6335 153.072 14.7613C153.025 14.7892 152.986 14.8281 152.958 14.8746C152.929 14.9211 152.912 14.9738 152.909 15.0282C152.927 15.1559 152.99 15.2731 153.085 15.3597C153.227 15.5012 153.313 15.6893 153.326 15.8892C153.327 15.9885 153.307 16.0868 153.268 16.178C153.229 16.2692 153.171 16.3511 153.098 16.4187C152.932 16.5678 152.714 16.6466 152.491 16.6383C152.244 16.6455 152.004 16.5577 151.82 16.3929C151.736 16.3248 151.668 16.2389 151.621 16.1414C151.574 16.0438 151.549 15.9371 151.548 15.8289C151.557 15.5069 151.686 15.1998 151.91 14.968C152.186 14.6696 152.534 14.4485 152.922 14.3265C153.354 14.1799 153.808 14.1057 154.265 14.107C154.737 14.0827 155.206 14.2077 155.604 14.4643C155.889 14.6548 156.111 14.9261 156.241 15.2435C156.319 15.646 156.348 16.0565 156.327 16.4661V18.7692C156.319 18.9407 156.331 19.1125 156.361 19.2814C156.377 19.3414 156.41 19.3954 156.456 19.4364L156.602 19.4881C156.711 19.4881 156.823 19.4106 156.938 19.2556L157.128 19.4063C156.96 19.6765 156.737 19.9083 156.473 20.0865C156.241 20.2304 155.972 20.3051 155.698 20.3017C155.414 20.317 155.134 20.2317 154.906 20.0606C154.703 19.8759 154.578 19.6201 154.558 19.346ZM154.558 18.8854V16.8965C154.116 17.1381 153.728 17.4661 153.417 17.8608C153.261 18.0587 153.173 18.3019 153.167 18.5539C153.166 18.6491 153.185 18.7434 153.221 18.8313C153.257 18.9193 153.31 18.9992 153.378 19.0662C153.434 19.1233 153.501 19.1682 153.575 19.1978C153.649 19.2275 153.729 19.2413 153.808 19.2384C154.087 19.2069 154.346 19.0825 154.545 18.8854" fill="#0E88D3"/>
<path d="M15.9022 0C19.0473 0 22.1218 0.932644 24.7369 2.68C27.352 4.42735 29.3903 6.91093 30.5939 9.81667C31.7975 12.7224 32.1124 15.9198 31.4988 19.0045C30.8852 22.0892 29.3707 24.9227 27.1467 27.1467C24.9227 29.3706 22.0892 30.8852 19.0045 31.4988C15.9198 32.1124 12.7224 31.7975 9.81667 30.5939C6.91093 29.3903 4.42735 27.352 2.68 24.7369C0.932644 22.1218 0 19.0473 0 15.9022C0 11.6847 1.6754 7.63987 4.65764 4.65764C7.63987 1.6754 11.6847 0 15.9022 0Z" fill="white"/>
<path d="M28.3174 6.00095C30.5739 8.80265 31.8042 12.2918 31.8042 15.8892C31.8042 19.4866 30.5739 22.9758 28.3174 25.7775V25.0457C30.2877 22.3987 31.3519 19.1869 31.3519 15.8871C31.3519 12.5873 30.2877 9.37544 28.3174 6.72847V6.00095ZM28.3174 21.4511L28.4896 21.563L28.9932 21.2832L28.3174 21.0034V21.4511ZM28.3174 20.1037C28.6047 20.0999 28.88 19.9879 29.0883 19.79C29.2966 19.5921 29.4225 19.3228 29.441 19.0361L29.0492 19.092C28.8813 19.4838 28.6575 19.7636 28.3174 19.6517V20.1037ZM28.3174 18.696L28.3777 18.64L28.4896 18.8079L28.8813 18.4721C28.3174 17.6112 28.3777 16.9009 28.7134 16.8449C29.0492 16.7889 29.385 17.4045 29.329 18.0244L29.781 17.7403C29.6131 17.0128 29.2171 16.5608 28.6575 16.5608C28.5365 16.572 28.4199 16.6119 28.3174 16.677V18.696ZM28.3174 15.8892H29.6088L29.8887 15.4372H28.3131L28.3174 15.8892ZM28.3174 14.0338H29.1784L29.4022 13.5302L28.3346 13.5861L28.3174 14.0338ZM28.3174 12.9662H29.1784L29.4022 12.5142H28.3346L28.3174 12.9662ZM25.7345 3.41373C26.6782 4.18773 27.5434 5.05289 28.3174 5.99665V6.72416C27.5765 5.71806 26.7083 4.81223 25.7345 4.02932V3.41373ZM28.3174 25.799C27.5594 26.7572 26.6926 27.624 25.7345 28.3819V27.8223C26.6954 27.003 27.5617 26.0789 28.3174 25.0672V25.799ZM28.3174 12.5357V12.9877H27.3057L27.5899 12.5357H28.3174ZM28.3174 13.6076V14.0381H27.2498L27.5899 13.6076H28.3174ZM28.3174 15.4587V15.9021H27.7664C27.7593 16.3347 27.7219 16.7663 27.6544 17.1936H28.0462C28.0458 17.0927 28.0714 16.9934 28.1204 16.9053C28.1694 16.8171 28.2402 16.7429 28.326 16.6899V18.7089C28.0462 19.1609 27.9902 19.4967 28.27 19.6646H28.326V20.1166C28.2097 20.0922 28.1019 20.0375 28.0135 19.9582C27.9251 19.8788 27.8591 19.7775 27.8223 19.6646C27.5985 19.1609 27.8223 18.597 28.2141 18.0933L28.1021 17.6413H27.5985C27.4669 18.5859 27.2212 19.511 26.8666 20.3964L28.326 21.0163V21.4468L26.6988 20.7709C26.5913 21.0274 26.4586 21.2725 26.3027 21.5028C27.0345 21.3349 28.1581 21.6706 27.8783 22.9061C27.7664 23.4701 27.0905 23.9178 26.6428 23.6939C25.9669 23.4141 26.0229 22.6823 26.6988 22.2303C26.7522 22.3562 26.8281 22.4715 26.9226 22.5704C26.4921 22.9061 26.4189 23.4313 26.8666 23.2979C27.0026 23.2566 27.1242 23.1782 27.2179 23.0714C27.3116 22.9646 27.3736 22.8338 27.3969 22.6937C27.4202 22.5536 27.4038 22.4097 27.3497 22.2784C27.2955 22.147 27.2058 22.0335 27.0905 21.9505C26.8666 21.7266 26.4189 21.7826 26.0789 21.8945C25.9804 22.0902 25.8682 22.2786 25.7431 22.4584V22.028C26.8958 20.1968 27.48 18.0651 27.422 15.9021C27.4303 15.601 27.4101 15.2998 27.3617 15.0024H27.7018V15.4329L28.3174 15.4587ZM25.7345 26.7547H26.0143V26.3587H25.7345V26.7547ZM25.7345 24.7874V24.1115C25.779 24.1097 25.8235 24.1171 25.8651 24.1334C25.9067 24.1496 25.9444 24.1742 25.976 24.2058C26.0075 24.2374 26.0322 24.2751 26.0484 24.3167C26.0646 24.3582 26.0721 24.4027 26.0702 24.4473C26.0632 24.5336 26.0255 24.6145 25.9639 24.6753C25.9022 24.7362 25.8208 24.7729 25.7345 24.7788V24.7874ZM25.7345 19.3374C26.4813 17.114 26.4813 14.7075 25.7345 12.4841V14.3911C25.7996 14.8952 25.8369 15.4025 25.8464 15.9107C25.839 16.4176 25.8017 16.9236 25.7345 17.4261V19.3374ZM25.7345 11.6403V11.1668C25.7904 11.5069 26.1262 11.6188 26.7461 11.6188V11.8427C26.3943 11.9077 26.031 11.8319 25.7345 11.6317V11.6403ZM25.7345 11.0204V9.78492L26.97 7.63249L25.7345 7.85634V7.57653L27.9816 7.18479L25.9583 10.4436C25.8443 10.615 25.768 10.8087 25.7345 11.0118V11.0204ZM25.7345 5.57046L26.0702 4.89459C25.969 4.9585 25.8538 4.99691 25.7345 5.00653V5.57046ZM22.1959 1.30004C23.4564 1.87498 24.6443 2.59751 25.7345 3.45247V4.07237C24.6475 3.1867 23.4597 2.43244 22.1959 1.82523V1.30004ZM25.7345 28.3862C24.6453 29.2427 23.4573 29.9654 22.1959 30.5387V30.035C23.4572 29.4458 24.6449 28.7104 25.7345 27.8438V28.3862ZM25.7345 5.01083V5.57046L24.6669 7.76164L25.7345 7.59375V7.87357L23.892 8.15338L25.1275 5.5145C24.2275 6.02333 23.2354 6.34818 22.2088 6.47018V6.19036C23.3194 6.12579 24.6109 5.50589 25.7345 4.99791V5.01083ZM25.7345 9.78923V11.6446C25.5188 11.4886 25.3701 11.2568 25.3182 10.9957C25.2663 10.7346 25.315 10.4636 25.4546 10.2369L25.7345 9.78923ZM25.7345 12.4884C25.0604 10.5617 23.8287 8.87895 22.1959 7.65401V8.21795C24.0914 9.7749 25.3503 11.9727 25.7345 14.3954V12.4884ZM25.7345 17.4304V19.346C25.0468 21.2798 23.8187 22.9756 22.1959 24.232V23.6165C24.0944 22.0529 25.3534 19.8472 25.7345 17.4174V17.4304ZM25.7345 22.0409C24.8203 23.4588 23.6138 24.6653 22.1959 25.5795V25.9153C22.8593 25.5101 23.4808 25.04 24.0513 24.5119L24.3311 24.9036C23.4701 25.2437 23.0396 25.9153 23.4701 26.307C23.694 26.4792 24.3698 26.1951 24.6496 25.9153C24.9295 25.6354 25.2695 25.7474 25.0414 26.0831C24.8004 26.4145 24.4384 26.6373 24.034 26.703V26.9269L24.6496 26.815L24.4818 27.2067L24.8175 27.2627L24.9854 26.8709L25.7172 26.759V26.3629H25.3212C25.6613 25.9712 25.7517 25.5235 25.3772 25.2953C25.0026 25.0672 24.6496 25.4116 24.3139 25.7258C23.9781 26.0401 23.694 25.6699 23.9738 25.502C24.2536 25.3341 24.5937 25.05 24.8735 24.8261L24.3698 24.1503C24.8789 23.6399 25.3307 23.0755 25.7172 22.4671L25.7345 22.0409ZM25.7345 24.1158C25.6887 24.1095 25.6421 24.1138 25.5983 24.1284C25.5545 24.143 25.5146 24.1675 25.4817 24.1999C25.4488 24.2324 25.4239 24.2719 25.4087 24.3156C25.3936 24.3592 25.3887 24.4058 25.3944 24.4516C25.3926 24.4967 25.4001 24.5418 25.4166 24.5839C25.433 24.6259 25.458 24.6642 25.4899 24.6961C25.5219 24.7281 25.5601 24.7531 25.6022 24.7695C25.6443 24.7859 25.6893 24.7935 25.7345 24.7917V24.1158ZM22.1959 27.3746L22.5316 28.1064H23.031L22.17 26.4232L22.1959 27.3746ZM22.1959 21.4769V21.068H23.0956V11.1668H22.1959V10.7363H23.4873V21.4683L22.1959 21.4769ZM22.1959 20.2414C22.3667 20.0794 22.4671 19.8568 22.4757 19.6215C22.4765 19.5128 22.4516 19.4054 22.403 19.3081C22.3544 19.2108 22.2834 19.1265 22.1959 19.0619V20.2414ZM22.1959 18.8897C22.3007 18.7704 22.3601 18.618 22.3638 18.4592C22.3595 18.2783 22.301 18.1029 22.1959 17.9556V18.8897ZM22.1959 16.4187V13.147H22.3638L22.6436 13.711H22.2518V16.4618L22.1959 16.4187ZM22.1959 12.8242V12.0923C22.2922 12.1022 22.3809 12.1489 22.4435 12.2227C22.5061 12.2966 22.5377 12.3918 22.5316 12.4884C22.5227 12.5731 22.4841 12.652 22.4227 12.7111C22.3612 12.7702 22.2809 12.8056 22.1959 12.8112V12.8242ZM21.2402 0.968561C21.52 1.08049 21.8558 1.19241 22.1959 1.30434V1.81232C21.8639 1.71524 21.5435 1.58245 21.2402 1.41627V0.968561ZM22.1959 30.5214C21.8639 30.6185 21.5435 30.7513 21.2402 30.9175V30.4095C21.52 30.2976 21.8558 30.1297 22.1959 30.0178V30.5214ZM22.1959 6.19467V6.47449C21.8731 6.49982 21.5484 6.4618 21.2402 6.36255V6.08274C21.55 6.17414 21.8739 6.2077 22.1959 6.18175V6.19467ZM22.1959 7.65401V8.21795C21.8558 7.98979 21.576 7.76594 21.2402 7.54209V6.97815C21.52 7.1934 21.8558 7.36128 22.1959 7.6411V7.65401ZM21.2402 10.7363H22.1959V11.1668H21.2402V10.7363ZM22.1959 12.0837V12.8155C22.0993 12.8216 22.004 12.79 21.9302 12.7274C21.8564 12.6648 21.8096 12.5761 21.7998 12.4798C21.7974 12.4269 21.806 12.3741 21.825 12.3248C21.844 12.2754 21.873 12.2305 21.9102 12.1929C21.9474 12.1553 21.992 12.1258 22.0411 12.1062C22.0903 12.0867 22.143 12.0776 22.1959 12.0794V12.0837ZM22.1959 13.1513H22.028C21.7327 12.8409 21.4688 12.502 21.2402 12.1397V12.5702C21.3654 12.7714 21.5095 12.9603 21.6707 13.1341H21.5028C21.3909 13.0222 21.2789 12.9662 21.223 12.8543V13.7497H21.6535V14.4213C21.5502 14.2656 21.3991 14.1477 21.223 14.0855V14.4213C21.2976 14.4133 21.373 14.425 21.4418 14.4552C21.5105 14.4854 21.5701 14.5331 21.6147 14.5935H21.6707V14.8733C21.5889 14.9612 21.4946 15.0367 21.3909 15.0971L21.223 14.8173V15.6008C21.3847 15.5392 21.5315 15.4438 21.6535 15.321V16.1088L22.1614 16.3886L22.1959 13.1513ZM22.1959 17.9297V18.8811L22.028 18.9973L22.1959 19.0533V20.2328C22.028 20.4007 21.8558 20.4567 21.3349 20.4567H21.223V20.0262H21.4468C21.7266 20.0262 21.8386 19.8583 21.8386 19.5957C21.8386 19.3331 21.6707 19.2599 21.4468 19.2599H21.223V18.8079H21.3909C21.6147 18.8079 21.7826 18.752 21.7826 18.5281C21.7826 18.3043 21.6147 18.2483 21.3909 18.2483H21.223V17.7403H21.5028C21.7484 17.7188 21.9937 17.7843 22.1959 17.9254V17.9297ZM21.2402 21.068H22.1959V21.4597H21.2402V21.068ZM22.1959 23.5949V24.2105C21.8558 24.4344 21.52 24.6625 21.2402 24.8304V24.2708C21.5823 24.0825 21.9027 23.8573 22.1959 23.5992V23.5949ZM22.1959 25.5622V25.898C22.0839 25.954 22.028 26.01 21.9677 26.01L22.1959 26.406V27.3574L22.028 27.1335L21.2402 27.5296V27.0991L21.8558 26.7633L21.576 26.3113L21.2402 26.4835V26.1434C21.52 25.9583 21.8558 25.8033 22.1959 25.5666V25.5622ZM21.0163 0.835112C21.0723 0.891075 21.1283 0.891072 21.2402 0.947036V1.37752C21.1283 1.37752 21.0723 1.37753 21.0163 1.32156V0.835112ZM21.2402 30.896C21.1283 30.896 21.0723 30.896 21.0163 30.9519V30.4526C21.0723 30.4526 21.1283 30.3966 21.2402 30.3966V30.896ZM21.2402 6.06122V6.34103C21.1283 6.34103 21.0723 6.28507 21.0163 6.28507V6.00095C21.0723 6.00095 21.1283 6.06983 21.2402 6.06983V6.06122ZM21.2402 6.95663V7.52056L21.0163 7.40864V6.86192C21.0723 6.90927 21.1283 6.90928 21.2402 6.96524V6.95663ZM21.0163 10.7234H21.2402V11.1539H21.0163V10.7234ZM21.2402 12.1268V12.5573C21.1842 12.4496 21.0723 12.3937 21.0163 12.3334V11.9417L21.2402 12.1268ZM21.2402 12.8586V13.7497H21.0163V13.147V12.7165C21.0797 12.7872 21.1556 12.8456 21.2402 12.8887V12.8586ZM21.2402 14.0941V14.4299L21.0163 14.4858V14.0941H21.2402ZM21.2402 14.8259V15.6094H21.0163V15.2177H21.0723L21.0163 15.1617V14.5418L21.2402 14.8259ZM21.0163 17.6887H21.2402V18.1966H21.0163V17.6887ZM21.0163 18.7563H21.2402V19.2083H21.0163V18.7563ZM21.0163 19.9961H21.2402V20.4265H21.0163V19.9961ZM21.0163 21.0637H21.2402V21.4554H21.0163V21.0637ZM21.2402 24.2665V24.8261C21.1283 24.8821 21.0723 24.8821 21.0163 24.938V24.3784L21.2402 24.2665ZM21.2402 26.1176V26.4577L21.0163 26.5696V26.2338L21.2402 26.1176ZM21.2402 27.0733V27.5037L21.1283 27.5597C21.2403 27.9344 21.2001 28.3381 21.0163 28.6833V27.1378L21.2402 27.0733ZM20.7322 0.779146C20.8279 0.792373 20.9228 0.81106 21.0163 0.835112V1.33878C20.9228 1.31473 20.8279 1.29604 20.7322 1.28281V0.779146ZM21.0163 30.9519C20.9228 30.976 20.8279 30.9947 20.7322 31.0079V30.5559C20.8441 30.4999 20.9604 30.4999 21.0163 30.444V30.9519ZM21.0163 5.98373V6.26354C20.9001 6.20758 20.8441 6.15162 20.7322 6.09566V5.8675C20.8441 5.9536 20.9604 5.95359 21.0163 6.00095V5.98373ZM21.0163 6.82318V7.38712C20.9294 7.31899 20.8338 7.26255 20.7322 7.21923V6.65529C20.8361 6.71062 20.9317 6.78017 21.0163 6.86192V6.82318ZM20.7322 10.6976H21.0163V11.128H20.7322V10.6976ZM21.0163 11.933V12.3248C20.9731 12.2403 20.9148 12.1644 20.8441 12.1009L20.7322 12.045V11.7092L20.7882 11.7652C20.8765 11.8174 20.9539 11.8861 21.0163 11.9675V11.933ZM21.0163 12.6649V13.0954L20.7322 12.8715V12.4755C20.8372 12.536 20.9329 12.6114 21.0163 12.6993V12.6649ZM20.7322 13.0954H21.0163V13.7497H20.7322V13.0954ZM21.0163 14.051V15.1186L20.7322 14.7269V14.051H21.0163ZM21.0163 15.1746V15.5664C20.9182 15.5754 20.8196 15.556 20.7322 15.5104V15.1746H21.0163ZM20.7322 17.6456H21.0163V18.1536H20.7322V17.6456ZM20.7322 18.7132H21.0163V19.1652H20.7322V18.7132ZM20.7322 19.953H21.0163V20.3835H20.7322V19.953ZM20.7322 21.0206H21.0163V21.4124H20.7322V21.0206ZM21.0163 24.3354V24.9423C20.9294 25.0105 20.8338 25.0669 20.7322 25.1102V24.5506C20.8328 24.507 20.9281 24.4521 21.0163 24.387V24.3354ZM21.0163 26.1865V26.5265C20.9163 26.5484 20.8203 26.5862 20.7322 26.6385V26.2984C20.8231 26.2625 20.9189 26.2407 21.0163 26.2338V26.1865ZM21.0163 27.0862V28.6618C20.9515 28.7812 20.8526 28.8786 20.7322 28.9416V26.7504L20.9001 27.1421L21.0163 27.0862ZM20.3405 0.619868C20.4774 0.632484 20.6105 0.671983 20.7322 0.736102V1.23977C20.6203 1.18381 20.4524 1.12784 20.3405 1.07188V0.619868ZM20.7322 30.9648C20.6203 31.0208 20.4524 31.0768 20.3405 31.1327V30.6248C20.4524 30.5731 20.6203 30.5731 20.7322 30.5128V30.9648ZM20.7322 6.63376V7.1977C20.6136 7.10275 20.4816 7.02587 20.3405 6.96954V6.51753C20.4481 6.57349 20.6203 6.62946 20.7322 6.68542V6.63376ZM20.3405 10.6803H20.7322V11.1108H20.3405V10.6803ZM20.7322 11.692V12.0278C20.6301 11.9657 20.5153 11.9275 20.3964 11.9158H20.3405V11.5973C20.4481 11.6317 20.6203 11.6877 20.7322 11.7436V11.692ZM20.7322 12.4755V12.8715L20.3964 12.6477H20.3405V12.2559C20.405 12.259 20.4682 12.2756 20.5261 12.3045C20.5839 12.3334 20.635 12.374 20.6763 12.4238L20.7322 12.4755ZM20.3405 13.0954H20.7322V13.7497H20.3405V13.0954ZM20.7322 14.051V14.7269L20.6763 14.559C20.4524 14.7255 20.3964 14.8934 20.5084 15.0627C20.5351 15.0967 20.569 15.1244 20.6077 15.1438C20.6464 15.1631 20.6889 15.1737 20.7322 15.1746V15.5104C20.5893 15.4892 20.4543 15.4314 20.3405 15.3425V14.2189C20.3942 14.1735 20.4567 14.1397 20.5241 14.1197C20.5916 14.0997 20.6624 14.0939 20.7322 14.1027V14.051ZM20.3405 17.6456H20.7322V20.4007H20.3405V17.6456ZM20.3405 21.0206H20.7322V21.4124H20.3405V21.0206ZM20.7322 24.5033V25.0629C20.5912 25.1176 20.4592 25.193 20.3405 25.2867V24.7271C20.4791 24.6901 20.6112 24.632 20.7322 24.5549V24.5033ZM20.7322 26.2984V26.6385H20.6763L20.7322 26.7504V28.9416C20.607 28.9875 20.4735 29.0065 20.3405 28.9975V28.7177C20.6763 28.7737 20.8441 28.2657 20.6203 27.762C20.526 27.7752 20.4326 27.7939 20.3405 27.818V27.366L20.4524 27.2541L20.3405 26.9742V26.4706C20.4481 26.4663 20.6203 26.4103 20.7322 26.35V26.2984ZM15.9022 -0.0516892C17.4072 -0.0562854 18.9041 0.170204 20.3405 0.619868V1.05035C18.8957 0.644879 17.4028 0.436361 15.9022 0.430453V-0.0516892ZM20.3405 31.1327C18.8955 31.5368 17.4026 31.7439 15.9022 31.7483V31.3179C17.4076 31.3231 18.9048 31.0951 20.3405 30.642V31.1327ZM20.3405 6.46587V6.96954C18.9634 6.27551 17.4442 5.91008 15.9022 5.90194V5.47145C17.4428 5.47008 18.9626 5.82827 20.3405 6.51753V6.46587ZM20.3405 10.6803H18.9931V21.012H18.3172V20.3921H17.8092L17.5897 20.0563V18.8768C17.7576 18.6486 17.8695 18.7606 18.0933 18.3129L18.2053 17.9771C18.3172 17.9211 18.3731 17.693 18.3731 17.4691H17.9427C17.9427 17.6335 17.8774 17.7912 17.7611 17.9074C17.6448 18.0237 17.4872 18.089 17.3228 18.089V17.228C17.425 17.2087 17.5222 17.169 17.6087 17.1114C17.6953 17.0537 17.7693 16.9792 17.8264 16.8923L17.9986 16.6124C18.0981 16.5655 18.1775 16.4846 18.2225 16.3843V16.1604H17.6585L17.6069 16.5522H16.987V15.9925C17.2668 15.8246 17.6585 15.6568 17.7188 15.2607L18.0546 15.0928V14.757H17.6241L17.4519 15.0369C17.34 15.2607 16.8363 15.2047 16.8923 15.2047V14.5891C17.1666 14.4996 17.403 14.3208 17.5638 14.0812L17.8436 13.9692V13.5388H17.3055C17.2956 13.6273 17.2652 13.7124 17.2166 13.7871C17.168 13.8619 17.1027 13.9242 17.0257 13.9692H16.7459V13.4053C17.0257 13.2374 17.3615 13.1255 17.4175 12.7338L17.7016 12.6218V12.2817H17.1936C17.1936 12.398 17.0257 12.5659 16.9698 12.6778H16.6899V12.2473C16.8245 12.1722 16.9399 12.0671 17.0272 11.9402C17.1146 11.8133 17.1715 11.6679 17.1936 11.5155L17.5294 11.4595V11.0635H17.0257C16.9138 11.5714 16.6899 11.5714 16.5952 11.494V11.0635C16.8107 10.9292 17.0015 10.7588 17.1592 10.5598C17.383 10.4479 17.5509 9.9399 17.3271 9.99586H17.1032C16.9353 9.99586 16.9353 10.28 16.8234 10.3919C16.7674 10.3919 16.5952 10.4479 16.4833 10.4479V9.9399C16.6429 9.91076 16.7911 9.8371 16.9107 9.72742C17.0302 9.61775 17.1164 9.47652 17.1592 9.32H17.3271C17.324 9.22367 17.3432 9.12793 17.383 9.04018H16.9525C16.9283 9.13505 16.8793 9.22175 16.8104 9.29136C16.7416 9.36096 16.6554 9.41097 16.5608 9.43623C16.3326 9.26834 16.2767 9.26834 16.2207 8.98422C16.2207 8.59247 16.6125 8.2567 16.3326 7.80469L16.2767 7.52487C16.2879 7.39228 16.2625 7.25916 16.2033 7.13999C16.1441 7.02083 16.0533 6.92018 15.9409 6.84901V21.4037H20.3792V21.068H19.3288V11.1668H20.3405V10.6803ZM20.3405 11.5413V11.933H20.0176L19.7894 11.5413H20.3405ZM20.3405 12.2731V12.6649H20.0607L19.7765 12.2129H20.207L20.3405 12.2731ZM20.3405 13.1126V13.7497H20.0607L19.8368 13.1298L20.3405 13.1126ZM20.3405 14.2362V15.3597C20.2577 15.2908 20.1901 15.2055 20.1419 15.1092C20.0938 15.0129 20.0661 14.9076 20.0607 14.8001C20.0431 14.6934 20.0609 14.5838 20.1114 14.4882C20.1619 14.3926 20.2424 14.3162 20.3405 14.2706V14.2362ZM20.2285 17.68H20.3405V20.4352H20.2285V17.68ZM20.3405 24.7615V25.3212C18.947 25.9553 17.4331 26.2813 15.9022 26.2769V25.8464C17.4446 25.8411 18.9644 25.4755 20.3405 24.7788V24.7615ZM20.3405 26.505V27.0087L20.2845 26.8968C18.9788 27.4155 17.5869 27.6828 16.182 27.6845V28.4121C16.5673 28.1631 17.0148 28.0274 17.4734 28.0203C18.2612 28.0203 18.4291 28.524 18.2053 29.0879C17.9814 29.6519 17.2496 29.5399 16.8019 29.4797C16.8664 29.3396 16.9224 29.1959 16.9698 29.0492C17.4734 29.1611 18.0933 28.9373 17.9814 28.5972C17.8695 28.2571 17.1204 28.4293 16.7459 28.7134C16.5632 28.8169 16.3749 28.9103 16.182 28.9932V29.9489L15.9022 29.725V27.4176C17.4254 27.4071 18.9323 27.1031 20.3405 26.5222V26.505ZM20.3405 27.4004C19.3288 27.8524 19.4408 28.6919 20.0607 28.976C20.1527 29.0001 20.2462 29.0188 20.3405 29.032V28.7522L20.1166 28.6962C19.7765 28.468 19.8368 28.0763 20.3405 27.8352V27.4004ZM15.9022 3.68924L16.9698 2.062L17.8695 4.86877C18.1493 5.72974 19.2169 5.99664 19.9487 4.9807L19.7765 4.81281C19.1609 5.6006 18.6573 5.54463 18.3731 4.64492L17.2496 0.994389L15.9022 3.24153V3.68924ZM15.9022 31.7828C14.0626 31.7813 12.2373 31.4594 10.5082 30.8314V30.3234C12.2333 30.9731 14.0589 31.3155 15.9022 31.3351V31.7828ZM10.5082 0.955647C12.2365 0.324223 14.0621 0.000764504 15.9022 -3.29837e-05V0.503635C14.0623 0.506553 12.237 0.829947 10.5082 1.45932V0.955647ZM15.9022 3.25875L15.5061 3.87865L14.2706 0.955647C13.655 2.69912 13.203 5.05818 11.5198 5.691L11.6877 5.80292C12.9232 5.63503 13.7669 3.61175 14.1587 2.09643L15.2823 4.70949L15.9022 3.69784V3.25875ZM15.9022 5.50589V5.93638C13.9847 5.95044 12.112 6.5169 10.5082 7.56792V7.00398C12.1358 6.02183 14.0012 5.50376 15.9022 5.50589ZM15.9022 6.90927C15.8229 6.81602 15.7827 6.69568 15.7902 6.5735C15.7343 6.46157 15.5664 6.4056 15.5061 6.51753C15.1703 6.79735 14.7786 6.51753 14.8905 7.41725L15.0584 7.84773C14.6279 8.18782 14.8346 8.5236 14.9465 8.9713V9.31139L14.8346 9.47928C14.7398 9.45348 14.6533 9.40337 14.5839 9.3339C14.5144 9.26443 14.4643 9.17802 14.4385 9.08323H14.008C14.008 9.19946 14.008 9.31139 14.064 9.36305H14.2319C14.2878 9.70313 14.516 10.0389 14.7958 10.0389V10.5469H14.572C14.4557 10.379 14.3998 10.1164 14.2319 10.1164H13.9908C13.7669 10.1164 13.9908 10.5124 14.2146 10.6244C14.2706 10.9042 14.4988 11.0161 14.7786 11.128V11.5585C14.6107 11.6145 14.3481 11.6145 14.2146 11.128H13.8229V11.5241L14.1027 11.5801C14.1359 11.7365 14.2038 11.8835 14.3014 12.0101C14.399 12.1368 14.5239 12.2399 14.6667 12.3119V12.7036L14.4385 12.7596C14.3361 12.6525 14.2764 12.5116 14.2706 12.3635H13.7669V12.7036H13.9908C14.015 12.8776 14.0852 13.042 14.1941 13.1797C14.3031 13.3175 14.4469 13.4236 14.6107 13.4871V14.051H14.3266C14.2631 14.0196 14.2091 13.972 14.1698 13.9131C14.1305 13.8541 14.1074 13.7859 14.1027 13.7153H13.5991V14.051L13.8229 14.107C13.9908 14.3309 14.2147 14.615 14.4385 14.6709L14.4988 15.2865C14.4988 15.2865 13.9908 15.3425 13.9908 15.1186V14.8388H13.5603V15.1746L13.7282 15.2306C13.8857 15.5637 14.115 15.8577 14.3998 16.0915L14.3438 16.6512H14.064L14.008 16.2594H13.4312V16.4833C13.4568 16.5352 13.4968 16.5786 13.5464 16.6084C13.596 16.6382 13.6531 16.653 13.711 16.6512L13.7669 16.8234C13.9348 17.1592 14.1027 17.327 14.3266 17.327V18.188C14.1801 18.1797 14.0419 18.1175 13.9386 18.0134C13.8353 17.9092 13.7742 17.7706 13.7669 17.6241H13.3709V17.9642L13.5991 18.0761C13.6278 18.2626 13.6981 18.4402 13.8046 18.5959C13.9112 18.7516 14.0513 18.8814 14.2146 18.9758V20.1553L13.9348 20.5471H13.4828V21.068H12.8113V10.7363H10.5082V11.1668H12.4195V21.068H10.5082V21.4597H15.9022V6.90927ZM15.9022 25.8507V26.2812C13.9992 26.2803 12.1332 25.7561 10.5082 24.7658V24.2622C12.1271 25.2744 13.993 25.8224 15.9022 25.8464V25.8507ZM15.9022 27.422C14.8975 27.4055 13.898 27.274 12.9232 27.0302L12.8672 26.6385H12.4755C12.3624 26.3637 12.1868 26.1191 11.9626 25.924C11.7384 25.729 11.4718 25.5889 11.184 25.5149V25.9066C11.6145 25.9066 11.8599 26.2424 12.045 26.7676C11.5201 26.5895 11.0129 26.3633 10.5297 26.0918V26.4318C10.6549 26.5155 10.7858 26.5903 10.9214 26.6557L10.8095 26.9915L10.5297 26.9355V27.3272C11.0893 27.3272 11.3907 27.5554 11.3175 27.8352C11.2443 28.115 10.9214 28.171 10.5297 28.115V28.5455C11.0893 28.4896 11.4854 28.2657 11.5973 27.874C11.6274 27.8002 11.6425 27.7213 11.6419 27.6416C11.6413 27.562 11.6249 27.4833 11.5937 27.4101C11.5624 27.3368 11.517 27.2705 11.46 27.2149C11.403 27.1593 11.3355 27.1155 11.2615 27.0862L11.3175 26.8063C11.6444 26.9433 11.9811 27.0556 12.3248 27.1421L11.7996 28.8167L11.9675 29.3204L12.6993 27.2971C13.7063 27.5718 14.7466 27.7051 15.7902 27.6932L15.8462 28.6488C14.7786 29.0406 14.1587 29.0406 14.1242 28.7048C14.0898 28.369 14.5203 28.2528 15.1359 28.4766C15.1992 28.3575 15.2966 28.2601 15.4157 28.1968C15.2181 28.0643 14.9877 27.9889 14.7499 27.979C14.5121 27.9691 14.2762 28.0251 14.0683 28.1409C13.3924 28.4207 13.5646 28.8727 14.0123 29.1525C14.3096 29.2679 14.627 29.3224 14.9457 29.3128C15.2644 29.3032 15.578 29.2297 15.8677 29.0965V29.6002L15.9237 29.7164L15.9022 27.422ZM10.5082 20.4524V19.4967L10.6201 19.8884L11.1281 17.6973H11.9115V20.4524H11.4079V18.1493L10.8999 20.4524H10.5082ZM10.5082 15.0584V14.4944H11.0678V13.7497H10.5082V13.1858H11.7996L11.9675 13.7497H11.5758V16.6124L11.0678 16.2207V15.0412L10.5082 15.0584ZM10.5082 6.62946C10.6184 6.46654 10.6951 6.28322 10.7335 6.09027C10.7719 5.89732 10.7714 5.69864 10.732 5.50589H10.5082V6.62946ZM10.5082 30.8486C9.59158 30.5158 8.70693 30.1008 7.86498 29.6088V29.0492C8.70484 29.5593 9.58959 29.9916 10.5082 30.3407V30.8486ZM7.86498 2.19114C8.71776 1.72134 9.60076 1.3086 10.5082 0.955647V1.45932C9.59114 1.81192 8.7067 2.24405 7.86498 2.75077V2.19114ZM10.5082 5.50589V6.62946C10.3679 6.82977 10.1609 6.97357 9.92425 7.0351C9.68759 7.09664 9.43676 7.07187 9.21671 6.96524L7.86928 6.34964V5.67378L9.3889 6.40561C10.2283 6.86192 10.6201 6.51753 10.5082 5.50589ZM10.5082 7.0212C9.50358 7.63617 8.60997 8.41626 7.86498 9.32861V10.0561C8.58982 9.07981 9.4853 8.24266 10.5082 7.58513V7.0212ZM10.5082 10.732V11.1625H8.65277V21.0637H10.5082V21.4554H8.26103V10.7363L10.5082 10.732ZM10.5082 13.203H9.10047L9.25545 13.7497H9.53526V14.4772C9.10478 14.6494 9.02729 14.8173 9.31141 15.265C9.36704 15.3814 9.45424 15.4798 9.56307 15.5491C9.67191 15.6184 9.79801 15.6557 9.92701 15.6568C10.0992 15.4889 10.0432 15.321 10.0432 15.0412H10.4737V14.4772H10.0432V13.7497H10.4737L10.5082 13.203ZM10.5082 19.4967L10.1164 17.6973H9.25545V20.4524H9.81508V18.1493L10.3231 20.4524H10.4909L10.5082 19.4967ZM10.5082 24.2751V24.7788C9.49145 24.1822 8.59503 23.4012 7.86498 22.4757V21.7438C8.58839 22.7382 9.48349 23.5954 10.5082 24.2751ZM10.5082 26.0702V26.4103C10.4095 26.3862 10.3151 26.347 10.2283 26.2941L10.3962 26.0143L10.5082 26.0702ZM10.5082 26.9312H10.3403C10.2224 26.6814 10.0412 26.4669 9.81456 26.3091C9.58796 26.1512 9.32394 26.0555 9.04881 26.0315C8.54514 26.0315 8.1534 26.4835 8.71303 27.6071L9.10478 27.4349C8.769 27.0991 8.60111 26.7073 8.88092 26.4835C9.16074 26.2596 9.44486 26.4275 9.78064 26.914L9.72468 27.0259L9.78064 27.3617C10.0222 27.3193 10.2673 27.3006 10.5125 27.3057L10.5082 26.9312ZM10.5082 28.1107V28.5412C10.3753 28.5465 10.2425 28.5276 10.1164 28.4853V27.9816C10.2383 28.0444 10.3715 28.0825 10.5082 28.0935V28.1107ZM7.86498 23.5045C7.96201 23.5094 8.05722 23.4769 8.13093 23.4136C8.20464 23.3503 8.25121 23.2611 8.26103 23.1644C8.26103 22.9406 8.09313 22.8287 7.86498 22.8287V23.5045ZM7.86498 29.626L7.69709 29.5141V28.9545L7.86498 29.0664V29.626ZM7.69709 2.32029L7.86498 2.20836V2.768L7.69709 2.88422V2.32029ZM7.86498 5.691V6.36686L7.69709 6.25493V5.63503L7.86498 5.691ZM7.86498 9.34583V10.0734C7.82165 10.175 7.76521 10.2705 7.69709 10.3575V9.56968L7.86498 9.34583ZM7.86498 21.761V22.4929L7.69709 22.2647V21.4812C7.75305 21.5759 7.80901 21.6319 7.86498 21.7438V21.761ZM7.86498 22.8287V23.5045L7.69709 23.4486V22.8846L7.86498 22.8287ZM7.69709 24.2923V23.9522L7.86498 24.1201L7.69709 24.2923ZM7.69709 29.5141L6.67253 28.8167V28.2528L7.68417 28.9287L7.69709 29.5141ZM6.67253 2.98754L7.68417 2.31168V2.87562L6.67253 3.53857V2.98754ZM7.68417 5.62643V6.24633L6.67253 5.7857V5.11415L7.68417 5.62643ZM7.68417 9.56107V10.3489C7.30426 10.9416 6.96622 11.5601 6.67253 12.1999V11.1237C6.96069 10.5671 7.30393 10.0407 7.69709 9.55246L7.68417 9.56107ZM7.68417 21.4726V22.2561C7.29405 21.7653 6.95508 21.2359 6.67253 20.6762V19.6086C6.94617 20.2622 7.28968 20.8843 7.69709 21.464L7.68417 21.4726ZM7.68417 22.876V23.44C7.63227 23.4132 7.58897 23.3724 7.55927 23.3221C7.52957 23.2718 7.51467 23.2142 7.51628 23.1558C7.50634 23.094 7.51919 23.0307 7.55245 22.9776C7.58571 22.9246 7.63711 22.8854 7.69709 22.8674L7.68417 22.876ZM7.68417 23.9436C7.28836 23.6015 6.9472 23.2008 6.67253 22.7555V23.1472L7.06427 23.6552L6.67253 23.935V24.5119L7.29243 24.0039L7.62821 24.344L7.68417 24.288V23.9436ZM6.67253 8.54082V7.92092L6.89638 8.03284L6.67253 7.29241V6.33673L7.34839 8.75176L6.67253 8.54082ZM6.67253 28.8167C5.88483 28.2265 5.13436 27.5882 4.42539 26.9054V26.2338C5.11932 26.967 5.87076 27.6436 6.67253 28.2571V28.8167ZM4.42539 4.87738C5.1349 4.20187 5.88537 3.57073 6.67253 2.98754V3.54718C5.87175 4.16184 5.1204 4.83834 4.42539 5.57046V4.87738ZM6.67253 5.10554L5.94501 4.76545L6.67253 7.29241V6.33673L6.50464 5.71683L6.67253 5.77279V5.10554ZM6.67253 7.91231V8.53221L4.59328 7.80038C5.45425 9.1478 6.39271 11.1151 5.66089 12.1268L5.43703 12.1827C6.00097 10.8913 5.21318 9.37166 4.42539 7.96827V7.1073L6.67253 7.91231ZM6.67253 11.1151C5.89769 12.588 5.49281 14.2272 5.49281 15.8914C5.49281 17.5556 5.89769 19.1948 6.67253 20.6676V19.6C5.70236 17.2228 5.70236 14.56 6.67253 12.1827V11.1151ZM6.67253 22.7383V23.13L6.28079 22.6995C6.1129 23.4313 5.71685 23.5992 5.04529 23.2635C5.04529 23.8231 5.60492 24.1029 6.28079 24.2148L6.67253 23.935V24.5119L5.66089 25.3513L5.54896 24.9208L5.94501 24.5291C4.53732 24.133 4.53732 23.4055 4.8774 22.5618C5.30789 23.1774 5.77281 23.1257 5.94501 22.2776C5.66647 21.8677 5.42172 21.4358 5.21318 20.9862L4.42539 21.266V19.9745C4.58014 20.1965 4.69386 20.4443 4.76117 20.7064L5.04529 20.5944C4.82144 20.0348 4.6148 19.4709 4.42539 18.9069V17.185C4.52112 18.1725 4.76794 19.1394 5.15722 20.052C5.3033 19.9074 5.3986 19.7193 5.42886 19.516C5.45913 19.3127 5.42273 19.105 5.32511 18.9241L5.66089 18.7563C5.74366 19.0376 5.7665 19.3331 5.72794 19.6238C5.68939 19.9144 5.59028 20.1938 5.43703 20.4438L5.60492 20.7795L5.493 20.8915C5.82297 21.5506 6.21812 22.1751 6.67253 22.7555V22.7383ZM4.42539 26.8968C4.25341 26.6774 4.06641 26.4703 3.86576 26.2769V25.5493C4.06858 25.7591 4.25563 25.9836 4.42539 26.2209V26.8968ZM3.86576 5.48867C4.08169 5.31059 4.27025 5.10172 4.42539 4.86877V5.57046C4.25571 5.8092 4.06866 6.0351 3.86576 6.24633V5.48867ZM4.42539 7.12022V7.98119C4.2575 7.64541 4.03365 7.25366 3.86576 6.91358L4.42539 7.12022ZM4.42539 17.1204V18.8424C4.42539 18.7304 4.36943 18.6185 4.36943 18.4506L3.86576 18.5625V18.0589L4.29625 18.0029L4.18432 17.2151L3.84854 17.2711V16.8406L4.07239 16.7846V15.9021H4.35221C4.38234 16.2939 4.4383 16.7631 4.4383 17.1376L4.42539 17.1204ZM4.42539 19.9272V21.2186L4.36943 21.2746C4.2575 20.5987 4.08961 20.151 3.86576 19.9832V19.4752C3.98925 19.5078 4.10428 19.5666 4.20306 19.6475C4.30185 19.7285 4.38207 19.8297 4.4383 19.9444L4.42539 19.9272ZM3.86576 21.5587L4.08961 21.2789C4.04614 21.1786 3.9661 21.0985 3.86576 21.0551V21.5587ZM3.86576 14.1414V13.711H4.42539L4.20154 14.1414H3.86576ZM3.86576 13.1298V12.6261H4.42539L4.2575 13.1298H3.86576ZM3.86576 26.2769C3.41375 25.7172 2.96604 25.0973 2.51403 24.4817V23.582C2.91285 24.2719 3.36479 24.9296 3.86576 25.5493V26.2769ZM2.52695 7.29241C2.95743 6.67251 3.42666 6.05691 3.87867 5.49298V6.2248C3.37678 6.8438 2.92479 7.50163 2.52695 8.19212V7.29241ZM3.87867 6.89636V13.147H2.52695V12.8112L2.64318 12.6433H3.87867V6.89636ZM3.87867 13.698V14.1285H2.52695V13.7928L2.64318 13.6808L3.87867 13.698ZM3.87867 16.8449V17.2754H3.42666L3.53859 18.1364L3.87867 18.0804V18.5841L2.52695 18.752V18.3602L3.03492 18.2483L2.92299 17.3873C2.81107 17.3873 2.64318 17.3314 2.52695 17.3314V16.8277H2.64318C2.68121 16.814 2.71601 16.7927 2.74537 16.7649C2.77474 16.7371 2.79804 16.7036 2.81381 16.6664C2.82958 16.6292 2.83748 16.5891 2.83701 16.5487C2.83654 16.5083 2.8277 16.4685 2.81107 16.4316C2.7551 16.2637 2.64318 16.1518 2.52695 16.1518V15.6438C2.923 15.5879 3.31474 15.872 3.42666 16.8277L3.87867 16.8449ZM3.87867 19.4838V19.9918C3.82271 19.9315 3.76675 19.9315 3.65482 19.9315C3.14685 19.9315 3.22433 20.6073 3.48262 20.8872C3.65482 20.9474 3.76675 20.9474 3.87867 21.0594V21.563L3.82271 21.619L3.31474 21.5071L2.79815 21.7998C2.72031 21.8706 2.61923 21.9104 2.51403 21.9117V21.2961L2.57 21.2402L2.79815 21.4081L3.022 21.1842L2.51403 20.9001V20.4696L2.91008 20.7494C2.79815 20.0219 3.02201 19.5699 3.58164 19.5139L3.87867 19.4838ZM2.52695 24.5119C0.876983 21.9482 -0.000366211 18.9638 -0.000366211 15.915C-0.000366211 12.8663 0.876983 9.88193 2.52695 7.31824V8.21795C1.20062 10.5665 0.503657 13.2179 0.503657 15.915C0.503657 18.6122 1.20062 21.2636 2.52695 23.6121V24.5119ZM2.52695 12.8242L2.35906 13.1599H2.52695V12.8242ZM2.52695 13.8358L2.30309 14.1716H2.52695V13.8358ZM2.52695 15.6869C2.36144 15.7573 2.22029 15.8748 2.12108 16.0249C2.02187 16.1749 1.96897 16.3508 1.96897 16.5306C1.96897 16.7105 2.02187 16.8864 2.12108 17.0364C2.22029 17.1864 2.36144 17.304 2.52695 17.3744V16.8707C2.46033 16.8611 2.39996 16.8262 2.3583 16.7734C2.31665 16.7205 2.29688 16.6536 2.30309 16.5866C2.24713 16.4187 2.30309 16.1949 2.47098 16.1949H2.52695V15.6869ZM2.52695 18.386H2.36767C2.30682 18.0817 2.19318 17.7903 2.03189 17.5251L1.80803 17.637C2.14381 18.3129 1.864 18.7606 1.52822 18.4248C1.19244 18.089 1.41199 17.4131 1.52822 16.9654L1.35602 16.9095C1.07621 17.5251 0.925538 18.089 1.35602 18.7606C1.69611 19.2685 2.03189 19.1006 2.36767 18.8165L2.53556 18.7606L2.52695 18.386ZM2.52695 20.4653L2.1352 20.2414L1.96731 20.5213L2.52695 20.913V20.4653ZM2.52695 21.3263L2.19117 21.6061L2.35906 21.8299L2.52695 21.9419V21.3263Z" fill="#0E88D3"/>
</g>
<defs>
<clipPath id="clip0_1445_4513">
<rect width="157.128" height="31.8043" fill="white"/>
</clipPath>
</defs>
</svg>
