<svg width="160" height="27" viewBox="0 0 160 27" fill="none" xmlns="http://www.w3.org/2000/svg">
<g clip-path="url(#clip0_1445_4470)">
<path d="M7.62939e-06 0H160V27H7.62939e-06V0Z" fill="#004C8F"/>
<path d="M26.6685 0H160V27H26.6685V0Z" fill="#004C8F"/>
<path d="M35.1494 19.8903V7.11536H39.2951V11.4263H43.1956V7.11536H47.3246V19.8903H43.1622V14.9304H39.2617V19.8903H35.116" fill="white"/>
<path d="M53.911 10.2865H54.9864C55.5648 10.2574 56.1434 10.3397 56.6915 10.5291C56.9638 10.6525 57.1985 10.8473 57.3713 11.0934C57.5663 11.4015 57.7077 11.7413 57.7892 12.0978C57.8866 12.5252 57.9352 12.9626 57.9341 13.4012C57.9552 14.0429 57.8471 14.6822 57.6165 15.2802C57.4433 15.7364 57.1233 16.12 56.7082 16.3693C56.1624 16.6295 55.5606 16.7459 54.9586 16.7078H53.911V10.2865ZM55.5158 19.879C56.3409 19.898 57.165 19.8089 57.9675 19.6138C58.5435 19.4818 59.0934 19.2529 59.5946 18.9367C60.0413 18.6297 60.4332 18.2481 60.7536 17.8082C61.1438 17.2397 61.4445 16.6135 61.6452 15.9517C61.9001 15.1248 62.0224 14.2618 62.0074 13.3956C62.0444 12.1517 61.7683 10.9186 61.205 9.81253C60.7121 8.88488 59.9278 8.15019 58.9761 7.72475C57.9151 7.28923 56.7774 7.07802 55.6328 7.10408H49.8544V19.8846H55.5158" fill="white"/>
<path d="M63.9075 19.8903V7.11536H73.748V10.2639H68.0031V12.3122H72.6001V15.3762H68.0031V19.8903H63.9075Z" fill="white"/>
<path d="M87.6506 11.9962H83.7501C83.7086 11.4312 83.4673 10.9002 83.0703 10.5009C82.6709 10.1419 82.1495 9.95375 81.6159 9.97617C81.2723 9.96736 80.9314 10.0404 80.6207 10.1893C80.31 10.3383 80.0383 10.5591 79.8272 10.8338C79.3647 11.3981 79.1307 12.3461 79.1307 13.6552C79.1014 14.3433 79.2016 15.0307 79.426 15.6809C79.5915 16.1031 79.8789 16.465 80.2507 16.7191C80.649 16.9592 81.1084 17.075 81.5713 17.052C81.8466 17.0702 82.1226 17.0321 82.383 16.94C82.6433 16.8479 82.8828 16.7037 83.087 16.516C83.5011 16.0988 83.744 15.5384 83.7668 14.9473H87.7565C87.6942 15.6346 87.5347 16.3092 87.2828 16.9505C87.0153 17.5548 86.6371 18.1024 86.1684 18.5643C85.629 19.1164 84.9792 19.5454 84.2627 19.8226C83.4455 20.1317 82.5772 20.2792 81.7051 20.2571C80.8018 20.2692 79.9031 20.1261 79.0471 19.8339C78.2832 19.5755 77.581 19.1585 76.9854 18.6094C76.4394 18.0887 75.9951 17.4685 75.676 16.7812C75.2241 15.7797 74.9994 14.6884 75.0184 13.5875C75.01 12.6426 75.1704 11.7039 75.4921 10.8169C75.7824 10.013 76.2318 9.27761 76.8127 8.6558C77.342 8.10113 77.9745 7.6581 78.6738 7.35234C79.5826 6.96872 80.559 6.77672 81.5435 6.78807C82.42 6.78085 83.2916 6.92003 84.1234 7.19999C84.8658 7.43565 85.5407 7.84999 86.0904 8.40752C86.6094 8.9316 87.017 9.55757 87.2884 10.247C87.5059 10.8127 87.6392 11.4079 87.684 12.0132" fill="white"/>
<path d="M100.946 9.98746C101.332 9.97018 101.719 9.99858 102.099 10.0721C102.329 10.1374 102.534 10.2734 102.684 10.4614C102.833 10.6502 102.912 10.8858 102.907 11.1273C102.912 11.2806 102.881 11.4328 102.817 11.5719C102.753 11.711 102.658 11.8331 102.54 11.9285C102.135 12.1771 101.662 12.286 101.191 12.2389H99.6253V9.98181L100.946 9.98746ZM101.988 19.8903C102.683 19.9086 103.379 19.8633 104.066 19.7549C104.491 19.649 104.903 19.4997 105.298 19.3091C105.641 19.1479 105.955 18.9305 106.228 18.6658C106.557 18.3525 106.808 17.9662 106.964 17.5373C107.142 17.0635 107.231 16.5602 107.226 16.0533C107.254 15.3674 107.058 14.6912 106.669 14.1292C106.285 13.6133 105.742 13.2435 105.125 13.0796C105.618 12.8235 106.034 12.4371 106.328 11.9613C106.623 11.4855 106.784 10.9381 106.797 10.3768C106.813 9.85257 106.688 9.33367 106.435 8.87621C106.182 8.41874 105.81 8.04009 105.359 7.78119C104.616 7.32225 103.466 7.09467 101.91 7.09843H95.6133V19.8733L101.988 19.8903ZM101.319 14.5354C101.879 14.4724 102.444 14.5826 102.941 14.8514C103.065 14.9631 103.165 15.1004 103.234 15.2541C103.302 15.4078 103.337 15.5744 103.337 15.743C103.337 15.9115 103.302 16.0781 103.234 16.2318C103.165 16.3855 103.065 16.5228 102.941 16.6345C102.455 16.9116 101.895 17.0244 101.341 16.9561H99.6698V14.5354H101.341" fill="white"/>
<path d="M116.342 15.5962H113.701L115.005 10.9467L116.342 15.5962ZM112.441 19.8903L112.921 18.1975H117.05L117.534 19.8903H121.658L117.133 7.11536H112.921L108.39 19.8903H112.441Z" fill="white"/>
<path d="M123.424 19.8903V7.11536H127.291L131.654 13.9542V7.11536H135.627V19.8903H131.682L127.414 13.215V19.8903H123.424Z" fill="white"/>
<path d="M138.397 19.8903V7.11536H142.414V11.3248L146.17 7.11536H151.04L146.421 11.9229L151.525 19.8903H146.56L143.523 14.8119L142.409 15.9122V19.9016H138.391" fill="white"/>
<path d="M7.62939e-06 0H26.663V27H7.62939e-06V0Z" fill="#ED232A"/>
<path d="M4.6695 4.72852H21.999V22.2771H4.6695V4.72852Z" fill="white"/>
<path d="M11.9969 0H14.666V27H11.9969V0Z" fill="white"/>
<path d="M7.62939e-06 12.1542H26.663V14.8514H7.62939e-06V12.1542Z" fill="white"/>
<path d="M9.33343 9.45142H17.3351V17.5542H9.33343V9.45142Z" fill="#004C8F"/>
</g>
<defs>
<clipPath id="clip0_1445_4470">
<rect width="160" height="27" fill="white"/>
</clipPath>
</defs>
</svg>
