<svg width="116" height="28" viewBox="0 0 116 28" fill="none" xmlns="http://www.w3.org/2000/svg">
<g clip-path="url(#clip0_1445_4517)">
<path fill-rule="evenodd" clip-rule="evenodd" d="M106.53 14.4795L106.92 15.1023L106.763 26.3343C106.455 26.6137 106.373 26.8174 106.53 26.957L109.911 26.8872C109.981 26.7534 109.83 26.6137 109.679 26.474L109.754 24.2567L109.911 24.1869L111.291 26.4042L111.139 26.957H115.365C115.179 26.6752 114.911 26.4576 114.596 26.3343C114.137 25.6418 111.366 20.9976 111.366 20.9976C111.766 19.9486 112.358 18.9835 113.112 18.1518C113.654 17.9481 113.805 17.9481 113.881 17.7386H111.553L111.401 17.8084C111.401 17.8084 112.169 18.2915 111.861 18.7105C111.181 19.6865 110.565 20.7051 110.016 21.76C110.016 21.76 109.632 21.8997 109.708 21.3468C109.783 20.794 109.556 14.7531 109.556 14.7531C109.556 14.7531 109.324 13.6473 108.328 13.9907C107.74 14.2402 107.119 14.4048 106.484 14.4795H106.53Z" fill="#0C419A"/>
<path fill-rule="evenodd" clip-rule="evenodd" d="M79.2589 14.0488V14.2583C79.4673 14.4404 79.6477 14.6522 79.7943 14.8869C79.9514 15.0906 79.8758 26.1888 79.8758 26.1888C79.8758 26.1888 79.0261 26.9454 79.3346 26.9454H85.5558C86.4623 26.7312 87.2567 26.1878 87.7848 25.4206C88.6287 24.1053 88.9488 22.0277 86.4055 20.2934C87.4822 19.3215 89.8566 15.4339 84.2522 14.0488H79.2589ZM82.5645 14.6774L82.7158 20.0141C82.7158 20.0141 85.0437 20.2236 85.0961 17.5872C85.1485 14.9509 83.5597 14.8869 82.7682 14.7414C81.9767 14.5959 82.5412 14.6774 82.5412 14.6774H82.5645ZM82.6402 20.6368V26.1189C83.1756 26.1888 85.4045 26.0491 85.7072 24.245C86.3299 20.7066 83.0999 20.6368 82.6402 20.6368Z" fill="#0C419A"/>
<path fill-rule="evenodd" clip-rule="evenodd" d="M100.612 18.1517L100.844 18.7337C101.228 18.4543 101.38 18.4543 101.77 18.1517C102.147 17.9435 102.567 17.826 102.998 17.8083C103.515 17.8185 104.009 18.0268 104.377 18.3903C104.685 18.6697 104.685 18.9723 104.837 19.4321C104.916 20.1216 104.941 20.8162 104.912 21.5097V25.0015C104.912 25.3507 104.767 26.7475 105.296 26.8057V26.9395L101.845 27.0093V26.8057C102.381 26.2528 102.229 25.8338 102.229 25.0015V21.0499C102.27 20.4687 102.27 19.8853 102.229 19.304C102.072 19.0945 101.997 19.0945 101.461 19.0945C100.926 19.0945 100.844 19.5135 100.774 19.8569L100.693 24.9899C100.661 25.4532 100.689 25.9186 100.774 26.375C100.761 26.4882 100.793 26.6021 100.862 26.6924C100.932 26.7826 101.034 26.8421 101.147 26.858V26.9977H97.4689L97.5445 26.794C98.1556 26.7242 98.0043 25.8221 98.0043 24.9899V19.8685C98.0322 19.4472 97.9789 19.0243 97.8472 18.6231C97.6959 18.4834 97.6958 18.4136 98.0043 18.3438L100 17.9306C100.309 17.7909 100.612 17.8607 100.612 18.1343V18.1517Z" fill="#0C419A"/>
<path fill-rule="evenodd" clip-rule="evenodd" d="M89.7053 19.4728C90.5492 19.3331 91.6316 18.9839 92.394 19.5426C93.1564 20.1013 93.0866 20.1653 93.0866 20.6484C93.0866 21.1314 92.1671 21.5504 91.2417 21.8123C90.3164 22.0742 88.6287 22.7842 88.8615 24.5825C89.0943 26.3808 90.4735 27.4924 92.9353 26.3284C93.0866 26.1946 93.395 25.9851 93.622 26.3284C93.849 26.6718 95.6996 27.5797 96.8519 26.1247C96.3864 26.1247 96.0838 26.1946 96.0838 25.2925C96.0838 24.3905 96.0081 20.0897 96.0081 20.0897C96.0081 20.0897 96.0837 18.1459 93.622 17.7327C92.1434 17.8018 90.7451 18.4251 89.7053 19.4786V19.4728ZM93.1622 22.3826V25.5718C93.1622 25.5718 92.394 26.3342 91.9983 25.7814C91.3116 24.8793 91.4629 21.0674 93.1622 22.3826Z" fill="#0C419A"/>
<path fill-rule="evenodd" clip-rule="evenodd" d="M59.8268 19.4729C60.5892 19.3332 61.6659 18.984 62.4341 19.5427C63.2023 20.1014 63.1266 20.1654 63.1266 20.6484C63.1266 21.1315 62.2071 21.5505 61.3807 21.8124C60.5543 22.0743 58.6978 22.7843 58.9248 24.5826C59.1518 26.3809 60.5368 27.4925 62.9229 26.3285C63.1499 26.1947 63.4583 25.9851 63.6853 26.3285C63.9123 26.6719 65.763 27.5797 66.9153 26.1248C66.4555 26.1248 66.1412 26.1947 66.1412 25.2926C66.1412 24.3905 66.0656 19.9501 66.0656 19.9501C66.0656 19.9501 66.1412 18.0121 63.6853 17.6222C62.9503 17.6478 62.2289 17.8279 61.5682 18.1507C60.9074 18.4736 60.322 18.932 59.8501 19.4961L59.8268 19.4729ZM63.1266 22.3187L63.2023 25.4323C63.2023 25.4323 62.6669 26.2005 62.2071 25.6418C61.4389 24.6 61.4389 22.9414 62.5155 22.1034C62.7425 21.8997 63.1266 22.3187 63.1266 22.3187Z" fill="#0C419A"/>
<path fill-rule="evenodd" clip-rule="evenodd" d="M37.0077 26.6835V26.957H33.2423V26.6835C33.7079 26.5438 33.7079 25.9909 33.7079 24.7455V16.2138C33.7079 15.4456 33.6264 14.27 33.091 14.27V14.0488H37.1648V14.1885C36.5537 14.5377 36.5538 15.2302 36.5538 16.2021V24.7338C36.5538 25.4206 36.4781 26.3925 37.0135 26.6718L37.0077 26.6835Z" fill="#0C419A"/>
<path fill-rule="evenodd" clip-rule="evenodd" d="M40.3889 17.948C40.5867 17.8783 40.8023 17.8783 41 17.948C41.1571 18.0819 40.9243 18.5009 41.3084 18.6406C41.5412 18.7802 41.8439 18.3612 42.1581 18.1517C42.6153 17.9411 43.11 17.8244 43.6131 17.8083C43.8309 17.7964 44.0486 17.8337 44.2501 17.9173C44.4515 18.0009 44.6316 18.1287 44.777 18.2914C45.0855 18.5707 45.3183 18.7104 45.3939 19.1934V25.921C45.4696 26.4041 45.4696 26.503 45.7722 26.7532V26.9569H42.3211V26.7532C42.7809 26.6834 42.7052 25.502 42.7052 25.1528V21.2769C42.7456 20.7228 42.7456 20.1665 42.7052 19.6124C42.6575 19.4581 42.5782 19.3154 42.4724 19.1934C42.4401 19.1441 42.3946 19.1049 42.3411 19.0802C42.2876 19.0555 42.2282 19.0463 42.1698 19.0537C41.7042 19.0537 41.5529 18.8501 41.2444 19.6357L41.1571 26.2702C41.1625 26.3705 41.1937 26.4677 41.2478 26.5523C41.3018 26.637 41.3769 26.7062 41.4656 26.7532V26.9569H37.9272V26.6834C38.2356 26.5437 38.3928 26.4041 38.3113 25.8512L38.3928 19.3331C38.3928 18.9839 38.3928 18.7802 38.3113 18.7104C38.0785 18.5707 38.0785 18.3612 38.2356 18.3612L40.3889 17.948Z" fill="#0C419A"/>
<path fill-rule="evenodd" clip-rule="evenodd" d="M51.2951 18.984C50.5269 18.3613 49.7587 18.8502 49.5492 19.8861C49.1239 21.401 49.0443 22.9921 49.3164 24.5419C49.6248 25.7931 50.62 26.346 51.3126 25.7931V18.984H51.2951ZM54.1351 14.5494V24.1869C54.1351 24.8096 54.0595 25.1529 54.0595 25.2984C54.2108 25.7116 53.9838 25.7815 54.3679 26.1307L54.4494 26.4042C53.7569 26.5439 53.4426 26.6835 52.7559 26.8174C52.5263 26.8519 52.2929 26.8519 52.0633 26.8174C51.8494 26.6159 51.5735 26.4929 51.2807 26.4686C50.9878 26.4443 50.6954 26.52 50.4513 26.6835C49.8444 26.9886 49.142 27.043 48.4953 26.8351C47.8487 26.6272 47.3097 26.1735 46.9943 25.572C46.5092 24.6807 46.2702 23.6763 46.3018 22.6621C46.325 21.8338 46.4802 21.0146 46.7615 20.2353C47.0327 19.6088 47.4569 19.0604 47.9953 18.6407C48.5307 18.2216 49.3746 17.5989 51.2194 17.9481V16.627C51.2267 16.1641 51.2014 15.7013 51.1438 15.2419L50.684 14.5494L53.2913 13.9674C53.7568 13.9674 53.9082 14.3166 54.1351 14.5494Z" fill="#0C419A"/>
<path fill-rule="evenodd" clip-rule="evenodd" d="M58.5174 18.4311V25.8512C58.5174 26.2703 58.5174 26.5438 58.9015 26.7533V26.957H55.2118V26.7533C55.5959 26.6136 55.5959 26.0607 55.5959 25.1529V18.8501C55.5306 18.8002 55.4767 18.7371 55.4375 18.6649C55.3984 18.5927 55.375 18.513 55.3689 18.4311L57.2138 17.948C57.9762 17.7385 58.3777 18.0179 58.5174 18.4311ZM56.9053 14.4096C57.3329 14.3934 57.7502 14.5436 58.0693 14.8287C58.3167 15.1172 58.4529 15.4845 58.4534 15.8646C58.4522 16.2463 58.3162 16.6152 58.0693 16.9063C57.7496 17.1898 57.3322 17.338 56.9053 17.3195C56.5075 17.3209 56.1234 17.1735 55.8287 16.9063C55.6906 16.7726 55.5843 16.6096 55.5178 16.4292C55.4513 16.2489 55.4263 16.0559 55.4446 15.8646C55.4259 15.6741 55.4508 15.4818 55.5173 15.3024C55.5839 15.1229 55.6903 14.9609 55.8287 14.8287C56.1229 14.5598 56.5068 14.4104 56.9053 14.4096Z" fill="#0C419A"/>
<path fill-rule="evenodd" clip-rule="evenodd" d="M70.6574 18.1517L70.8843 18.7337C71.2032 18.5568 71.5121 18.3625 71.8097 18.1517C72.2103 17.9343 72.6575 17.8165 73.1133 17.8083C73.605 17.8339 74.0696 18.0413 74.4169 18.3903C74.702 18.663 74.8674 19.0376 74.8767 19.4321C74.9618 20.1211 74.989 20.8161 74.9581 21.5097V25.0015C74.9581 25.3507 74.801 26.7475 75.3422 26.8057V26.9395L71.8853 27.0093V26.8057C72.4207 26.2528 72.2694 25.8338 72.2694 25.0015V21.0499C72.3101 20.4687 72.3101 19.8853 72.2694 19.304C72.1123 19.0945 72.0366 19.0945 71.5012 19.0945C70.9658 19.0945 70.8843 19.5135 70.8087 19.8569L70.733 24.9899C70.7033 25.453 70.7287 25.9179 70.8087 26.375C70.7971 26.4897 70.8308 26.6044 70.9026 26.6946C70.9743 26.7848 71.0784 26.8435 71.1928 26.858V26.9977H67.4856L67.5613 26.794C68.1723 26.7242 68.021 25.8221 68.021 24.9899V19.8685C68.021 19.176 68.021 18.7628 67.8697 18.6231C67.7184 18.4834 67.7126 18.4136 68.0967 18.3438L70.0172 17.9306C70.3198 17.7909 70.6341 17.8607 70.6341 18.1343L70.6574 18.1517Z" fill="#0C419A"/>
<path fill-rule="evenodd" clip-rule="evenodd" d="M87.1679 4.63248C87.2494 4.63248 87.3251 4.77215 87.4007 4.63248L87.4822 3.66057H82.2444C82.163 4.00976 82.2444 4.00976 82.163 4.42296C82.163 4.42296 82.0931 4.42297 82.163 6.57627C82.163 7.54234 82.0931 9.76548 82.2444 10.1088C82.3201 10.3184 83.0126 10.6908 82.7799 10.6908H78.7875C78.7119 10.6908 78.7875 10.5511 78.7875 10.5511C78.9897 10.3597 79.1332 10.1146 79.2012 9.84459C79.2692 9.57458 79.2589 9.29077 79.1716 9.02637C78.7756 9.30934 78.321 9.49967 77.8415 9.58328C77.362 9.66689 76.8699 9.64165 76.4014 9.50942C73.4916 8.46768 73.9455 4.58592 77.0998 4.10288C78.095 3.95739 79.3229 4.79542 79.3986 4.51608C79.4801 4.3764 79.3229 3.93411 79.3986 3.61402L74.3296 3.68386V2.92148H74.5624C75.0978 2.92148 77.9437 2.92148 78.0193 2.85164C77.524 2.04732 76.8359 1.37924 76.0173 0.907853C75.866 0.838017 75.6332 0.768176 75.7904 0.704159C79.707 0.285138 79.3986 2.45007 80.3996 2.71196L81.0165 2.92148C81.0165 2.85164 81.0921 2.85164 81.0921 2.78181C80.7355 1.9799 80.1209 1.32027 79.3462 0.907853C79.1134 0.838017 78.9621 0.907841 79.0378 0.768168C79.8875 0.49464 82.0349 0.768165 82.419 1.25702C82.8031 1.74588 83.1872 2.78181 83.9554 2.78181C87.4938 2.85164 91.3349 2.85164 94.8674 2.85164V3.68386H90.4095L90.3339 4.7256C91.3349 3.95739 94.4833 3.47434 94.9431 6.39003C95.0232 6.73755 95.03 7.09797 94.9631 7.44827C94.8961 7.79857 94.7569 8.13106 94.5543 8.42456C94.3517 8.71806 94.0902 8.96613 93.7864 9.15291C93.4825 9.3397 93.1432 9.46111 92.7898 9.50942C92.1395 9.56497 91.4899 9.39434 90.9508 9.02637C90.9284 9.00988 90.9096 8.98899 90.8956 8.96497C90.8815 8.94095 90.8726 8.91431 90.8693 8.8867C92.1787 8.39784 92.1787 6.59954 91.4862 5.55781C91.4047 5.41232 91.3349 5.34829 91.1777 5.34829C90.7121 5.27846 90.3339 5.34831 90.3339 5.76151L90.2582 9.71892C90.2582 10.4813 90.5608 10.3416 90.7936 10.5511C90.8078 10.6226 90.8333 10.6914 90.8693 10.7548C90.6163 10.7897 90.3598 10.7897 90.1069 10.7548C89.717 10.7548 86.9526 10.8247 86.8769 10.7548C86.8013 10.685 86.7198 10.7548 86.7955 10.6908C87.5695 10.3416 87.261 10.2718 87.3367 9.0962C86.9474 9.37565 86.4996 9.56273 86.0273 9.64326C85.6524 9.71623 85.2667 9.71363 84.8929 9.6356C84.5191 9.55758 84.1646 9.40571 83.8502 9.18889C83.5358 8.97208 83.2679 8.69468 83.0621 8.37296C82.8563 8.05125 82.7168 7.69169 82.6518 7.31537C82.5647 6.87485 82.605 6.41866 82.7678 6.00019C82.9307 5.58172 83.2094 5.21832 83.5713 4.95256C84.7993 4.05632 85.7188 3.91664 87.1796 4.67903L87.1679 4.63248ZM33.2423 4.83617C33.7531 4.37198 34.3842 4.06087 35.0634 3.9384C35.7426 3.81593 36.4426 3.88705 37.0833 4.14362L37.0077 3.56165H32.6312V2.8691H41.1571C41.6926 1.70515 41.6169 1.20464 42.9031 0.581932C43.5347 0.387004 44.1756 0.223849 44.8236 0.0930767C46.9769 -0.180451 50.9692 -0.180453 51.9702 2.03686C52.0733 2.3016 52.0996 2.59011 52.0459 2.8691H71.7107V3.57328H70.5468V10.0215L71.0822 10.5744H67.3227C67.1655 10.5744 67.7824 10.4406 67.7824 10.2311V6.41331C67.5096 6.32811 67.221 6.30621 66.9385 6.34929C66.8629 6.62282 67.0957 6.62281 67.1655 6.69265C67.8639 8.49677 67.0957 10.1845 64.9366 10.4406C63.0975 10.7141 61.8637 9.5385 61.9452 7.80422C62.0209 6.4133 62.8706 5.72076 64.407 5.44724C65.3523 5.37727 66.3016 5.37727 67.247 5.44724C67.3983 5.37158 67.6311 5.44723 67.7824 5.37158V3.62566C67.247 3.62566 61.2527 3.48598 61.2527 3.62566L61.2061 9.97499C61.2061 10.2543 61.5902 10.394 61.8172 10.557V10.621L57.9762 10.6966C57.9005 10.6966 57.9762 10.557 57.9762 10.557C58.08 10.5082 58.1728 10.4387 58.2489 10.3529C58.3249 10.267 58.3827 10.1666 58.4187 10.0576C58.4546 9.94871 58.468 9.83358 58.458 9.71931C58.4479 9.60503 58.4147 9.49401 58.3603 9.39301C57.8614 9.53887 57.3482 9.63058 56.8297 9.66654C53.7569 9.81204 52.6802 8.28144 52.9828 5.64511C53.6812 5.4356 54.2108 5.64511 54.6764 5.06313C55.2933 4.37058 54.9848 3.81771 54.4494 3.6082H51.9877V4.85363C51.9877 4.92347 52.0633 5.06313 51.9877 5.13297C51.3708 5.34248 50.2417 5.13296 49.5317 5.2028C49.3746 5.2028 49.2989 5.2028 49.2233 5.13297C49.1476 4.92346 49.1476 4.85362 48.9905 4.7896C48.1466 4.58009 47.2446 5.34248 47.9138 5.95355C48.5831 6.56462 50.3698 6.37258 51.5279 6.92545C52.3718 7.34447 52.8315 8.08939 52.3718 8.93908C51.6792 10.5337 49.1476 11.0866 47.4541 10.685C46.5895 10.4024 45.7643 10.0113 44.9982 9.52105C45.2473 8.99564 45.5291 8.48638 45.842 7.99628C46.3018 8.8285 47.6869 10.976 49.5317 9.65491C49.7082 9.53751 49.8529 9.37832 49.953 9.1915C50.0531 9.00468 50.1055 8.79601 50.1055 8.58406C50.1055 8.37212 50.0531 8.16346 49.953 7.97664C49.8529 7.78982 49.7082 7.63063 49.5317 7.51323C48.3038 6.34929 45.842 7.71692 45.1495 5.91281C44.4569 4.10869 47.6869 3.58493 49.1476 4.2542C49.3746 4.2542 49.0661 3.83518 49.1476 3.67223V3.57328H44.1485L44.0728 10.0215C44.0728 10.231 44.5384 10.4406 44.6897 10.5104V10.6501H42.7692C41.8439 10.6501 40.9244 10.7141 40.8487 10.5744C40.9613 10.5218 41.0609 10.445 41.1404 10.3494C41.2199 10.2538 41.2773 10.1419 41.3084 10.0215V3.57328H39.772L39.6964 5.16788L37.0077 5.09805C37.0833 4.47534 36.3966 4.47535 36.0067 4.81871C35.7797 5.09806 35.6226 5.58109 35.8554 5.86043C37.0193 7.39102 40.3075 5.09805 40.6974 8.07775C41 10.0215 38.4684 10.5104 38.4684 10.5104C38.4783 10.7482 38.5367 10.9815 38.6401 11.1959C38.7434 11.4103 38.8895 11.6013 39.0694 11.7572C39.2492 11.9131 39.4591 12.0305 39.686 12.1024C39.9129 12.1742 40.1521 12.1989 40.3889 12.1748C40.5402 12.3145 40.0805 12.5182 39.999 12.588C38.6197 13.2166 37.5489 13.0071 36.7807 12.4484C35.6168 11.7558 34.93 10.4406 33.7079 9.67817C33.4672 9.54269 33.2056 9.44829 32.9339 9.39884C32.9339 9.329 32.7825 9.32899 32.8582 9.25915L33.5508 8.5666C33.6047 8.74457 33.6938 8.90992 33.8127 9.05287C33.9317 9.19581 34.0781 9.31346 34.2433 9.39884C35.3141 10.2311 36.5712 10.5628 37.6246 9.53851C37.802 9.37836 37.9313 9.17194 37.9979 8.94241C38.0645 8.71289 38.0659 8.46932 38.0018 8.23907C37.9378 8.00881 37.8108 7.80097 37.6352 7.63884C37.4596 7.47671 37.2423 7.36671 37.0077 7.32119C35.6982 7.04184 34.319 7.87407 33.3994 6.83234C33.1177 6.58233 32.9438 6.23277 32.9145 5.85722C32.8852 5.48167 33.0027 5.1094 33.2423 4.81871V4.83617ZM38.6954 0.052352C38.867 0.0317352 39.041 0.0477308 39.2059 0.0992928C39.3708 0.150855 39.5229 0.236804 39.6522 0.351473C39.7815 0.466142 39.885 0.606927 39.9558 0.764527C40.0267 0.922127 40.0634 1.09296 40.0634 1.26576C40.0634 1.43856 40.0267 1.6094 39.9558 1.767C39.885 1.9246 39.7815 2.06538 39.6522 2.18005C39.5229 2.29472 39.3708 2.38067 39.2059 2.43223C39.041 2.48379 38.867 2.49979 38.6954 2.47917C38.529 2.4907 38.362 2.46788 38.2047 2.41212C38.0475 2.35637 37.9035 2.26887 37.7815 2.15506C37.6595 2.04126 37.5623 1.90357 37.4958 1.75058C37.4293 1.5976 37.395 1.43257 37.395 1.26576C37.395 1.09895 37.4293 0.933908 37.4958 0.78092C37.5623 0.627931 37.6595 0.490267 37.7815 0.376462C37.9035 0.262657 38.0475 0.175155 38.2047 0.119398C38.362 0.06364 38.529 0.0408202 38.6954 0.052352ZM84.5607 0.541207C84.7336 0.56029 84.8973 0.628964 85.0321 0.738952C85.1669 0.848939 85.267 0.995544 85.3203 1.16112C85.3737 1.32669 85.378 1.50415 85.3328 1.67214C85.2876 1.84012 85.1948 1.99147 85.0656 2.10792C84.9364 2.22438 84.7762 2.30098 84.6045 2.32851C84.4327 2.35603 84.2566 2.3333 84.0975 2.26306C83.9384 2.19282 83.8029 2.07806 83.7075 1.93261C83.6121 1.78716 83.5607 1.61721 83.5597 1.44326C83.5776 1.19268 83.6919 0.958776 83.8785 0.790599C84.0651 0.622422 84.3096 0.533046 84.5607 0.541207ZM64.5059 9.13694C63.2023 9.00309 63.051 7.39102 64.3546 7.12913H65.0413C65.1228 7.2688 65.2043 7.26881 65.3556 7.33865C65.9666 8.0312 65.891 8.65391 65.0413 9.13694H64.5059ZM58.5174 3.57328C58.5174 4.06214 58.4417 4.61501 58.4417 5.09805V8.3571C58.1656 8.6351 57.8086 8.8186 57.4218 8.88132C57.035 8.94404 56.6383 8.88278 56.2884 8.70629L55.9043 8.3571C55.6809 7.80076 55.6542 7.18477 55.8287 6.61118C56.2073 6.56763 56.573 6.44706 56.9033 6.2569C57.2336 6.06674 57.5214 5.81101 57.7492 5.50544C57.8873 5.19754 57.9524 4.86187 57.9392 4.52467C57.9261 4.18747 57.8352 3.85788 57.6735 3.56165L58.5174 3.57328ZM49.1476 2.8109H44.0728C43.9972 2.74106 43.9972 2.67123 43.9215 2.67123C43.8571 2.44914 43.8441 2.2153 43.8834 1.98744C43.9228 1.75957 44.0134 1.54364 44.1485 1.35597C45.2251 0.19202 48.2223 0.192017 49.2989 1.4258C49.4265 1.6421 49.4807 1.89387 49.4534 2.1435C49.4262 2.39313 49.3189 2.62724 49.1476 2.8109ZM77.1813 5.93027L78.5664 8.5666C76.7273 9.11948 76.8787 6.62281 77.1813 5.93027ZM87.4007 5.7906L87.3251 8.07775C85.94 9.18932 85.4046 7.59471 85.7072 6.27945C85.8701 5.51707 86.5569 4.4055 87.4007 5.7906ZM79.2531 7.59472C78.6694 6.80873 78.1553 5.97334 77.7167 5.09805C77.745 5.07162 77.7666 5.03884 77.7798 5.00241C77.7929 4.96598 77.7972 4.92697 77.7923 4.88855C79.5383 4.88855 79.4044 6.27946 79.3288 7.52488C79.3288 7.52488 79.2531 7.52488 79.2531 7.59472Z" fill="#0C419A"/>
<path fill-rule="evenodd" clip-rule="evenodd" d="M16.4348 15.3813C17.1286 16.1445 17.6664 17.0362 18.0177 18.006L18.5997 17.3659L20.6657 19.3678C23.465 16.7839 20.2932 12.809 16.4115 15.3813H16.4348ZM11.616 14.5607L14.1883 16.0913L13.4318 16.7664L11.1621 16.7024C11.3658 20.0778 16.5628 20.1942 16.3998 15.4279C14.7643 15.4997 13.1334 15.2034 11.6277 14.5607H11.616ZM16.3882 15.294L16.4406 15.358C23.8025 4.66138 36.8504 14.7179 26.2177 24.5765L28.2139 26.4446L27.5272 27.1197L18.3145 26.3806L18.105 21.4164C16.33 26.8753 5.88358 29.2032 3.3229 18.233L0.575989 18.7684L4.84184 11.5578L5.45875 10.8885L10.1145 13.6645C4.44612 9.28806 8.72362 -1.46681 20.7879 2.87471L21.1255 1.40815L21.7482 0.826172L26.4622 8.81084L25.7754 9.54994L16.9062 12.8847L17.9362 10.0795C14.1592 8.68281 12.5064 12.9487 16.3591 15.4221C16.362 15.3794 16.362 15.3367 16.3591 15.294H16.3882Z" fill="white"/>
<path fill-rule="evenodd" clip-rule="evenodd" d="M15.8879 16.1148C23.6281 25.8571 6.25039 33.6555 2.81675 19.0247L0 19.4903L4.81291 11.5464L13.4028 16.819L10.4464 17.401C11.1972 21.0674 15.7249 20.5378 15.8762 16.0857L15.8064 16.1265C2.19404 16.3942 5.08062 -1.83321 20.2759 3.57332L21.0325 1.50732L25.6883 9.52109L16.3418 13.5949L17.4417 10.7956C13.5891 9.38723 11.9363 13.6647 15.7889 16.1323C22.662 4.91767 36.4141 15.4689 25.6825 25.3508L27.3353 27.0967L17.7793 27.1607L18.0179 18.1226L20.1537 20.1945C23.017 17.5407 19.7812 13.5716 15.8995 16.1207L15.8879 16.1148Z" fill="#F4B035"/>
</g>
<defs>
<clipPath id="clip0_1445_4517">
<rect width="115.37" height="27.184" fill="white"/>
</clipPath>
</defs>
</svg>
