<svg width="166" height="33" viewBox="0 0 166 33" fill="none" xmlns="http://www.w3.org/2000/svg">
<g clip-path="url(#clip0_1445_4556)">
<path fill-rule="evenodd" clip-rule="evenodd" d="M30.1858 32.6948H35.7858L40.1775 16.255H34.5775L30.1858 32.6948Z" fill="#005B76"/>
<path fill-rule="evenodd" clip-rule="evenodd" d="M58.9555 32.6948H64.5555L68.9472 16.255H63.3472L58.9555 32.6948Z" fill="#005B76"/>
<path fill-rule="evenodd" clip-rule="evenodd" d="M87.7252 32.6948H93.3253L97.7169 16.255H92.1169L87.7252 32.6948Z" fill="#005B76"/>
<path fill-rule="evenodd" clip-rule="evenodd" d="M53.7329 21.8865H59.3388C60.082 18.1918 57.7004 16.2872 52.2056 16.2872C45.8507 16.2872 41.5322 19.4097 40.0839 24.83C38.7702 29.7425 41.3684 32.7359 47.3488 32.7359C53.3935 32.7359 56.966 30.8489 58.4933 26.623H52.8727C52.0915 28.4836 50.6169 29.4549 48.6303 29.4549C45.918 29.4549 44.8559 27.7294 45.6898 24.6099C46.5676 21.3553 48.6156 19.5623 51.3396 19.5623C53.06 19.5623 53.8704 20.337 53.7417 21.8865" fill="#005B76"/>
<path fill-rule="evenodd" clip-rule="evenodd" d="M82.5114 21.8865H88.1173C88.8604 18.1918 86.4788 16.2872 80.9841 16.2872C74.6292 16.2872 70.3106 19.4097 68.8624 24.83C67.5487 29.7425 70.1468 32.7359 76.1272 32.7359C82.172 32.7359 85.7444 30.8489 87.2688 26.623H81.6424C80.8612 28.4836 79.3866 29.4549 77.3999 29.4549C74.6877 29.4549 73.6256 27.7294 74.4595 24.6099C75.3372 21.3553 77.3853 19.5623 80.1093 19.5623C81.8296 19.5623 82.6401 20.337 82.5114 21.8865Z" fill="#005B76"/>
<path fill-rule="evenodd" clip-rule="evenodd" d="M8.54907 7.13725C16.0509 -0.319666 25.121 -2.25359 28.7373 2.84975C32.3536 7.95308 29.1879 18.1832 21.6861 25.6431C14.1842 33.1029 5.11121 35.0339 1.49781 29.9306C-2.11559 24.8273 1.04723 14.6059 8.54907 7.13725Z" fill="#F99D27"/>
<path fill-rule="evenodd" clip-rule="evenodd" d="M13.5144 3.16065C12.6407 3.81314 11.8127 4.525 11.0362 5.2912C4.46189 11.7856 1.73208 20.7127 4.96805 25.1704C8.30643 29.634 16.3964 28.0112 23.0731 21.417C26.6631 17.916 29.0915 13.8075 30.0951 10.0042C30.3877 7.21338 29.9927 4.72187 28.7287 2.84958C25.8468 -1.10632 19.6762 -0.801115 13.5144 3.14304" fill="#B02A30"/>
<path fill-rule="evenodd" clip-rule="evenodd" d="M17.2331 29.323C13.7221 31.9642 10.0912 33.2789 6.5509 32.7301C8.03723 32.8064 9.23682 31.1542 10.2199 28.9327C11.102 26.88 11.7973 24.7516 12.2972 22.5733C12.9965 19.4479 13.0492 17.2117 12.6951 16.7334C12.11 15.9381 10.7261 16.1465 9.18415 17.0269C8.44684 17.4377 7.46376 17.1648 8.62532 15.7532C9.78687 14.3417 14.477 10.8993 16.1564 10.3652C17.9997 9.83113 20.1063 10.5589 19.3953 12.5868C18.8891 14.0541 12.423 31.075 17.236 29.3142L17.2331 29.323ZM22.523 2.92006C23.4008 3.80045 22.8653 5.71383 21.3761 7.22517C19.8868 8.73651 17.9178 9.25301 17.0722 8.39903C16.1681 7.51864 16.7035 5.58764 18.2045 4.06456C19.7054 2.54149 21.6745 2.07781 22.5201 2.92886L22.523 2.92006Z" fill="white"/>
<path fill-rule="evenodd" clip-rule="evenodd" d="M106.129 30.0976L107.41 25.3025H111.079C113.903 25.3025 115.155 25.8043 114.637 27.747C114.16 29.5254 112.779 30.0947 110.228 30.0947H106.132L106.129 30.0976ZM109.151 18.7934H112.633C115.251 18.7934 116.466 19.1104 116.024 20.7567C115.582 22.403 114.178 22.8109 111.471 22.8109H108.077L109.151 18.7934ZM101.901 32.7212H110.301C112.691 32.7212 114.47 32.5363 116.176 31.3507C117.319 30.5764 118.149 29.4181 118.517 28.0845C119.122 25.8248 118.09 24.3164 115.524 23.9525C117.946 23.4947 119.471 22.2181 119.991 20.2754C120.392 18.7699 120.064 17.6959 118.985 16.9651C118.107 16.3782 116.644 16.2784 114.66 16.2784H106.29L101.901 32.7212Z" fill="#005B76"/>
<path fill-rule="evenodd" clip-rule="evenodd" d="M129.047 27.4242L128.994 27.6326C128.767 28.6171 128.208 29.4932 127.413 30.1136C126.617 30.7341 125.633 31.061 124.626 31.0397C123.099 31.0397 122.461 30.4527 122.753 29.3493C123.157 27.8438 124.474 27.4301 126.908 27.4301H129.047V27.4242ZM127.756 32.7241H131.127C131.242 31.86 131.417 31.005 131.651 30.1651L132.877 25.5754C133.69 22.538 132.192 20.9856 128.388 20.9856C124.725 20.9856 122.335 22.2651 121.6 24.4133H124.831C125.255 23.3392 126.185 22.8374 127.733 22.8374C129.462 22.8374 130.074 23.6121 129.632 25.279L129.576 25.4844H127.8C122.791 25.4844 120.088 26.3971 119.315 29.2994C118.716 31.5356 120.123 33 123.104 33C124.935 33.0314 126.711 32.3704 128.078 31.1482L127.756 32.7241Z" fill="#005B76"/>
<path fill-rule="evenodd" clip-rule="evenodd" d="M134.018 32.7241H137.412L138.98 26.8548C139.247 25.8425 139.833 24.944 140.651 24.2934C141.469 23.6428 142.474 23.2751 143.518 23.2452C145.499 23.2452 146.189 24.4191 145.566 26.7404L143.969 32.7241H147.292L149.171 25.681C149.964 22.7141 148.463 21.0002 145.162 21.0002C144.16 20.9731 143.164 21.163 142.241 21.557C141.319 21.951 140.492 22.5398 139.817 23.2834L140.223 21.2526H136.873C136.528 23.0564 136.298 24.1755 136.183 24.6098L134.018 32.7153" fill="#005B76"/>
<path fill-rule="evenodd" clip-rule="evenodd" d="M150.28 32.7212H153.583L155.236 26.535L159.683 32.7212H164.212L159.203 26.1682L166 21.2615H161.743L155.411 25.8747L157.974 16.2814H154.671L150.28 32.7212Z" fill="#005B76"/>
</g>
<defs>
<clipPath id="clip0_1445_4556">
<rect width="166" height="33" fill="white"/>
</clipPath>
</defs>
</svg>
