<svg width="82" height="32" viewBox="0 0 82 32" fill="none" xmlns="http://www.w3.org/2000/svg">
<g clip-path="url(#clip0_1445_4493)">
<path fill-rule="evenodd" clip-rule="evenodd" d="M0 0.197998H21.9148V20.7829H0V0.197998Z" fill="#BD9DC5"/>
<path fill-rule="evenodd" clip-rule="evenodd" d="M20.5335 0.607422H42.4483V21.1791H20.5335V0.607422Z" fill="#FACB0D"/>
<path fill-rule="evenodd" clip-rule="evenodd" d="M20.5335 0.607422H21.9148V20.783H20.5335V0.607422Z" fill="#CE7EA7"/>
<path fill-rule="evenodd" clip-rule="evenodd" d="M39.1305 0H61.0453V20.5849H39.1305V0Z" fill="#E76F6D"/>
<path fill-rule="evenodd" clip-rule="evenodd" d="M42.4483 20.5849H39.1305V0.607422H42.4483V20.5849Z" fill="#E25933"/>
<path fill-rule="evenodd" clip-rule="evenodd" d="M59.8776 0.197998H81.7924V20.7829H59.8776V0.197998Z" fill="#E9925C"/>
<path fill-rule="evenodd" clip-rule="evenodd" d="M59.8776 0.197998H61.0453V20.5848H59.8776V0.197998Z" fill="#DA4124"/>
<path fill-rule="evenodd" clip-rule="evenodd" d="M16.6746 26.3021H17.6998V31.3328H16.6746V26.3021Z" fill="#69747A"/>
<path fill-rule="evenodd" clip-rule="evenodd" d="M26.3148 26.3021H27.3401H30.3019V27.1076H27.3401V28.5072H30.0314V29.3126H27.3401V31.3328H26.3148V29.3126V28.5072V27.1076V26.3021Z" fill="#69747A"/>
<path fill-rule="evenodd" clip-rule="evenodd" d="M34.5169 26.1702C35.2903 26.1741 36.0313 26.4584 36.5816 26.9624L35.8839 27.649C35.6988 27.4744 35.4767 27.3374 35.2316 27.2464C34.9865 27.1555 34.7238 27.1127 34.4599 27.1208C34.1984 27.0997 33.935 27.1293 33.6864 27.2077C33.4378 27.286 33.2095 27.4114 33.016 27.5759C32.8225 27.7404 32.668 27.9405 32.5623 28.1633C32.4566 28.3862 32.4019 28.6269 32.4019 28.8703C32.4019 29.1138 32.4566 29.3546 32.5623 29.5774C32.668 29.8003 32.8225 30.0003 33.016 30.1648C33.2095 30.3293 33.4378 30.4547 33.6864 30.5331C33.935 30.6114 34.1984 30.641 34.4599 30.6199C34.7301 30.6179 34.9967 30.5628 35.2422 30.458C35.4877 30.3533 35.7064 30.2014 35.8839 30.0125L36.6243 30.6594C36.354 30.9486 36.0192 31.1799 35.6431 31.3372C35.2669 31.4945 34.8583 31.5741 34.4457 31.5705C33.6734 31.5705 32.9327 31.2861 32.3866 30.7797C31.8405 30.2733 31.5337 29.5865 31.5337 28.8703C31.5337 28.1542 31.8405 27.4674 32.3866 26.961C32.9327 26.4546 33.6734 26.1702 34.4457 26.1702H34.5169Z" fill="#69747A"/>
<path fill-rule="evenodd" clip-rule="evenodd" d="M19.7789 26.3286H21.7582C22.1346 26.3109 22.511 26.3626 22.8657 26.4808C23.2204 26.5989 23.5462 26.7812 23.8244 27.017C24.1025 27.2528 24.3275 27.5375 24.4861 27.8545C24.6447 28.1715 24.7339 28.5145 24.7485 28.8637C24.7485 30.6331 23.3245 31.4253 21.5303 31.4121H19.7789V26.3286ZM20.7614 27.1077C21.2355 27.0762 21.7113 27.0762 22.1854 27.1077C22.6345 27.1732 23.0441 27.3843 23.3413 27.7034C23.6385 28.0225 23.804 28.4289 23.8086 28.8505C23.8086 29.2671 23.6501 29.6703 23.3609 29.9891C23.0718 30.3079 22.6706 30.5219 22.228 30.5934C21.7545 30.6353 21.2777 30.6353 20.8041 30.5934V27.068L20.7614 27.1077Z" fill="#69747A"/>
<path fill-rule="evenodd" clip-rule="evenodd" d="M41.5655 26.4078V31.4121H44.1856C45.7662 31.4121 46.8484 29.722 45.0257 28.8505C45.284 28.703 45.4848 28.4829 45.5987 28.2222C45.7126 27.9614 45.7338 27.6738 45.6591 27.4011C45.5844 27.1285 45.4178 26.8851 45.1834 26.7064C44.9491 26.5277 44.6594 26.4231 44.3565 26.4078H41.5085H41.5655ZM42.4341 29.2203H44.3422C44.5513 29.2202 44.7519 29.2963 44.9011 29.4321C45.0502 29.568 45.1359 29.7527 45.1396 29.9465C45.1359 30.1403 45.0502 30.325 44.9011 30.4608C44.7519 30.5966 44.5513 30.6727 44.3422 30.6727H42.4341V29.2203ZM42.4341 27.134H44.1428C44.3506 27.134 44.5498 27.2106 44.6966 27.3468C44.8435 27.483 44.926 27.6676 44.926 27.8602C44.9223 28.0505 44.8382 28.2319 44.6917 28.3653C44.5452 28.4986 44.3481 28.5733 44.1428 28.5733H42.4341V27.134Z" fill="#69747A"/>
<path fill-rule="evenodd" clip-rule="evenodd" d="M46.9908 31.3592H48.016L48.5144 30.1445H51.1344L51.6186 31.3196H52.6866L50.2374 26.2758H49.4258L46.9908 31.3592ZM48.8276 29.3919L49.6536 27.3848H50.0095L50.8212 29.3919H48.8276Z" fill="#69747A"/>
<path fill-rule="evenodd" clip-rule="evenodd" d="M53.8258 31.2933H54.7371V27.7282L57.6278 31.2933H58.5249V26.3418H57.6847V29.854L54.6944 26.421H53.8685L53.8258 31.2933Z" fill="#69747A"/>
<path fill-rule="evenodd" clip-rule="evenodd" d="M61.5437 28.8373L61.7715 28.7713L64.121 26.3813H65.1605L63.0815 28.5468L65.3456 31.3592H64.2777L62.5689 29.1278H62.2414L61.5437 29.8144V31.3328H60.5896V26.3021H61.5437V28.8373Z" fill="#69747A"/>
<path fill-rule="evenodd" clip-rule="evenodd" d="M9.28424 2.27112H12.1322V18.7628H9.28424V2.27112Z" fill="#231F20"/>
<path fill-rule="evenodd" clip-rule="evenodd" d="M26.3861 2.16541H30.2307C31.5274 2.1654 32.7712 2.64215 33.6895 3.49111C34.6077 4.34008 35.1254 5.49197 35.1291 6.69434V14.3262C35.1254 15.5285 34.6077 16.6805 33.6895 17.5295C32.7712 18.3784 31.5274 18.8552 30.2307 18.8552H26.3861V2.16541ZM29.1343 4.55531H29.9032C30.5415 4.55531 31.1536 4.79042 31.6049 5.2089C32.0562 5.62738 32.3097 6.19495 32.3097 6.78677V14.3658C32.3097 14.9588 32.0566 15.5278 31.6057 15.9484C31.1548 16.3689 30.5428 16.607 29.9032 16.6105H29.0773V4.55531H29.1343Z" fill="#231F20"/>
<path fill-rule="evenodd" clip-rule="evenodd" d="M47.062 2.27112H49.9099H55.0931V4.5818H49.9099V9.16356H53.6264V11.4742H49.9099V18.7628H47.062V11.4742V9.16356V4.5818V2.27112Z" fill="#231F20"/>
<path fill-rule="evenodd" clip-rule="evenodd" d="M71.1981 2.19177H71.6111C72.7267 2.21592 73.7878 2.64392 74.5675 3.38419C75.3472 4.12445 75.7836 5.1182 75.7833 6.15295V8.37127H73.0778V6.02094C73.0797 5.81113 73.037 5.60304 72.9521 5.40853C72.8673 5.21403 72.7418 5.03694 72.5832 4.88736C72.4245 4.73777 72.2356 4.6186 72.0273 4.53671C71.819 4.45482 71.5953 4.41183 71.369 4.4101C71.1427 4.41183 70.9191 4.45482 70.7107 4.53671C70.5024 4.6186 70.3135 4.73777 70.1549 4.88736C69.9962 5.03694 69.8708 5.21403 69.7859 5.40853C69.7011 5.60304 69.6584 5.81113 69.6602 6.02094V15.2637C69.6584 15.4735 69.7011 15.6816 69.7859 15.8761C69.8708 16.0706 69.9962 16.2477 70.1549 16.3973C70.3135 16.5468 70.5024 16.666 70.7107 16.7479C70.9191 16.8298 71.1427 16.8729 71.369 16.8746C71.5953 16.8729 71.819 16.8298 72.0273 16.7479C72.2356 16.666 72.4245 16.5468 72.5832 16.3973C72.7418 16.2477 72.8673 16.0706 72.9521 15.8761C73.037 15.6816 73.0797 15.4735 73.0778 15.2637V12.6229H75.7833V14.96C75.7836 15.9948 75.3472 16.9885 74.5675 17.7288C73.7878 18.469 72.7267 18.897 71.6111 18.9212H71.1981C70.0825 18.897 69.0214 18.469 68.2417 17.7288C67.462 16.9885 67.0256 15.9948 67.0259 14.96V6.16616C67.0256 5.13141 67.462 4.13767 68.2417 3.3974C69.0214 2.65714 70.0825 2.22913 71.1981 2.20499V2.19177Z" fill="#231F20"/>
</g>
<defs>
<clipPath id="clip0_1445_4493">
<rect width="81.7924" height="31.5705" fill="white"/>
</clipPath>
</defs>
</svg>
