<svg width="96" height="34" viewBox="0 0 96 34" fill="none" xmlns="http://www.w3.org/2000/svg">
<g clip-path="url(#clip0_1445_4488)">
<path fill-rule="evenodd" clip-rule="evenodd" d="M32.7647 16.4038C32.7575 13.212 31.8181 10.0918 30.0619 7.42654C28.3056 4.76131 25.8091 2.66717 22.8789 1.40142C19.9488 0.135673 16.7127 -0.246539 13.5683 0.301744C10.4239 0.850028 7.50815 2.30493 5.17931 4.48768C2.85048 6.67042 1.21 9.48593 0.459439 12.5883C-0.291122 15.6906 -0.119071 18.9446 0.954459 21.9505C2.02799 24.9564 3.95623 27.5833 6.50226 29.5082C9.0483 31.4332 12.1012 32.5725 15.2859 32.7862V20.0988C14.3873 19.8429 13.6115 19.2708 13.1015 18.4879C12.5916 17.705 12.3819 16.7642 12.511 15.8388C12.6402 14.9135 13.0996 14.066 13.8045 13.4527C14.5093 12.8394 15.4121 12.5016 16.3465 12.5016C17.2808 12.5016 18.1836 12.8394 18.8885 13.4527C19.5933 14.066 20.0527 14.9135 20.1819 15.8388C20.3111 16.7642 20.1013 17.705 19.5914 18.4879C19.0814 19.2708 18.3056 19.8429 17.407 20.0988V32.7862C21.5679 32.5151 25.4698 30.6713 28.3212 27.629C31.1726 24.5866 32.7599 20.5735 32.7611 16.4038H32.7647Z" fill="#00B6F0"/>
<path fill-rule="evenodd" clip-rule="evenodd" d="M55.977 9.57384L58.9559 3.61777C53.3175 -1.65458 42.6059 -1.42129 39.1137 6.13013C38.1824 8.1418 38.2165 10.3706 39.103 12.7143C39.5319 13.8448 40.3035 15.2554 41.5274 16.2657C42.1537 16.7825 44.5566 17.9741 46.5001 18.8552C48.3197 19.6789 50.8231 20.2711 51.9716 21.8951C53.2852 23.7525 52.4741 26.0459 49.4269 26.464C47.7203 26.6973 45.1793 25.9885 41.3928 22.9324L37.3874 28.1742C50.1286 39.2824 61.8828 29.556 59.1282 20.9117C58.4283 18.717 56.9873 17.0284 55.2036 15.7399C52.4454 13.7462 49.5651 13.206 47.6414 12.3679C44.0379 10.7977 44.5476 6.37598 49.5436 6.64695C52.7056 6.81744 53.7213 7.72367 55.977 9.58282V9.57384Z" fill="#271E79" stroke="black" stroke-width="0.0416863" stroke-miterlimit="22.93"/>
<path fill-rule="evenodd" clip-rule="evenodd" d="M62.4338 0.00891113H74.7838C78.9363 0.00891113 83.8049 3.61594 83.8049 7.92462C83.8049 8.9188 83.8731 9.66532 83.8049 10.821C83.6703 13.1072 81.5618 15.6663 80.2033 15.6663C82.3173 15.6663 84.4312 18.6972 84.9499 20.7933C86.206 25.8879 83.534 33.1415 74.7838 33.1415H62.4338V0.00891113ZM69.0574 6.05651H73.9027C75.7241 6.05651 77.2136 7.6016 77.2136 9.49305V9.98475C77.2136 11.5998 75.9377 12.9278 74.3764 12.9278H72.3827V19.0561H74.7156C76.8278 19.0561 78.5541 20.8507 78.5541 23.0382C78.5541 25.2276 76.8278 27.0203 74.7156 27.0203H69.0574V6.05651Z" fill="#271E79" stroke="black" stroke-width="0.0416863" stroke-miterlimit="22.93"/>
<path fill-rule="evenodd" clip-rule="evenodd" d="M88.2518 0.00891113H95.2361V33.1469H88.2518V0.00891113Z" fill="#271E79" stroke="black" stroke-width="0.0416863" stroke-miterlimit="22.93"/>
</g>
<defs>
<clipPath id="clip0_1445_4488">
<rect width="95.2451" height="33.1559" fill="white"/>
</clipPath>
</defs>
</svg>
