<svg width="81" height="31" viewBox="0 0 81 31" fill="none" xmlns="http://www.w3.org/2000/svg">
<g clip-path="url(#clip0_1445_4531)">
<path fill-rule="evenodd" clip-rule="evenodd" d="M16.017 13.6765H15.1795C14.6212 13.6765 14.3878 13.3209 14.3878 12.8057V9.11763H16.017V8.07821H14.3695V6.11792H13.198V12.7647C13.198 14.1688 13.9027 14.766 15.1612 14.766H16.017V13.6765Z" fill="#0072AA"/>
<path fill-rule="evenodd" clip-rule="evenodd" d="M4.70435 11.6114V11.657C4.70435 14.0458 6.66299 14.8983 8.4935 14.8983C10.324 14.8983 12.0813 14.0458 12.0813 12.163C12.0813 10.2802 10.5711 9.83343 9.15248 9.50975L8.65825 9.40491C7.38605 9.12682 6.28773 8.89432 6.28773 7.95064C6.28773 6.61035 7.66062 6.45534 8.26468 6.45534C9.5735 6.45534 10.3377 7.08445 10.4613 8.27887V8.31991H11.7015V8.26977C11.6328 6.42344 10.3972 5.37036 8.31503 5.37036C6.65842 5.37036 4.98351 6.20005 4.98351 8.06005C4.98351 9.71946 6.35638 10.1571 7.92604 10.4945L8.23265 10.5628C9.54146 10.8409 10.7771 11.1008 10.7771 12.2177C10.7771 13.5853 9.37215 13.8087 8.53012 13.8087C7.89126 13.8279 7.26189 13.6513 6.72706 13.3027C6.47305 13.1168 6.26881 12.8716 6.13235 12.5886C5.99589 12.3056 5.93138 11.9935 5.94451 11.6798V11.6342L4.70435 11.6114Z" fill="#0072AA"/>
<path fill-rule="evenodd" clip-rule="evenodd" d="M23.0644 13.6993L23.0003 13.7266C22.8992 13.7642 22.7925 13.7842 22.6846 13.7859C22.4054 13.7859 22.3917 13.6309 22.3917 13.1021V9.74223C22.3917 8.50223 21.5725 7.9187 19.8839 7.9187C18.8588 7.9187 17.1381 8.20592 17.0558 10.1525V10.2027H18.2273V10.1571C18.2685 9.34563 18.7764 8.95813 19.8152 8.95813C20.7763 8.95813 21.2247 9.29091 21.2247 10.0021C21.2247 10.5947 20.6207 10.6768 19.7924 10.7953C19.5544 10.8272 19.3119 10.8637 19.0556 10.9139C17.9161 11.1327 16.7949 11.47 16.7949 12.9699C16.7949 14.1461 17.6278 14.8527 19.0144 14.8527C19.4423 14.8684 19.8685 14.7914 20.2636 14.6269C20.6587 14.4623 21.0132 14.2143 21.3025 13.8999C21.2923 14.0272 21.3098 14.1552 21.3539 14.2752C21.3981 14.3951 21.4678 14.5041 21.5582 14.5947C21.6487 14.6852 21.7577 14.7551 21.8779 14.7997C21.9981 14.8442 22.1265 14.8623 22.2544 14.8527C22.5342 14.8655 22.8118 14.7991 23.0553 14.6612V13.7494L23.0644 13.6993ZM19.2615 13.7859C18.8954 13.7859 18.0397 13.6947 18.0397 12.8741C18.0397 12.0536 18.6895 11.853 19.321 11.739C19.5132 11.7071 19.7192 11.6797 19.9114 11.6569C20.3625 11.634 20.8051 11.5257 21.2156 11.3378V12.3544C21.2156 12.906 20.6847 13.7813 19.2615 13.7813V13.7859Z" fill="#0072AA"/>
<path fill-rule="evenodd" clip-rule="evenodd" d="M24.1033 8.07365V14.6976H25.2794V10.9639C25.2794 9.71481 25.9841 8.9626 27.1694 8.9626C27.3407 8.94893 27.513 8.97242 27.6744 9.03144C27.8358 9.09046 27.9824 9.18361 28.1042 9.30449C28.226 9.42537 28.32 9.5711 28.3798 9.73165C28.4396 9.8922 28.4638 10.0638 28.4507 10.2345V14.6976H29.6268V10.3576C29.6268 8.71642 28.8717 7.9232 27.3387 7.9232C26.9197 7.89588 26.5013 7.98393 26.1291 8.17772C25.757 8.3715 25.4456 8.66354 25.229 9.02187V8.07365H24.1033Z" fill="#0072AA"/>
<path fill-rule="evenodd" clip-rule="evenodd" d="M35.8643 5.58452V8.88054C35.6143 8.57012 35.2951 8.32199 34.9321 8.15581C34.5691 7.98964 34.1722 7.91 33.7729 7.9232C31.9424 7.9232 30.7297 9.29084 30.7297 11.3651C30.704 12.2417 30.9729 13.1017 31.4939 13.8086C31.7688 14.1468 32.1182 14.4174 32.515 14.5992C32.9119 14.7811 33.3455 14.8693 33.7821 14.8572C34.1801 14.8909 34.58 14.8203 34.942 14.6524C35.3041 14.4844 35.6158 14.225 35.846 13.8998V14.6976H37.0678V5.57996L35.8643 5.58452ZM33.9514 13.7904C32.5785 13.7904 31.9699 12.6051 31.9699 11.4244C31.9699 10.6813 32.1575 8.94437 33.8873 8.94437C35.759 8.94437 35.9055 10.8044 35.9055 11.3742C35.9055 12.5458 35.3929 13.7904 33.9514 13.7904Z" fill="#0072AA"/>
<path fill-rule="evenodd" clip-rule="evenodd" d="M44.4859 13.7221H44.4218C44.323 13.7626 44.2175 13.7843 44.1106 13.7859C43.8223 13.7859 43.8132 13.6309 43.8132 13.1021V9.74223C43.8132 8.50223 42.994 7.9187 41.31 7.9187C40.2849 7.9187 38.5642 8.20592 38.4818 10.1525V10.2027H39.6579V10.1571C39.6991 9.34563 40.2025 8.95813 41.2459 8.95813C42.2069 8.95813 42.6508 9.29547 42.6508 10.0021C42.6508 10.5947 42.0513 10.6768 41.223 10.7953C40.9805 10.8272 40.7379 10.8637 40.4862 10.9139C39.3467 11.1327 38.2301 11.47 38.2301 12.9699C38.2301 14.1461 39.0538 14.8527 40.445 14.8527C40.873 14.869 41.2994 14.7923 41.6946 14.6277C42.0898 14.4632 42.4442 14.2148 42.7332 13.8999C42.7229 14.0272 42.7404 14.1552 42.7846 14.2752C42.8287 14.3951 42.8984 14.5041 42.9888 14.5947C43.0793 14.6852 43.1884 14.7551 43.3086 14.7997C43.4287 14.8442 43.5572 14.8623 43.685 14.8527C43.9649 14.8668 44.2429 14.8003 44.4859 14.6612H44.5088V13.7494L44.4859 13.7221ZM40.683 13.8087C40.3169 13.8087 39.4703 13.7175 39.4703 12.8969C39.4703 12.0763 40.111 11.8803 40.7425 11.7663C40.9347 11.7344 41.1361 11.7071 41.3374 11.6843C41.7868 11.6598 42.2277 11.5515 42.6371 11.3652V12.3818C42.6371 12.9334 42.1108 13.8087 40.683 13.8087Z" fill="#0072AA"/>
<path fill-rule="evenodd" clip-rule="evenodd" d="M49.0577 7.92321H49.0119C48.5139 7.88231 48.0156 7.99797 47.5871 8.25394C47.1586 8.50991 46.8214 8.89329 46.6231 9.35013V8.07366H45.5156V14.6976H46.678V11.7435C46.678 9.97924 47.4239 9.1541 49.0027 9.1541H49.0531V7.92321H49.0577Z" fill="#0072AA"/>
<path fill-rule="evenodd" clip-rule="evenodd" d="M54.3569 5.58452V8.88054C54.1055 8.5694 53.7848 8.3209 53.4202 8.15473C53.0556 7.98855 52.6571 7.90928 52.2564 7.9232C50.4259 7.9232 49.2178 9.29084 49.2178 11.3651C49.189 12.2428 49.4601 13.1043 49.9866 13.8086C50.2612 14.1471 50.6106 14.4178 51.0075 14.5997C51.4044 14.7816 51.838 14.8697 52.2747 14.8572C52.6734 14.8918 53.0743 14.8215 53.4372 14.6535C53.8002 14.4855 54.1126 14.2257 54.3432 13.8998V14.6976H55.5239V5.57996L54.3569 5.58452ZM52.444 13.7904C51.0712 13.7904 50.4625 12.6051 50.4625 11.4244C50.4625 10.6813 50.6456 8.94437 52.38 8.94437C54.2471 8.94437 54.3935 10.8044 54.3935 11.3742C54.3935 12.5458 53.881 13.7904 52.444 13.7904Z" fill="#0072AA"/>
<path fill-rule="evenodd" clip-rule="evenodd" d="M7.13441 23.9065V23.9521C7.01085 25.5249 6.03152 26.5096 4.57169 26.5096C4.12426 26.5341 3.6778 26.4464 3.27323 26.2545C2.86866 26.0625 2.51893 25.7724 2.2561 25.4109C1.74841 24.6279 1.49735 23.7072 1.53762 22.7759C1.51081 21.8876 1.76189 21.013 2.2561 20.2731C2.52098 19.9208 2.8673 19.6373 3.26565 19.4469C3.664 19.2564 4.10261 19.1645 4.54423 19.179C5.87135 19.179 6.79576 19.881 7.02915 21.0618V21.0983H8.33339V21.0435C8.28082 20.6066 8.14024 20.1848 7.92006 19.8033C7.69988 19.4218 7.40464 19.0885 7.05204 18.8234C6.32431 18.3104 5.44913 18.0464 4.55796 18.0712C3.94784 18.0495 3.34064 18.1648 2.78135 18.4086C2.22206 18.6525 1.72503 19.0186 1.32712 19.4799C0.576178 20.4475 0.184856 21.6444 0.219667 22.8671C0.219667 25.7938 1.84423 27.6174 4.45728 27.6174C5.46379 27.652 6.4457 27.3031 7.20305 26.6418C7.91545 25.9224 8.34149 24.9699 8.40203 23.9612V23.9065H7.13441Z" fill="#0072AA"/>
<path fill-rule="evenodd" clip-rule="evenodd" d="M9.56445 18.2764V27.394H10.7406V23.6512C10.7406 22.3976 11.4499 21.6545 12.6306 21.6545C12.8015 21.6394 12.9736 21.6616 13.135 21.7195C13.2964 21.7774 13.4432 21.8697 13.5651 21.9899C13.6871 22.1101 13.7813 22.2553 13.8412 22.4155C13.9011 22.5756 13.9252 22.7469 13.9119 22.9173V27.394H15.1017V23.0403C15.1017 21.4037 14.3512 20.6105 12.8136 20.6105C12.4151 20.5899 12.0179 20.6712 11.6598 20.8468C11.3017 21.0223 10.9947 21.2863 10.768 21.6134V18.2627L9.56445 18.2764Z" fill="#0072AA"/>
<path fill-rule="evenodd" clip-rule="evenodd" d="M17.55 22.9035V22.8533C17.5912 22.0464 18.0946 21.6681 19.138 21.6681C20.099 21.6681 20.5474 21.9963 20.5474 22.7029C20.5474 23.3001 19.948 23.3867 19.1105 23.5052C18.8771 23.5372 18.6529 23.5691 18.3829 23.6192C17.2388 23.838 16.1222 24.1754 16.1222 25.6707C16.1222 26.8514 16.9505 27.5535 18.3417 27.5535C18.765 27.5662 19.1861 27.4885 19.5768 27.3258C19.9675 27.163 20.3187 26.9189 20.6069 26.6098C20.5973 26.7366 20.6153 26.864 20.6598 26.9831C20.7042 27.1023 20.7741 27.2104 20.8646 27.3001C20.9551 27.3898 21.064 27.4589 21.1838 27.5026C21.3036 27.5464 21.4316 27.5637 21.5588 27.5535C21.8361 27.5675 22.1118 27.5043 22.3551 27.3711V26.4594H22.291C22.1921 26.499 22.0864 26.5191 21.9798 26.5186C21.7007 26.5186 21.6869 26.3682 21.6869 25.8302V22.4704C21.6869 21.2349 20.8678 20.6469 19.1791 20.6469C18.1541 20.6469 16.4334 20.9386 16.351 22.8716V22.9263L17.55 22.9035ZM18.5796 26.5095C18.2135 26.5095 17.3624 26.4229 17.3624 25.5978C17.3624 24.7726 18.003 24.5857 18.6391 24.4763C18.8313 24.4398 19.0327 24.417 19.2249 24.3897C19.6776 24.3672 20.1218 24.2589 20.5337 24.0705V25.0735C20.5337 25.6251 20.0029 26.505 18.5796 26.505V26.5095Z" fill="#0072AA"/>
<path fill-rule="evenodd" clip-rule="evenodd" d="M55.5377 27.403V18.2854H54.357V21.5814C54.1049 21.2711 53.784 21.0232 53.4196 20.8571C53.0551 20.691 52.657 20.6112 52.2565 20.6241C50.426 20.6241 49.2178 21.9917 49.2178 24.0705C49.1905 24.9467 49.4614 25.8063 49.9866 26.5095C50.261 26.848 50.6105 27.1184 51.0075 27.2995C51.4045 27.4807 51.8383 27.5676 52.2748 27.5535C53.2404 27.5535 53.9817 27.207 54.3433 26.6053V27.403H55.5377ZM52.4441 26.4913C51.0712 26.4913 50.4626 25.3014 50.4626 24.1298C50.4626 23.3867 50.6456 21.6498 52.38 21.6498C54.2472 21.6498 54.3936 23.5098 54.3936 24.0751C54.3936 25.2422 53.881 26.4913 52.4441 26.4913Z" fill="#0072AA"/>
<path fill-rule="evenodd" clip-rule="evenodd" d="M36.1937 25.347C36.1073 25.7033 35.8952 26.0168 35.5961 26.2302C35.2971 26.4436 34.9309 26.5428 34.5645 26.5096C34.2966 26.5223 34.0289 26.4803 33.7779 26.3862C33.5268 26.2922 33.2978 26.148 33.1047 25.9625C32.7367 25.5497 32.546 25.0095 32.5738 24.4581H37.475V24.4125C37.5592 23.3315 37.2104 22.2612 36.5049 21.4356C36.2386 21.167 35.9193 20.9563 35.5673 20.8166C35.2152 20.677 34.838 20.6114 34.4593 20.6241C32.6287 20.6241 31.3291 22.0692 31.3291 24.0706C31.4023 26.2862 32.5647 27.5535 34.5325 27.5535C35.1957 27.6007 35.8529 27.4013 36.377 26.9937C36.9011 26.5861 37.2548 25.9994 37.3698 25.347H36.1937ZM34.3998 21.6681C34.8728 21.6677 35.3276 21.8498 35.6689 22.1761C36.0102 22.5025 36.2113 22.9478 36.2303 23.4187H32.5693C32.5882 22.9478 32.7894 22.5025 33.1306 22.1761C33.4719 21.8498 33.9267 21.6677 34.3998 21.6681Z" fill="#0072AA"/>
<path fill-rule="evenodd" clip-rule="evenodd" d="M47.163 25.3607C47.0731 25.714 46.8596 26.0237 46.561 26.2343C46.2624 26.4448 45.8982 26.5424 45.5339 26.5096C45.2667 26.5222 44.9997 26.4802 44.7494 26.3861C44.4991 26.292 44.2708 26.1478 44.0786 25.9625C43.8933 25.7597 43.7501 25.5224 43.6574 25.2641C43.5647 25.0059 43.5243 24.732 43.5386 24.4581H48.449V24.4125C48.5301 23.3318 48.1817 22.2627 47.4788 21.4356C47.2125 21.167 46.8933 20.9563 46.5412 20.8166C46.1892 20.677 45.8119 20.6114 45.4332 20.6241C43.6027 20.6241 42.3076 22.0692 42.3076 24.0706C42.3763 26.2862 43.5386 27.5535 45.511 27.5535C46.1717 27.601 46.8266 27.4033 47.3496 26.9984C47.8726 26.5936 48.2268 26.0102 48.3437 25.3607H47.163ZM45.3691 21.6681C45.8422 21.6677 46.297 21.8498 46.6383 22.1761C46.9795 22.5025 47.1807 22.9478 47.1997 23.4187H43.5386C43.5576 22.9478 43.7587 22.5025 44.1 22.1761C44.4413 21.8498 44.8961 21.6677 45.3691 21.6681Z" fill="#0072AA"/>
<path fill-rule="evenodd" clip-rule="evenodd" d="M24.5883 27.4076V24.4489C24.5883 22.6756 25.3296 21.855 26.913 21.855H26.9634V20.6241H26.9176C26.4199 20.5814 25.9214 20.6959 25.4927 20.9511C25.064 21.2064 24.7267 21.5896 24.5288 22.0464V20.7654H23.4167V27.4076H24.5883Z" fill="#0072AA"/>
<path fill-rule="evenodd" clip-rule="evenodd" d="M39.8136 27.4031V24.449C39.8136 22.6756 40.5503 21.855 42.1383 21.855H42.1841V20.6241H42.1383C41.6406 20.5807 41.1417 20.6949 40.7129 20.9502C40.284 21.2056 39.9469 21.5892 39.7495 22.0465V20.77H38.6375V27.4031H39.8136Z" fill="#0072AA"/>
<path fill-rule="evenodd" clip-rule="evenodd" d="M30.7434 26.3683H29.9059C29.343 26.3683 29.1142 26.0126 29.1142 25.4884V21.814H30.7434V20.7746H29.1142V18.8188H27.9381V25.4747C27.9381 26.8834 28.6474 27.4851 29.9059 27.4851H30.7434V26.3683Z" fill="#0072AA"/>
<path fill-rule="evenodd" clip-rule="evenodd" d="M66.7861 29.8922C66.1076 30.3496 65.3162 30.6129 64.498 30.6535C63.5403 30.6401 62.6232 30.266 61.9312 29.6062C61.2392 28.9465 60.8237 28.0502 60.7683 27.0976L64.6261 24.8182L70.621 27.4897L66.7953 29.9013L66.7861 29.8922Z" fill="#72B0D2"/>
<path fill-rule="evenodd" clip-rule="evenodd" d="M69.1017 20.0588L66.237 18.8051C64.9556 18.2353 63.7475 17.7611 63.7475 16.357C63.7323 16.0831 63.7755 15.8092 63.874 15.553C63.9726 15.2969 64.1244 15.0644 64.3195 14.8708L70.3785 17.5287L68.8775 18.3948C68.461 18.6455 68.1773 18.8507 68.1773 19.1881C68.1773 19.5254 68.5709 19.8217 69.0925 20.0588H69.1017Z" fill="#A5D1A1"/>
<path fill-rule="evenodd" clip-rule="evenodd" d="M71.8886 6.89296L68.9552 8.67091C68.6944 8.82591 68.3465 9.0812 68.3465 9.46871C68.3465 9.8562 69.0239 10.2528 69.6233 10.5355L65.9623 8.92164C64.8778 8.46576 63.7977 7.90958 63.7977 6.61031C63.7927 6.12339 63.9364 5.64643 64.2096 5.24267L72.154 0.405762C72.7116 0.709252 73.1787 1.15409 73.5082 1.69526C73.8377 2.23643 74.0178 2.85473 74.0303 3.48753C74.0303 5.05121 73.234 6.09516 71.8977 6.89296H71.8886Z" fill="#72B0D2"/>
<path fill-rule="evenodd" clip-rule="evenodd" d="M78.1352 12.6097L77.4076 13.0246L71.3395 10.3531L78.3915 6.12708C78.9495 6.43084 79.4175 6.87552 79.7485 7.41645C80.0794 7.95739 80.2617 8.57554 80.2769 9.20884C80.2769 10.768 79.5035 11.8438 78.1352 12.6097Z" fill="#A5D1A1"/>
<path fill-rule="evenodd" clip-rule="evenodd" d="M73.0144 17.7429L76.6022 19.3157C77.9476 19.9129 78.3641 20.6195 78.3641 21.5085C78.3509 21.7728 78.2817 22.0313 78.1611 22.267C78.0404 22.5028 77.8709 22.7104 77.6639 22.8762L71.6278 20.2047L72.6483 19.6348C73.5132 19.179 73.8015 18.8735 73.8015 18.559C73.8015 18.2444 73.5956 18.0119 73.0144 17.7475V17.7429Z" fill="#72B0D2"/>
<path fill-rule="evenodd" clip-rule="evenodd" d="M79.4121 30.9407C77.8194 29.7899 76.096 28.8305 74.2775 28.0823L65.125 24.0478C62.8368 23.0266 61.2992 21.6681 61.2992 19.375C61.2992 17.0819 62.3838 16.0744 63.7887 15.1854L64.2966 14.8708C64.1016 15.0644 63.9498 15.2969 63.8512 15.553C63.7526 15.8092 63.7095 16.0831 63.7246 16.357C63.7246 17.7611 64.9327 18.2353 66.2141 18.8051L76.8814 23.4779C78.7119 24.2711 80.428 25.6342 80.428 27.9547C80.4456 29.0333 80.0955 30.0859 79.435 30.9407H79.4121Z" fill="#22AA47"/>
<path fill-rule="evenodd" clip-rule="evenodd" d="M78.332 22.4568L77.6639 22.8716C77.8709 22.7059 78.0404 22.4983 78.161 22.2626C78.2817 22.0268 78.3509 21.7683 78.364 21.504C78.364 20.615 77.9476 19.9084 76.6022 19.3112L65.221 14.2965C62.9329 13.2844 61.4913 11.9761 61.4913 9.69666C61.4913 7.59505 62.5393 6.22283 64.2005 5.21533C63.9272 5.6191 63.7836 6.09605 63.7886 6.58298C63.7886 7.88224 64.8686 8.40651 65.9532 8.89431L77.0186 13.7586C79.0276 14.643 80.6796 15.9833 80.6796 18.4314C80.6796 20.3369 79.7644 21.5405 78.3549 22.4295L78.332 22.4568Z" fill="#0072AA"/>
</g>
<defs>
<clipPath id="clip0_1445_4531">
<rect width="81" height="31" fill="white"/>
</clipPath>
</defs>
</svg>
